<?xml version="1.0" standalone="no"?>
<!DOCTYPE svg PUBLIC "-//W3C//DTD SVG 1.1//EN" "http://www.w3.org/Graphics/SVG/1.1/DTD/svg11.dtd" >
<svg>
<metadata>
Created by FontForge 20090914 at Tue Oct 19 11:10:41 2021
 By www-data
Copyright 2019 The Commissioner Project Authors (https://github.com/kosbarts/Commissioner)
</metadata>
<defs>
<font id="Commissioner-Light" horiz-adv-x="0" >
  <font-face 
    font-family="Commissioner Light"
    font-weight="300"
    font-stretch="normal"
    units-per-em="2000"
    panose-1="0 0 0 0 0 0 0 0 0 0"
    ascent="1600"
    descent="-400"
    x-height="991"
    cap-height="1426"
    bbox="-249 -568.003 2663 2307"
    underline-thickness="50"
    underline-position="-75"
    unicode-range="U+000D-U+FB02"
  />
<missing-glyph horiz-adv-x="1259" 
d="M89 -384v2020h1081v-2020h-1081zM167 -306h925v1864h-925v-1864zM647 396c-61.333 0 -109.832 15.0049 -145.499 45.0049s-53.5 70 -53.5 120c0 52 17.833 95.833 53.5 131.5s75.5 69.167 119.5 100.5c29.333 21.333 57.333 43.666 84 66.999s48.667 49.166 66 77.499
s26 60.833 26 97.5c0 48 -16.833 84.667 -50.5 110s-80.167 38 -139.5 38c-25.333 0 -51 -2.33301 -77 -7s-52.5 -11.834 -79.5 -21.501s-54.5 -21.834 -82.5 -36.501l-6 98c18.667 8.66699 41.167 17.667 67.5 27s55.833 17.333 88.5 24s67.334 10 104.001 10
c83.333 0 150.666 -19.333 201.999 -58s77 -95.334 77 -170.001c0 -50.667 -11 -94.5 -33 -131.5s-49.333 -69.5 -82 -97.5s-65 -54 -97 -78c-37.333 -28 -70.5 -55.833 -99.5 -83.5s-43.5 -59.167 -43.5 -94.5c0 -38 12.333 -64.5 37 -79.5s53.334 -22.5 86.001 -22.5
c21.333 0 40.666 2.16699 57.999 6.5s31.666 8.83301 42.999 13.5l6 -67c-9.33301 -3.33301 -21 -6.33301 -35 -9s-29 -5 -45 -7s-32.333 -3 -49 -3zM611.001 19.0049c-29.333 0 -52.666 8.66699 -69.999 26s-26 40 -26 68c0 29.333 8.66699 52.666 26 69.999
s40.666 26 69.999 26c30.667 0 54.5 -8.66699 71.5 -26s25.5 -40.666 25.5 -69.999c0 -28 -8.5 -50.667 -25.5 -68s-40.833 -26 -71.5 -26z" />
    <glyph glyph-name="fi" unicode="fi" horiz-adv-x="1285" 
d="M246 0l0.00195312 214v225v100v128.5v139v152.5v170c0 68 9.16699 125.167 27.5 171.5s43.666 83.333 75.999 111s69.666 47.667 111.999 60s87.833 18.5 136.5 18.5c22 0 43.667 -1 65 -3s41 -5 59 -9s33.667 -8.33301 47 -13l-13 -116c-20.667 8 -43.167 14 -67.5 18
s-49.833 6 -76.5 6c-84.667 0 -146 -20.5 -184 -61.5s-57 -102.5 -57 -184.5v-76v-60l4 -35v-517v-225v-214h-129zM52.002 885v106h677v-106h-200h-196h-50h-231zM970.002 0v214v225v100v161v146v145l128 4v-145.5v-147v-163.5v-100v-225v-214h-128zM1030 1240
c-30.667 0 -55.834 9 -75.501 27s-29.5 45.667 -29.5 83c0 36.667 9.83301 64.167 29.5 82.5s45.5 27.5 77.5 27.5s57.667 -9.5 77 -28.5s29 -46.167 29 -81.5c0 -37.333 -9.66699 -65 -29 -83s-45.666 -27 -78.999 -27z" />
    <glyph glyph-name="fl" unicode="fl" horiz-adv-x="1281" 
d="M246 0v214v225v100v128.5v139v153v169.5c0 68 9.16699 125.167 27.5 171.5s43.666 83.333 75.999 111s69.666 47.667 111.999 60s87.833 18.5 136.5 18.5c20.667 0 40.834 -1 60.501 -3s37.834 -4.66699 54.501 -8s31 -7 43 -11v-119c-20.667 8 -43.167 14 -67.5 18
s-49.833 6 -76.5 6c-84.667 0 -146 -20.5 -184 -61.5s-57 -102.5 -57 -184.5v-76v-60l4 -35v-517v-225v-214h-129zM52 887v104h677v-104h-200h-196h-50h-231zM968 0v214v225v549v245v230l129 19v-242.5v-251.5v-549v-225v-214h-129z" />
    <glyph glyph-name="f_f" unicode="ff" horiz-adv-x="1522" 
d="M985 0v214v225v100v128.5v139v153v169.5c0 68 9.16699 125.167 27.5 171.5s43.833 83.333 76.5 111s70.167 47.667 112.5 60s87.5 18.5 135.5 18.5c22 0 43.5 -1 64.5 -3s40.667 -5 59 -9s34.166 -8.33301 47.499 -13l-12 -116c-21.333 8 -44.166 14 -68.499 18
s-49.833 6 -76.5 6c-84.667 0 -146 -20.5 -184 -61.5s-57 -102.5 -57 -184.5v-76v-60l4 -35v-517v-225v-214h-129zM791 885v106h677v-106h-200h-196h-49h-232zM246 0l0.00195312 214v225v100v128.5v139v153v169.5c0 68 9.16699 125.167 27.5 171.5s43.666 83.333 75.999 111
s69.666 47.667 111.999 60s87.833 18.5 136.5 18.5c22 0 43.667 -1 65 -3s41 -5 59 -9s33.667 -8.33301 47 -13l-13 -116c-20.667 8 -43.167 14 -67.5 18s-49.833 6 -76.5 6c-84.667 0 -146 -20.5 -184 -61.5s-57 -102.5 -57 -184.5v-76v-60l4 -35v-517v-225v-214h-129z
M52.002 885v106h677v-106h-200h-196h-50h-231z" />
    <glyph glyph-name="f_f_i" unicode="ffi" horiz-adv-x="2024" 
d="M985 0v214v225v100v128.5v139v153v169.5c0 68 9.16699 125.167 27.5 171.5s43.833 83.333 76.5 111s70.167 47.667 112.5 60s87.5 18.5 135.5 18.5c22 0 43.5 -1 64.5 -3s40.667 -5 59 -9s34.166 -8.33301 47.499 -13l-12 -116c-21.333 8 -44.166 14 -68.499 18
s-49.833 6 -76.5 6c-84.667 0 -146 -20.5 -184 -61.5s-57 -102.5 -57 -184.5v-76v-60l4 -35v-517v-225v-214h-129zM791 885v106h677v-106h-200h-196h-49h-232zM246 0l0.00195312 214v225v100v128.5v139v153v169.5c0 68 9.16699 125.167 27.5 171.5s43.666 83.333 75.999 111
s69.666 47.667 111.999 60s87.833 18.5 136.5 18.5c22 0 43.667 -1 65 -3s41 -5 59 -9s33.667 -8.33301 47 -13l-13 -116c-20.667 8 -43.167 14 -67.5 18s-49.833 6 -76.5 6c-84.667 0 -146 -20.5 -184 -61.5s-57 -102.5 -57 -184.5v-76v-60l4 -35v-517v-225v-214h-129z
M52.002 885v106h677v-106h-200h-196h-50h-231zM1709 0v214v225v100v161v146v145l128 4v-145.5v-147v-163.5v-100v-225v-214h-128zM1769 1240c-30.667 0 -55.834 9 -75.501 27s-29.5 45.667 -29.5 83c0 36.667 9.83301 64.167 29.5 82.5s45.5 27.5 77.5 27.5
s57.667 -9.5 77 -28.5s29 -46.167 29 -81.5c0 -37.333 -9.66699 -65 -29 -83s-45.666 -27 -78.999 -27z" />
    <glyph glyph-name="f_f_l" unicode="ffl" horiz-adv-x="2020" 
d="M246 0l0.00195312 214v225v100v128.5v139v153v169.5c0 68 9.16699 125.167 27.5 171.5s43.666 83.333 75.999 111s69.666 47.667 111.999 60s87.833 18.5 136.5 18.5c22 0 43.667 -1 65 -3s41 -5 59 -9s33.667 -8.33301 47 -13l-13 -116c-20.667 8 -43.167 14 -67.5 18
s-49.833 6 -76.5 6c-84.667 0 -146 -20.5 -184 -61.5s-57 -102.5 -57 -184.5v-76v-60l4 -35v-517v-225v-214h-129zM52.002 885v106h677v-106h-200h-196h-50h-231zM985.002 0l-0.00390625 214v225v100v128.5v139v153v169.5c0 68 9.16699 125.167 27.5 171.5
s43.833 83.333 76.5 111s70.167 47.667 112.5 60s87.5 18.5 135.5 18.5c20.667 0 40.834 -1 60.501 -3s37.834 -4.66699 54.501 -8s31.334 -7 44.001 -11v-119c-21.333 8 -44.166 14 -68.499 18s-49.833 6 -76.5 6c-84.667 0 -146 -20.5 -184 -61.5s-57 -102.5 -57 -184.5
v-76v-60l4 -35v-517v-225v-214h-129zM790.998 885v106h677v-106h-200h-196h-49h-232zM1707 0v214v225v549v245v230l129 19v-242.5v-251.5v-549v-225v-214h-129z" />
    <glyph glyph-name=".notdef" horiz-adv-x="1259" 
d="M89 -384v2020h1081v-2020h-1081zM167 -306h925v1864h-925v-1864zM647 396c-61.333 0 -109.832 15.0049 -145.499 45.0049s-53.5 70 -53.5 120c0 52 17.833 95.833 53.5 131.5s75.5 69.167 119.5 100.5c29.333 21.333 57.333 43.666 84 66.999s48.667 49.166 66 77.499
s26 60.833 26 97.5c0 48 -16.833 84.667 -50.5 110s-80.167 38 -139.5 38c-25.333 0 -51 -2.33301 -77 -7s-52.5 -11.834 -79.5 -21.501s-54.5 -21.834 -82.5 -36.501l-6 98c18.667 8.66699 41.167 17.667 67.5 27s55.833 17.333 88.5 24s67.334 10 104.001 10
c83.333 0 150.666 -19.333 201.999 -58s77 -95.334 77 -170.001c0 -50.667 -11 -94.5 -33 -131.5s-49.333 -69.5 -82 -97.5s-65 -54 -97 -78c-37.333 -28 -70.5 -55.833 -99.5 -83.5s-43.5 -59.167 -43.5 -94.5c0 -38 12.333 -64.5 37 -79.5s53.334 -22.5 86.001 -22.5
c21.333 0 40.666 2.16699 57.999 6.5s31.666 8.83301 42.999 13.5l6 -67c-9.33301 -3.33301 -21 -6.33301 -35 -9s-29 -5 -45 -7s-32.333 -3 -49 -3zM611.001 19.0049c-29.333 0 -52.666 8.66699 -69.999 26s-26 40 -26 68c0 29.333 8.66699 52.666 26 69.999
s40.666 26 69.999 26c30.667 0 54.5 -8.66699 71.5 -26s25.5 -40.666 25.5 -69.999c0 -28 -8.5 -50.667 -25.5 -68s-40.833 -26 -71.5 -26z" />
    <glyph glyph-name="NULL" 
 />
    <glyph glyph-name="NULL" 
 />
    <glyph glyph-name="CR" unicode="&#xd;" horiz-adv-x="383" 
 />
    <glyph glyph-name="space" unicode=" " horiz-adv-x="383" 
 />
    <glyph glyph-name="exclam" unicode="!" horiz-adv-x="457" 
d="M177 486c-1.33301 166 -4.83203 330.332 -10.499 492.999s-11.834 324.334 -18.501 485.001l165 6l-18 -488c-6 -164 -9.66699 -328.667 -11 -494zM228.001 -21.001c-23.333 0 -44 5.00195 -62 15.002s-31.667 23.667 -41 41s-14 37.666 -14 60.999
c0 36 10.667 64.167 32 84.5s50 30.5 86 30.5c24 0 44.833 -4.66699 62.5 -14s31.167 -22.5 40.5 -39.5s14 -37.5 14 -61.5c0 -34.667 -10.333 -62.834 -31 -84.501s-49.667 -32.5 -87 -32.5z" />
    <glyph glyph-name="quotedbl" unicode="&#x22;" horiz-adv-x="708" 
d="M122 894c-1.33301 100 -4.83203 199.168 -10.499 297.501s-11.834 196.166 -18.501 293.499l157 3l-17.5 -293.5c-5.66699 -99 -9.16699 -198.5 -10.5 -298.5zM440.001 894.001c-1.33301 100 -4.83203 199.168 -10.499 297.501s-11.834 196.166 -18.501 293.499l157 3
l-17.5 -293.5c-5.66699 -99 -9.16699 -198.5 -10.5 -298.5z" />
    <glyph glyph-name="numbersign" unicode="#" horiz-adv-x="1357" 
d="M36 319v104h177.5h160.5h494h160.5h176.5v-104h-176.5h-160.5h-494h-160.5h-177.5zM246 0l41.5 199l45.5 222l94 456l32.5 159.5l28.5 138.5l29 138h108l-28 -137l-28.5 -139.5l-32.5 -160.5l-94 -455l-45.5 -221.5l-41.5 -199.5h-109zM152 884v104h177.5h160.5h494h160
h177v-104h-177h-160h-494h-160.5h-177.5zM717 0l41.5 199l45.5 222l93 456l33.5 160l28.5 138.5l28 137.5h109l-28 -137l-28.5 -139.5l-33.5 -160.5l-94 -455l-44.5 -221.5l-41.5 -199.5h-109z" />
    <glyph glyph-name="dollar" unicode="$" horiz-adv-x="1117" 
d="M577 -20c-56.667 0 -113.505 5.33008 -170.505 15.9971s-109.167 24.167 -156.5 40.5s-85.666 33.166 -114.999 50.499l14 123c42.667 -23.333 86.667 -43.333 132 -60s92.333 -29.667 141 -39s99 -14 151 -14c62 0 118 8.83301 168 26.5s89.833 46 119.5 85
s44.5 91.167 44.5 156.5c0 52 -15 94.5 -45 127.5s-73.167 61.667 -129.5 86s-123.5 48.833 -201.5 73.5c-87.333 28 -161.666 57.833 -222.999 89.5s-108.166 70.334 -140.499 116.001s-48.5 103.167 -48.5 172.5c0 68.667 16.5 130.334 49.5 185.001s81.667 98 146 130
s143.833 48 238.5 48c40 0 79.5 -3 118.5 -9s76 -14 111 -24s67 -21.167 96 -33.5s53.167 -24.833 72.5 -37.5l-15 -126c-38.667 26 -79.5 47.167 -122.5 63.5s-86.167 28.5 -129.5 36.5s-84 12 -122 12c-54.667 0 -106 -8.5 -154 -25.5s-87 -43.333 -117 -79
s-45 -82.5 -45 -140.5c0 -46.667 12.333 -85.167 37 -115.5s63.334 -57.333 116.001 -81s121 -49.167 205 -76.5c108.667 -35.333 194.334 -71.166 257.001 -107.499s107 -77.166 133 -122.499s39 -99.333 39 -162c0 -72 -16 -137 -48 -195s-81.5 -104.167 -148.5 -138.5
s-152.833 -51.5 -257.5 -51.5zM515.995 -274.003v172.5v164v160.5v161v564v161v160.5v164.5v172h107v-172v-164.5v-160.5v-161v-564v-161v-160.5v-164v-172.5h-107z" />
    <glyph glyph-name="percent" unicode="%" horiz-adv-x="1729" 
d="M394 0l123 216l138 242l282 496l97.5 173l85.5 150l85 149h124l-84 -149l-85.5 -150l-98.5 -173l-282 -496l-137 -242l-123 -216h-125zM438 747c-70.667 0 -133.499 14.5 -188.499 43.5s-98.167 69.667 -129.5 122s-47 113.833 -47 184.5c0 68 15.667 128.5 47 181.5
s74.666 95 129.999 126s118.666 46.5 189.999 46.5c70.667 0 133.334 -15.5 188.001 -46.5s97.5 -73 128.5 -126s46.5 -113.5 46.5 -181.5c0 -70.667 -15.5 -132.167 -46.5 -184.5s-74 -93 -129 -122s-118.167 -43.5 -189.5 -43.5zM438.001 845
c81.333 0 144.667 22.167 190 66.5s68 106.166 68 185.499c0 50.667 -10.333 95.167 -31 133.5s-50 68.333 -88 90s-83.667 32.5 -137 32.5c-80 0 -143.167 -23.667 -189.5 -71s-69.5 -109 -69.5 -185c0 -79.333 23.167 -141.166 69.5 -185.499s108.833 -66.5 187.5 -66.5z
M1287 -21c-70.667 0 -133.499 14.5 -188.499 43.5s-98.167 69.833 -129.5 122.5s-47 114.334 -47 185.001c0 67.333 15.667 127.5 47 180.5s74.666 95.167 129.999 126.5s118.666 47 189.999 47c70.667 0 133.334 -15.667 188.001 -47s97.5 -73.5 128.5 -126.5
s46.5 -113.167 46.5 -180.5c0 -70.667 -15.5 -132.334 -46.5 -185.001s-74 -93.5 -129 -122.5s-118.167 -43.5 -189.5 -43.5zM1287 77c81.333 0 144.667 22.332 190 66.999s68 106.334 68 185.001c0 50.667 -10.333 95.334 -31 134.001s-50 68.667 -88 90
s-83.667 32 -137 32c-80 0 -143.167 -23.667 -189.5 -71s-69.5 -109 -69.5 -185c0 -78.667 23.167 -140.334 69.5 -185.001s108.833 -67 187.5 -67z" />
    <glyph glyph-name="ampersand" unicode="&#x26;" horiz-adv-x="1451" 
d="M1246 0l-135.999 135.997l-138 136l-468 466c-64.667 64 -115.667 125.667 -153 185s-56 125.666 -56 198.999c0 68 15.167 126.667 45.5 176s70.833 87.333 121.5 114s107 40 169 40c61.333 0 117 -12.5 167 -37.5s89.833 -60.5 119.5 -106.5s44.5 -101.667 44.5 -167
c0 -55.333 -10 -103.5 -30 -144.5s-46.833 -76.5 -80.5 -106.5s-70.167 -55.667 -109.5 -77s-78.333 -39.666 -117 -54.999l-62 83c50.667 21.333 97 44.833 139 70.5s75.333 56.834 100 93.501s37 81.334 37 134.001c0 62 -19.167 111.833 -57.5 149.5
s-86.833 56.5 -145.5 56.5c-64.667 0 -115.834 -21.167 -153.501 -63.5s-56.5 -95.166 -56.5 -158.499c0 -54 14.5 -104.5 43.5 -151.5s74.5 -101.5 136.5 -163.5l462 -461l174.5 -174l172.5 -173h-169zM543.001 -20.0029c-97.333 0 -178.336 17.4971 -243.003 52.4971
s-113.167 81.833 -145.5 140.5s-48.5 123.334 -48.5 194.001c0 81.333 18.333 151.166 55 209.499s83.334 107.833 140.001 148.5s114.334 74.334 173.001 101.001l58 -88c-56.667 -26 -107.5 -56 -152.5 -90s-80.5 -73.167 -106.5 -117.5s-39 -95.5 -39 -153.5
c0 -56.667 12.5 -106.167 37.5 -148.5s61.5 -75.166 109.5 -98.499s106.333 -35 175 -35c50.667 0 97.334 8.33301 140.001 25s83.5 42.334 122.5 77.001s78.167 79.667 117.5 135l82 -74l7 -29h-25c-41.333 -52.667 -84.333 -97.5 -129 -134.5s-93.5 -65.333 -146.5 -85
s-113.5 -29.5 -181.5 -29.5zM1085 317.994l-84 76l116.5 183.5l113.5 179.5l110 -67l-127 -185.5z" />
    <glyph glyph-name="quotesingle" unicode="'" horiz-adv-x="391" 
d="M122 894c-1.33301 100 -4.83203 199.168 -10.499 297.501s-11.834 196.166 -18.501 293.499l157 3l-17.5 -293.5c-5.66699 -99 -9.16699 -198.5 -10.5 -298.5z" />
    <glyph glyph-name="parenleft" unicode="(" horiz-adv-x="756" 
d="M570 -236c-64 48.667 -123 102.332 -177 160.999s-101 124 -141 196s-71 151.5 -93 238.5s-33 183.167 -33 288.5s11 201.666 33 288.999s53 166.833 93 238.5s87 136.834 141 195.501s113 112 177 160l98 -47c-71.333 -56.667 -138.166 -123.5 -200.499 -200.5
s-112.833 -167.667 -151.5 -272s-58 -225.5 -58 -363.5s19.333 -259.167 58 -363.5s89.167 -195.166 151.5 -272.499s129.166 -144.333 200.499 -201z" />
    <glyph glyph-name="parenright" unicode=")" horiz-adv-x="756" 
d="M186 -236l-99 47.002c72 56.667 139.167 123.667 201.5 201s112.666 168 150.999 272s57.5 225.333 57.5 364c0 137.333 -19.167 258.166 -57.5 362.499s-88.666 195.166 -150.999 272.499s-129.5 144.333 -201.5 201l99 47c64 -48 123 -101.5 177 -160.5
s101 -124.333 141 -196s71 -151.167 93 -238.5s33 -183.333 33 -288c0 -106 -11 -202.5 -33 -289.5s-53 -166.5 -93 -238.5s-87 -137.167 -141 -195.5s-113 -111.833 -177 -160.5z" />
    <glyph glyph-name="asterisk" unicode="*" horiz-adv-x="936" 
d="M827 755l-187.5 126.5l-188.5 124.5l-197.5 113.5l-197.5 111.5l53 87l188.5 -126l188.5 -127l196.5 -111l196.5 -112zM109 755l-53 87l197.5 112.5l197.5 112.5l188.5 125.5l187.5 125.5l52 -87l-197 -111.5l-196 -111.5l-188 -126zM417 583
c2.66699 76 5.5 151.832 8.5 227.499s5.83301 151.5 8.5 227.5c-2.66699 74.667 -5.5 149.834 -8.5 225.501s-5.83301 151.167 -8.5 226.5h102c-3.33301 -75.333 -6.33301 -150.833 -9 -226.5l-8 -225.5l8 -227.5c2.66699 -75.667 5.66699 -151.5 9 -227.5h-102z" />
    <glyph glyph-name="plus" unicode="+" horiz-adv-x="1171" 
d="M526 122v178v160v270v160.5v177.5h119v-177.5v-160.5v-270v-160v-178h-119zM129 536v118h177.5h159.5h238h160.5h176.5v-118h-176.5h-160.5h-238h-159.5h-177.5z" />
    <glyph glyph-name="comma" unicode="," horiz-adv-x="449" 
d="M72 -314c26 37.333 46.6699 74.165 62.0029 110.498s26.166 74.333 32.499 114s9.5 82.834 9.5 129.501v87v88l70 5c31.333 -2.66699 54.166 -14.667 68.499 -36s21.5 -48.333 21.5 -81c0 -39.333 -5 -78.666 -15 -117.999s-23.667 -77.333 -41 -114
s-37.333 -70.5 -60 -101.5s-46.334 -58.167 -71.001 -81.5z" />
    <glyph glyph-name="hyphen" unicode="-" horiz-adv-x="844" 
d="M129 535v117h154.5h138.5h139h153v-117h-153h-139h-138.5h-154.5z" />
    <glyph glyph-name="period" unicode="." horiz-adv-x="457" 
d="M228 -21c-23.333 0 -44 5.00195 -62 15.002s-31.667 23.667 -41 41s-14 37.666 -14 60.999c0 36 10.667 64.167 32 84.5s50 30.5 86 30.5c24 0 44.833 -4.66699 62.5 -14s31.167 -22.5 40.5 -39.5s14 -37.5 14 -61.5c0 -34.667 -10.333 -62.834 -31 -84.501
s-49.667 -32.5 -87 -32.5z" />
    <glyph glyph-name="slash" unicode="/" horiz-adv-x="885" 
d="M66 0l94.5 216l104.5 240l217 496l109.5 250.5l97.5 223.5h130l-65 -150l-67 -152l-77 -176l-214 -492l-106 -241l-94 -215h-130z" />
    <glyph glyph-name="zero" unicode="0" horiz-adv-x="1299" 
d="M654 -20c-91.333 0 -170.834 17.501 -238.501 52.501s-123.5 84.167 -167.5 147.5s-76.833 138.166 -98.5 224.499s-32.5 180.833 -32.5 283.5c0 142 20.333 266 61 372s100.5 188.5 179.5 247.5s176.167 88.5 291.5 88.5c88.667 0 166 -17 232 -51
s121.333 -82.167 166 -144.5s78.167 -136.833 100.5 -223.5s33.5 -183 33.5 -289c0 -144.667 -20.333 -270 -61 -376s-100.167 -187.833 -178.5 -245.5s-174.166 -86.5 -287.499 -86.5zM649.999 99.001c94 0 169.831 25.832 227.498 77.499s99.834 121.834 126.501 210.501
s40 189 40 301c0 119.333 -14 223 -42 311s-71.167 156.167 -129.5 204.5s-132.5 72.5 -222.5 72.5c-92 0 -167.167 -25.5 -225.5 -76.5s-101.166 -120.667 -128.499 -209s-41 -189.166 -41 -302.499c0 -114 13.333 -215.333 40 -304s69 -158.334 127 -209.001
s134 -76 228 -76z" />
    <glyph glyph-name="one" unicode="1" horiz-adv-x="842" 
d="M103 1002l-34 111l240.5 131.5l239.5 131.5l-3 -128l-221.5 -123zM483 0v214v225v438v216.5v217.5l66 65l66 -6v-230v-245v-456v-225v-214h-132z" />
    <glyph glyph-name="two" unicode="2" horiz-adv-x="1101" 
d="M100 0l-0.00390625 97.9941l126.5 111.5l126.5 110.5c98.667 86.667 183.334 167.834 254.001 243.501s124.667 148.834 162 219.501s56 141.667 56 213c0 92.667 -25 162.334 -75 209.001s-126 70 -228 70c-32 0 -65 -3 -99 -9s-68.5 -14.5 -103.5 -25.5
s-70 -25.167 -105 -42.5s-69.833 -37.666 -104.5 -60.999l-16 136c29.333 16.667 61.5 32.5 96.5 47.5s72 28 111 39s78.5 19.833 118.5 26.5s80 10 120 10c90 0 166.333 -15.833 229 -47.5s110.334 -76.334 143.001 -134.001s49 -126.167 49 -205.5
c0 -77.333 -18.167 -154.166 -54.5 -230.499s-89.666 -154.666 -159.999 -234.999s-157.166 -165.166 -260.499 -254.499l-229 -199l-23 29h287h234.5h234.5v-119h-890z" />
    <glyph glyph-name="three" unicode="3" horiz-adv-x="1135" 
d="M551 -20c-41.333 0 -82.832 2.83203 -124.499 8.49902s-82.5 13.5 -122.5 23.5s-77.833 21.833 -113.5 35.5s-68.167 28.167 -97.5 43.5l15 130c36.667 -20 73.5 -37.667 110.5 -53s73.833 -28 110.5 -38s72.834 -17.5 108.501 -22.5s70.167 -7.5 103.5 -7.5
c122.667 0 211.667 25.5 267 76.5s83 115.833 83 194.5c0 94 -38 166 -114 216s-181.333 75 -316 75h-59h-59v113h56h56c91.333 0 165.5 12 222.5 36s98.833 56.5 125.5 97.5s40 87.167 40 138.5c0 78 -28 135.5 -84 172.5s-126.667 55.5 -212 55.5
c-31.333 0 -63.833 -3.16699 -97.5 -9.5s-67.834 -15.333 -102.501 -27s-69.334 -26.334 -104.001 -44.001s-68.667 -38.167 -102 -61.5l-17 133c28.667 18 60.167 34.833 94.5 50.5s70.5 29.5 108.5 41.5s76.667 21.333 116 28s78.666 10 117.999 10
c81.333 0 153.5 -13.5 216.5 -40.5s112.167 -65.167 147.5 -114.5s53 -108 53 -176c0 -57.333 -12.167 -108.666 -36.5 -153.999s-56.666 -82.833 -96.999 -112.5s-84.5 -50.167 -132.5 -61.5v-15c36 -6 72.5 -17.667 109.5 -35s71 -40.666 102 -69.999
s55.833 -65 74.5 -107s28 -91 28 -147c0 -71.333 -17.333 -136 -52 -194s-87.167 -104 -157.5 -138s-158.833 -51 -265.5 -51z" />
    <glyph glyph-name="four" unicode="4" horiz-adv-x="1192" 
d="M737 0v178v197l3 28v467v215.5v215.5l103 34l-113 -162l-112 -158l-244 -346l-97 -138.5l-98 -137.5l-5 50h598h27h112.5h122h106.5v-119h-106.5h-122h-112.5h-735v93l95 135l105 149.5l99 139.5l179 254l97.5 138l96.5 137h132v-243.5v-238.5v-513v-197v-178h-131z" />
    <glyph glyph-name="five" unicode="5" horiz-adv-x="1145" 
d="M546 -20c-40.667 0 -81.6689 2.83203 -123.002 8.49902s-81.666 13.5 -120.999 23.5s-76.666 22 -111.999 36s-67.666 28.667 -96.999 44l15 129c36.667 -20 73.334 -37.667 110.001 -53s73.167 -28 109.5 -38s72.166 -17.5 107.499 -22.5s69.666 -7.5 102.999 -7.5
c121.333 0 212.166 29.833 272.499 89.5s90.5 142.834 90.5 249.501c0 78.667 -15.5 141.5 -46.5 188.5s-72.5 81 -124.5 102s-109.667 31.5 -173 31.5c-55.333 0 -107.666 -6.83301 -156.999 -20.5s-102.333 -40.167 -159 -79.5l-61 6v210v257v236h772v-118h-243.5h-243.5
h-205l49 47c0 -66 -0.166992 -132 -0.5 -198s-0.833008 -131.667 -1.5 -197v-99h16c38.667 22.667 81.5 40.5 128.5 53.5s96.5 19.5 148.5 19.5c80 0 153 -15.833 219 -47.5s118.667 -79.667 158 -144s59 -145.5 59 -243.5c0 -92.667 -18.667 -173.667 -56 -243
s-92.5 -123.333 -165.5 -162s-162.5 -58 -268.5 -58z" />
    <glyph glyph-name="six" unicode="6" horiz-adv-x="1208" 
d="M631 -20c-110 0 -203.161 25.833 -279.494 77.5s-134.5 127.5 -174.5 227.5s-60 222.667 -60 368c0 118.667 11.667 224.167 35 316.5s57.333 170.166 102 233.499s100 111.333 166 144s142 49 228 49c34.667 0 68.834 -2.5 102.501 -7.5s66.334 -12 98.001 -21
s62 -19.667 91 -32s55.833 -25.833 80.5 -40.5l-18 -129c-26.667 18.667 -54.334 34.834 -83.001 48.501s-57.834 24.834 -87.501 33.501s-59.334 15.167 -89.001 19.5s-59.167 6.5 -88.5 6.5c-94 0 -170.833 -23.833 -230.5 -71.5s-103.834 -118 -132.501 -211
s-43 -207.167 -43 -342.5c0 -120.667 14.5 -221.834 43.5 -303.501s71.667 -143 128 -184s125.5 -61.5 207.5 -61.5c79.333 0 144.166 16.667 194.499 50s87.333 76.333 111 129s35.5 108.667 35.5 168c0 58.667 -11.667 112.167 -35 160.5s-59.333 86.833 -108 115.5
s-111.334 43 -188.001 43c-31.333 0 -63 -3 -95 -9s-64.667 -16 -98 -30s-66.833 -33.167 -100.5 -57.5s-67.834 -55.166 -102.501 -92.499c-8 18.667 -13.167 35.5 -15.5 50.5s-2.33301 29.667 0 44s7.16602 30.166 14.499 47.499l27 -2c28 26.667 57.333 50.334 88 71.001
s62.667 38 96 52s67.833 24.5 103.5 31.5s72.5 10.5 110.5 10.5c90 0 167.5 -18.333 232.5 -55s115 -87.334 150 -152.001s52.5 -139 52.5 -223c0 -81.333 -17.5 -158 -52.5 -230s-87.333 -130.333 -157 -175s-156.167 -67 -259.5 -67z" />
    <glyph glyph-name="seven" unicode="7" horiz-adv-x="1044" 
d="M230 0l127.5 276.5l125.5 272.5l195 423l72.5 155.5l71.5 155.5l26 -32h-287h-254.5h-256.5v119h911v-93l-112.5 -246.5l-114.5 -250.5l-129 -283l-113 -247l-115 -250h-147z" />
    <glyph glyph-name="eight" unicode="8" horiz-adv-x="1208" 
d="M604 -20c-112 0 -204.666 17.998 -277.999 53.998s-128 84.5 -164 145.5s-54 129.167 -54 204.5s15.5 137.833 46.5 187.5s68.667 88 113 115s86.166 44.833 125.499 53.5v15c-40 10.667 -78 29.5 -114 56.5s-65.5 61.167 -88.5 102.5s-34.5 89.333 -34.5 144
c0 67.333 18.5 126.333 55.5 177s89 90.167 156 118.5s145.833 42.5 236.5 42.5s169.5 -14.167 236.5 -42.5s118.833 -67.833 155.5 -118.5s55 -109.667 55 -177c0 -54.667 -11.333 -102.667 -34 -144s-52.167 -75.5 -88.5 -102.5s-74.833 -45.833 -115.5 -56.5v-15
c40 -8.66699 82.167 -26.667 126.5 -54s82 -65.666 113 -114.999s46.5 -111.666 46.5 -186.999s-18 -143.5 -54 -204.5s-90.5 -109.5 -163.5 -145.5s-165.5 -54 -277.5 -54zM604.001 100.998c85.333 0 154.833 12.667 208.5 38s92.834 60 117.501 104s37 94 37 150
c0 65.333 -16 119.666 -48 162.999s-75.5 75.5 -130.5 96.5s-116.833 31.5 -185.5 31.5c-67.333 0 -128.5 -10.5 -183.5 -31.5s-98.5 -53.167 -130.5 -96.5s-48 -97.666 -48 -162.999c0 -56 12.5 -106 37.5 -150s64.167 -78.667 117.5 -104s122.666 -38 207.999 -38z
M604.001 793.998c101.333 0 179.5 23.5 234.5 70.5s82.5 107.167 82.5 180.5c0 75.333 -28.833 132.833 -86.5 172.5s-134.5 59.5 -230.5 59.5s-172.833 -19.833 -230.5 -59.5s-86.5 -97.167 -86.5 -172.5c0 -48.667 12.333 -92 37 -130s60.5 -67.667 107.5 -89
s104.5 -32 172.5 -32z" />
    <glyph glyph-name="nine" unicode="9" horiz-adv-x="1208" 
d="M560 -20c-34.667 0 -68.8389 2.33105 -102.506 6.99805s-66.334 11.5 -98.001 20.5s-62 19.833 -91 32.5s-55.833 26.334 -80.5 41.001l18 128c26.667 -18 54.334 -33.833 83.001 -47.5s57.834 -25 87.501 -34s59.5 -15.667 89.5 -20s59.333 -6.5 88 -6.5
c94 0 170.833 23.833 230.5 71.5s103.834 118 132.501 211s43 207.167 43 342.5c0 120.667 -14.5 221.834 -43.5 303.501s-71.667 143 -128 184s-125.5 61.5 -207.5 61.5c-79.333 0 -144.166 -16.667 -194.499 -50s-87.166 -76.333 -110.499 -129s-35 -108.667 -35 -168
c0 -58.667 11.5 -112 34.5 -160s58.833 -86.5 107.5 -115.5s111.334 -43.5 188.001 -43.5c31.333 0 63 3 95 9s64.667 16 98 30s67 33.167 101 57.5s68 55.166 102 92.499c8 -18.667 13.167 -35.5 15.5 -50.5s2.33301 -29.667 0 -44s-7.16602 -30.166 -14.499 -47.499l-27 2
c-28 -26.667 -57.333 -50.334 -88 -71.001s-62.5 -38 -95.5 -52s-67.333 -24.5 -103 -31.5s-72.834 -10.5 -111.501 -10.5c-89.333 0 -166.666 18.5 -231.999 55.5s-115.5 87.667 -150.5 152s-52.5 138.5 -52.5 222.5c0 81.333 17.5 158 52.5 230s87.333 130.5 157 175.5
s156.167 67.5 259.5 67.5c110 0 203.167 -25.833 279.5 -77.5s134.5 -127.5 174.5 -227.5s60 -222.667 60 -368c0 -119.333 -11.667 -225.166 -35 -317.499s-57.333 -170 -102 -233s-100 -110.833 -166 -143.5s-142 -49 -228 -49z" />
    <glyph glyph-name="colon" unicode=":" horiz-adv-x="457" 
d="M228 781c-23.333 0 -44 5.00195 -62 15.002s-31.667 23.667 -41 41s-14 37.666 -14 60.999c0 36 10.667 64.167 32 84.5s50 30.5 86 30.5c24 0 44.833 -4.66699 62.5 -14s31.167 -22.5 40.5 -39.5s14 -37.5 14 -61.5c0 -34.667 -10.333 -62.834 -31 -84.501
s-49.667 -32.5 -87 -32.5zM228 -20.998c-23.333 0 -44 5.00195 -62 15.002s-31.667 23.667 -41 41s-14 37.666 -14 60.999c0 36 10.667 64.167 32 84.5s50 30.5 86 30.5c24 0 44.833 -4.66699 62.5 -14s31.167 -22.5 40.5 -39.5s14 -37.5 14 -61.5
c0 -34.667 -10.333 -62.834 -31 -84.501s-49.667 -32.5 -87 -32.5z" />
    <glyph glyph-name="semicolon" unicode=";" horiz-adv-x="457" 
d="M228 781c-23.333 0 -44 5.00195 -62 15.002s-31.667 23.667 -41 41s-14 37.666 -14 60.999c0 36 10.667 64.167 32 84.5s50 30.5 86 30.5c24 0 44.833 -4.66699 62.5 -14s31.167 -22.5 40.5 -39.5s14 -37.5 14 -61.5c0 -34.667 -10.333 -62.834 -31 -84.501
s-49.667 -32.5 -87 -32.5zM80 -313.998c26 37.333 46.6699 74.165 62.0029 110.498s26.166 74.333 32.499 114s9.5 82.834 9.5 129.501v87v88l70 5c31.333 -2.66699 54.166 -14.667 68.499 -36s21.5 -48.333 21.5 -81c0 -39.333 -5 -78.666 -15 -117.999
s-23.667 -77.333 -41 -114s-37.333 -70.5 -60 -101.5s-46.334 -58.167 -71.001 -81.5z" />
    <glyph glyph-name="less" unicode="&#x3c;" horiz-adv-x="1131" 
d="M1001 156l-176.5 76.5l-162.5 70.5l-197 85l-159.5 69.5l-176.5 75.5v121l177 76l159 68l197 86l162.5 70l176.5 76v-125l-226 -98.5l-229 -100.5l-242 -105v-15l241 -106l230 -99l226 -99v-126z" />
    <glyph glyph-name="equal" unicode="=" horiz-adv-x="1131" 
d="M133 317v118h177h160h191h160h177v-118h-177h-160h-191h-160h-177zM133 755v118h177h160h191h160h177v-118h-177h-160h-191h-160h-177z" />
    <glyph glyph-name="greater" unicode="&#x3e;" horiz-adv-x="1131" 
d="M129 156v126l227 99l229 99l242 106v15l-242 105l-229.5 100l-226.5 99v125l177 -76l162 -70l198 -86l159.5 -68l175.5 -76v-121l-175.5 -75.5l-159.5 -69.5l-198 -85l-162 -70.5z" />
    <glyph glyph-name="question" unicode="?" horiz-adv-x="843" 
d="M428 434c-74.667 0 -133.502 18.1689 -176.502 54.502s-64.5 84.5 -64.5 144.5c0 42 9.83301 79.167 29.5 111.5s45.334 62 77.001 89s65.167 53.5 100.5 79.5s69.166 53 101.499 81s59 59 80 93s31.5 72.667 31.5 116c0 58.667 -20.167 103 -60.5 133
s-96.166 45 -167.499 45c-31.333 0 -62.666 -2.83301 -93.999 -8.5s-63.333 -14.334 -96 -26.001s-65.667 -25.834 -99 -42.501l-8 121c16.667 7.33301 36.334 15.166 59.001 23.499s47.5 16.333 74.5 24s55.667 13.834 86 18.501s62.166 7 95.499 7
c67.333 0 126.333 -10.333 177 -31s90 -51.667 118 -93s42 -92.333 42 -153s-13 -113.5 -39 -158.5s-58.667 -84.5 -98 -118.5s-78.333 -65.333 -117 -94c-46 -33.333 -86.333 -66.5 -121 -99.5s-52 -70.5 -52 -112.5c0 -46.667 14.667 -79 44 -97s63.666 -27 102.999 -27
c26 0 49.5 2.83301 70.5 8.5s38.167 11.167 51.5 16.5l7 -81c-11.333 -4 -25.5 -7.83301 -42.5 -11.5s-35.167 -6.66699 -54.5 -9s-38.666 -3.5 -57.999 -3.5zM386.998 -20.998c-24 0 -44.667 5.00195 -62 15.002s-31 23.667 -41 41s-15 37.666 -15 60.999
c0 36 10.833 64.167 32.5 84.5s50.167 30.5 85.5 30.5c24.667 0 45.667 -4.66699 63 -14s30.833 -22.5 40.5 -39.5s14.5 -37.5 14.5 -61.5c0 -34.667 -10.5 -62.834 -31.5 -84.501s-49.833 -32.5 -86.5 -32.5z" />
    <glyph glyph-name="at" unicode="@" horiz-adv-x="1760" 
d="M944 -257c-156 0 -290.833 26.1641 -404.5 78.4971s-205.167 123.166 -274.5 212.499s-115.833 190.166 -139.5 302.499s-23.167 228.5 1.5 348.5c22.667 112.667 59.667 210.167 111 292.5s113 150.5 185 204.5s151.667 93.833 239 119.5s178.666 38.5 273.999 38.5
c122 0 231.167 -22.167 327.5 -66.5s176.166 -105.666 239.499 -183.999s107 -168.666 131 -270.999s24.667 -211.5 2 -327.5c-12.667 -65.333 -32.167 -121.166 -58.5 -167.499s-56.166 -84.166 -89.499 -113.499s-67.333 -50.833 -102 -64.5s-66.334 -20.5 -95.001 -20.5
c-51.333 0 -93.166 7.5 -125.499 22.5s-57.5 34.167 -75.5 57.5s-30.333 47.333 -37 72h-12c-34.667 -46 -76.834 -79.667 -126.501 -101s-96.167 -32 -139.5 -32c-78.667 0 -141.834 21.667 -189.501 65s-79.334 100.166 -95.001 170.499s-15.167 145.5 1.5 225.5
c15.333 74 40.833 138.5 76.5 193.5s79.167 97.667 130.5 128s108 45.5 170 45.5c38.667 0 74.5 -5.5 107.5 -16.5s62.667 -25.667 89 -44s48.833 -38.5 67.5 -60.5h13l24 102l102 7l-50 -241l-53 -250l-8 -41c-14.667 -74 -10.667 -127.167 12 -159.5
s58.334 -48.5 107.001 -48.5c30 0 58.833 7 86.5 21s53 33.833 76 59.5s43 56.334 60 92.001s29.5 74.834 37.5 117.501c20.667 102 21.334 197.5 2.00098 286.5s-56.166 167.167 -110.499 234.5s-123.5 120.166 -207.5 158.499s-180.667 57.5 -290 57.5
c-117.333 0 -224.5 -21 -321.5 -63s-179.167 -105.833 -246.5 -191.5s-115 -193.834 -143 -324.501c-23.333 -107.333 -25.166 -210.666 -5.49902 -309.999s60 -188.166 121 -266.499s142.167 -140.333 243.5 -186s222 -68.5 362 -68.5c52.667 0 109.834 4.66699 171.501 14
s125.667 26 192 50s133.166 58.667 200.499 104v-109c-53.333 -36 -111.5 -65.167 -174.5 -87.5s-127.667 -38.833 -194 -49.5s-131.5 -16 -195.5 -16zM802 246.997c44 0 87.499 12.501 130.499 37.501s80.167 64.833 111.5 119.5l74 352
c-27.333 32.667 -59.5 59.167 -96.5 79.5s-81.167 30.5 -132.5 30.5c-78.667 0 -141.667 -26.333 -189 -79s-79.666 -118.667 -96.999 -198c-13.333 -63.333 -14.833 -120.833 -4.5 -172.5s32.333 -92.834 66 -123.501s79.5 -46 137.5 -46z" />
    <glyph glyph-name="A" unicode="A" horiz-adv-x="1365" 
d="M63 0l90 242.5l90 241.5l181 489l88.5 238l79.5 215h188l79 -216l87 -238l180 -491l89 -242.5l87 -238.5h-146l-94.5 263.5l-91.5 256.5l-277 774h-16l-279 -767l-94.5 -261.5l-96.5 -265.5h-144zM306 375l10 114h746l8 -114h-764z" />
    <glyph glyph-name="B" unicode="B" horiz-adv-x="1282" 
d="M626 0h-180.999h-146h-102v231v242v477v244.5v231.5h241.5h269.5c78.667 0 146.167 -7.66699 202.5 -23s102.666 -37.666 138.999 -66.999s63 -64.833 80 -106.5s25.5 -88.834 25.5 -141.501c0 -60.667 -10.667 -113.667 -32 -159s-50.833 -83.166 -88.5 -113.499
s-79.834 -53.166 -126.501 -68.499v-16c46.667 -9.33301 91.834 -26.5 135.501 -51.5s79.667 -60.833 108 -107.5s42.5 -107.334 42.5 -182.001c0 -54.667 -9.33301 -105.667 -28 -153s-49.667 -88.833 -93 -124.5s-101.5 -63.334 -174.5 -83.001
s-163.833 -29.5 -272.5 -29.5zM335.001 120h301c100 0 180.333 11.333 241 34s104.5 54.667 131.5 96s40.5 91 40.5 149c0 96 -33.667 164.5 -101 205.5s-161 61.5 -281 61.5h-363v115h366c80.667 0 146 13.167 196 39.5s86.5 60.833 109.5 103.5s34.5 88.667 34.5 138
c0 86 -26.333 148.167 -79 186.5s-130.667 57.5 -234 57.5h-362v-182.5v-196.5v-432v-194.5v-180.5z" />
    <glyph glyph-name="C" unicode="C" horiz-adv-x="1371" 
d="M832 -21c-112 0 -212.839 18.667 -302.506 56s-165.834 89.166 -228.501 155.499s-110.667 144.333 -144 234s-50 186.834 -50 291.501c0 144 29.667 271.333 89 382s141.5 197.167 246.5 259.5s225.833 93.5 362.5 93.5c47.333 0 93.333 -3.33301 138 -10
s86.834 -16 126.501 -28s76.167 -24.667 109.5 -38s62 -26.666 86 -39.999l-14 -138c-51.333 30 -101.666 54.333 -150.999 73s-97.833 32.334 -145.5 41.001s-94.5 13 -140.5 13c-109.333 0 -206.166 -24.833 -290.499 -74.5s-150.5 -120 -198.5 -211
s-72 -198.833 -72 -323.5c0 -84 12.333 -162.833 37 -236.5s61.834 -138.5 111.501 -194.5s111.334 -99.833 185.001 -131.5s158.834 -47.5 255.501 -47.5c34.667 0 69.167 2.16699 103.5 6.5s68.5 11 102.5 20s67.333 21.167 100 36.5s64 33.666 94 54.999l14 -137
c-28 -18 -58.833 -33.833 -92.5 -47.5s-68.667 -24.834 -105 -33.501s-73.666 -15.167 -111.999 -19.5s-76.5 -6.5 -114.5 -6.5z" />
    <glyph glyph-name="D" unicode="D" horiz-adv-x="1475" 
d="M197 0l0.00195312 231v242v477v244.5v231.5h170.5h155.5h156c110.667 0 208.667 -15.833 294 -47.5s157.333 -78.167 216 -139.5s103.167 -135.5 133.5 -222.5s45.5 -186.167 45.5 -297.5c0 -100.667 -13.5 -194.5 -40.5 -281.5s-69.333 -163.167 -127 -228.5
s-133.334 -116.5 -227.001 -153.5s-207.834 -55.5 -342.501 -55.5h-153h-137.5h-143.5zM338.002 120l295 -0.00195312c145.333 0 261 26.333 347 79s147.833 124.334 185.5 215.001s56.5 193.334 56.5 308.001c0 88.667 -11.167 168.834 -33.5 240.501
s-56.5 133.167 -102.5 184.5s-104.667 90.666 -176 117.999s-156 41 -254 41h-318v-182v-197v-431v-195v-181z" />
    <glyph glyph-name="E" unicode="E" horiz-adv-x="1185" 
d="M197 0v231v242v477v244.5v231.5h869v-123h-219h-275h-313l76 104v-232v-244v-438v-241v-231l-70 102h319h254h229v-123h-870zM305 664v119h282h241.5h195.5v-119h-200.5h-238.5h-280z" />
    <glyph glyph-name="F" unicode="F" horiz-adv-x="1146" 
d="M197 0v231v242v477v244.5v231.5h851v-123h-218.5h-275.5h-279l61 104v-231.5v-245.5v-457v-242v-231h-139zM303 657v120h265h242.5h195.5v-120h-201h-238h-264z" />
    <glyph glyph-name="G" unicode="G" horiz-adv-x="1468" 
d="M864 -20c-124 0 -232.999 18.6641 -326.999 55.9971s-173 89.333 -237 156s-112.167 144.834 -144.5 234.501s-48.5 186.5 -48.5 290.5c0 142.667 29.5 269.334 88.5 380.001s141.833 197.334 248.5 260.001s231.334 94 374.001 94c50 0 98.5 -3.5 145.5 -10.5
s91.167 -16.333 132.5 -28s79.333 -24.334 114 -38.001s64.334 -27.167 89.001 -40.5l-15 -137c-54.667 30 -108 54.333 -160 73s-102.833 32.334 -152.5 41.001s-98.5 13 -146.5 13c-84.667 0 -161.834 -13.833 -231.501 -41.5s-130.167 -68 -181.5 -121
s-90.833 -117 -118.5 -192s-41.5 -159.5 -41.5 -253.5c0 -86 12.167 -166 36.5 -240s61.666 -139 111.999 -195s114.666 -99.667 192.999 -131s171.166 -47 278.499 -47c36.667 0 73.667 1.83301 111 5.5s74.5 9.5 111.5 17.5s73.333 18.5 109 31.5s70.167 28.5 103.5 46.5
l17 -137c-23.333 -10 -51.666 -20.167 -84.999 -30.5s-70.166 -19.833 -110.499 -28.5s-82.833 -15.5 -127.5 -20.5s-90.334 -7.5 -137.001 -7.5zM1189 64.9971v182.5v155.5v163v143h135v-143v-163v-155v-181z" />
    <glyph glyph-name="H" unicode="H" horiz-adv-x="1499" 
d="M1161 0v231v242v477v244.5v231.5h141v-231.5v-244.5v-477v-242v-231h-141zM197 0v231v242v477v244.5v231.5h141v-231.5v-244.5v-477v-242v-231h-141zM282 661v124h941v-124h-941z" />
    <glyph glyph-name="I" unicode="I" horiz-adv-x="540" 
d="M199 0v231v242v477v244.5v231.5h142v-231.5v-244.5v-477v-242v-231h-142z" />
    <glyph glyph-name="J" unicode="J" horiz-adv-x="567" 
d="M37 -317c39.333 42 73.167 84.334 101.5 127.001s50.166 89.5 65.499 140.5s23.333 110.5 24 178.5v393v428v244.5v231.5h140v-231.5v-244.5v-377v-235.5v-223.5c0 -53.333 -4.83301 -101.833 -14.5 -145.5s-23 -82.667 -40 -117s-36.167 -65.333 -57.5 -93
s-43.666 -52.834 -66.999 -75.501h-152z" />
    <glyph glyph-name="K" unicode="K" horiz-adv-x="1327" 
d="M1080 0l-193 198l-176 180l-293 300h-100v118h100l253 252l176 176l202 202h177l-224 -222l-217 -216l-274 -272l-2 61l305 -315l152 -157l158.5 -164l136.5 -141h-181zM197 0v231v242v477v244.5v231.5h140v-231.5v-244.5v-477v-242v-231h-140z" />
    <glyph glyph-name="L" unicode="L" horiz-adv-x="1140" 
d="M197 0v231v242v477v244.5v231.5h141v-231.5v-244.5v-456v-242v-231l-56 106h257h207h166.5h156.5v-127h-872z" />
    <glyph glyph-name="M" unicode="M" horiz-adv-x="1912" 
d="M143 0l29 230.5l30 246.5l59 469l30.5 243l29.5 237h141l128.5 -310l122.5 -298l241 -586h12l240 586l122 298l127 310h141l28.5 -235.5l29.5 -244.5l58 -473l29.5 -241.5l27.5 -231.5h-134l-46.5 381.5l-40.5 337.5l-55 450h-11l-196 -485l-143.5 -354l-133.5 -330h-97
l-86 210.5l-96.5 235.5l-97.5 235l-200 488h-11l-54 -450l-41 -337.5l-46 -381.5h-137z" />
    <glyph glyph-name="N" unicode="N" horiz-adv-x="1510" 
d="M197 0v231v242v477v244.5v231.5h130l260.5 -366l248.5 -349l330 -463h12v702v244.5v231.5h135v-231.5v-244.5v-477v-242v-231h-127l-236.5 333l-274.5 385l-331 466h-12v-711v-242v-231h-135z" />
    <glyph glyph-name="O" unicode="O" horiz-adv-x="1635" 
d="M825 -21c-119.333 0 -223.831 19.5029 -313.498 58.5029s-164.5 92.5 -224.5 160.5s-105 146.333 -135 235s-45 182.667 -45 282c0 138 28.167 262.667 84.5 374s137.666 199.5 243.999 264.5s234.166 97.5 383.499 97.5c114 0 215 -18.833 303 -56.5
s162.167 -90.334 222.5 -158.001s106 -145.834 137 -234.501s46.5 -184.334 46.5 -287.001c0 -140 -28.167 -265.5 -84.5 -376.5s-137 -198.667 -242 -263s-230.5 -96.5 -376.5 -96.5zM820.002 105.003c98 0 182.332 16.666 252.999 49.999s128.834 78.833 174.501 136.5
s79.5 122.834 101.5 195.501s33 148.667 33 228c0 85.333 -11.833 165 -35.5 239s-59 138.833 -106 194.5s-105.5 99.167 -175.5 130.5s-151.667 47 -245 47c-96 0 -179.5 -16.5 -250.5 -49.5s-129.833 -78.167 -176.5 -135.5s-81.667 -122.5 -105 -195.5
s-35 -149.833 -35 -230.5s11.333 -157.667 34 -231s57 -138.5 103 -195.5s104.667 -101.833 176 -134.5s156 -49 254 -49z" />
    <glyph glyph-name="P" unicode="P" horiz-adv-x="1243" 
d="M197 0l0.000976562 230.997v242v477v244.5v231.5h204h282c106.667 0 194.667 -14.333 264 -43s121 -72.334 155 -131.001s51 -133 51 -223c0 -85.333 -15.833 -161.166 -47.5 -227.499s-85.5 -118.666 -161.5 -156.999s-180.333 -57.5 -313 -57.5h-108.5h-112h-93.5v118
h291c92.667 0 168.667 10.833 228 32.5s103.166 56.334 131.499 104.001s42.5 109.834 42.5 186.501c0 64 -10.667 114.667 -32 152s-48.833 65 -82.5 83s-70 29.667 -109 35s-76.5 8 -112.5 8h-407l69 101v-232v-244v-458v-242v-231h-139z" />
    <glyph glyph-name="Q" unicode="Q" horiz-adv-x="1635" 
d="M1313 -334l-126.5 103l-127.5 103l-165 134l79 84l195 -151l129 -99l143 -111zM825 -21c-119.333 0 -223.831 19.5029 -313.498 58.5029s-164.5 92.5 -224.5 160.5s-105 146.333 -135 235s-45 182.667 -45 282c0 138 28.167 262.667 84.5 374
s137.666 199.5 243.999 264.5s234.166 97.5 383.499 97.5c114 0 215 -18.833 303 -56.5s162.167 -90.334 222.5 -158.001s106 -145.834 137 -234.501s46.5 -184.334 46.5 -287.001c0 -140 -28.167 -265.5 -84.5 -376.5s-137 -198.667 -242 -263s-230.5 -96.5 -376.5 -96.5z
M820.002 105.003c98 0 182.332 16.666 252.999 49.999s128.834 78.833 174.501 136.5s79.5 122.834 101.5 195.501s33 148.667 33 228c0 85.333 -11.833 165 -35.5 239s-59 138.833 -106 194.5s-105.5 99.167 -175.5 130.5s-151.667 47 -245 47
c-96 0 -179.5 -16.5 -250.5 -49.5s-129.833 -78.167 -176.5 -135.5s-81.667 -122.5 -105 -195.5s-35 -149.833 -35 -230.5s11.333 -157.667 34 -231s57 -138.5 103 -195.5s104.667 -101.833 176 -134.5s156 -49 254 -49z" />
    <glyph glyph-name="R" unicode="R" horiz-adv-x="1328" 
d="M197 0l0.00488281 231.001v242v477v244.5v231.5h126h155.5h183.5c106.667 0 195 -12.833 265 -38.5s122.333 -66.334 157 -122.001s52 -128.5 52 -218.5c0 -76.667 -14.833 -147 -44.5 -211s-79.834 -115.333 -150.501 -154s-167 -58.334 -289 -59.001l40 64l233 -280
l115 -138.5l119.5 -143.5l103.5 -125h-167l-146.5 177.5l-139.5 168.5l-260 320l87 -65h-326v118h280c91.333 0 166.666 10.5 225.999 31.5s103.166 54.667 131.499 101s42.5 107.5 42.5 183.5c0 65.333 -10.5 116.333 -31.5 153s-48.333 63.334 -82 80.001
s-69.834 27.167 -108.501 31.5s-76.334 6.5 -113.001 6.5h-411l90 101v-233.5v-242.5v-458v-242v-231h-138z" />
    <glyph glyph-name="S" unicode="S" horiz-adv-x="1165" 
d="M601 -20c-60 0 -119.833 5.33105 -179.5 15.998s-114.667 24.5 -165 41.5s-90.833 34.167 -121.5 51.5l16 135c44.667 -24 90.667 -45 138 -63s96.333 -32 147 -42s103.334 -15 158.001 -15c62.667 0 119.667 9 171 27s92.166 46.667 122.499 86s45.5 92 45.5 158
c0 54 -15 98.5 -45 133.5s-73.5 65.333 -130.5 91s-125.833 51.5 -206.5 77.5c-92 28.667 -170.333 59.667 -235 93s-114 74 -148 122s-51 108.333 -51 181c0 71.333 17.333 135.5 52 192.5s86 102.333 154 136s151.667 50.5 251 50.5c42 0 83.333 -3.16699 124 -9.5
s79.5 -14.666 116.5 -24.999s70.5 -22 100.5 -35s55.333 -26.167 76 -39.5l-16 -138c-40 28 -82.5 50.833 -127.5 68.5s-89.833 30.834 -134.5 39.501s-86.667 13 -126 13c-56.667 0 -109.5 -8.66699 -158.5 -26s-88.667 -44.333 -119 -81s-45.5 -84 -45.5 -142
c0 -48 12.667 -88.167 38 -120.5s64.666 -61.166 117.999 -86.499s122.333 -51.666 207 -78.999c114.667 -36.667 204.834 -73.5 270.501 -110.5s112.334 -79.167 140.001 -126.5s41.5 -105 41.5 -173c0 -74.667 -16.667 -142.334 -50 -203.001
s-85.333 -108.834 -156 -144.501s-161.334 -53.5 -272.001 -53.5z" />
    <glyph glyph-name="T" unicode="T" horiz-adv-x="1279" 
d="M570 0v231v242v457v245.5v231.5l57 -108h-164h-217.5h-180.5v127h1149v-127h-179.5h-218.5h-164l58 108v-231.5v-245.5v-457v-242v-231h-140z" />
    <glyph glyph-name="U" unicode="U" horiz-adv-x="1462" 
d="M732 -21c-130 0 -235.833 22.832 -317.5 68.499s-141.834 109.5 -180.501 191.5s-58 177.333 -58 286v110v148.5v166.5v244.5v231.5h141v-231.5v-244.5v-407c0 -91.333 13.5 -169.666 40.5 -234.999s70.833 -115.5 131.5 -150.5s141.334 -52.5 242.001 -52.5
c102 0 183 17.5 243 52.5s103.333 85.167 130 150.5s40 144.333 40 237v405v244.5v231.5h140v-231.5v-244.5v-166.5v-149v-109.5c0 -108.667 -19.333 -204 -58 -286s-98.667 -145.833 -180 -191.5s-186 -68.5 -314 -68.5z" />
    <glyph glyph-name="V" unicode="V" horiz-adv-x="1360" 
d="M586 0l-84 228.5l-84 223.5l-166 448l-61.5 165.5l-67.5 182l-66 178.5h155l122.5 -337.5l122.5 -337.5l218 -603h16l218 607l120.5 333.5l121.5 337.5h151l-65.5 -177l-66 -181.5l-61.5 -166.5l-165 -451l-81.5 -222l-83.5 -228h-193z" />
    <glyph glyph-name="W" unicode="W" horiz-adv-x="2026" 
d="M477 0l-66.5 227l-66.5 224l-131 446l-76.5 261.5l-78.5 267.5h154l95 -334.5l94 -335.5l167 -591h16l162 599l58 216l62 228.5l59 217.5h171l91.5 -331.5l92.5 -333.5l164 -596h16l169 600l93.5 330.5l92.5 330.5h154l-78.5 -266.5l-76.5 -259.5l-133 -449l-67 -227.5
l-66 -223.5h-187l-91 325.5l-91 321.5l-164 585h-15l-162 -585l-90 -323l-90 -324h-181z" />
    <glyph glyph-name="X" unicode="X" horiz-adv-x="1340" 
d="M78 0l126 195l135 209l226 349v-47l-198 292l-138 203.5l-152 224.5h165l131.5 -195l121.5 -182l149 -222h16l146 224l119.5 183l124.5 192h161l-140 -214l-123 -190l-211 -322v49l218 -311l155 -220l153 -218h-169l-129.5 186.5l-118.5 169.5l-186 268h-16l-175 -269
l-110.5 -171.5l-119.5 -183.5h-161z" />
    <glyph glyph-name="Y" unicode="Y" horiz-adv-x="1288" 
d="M579 572l-316 518l-96 159l-108 177h162l101.5 -171.5l80.5 -135l84 -141.5l151 -252h16l146 244l88 147.5l83.5 138.5l102.5 170h159l-104 -170l-100 -165l-317 -519h-133zM575 0v231v242v216h141v-216v-242v-231h-141z" />
    <glyph glyph-name="Z" unicode="Z" horiz-adv-x="1334" 
d="M101 0v85l130.5 171.5l146.5 191l135 176.5l559 734l44 -55h-421h-276h-303v123h1101v-105l-189 -247.5l-186 -243.5l-594 -775l-27 68h384h204.5h222h193.5v-123h-1124z" />
    <glyph glyph-name="bracketleft" unicode="[" horiz-adv-x="726" 
d="M202 -230v230.5v241.5v810v244.5v231.5h495v-111h-141h-177h-114l59 92v-231.5v-244.5v-770v-242v-231l-53 91h117h161h148v-111h-495z" />
    <glyph glyph-name="backslash" unicode="\" horiz-adv-x="885" 
d="M689 0l-94.5 216l-104.5 240l-215 492l-76.5 176l-66.5 152l-66 150h130l98.5 -223.5l108.5 -250.5l217 -496l104.5 -240l94.5 -216h-130z" />
    <glyph glyph-name="bracketright" unicode="]" horiz-adv-x="726" 
d="M29 -230v111h141h177h114l-60 -92v232.5v243.5v770v242.5v229.5l54 -90h-117h-161h-148v111h495v-229.5v-243.5v-809v-244v-232h-495z" />
    <glyph glyph-name="asciicircum" unicode="^" horiz-adv-x="1204" 
d="M947 768l-168.5 245.5l-168.5 243.5h-16l-168 -241l-168 -241h-131l196 297.5l196 297.5h167l196 -299.5l195 -299.5z" />
    <glyph glyph-name="underscore" unicode="_" horiz-adv-x="789" 
d="M-20 -219v110h177.5h159.5h154h160.5h177.5v-110h-177.5h-160.5h-154h-159.5h-177.5z" />
    <glyph glyph-name="grave" unicode="`" horiz-adv-x="1200" 
d="M625 1160l-105.5 131l-105.5 130.5l-107 131.5l150 4l139.5 -196l139.5 -198z" />
    <glyph glyph-name="a" unicode="a" horiz-adv-x="1041" 
d="M414 -20c-60.667 0 -113.333 11.5029 -158 34.5029s-79.334 55.667 -104.001 98s-37 92.5 -37 150.5c0 53.333 9.66699 98 29 134s44.833 65.5 76.5 88.5s66.167 41 103.5 54s74.333 22.833 111 29.5l324 60c2.66699 76 -6.83301 133.167 -28.5 171.5s-51.5 64 -89.5 77
s-80 19.5 -126 19.5c-22.667 0 -47 -1.5 -73 -4.5s-53.333 -7.83301 -82 -14.5s-59.167 -15.334 -91.5 -26.001s-66.5 -23.667 -102.5 -39l-8 122c24 10 50.833 19.667 80.5 29s61.167 17.666 94.5 24.999s67.5 13.166 102.5 17.499s69.167 6.5 102.5 6.5
c71.333 0 132.833 -11.5 184.5 -34.5s91.334 -59.5 119.001 -109.5s41.5 -114.333 41.5 -193v-118v-136v-135v-135.5v-151.5h-118l-5 147h-16c-20.667 -28 -47.5 -54.833 -80.5 -80.5s-70.667 -46.5 -113 -62.5s-87.833 -24 -136.5 -24zM446.001 92.0029
c38 0 76.3311 7.49902 114.998 22.499s74.834 38.167 108.501 69.5s62.167 71 85.5 119l1 242c-11.333 -6 -26.333 -12.167 -45 -18.5s-46.667 -13.666 -84 -21.999s-89.666 -18.833 -156.999 -31.5c-42 -7.33301 -79.833 -19 -113.5 -35s-60.5 -37.833 -80.5 -65.5
s-30 -62.5 -30 -104.5c0 -64 19.167 -109.333 57.5 -136s85.833 -40 142.5 -40z" />
    <glyph glyph-name="b" unicode="b" horiz-adv-x="1183" 
d="M644 -21c-46.667 0 -89.667 6.16895 -129 18.502s-75.333 30.166 -108 53.499s-62.334 51.333 -89.001 84h-15l-9 -135h-109v214v225v549v245v230l129 19v-242.5v-251.5v-110h15c19.333 22.667 44.333 44.5 75 65.5s65.834 37.833 105.501 50.5s83.167 19 130.5 19
c91.333 0 169.333 -22.333 234 -67s114.167 -105.834 148.5 -183.501s51.5 -165.5 51.5 -263.5c0 -92.667 -16 -178.5 -48 -257.5s-79.833 -142.5 -143.5 -190.5s-143.167 -72 -238.5 -72zM611 98.002c77.333 0 140.33 18.9961 188.997 56.9961s84.5 87.333 107.5 148
s34.5 125.667 34.5 195c0 72.667 -12.167 138.834 -36.5 198.501s-61.166 107.334 -110.499 143.001s-111.666 53.5 -186.999 53.5c-38.667 0 -76 -5.66699 -112 -17s-69.667 -28.166 -101 -50.499s-58.333 -50.166 -81 -83.499v-468c22 -36.667 47.5 -68 76.5 -94
s61.833 -46.167 98.5 -60.5s77.334 -21.5 122.001 -21.5z" />
    <glyph glyph-name="c" unicode="c" horiz-adv-x="994" 
d="M605 -19c-106 0 -196.002 22.667 -270.002 68s-130.333 107 -169 185s-58 165.333 -58 262c0 98 18.833 186 56.5 264s92.167 139.667 163.5 185s157.666 68 258.999 68c38.667 0 76.667 -3.33301 114 -10s72.5 -15.834 105.5 -27.501s62.5 -24.834 88.5 -39.501
l-14 -122c-36.667 21.333 -71.667 37.833 -105 49.5s-64.666 19.667 -93.999 24s-56.333 6.5 -81 6.5c-109.333 0 -196.833 -35.5 -262.5 -106.5s-98.5 -167.167 -98.5 -288.5c0 -76 14.333 -144.333 43 -205s71.5 -108.667 128.5 -144s128.167 -53 213.5 -53
c29.333 0 58.833 2.66699 88.5 8s58.834 13.5 87.501 24.5s56.334 24.833 83.001 41.5l15 -123c-21.333 -11.333 -46.833 -22.166 -76.5 -32.499s-62.667 -18.666 -99 -24.999s-75.833 -9.5 -118.5 -9.5z" />
    <glyph glyph-name="d" unicode="d" horiz-adv-x="1152" 
d="M539 -21c-95.333 0 -174.999 23.999 -238.999 71.999s-111.833 111.5 -143.5 190.5s-47.5 164.833 -47.5 257.5c0 98 17 185.833 51 263.5s83.5 138.834 148.5 183.501s143.167 67 234.5 67c46.667 0 90 -6.33301 130 -19s75.167 -29.334 105.5 -50.001
s55.166 -42.667 74.499 -66h16v110v245v230l129 19v-242.5v-251.5v-549v-225v-214h-114l-6 137h-14c-27.333 -34 -57.333 -62.667 -90 -86s-68.5 -41.166 -107.5 -53.499s-81.5 -18.5 -127.5 -18.5zM572.001 97.999c44.667 0 85.3311 7.1709 121.998 21.5039
s69.334 34.5 98.001 60.5s54.334 57.333 77.001 94v468c-22.667 33.333 -49.5 61.166 -80.5 83.499s-64.667 39.166 -101 50.499s-73.833 17 -112.5 17c-76 0 -138.5 -17.833 -187.5 -53.5s-85.667 -83.334 -110 -143.001s-36.5 -125.834 -36.5 -198.501
c0 -69.333 11.5 -134.333 34.5 -195s58.833 -110 107.5 -148s111.667 -57 189 -57z" />
    <glyph glyph-name="e" unicode="e" horiz-adv-x="1055" 
d="M620 -20c-116 0 -211.836 22.499 -287.503 67.499s-132 106.833 -169 185.5s-55.5 168.334 -55.5 269.001c0 99.333 18.5 187.5 55.5 264.5s89.333 137.333 157 181s147.834 65.5 240.501 65.5c81.333 0 151.833 -16.5 211.5 -49.5s105.5 -80.833 137.5 -143.5
s48 -139 48 -229c0 -24 -0.5 -45.833 -1.5 -65.5s-3.16699 -39.167 -6.5 -58.5l-114 66c1.33301 10.667 2.16602 21 2.49902 31s0.5 19.667 0.5 29c0 104 -25.333 181.833 -76 233.5s-117.334 77.5 -200.001 77.5c-68 0 -126.167 -16.667 -174.5 -50
s-85.333 -79.333 -111 -138s-38.5 -125.667 -38.5 -201v-17c0 -82.667 14.167 -154 42.5 -214s71.333 -106.333 129 -139s130.834 -49 219.501 -49c32.667 0 66.334 2.66699 101.001 8s69 13.333 103 24s66.667 24.667 98 42l7 -121
c-25.333 -14 -54.666 -26.167 -87.999 -36.5s-69.666 -18.333 -108.999 -24s-80 -8.5 -122 -8.5zM164.997 466.999v97l703 4l82 -27v-74h-785z" />
    <glyph glyph-name="f" unicode="f" horiz-adv-x="783" 
d="M246 0l0.00195312 214v225v100v128.5v139v152.5v170c0 68 9.16699 125.167 27.5 171.5s43.666 83.333 75.999 111s69.666 47.667 111.999 60s87.833 18.5 136.5 18.5c22 0 43.667 -1 65 -3s41 -5 59 -9s33.667 -8.33301 47 -13l-13 -116c-20.667 8 -43.167 14 -67.5 18
s-49.833 6 -76.5 6c-84.667 0 -146 -20.5 -184 -61.5s-57 -102.5 -57 -184.5v-76v-60l4 -35v-517v-225v-214h-129zM52.002 885v106h677v-106h-200h-196h-50h-231z" />
    <glyph glyph-name="g" unicode="g" horiz-adv-x="1080" 
d="M490 -406c-73.333 0 -134.334 6.83496 -183.001 20.502s-87.334 32 -116.001 55s-49 48.5 -61 76.5s-18 56 -18 84c0 45.333 11.167 83.166 33.5 113.499s48.5 54.5 78.5 72.5s56.667 30.333 80 37v13c-12 3.33301 -26.167 10.333 -42.5 21s-30.833 25.834 -43.5 45.501
s-19 44.834 -19 75.501c0 24.667 4.83301 46.834 14.5 66.501s24 36.834 43 51.501s42.5 27.334 70.5 38.001v13c-14.667 4.66699 -34.167 14.167 -58.5 28.5s-49 34.166 -74 59.499s-46.333 56.666 -64 93.999s-26.5 81.333 -26.5 132c0 64.667 16 121.167 48 169.5
s76.5 85.833 133.5 112.5s122.5 40 196.5 40c30 0 56.333 -1.83301 79 -5.5s46 -7.16699 70 -10.5s53.333 -5 88 -5h318v-101h-196.5h-193.5l38 63c62.667 -28.667 107.834 -66.834 135.501 -114.501s41.5 -100.167 41.5 -157.5c0 -65.333 -13.167 -120 -39.5 -164
s-63.666 -79.833 -111.999 -107.5s-105.5 -49.167 -171.5 -64.5c-74.667 -17.333 -130 -33.833 -166 -49.5s-54 -38.834 -54 -69.501c0 -22 7.33301 -39 22 -51s38.167 -20.5 70.5 -25.5s74.833 -7.5 127.5 -7.5h44c94 0 170.167 -7.33301 228.5 -22
s101 -37.834 128 -69.501s40.5 -73.834 40.5 -126.501c0 -54.667 -14.5 -102.667 -43.5 -144s-67.833 -75.833 -116.5 -103.5s-101.667 -48.5 -159 -62.5s-114.333 -21 -171 -21zM497.999 -294.998c78.667 0 144.501 11 197.501 33s93 48.667 120 80s40.5 61 40.5 89
c0 28.667 -8 52.167 -24 70.5s-45.333 31.833 -88 40.5s-104.334 13 -185.001 13h-39c-47.333 -0.666992 -92.833 -8.33398 -136.5 -23.001s-79.5 -35.167 -107.5 -61.5s-42 -57.166 -42 -92.499c0 -19.333 4.33301 -38 13 -56s23.167 -34 43.5 -48s47.5 -25 81.5 -33
s76 -12 126 -12zM469 438.002c27.333 6 56.667 13.501 88 22.501s60.833 21.833 88.5 38.5s50.167 39.167 67.5 67.5s26 64.5 26 108.5c0 53.333 -13.833 96.333 -41.5 129s-61.167 56.667 -100.5 72s-77 23 -113 23c-46 0 -88.333 -7.83301 -127 -23.5
s-70 -39.334 -94 -71.001s-36 -72.167 -36 -121.5c0 -50 11.833 -92 35.5 -126s54 -60.833 91 -80.5s75.5 -32.5 115.5 -38.5z" />
    <glyph glyph-name="h" unicode="h" horiz-adv-x="1143" 
d="M185 0l0.000976562 214v225v549v244.5v230.5l129 19v-241.5v-252.5v-170h16c20 28.667 46.333 58 79 88s71.5 55.333 116.5 76s96.833 31 155.5 31c107.333 0 184.833 -30.5 232.5 -91.5s71.5 -148.833 71.5 -263.5v-113v-106v-222.5v-216.5h-129v216v218v196
c0 85.333 -15.333 149.833 -46 193.5s-86.334 65.5 -167.001 65.5c-49.333 0 -94 -9.83301 -134 -29.5s-76 -46 -108 -79s-61 -69.5 -87 -109.5v-237v-220.5v-213.5h-129z" />
    <glyph glyph-name="i" unicode="i" horiz-adv-x="502" 
d="M187 0v214v225v100v161v146v145l128 4v-145.5v-147v-163.5v-100v-225v-214h-128zM247 1240c-30.667 0 -55.834 9 -75.501 27s-29.5 45.667 -29.5 83c0 36.667 9.83301 64.167 29.5 82.5s45.5 27.5 77.5 27.5s57.667 -9.5 77 -28.5s29 -46.167 29 -81.5
c0 -37.333 -9.66699 -65 -29 -83s-45.666 -27 -78.999 -27z" />
    <glyph glyph-name="j" unicode="j" horiz-adv-x="497" 
d="M18 -389c39.333 42 71.501 84.0029 96.501 126.003s43.333 88.5 55 139.5s17.5 111.167 17.5 180.5v382v100v161v146v145l128 4v-145.5v-147v-163.5v-208.5v-158.5v-135c0 -50.667 -3.5 -96.834 -10.5 -138.501s-17.167 -79.834 -30.5 -114.501
s-29.333 -65.834 -48 -93.501s-39.334 -52.5 -62.001 -74.5zM247.001 1240c-30.667 0 -55.834 9 -75.501 27s-29.5 45.667 -29.5 83c0 36.667 9.83301 64.167 29.5 82.5s45.5 27.5 77.5 27.5s57.667 -9.5 77 -28.5s29 -46.167 29 -81.5c0 -37.333 -9.66699 -65 -29 -83
s-45.666 -27 -78.999 -27z" />
    <glyph glyph-name="k" unicode="k" horiz-adv-x="1067" 
d="M848 0l-147.5 139.5l-148.5 138.5l-187 176h-69v97h80l156 154l145.5 143.5l143.5 142.5h165l-179 -173.5l-177 -172.5l-175 -170l-4 65l202 -194l185 -173l185 -173h-175zM185 0v214v225v549v244.5v230.5l129 19v-241.5v-252.5v-566v-214.5v-207.5h-129z" />
    <glyph glyph-name="l" unicode="l" horiz-adv-x="499" 
d="M185 0v214v225v549v245v230l129 19v-242.5v-251.5v-549v-225v-214h-129z" />
    <glyph glyph-name="m" unicode="m" horiz-adv-x="1744" 
d="M185 0v214.002v225v100v224v228l115 8l4 -185h16c20 29.333 46 59.166 78 89.499s70 56.166 114 77.499s94.333 32 151 32c83.333 0 147 -20.333 191 -61s72.333 -99.334 85 -176.001l7 -6c2.66699 -17.333 4.66699 -35.166 6 -53.499s2 -37.833 2 -58.5v-113v-106
v-222.5v-216.5h-129v216v218v196c0 85.333 -14.5 149.833 -43.5 193.5s-81.5 65.5 -157.5 65.5c-46 0 -87.833 -10 -125.5 -30s-71.667 -46.667 -102 -80s-57.833 -69.333 -82.5 -108v-237v-220.5v-213.5h-129zM1457 0.00195312l0.000976562 216.001v218v196
c0 85.333 -14.5 149.833 -43.5 193.5s-81.5 65.5 -157.5 65.5c-46 0 -87.833 -9.83301 -125.5 -29.5s-71.834 -46 -102.501 -79s-58.334 -69.5 -83.001 -109.5l-18 138h16c22.667 30.667 50.334 61.667 83.001 93s71.5 57.666 116.5 78.999s96.167 32 153.5 32
c105.333 0 180 -31.333 224 -94s66 -149.667 66 -261v-113v-106v-222.5v-216.5h-129z" />
    <glyph glyph-name="n" unicode="n" horiz-adv-x="1143" 
d="M185 0v214v225v100v224v228l115 8l4 -186h16c20.667 29.333 47.834 59.333 81.501 90s73.667 56.667 120 78s99.5 32 159.5 32c107.333 0 184.833 -30.5 232.5 -91.5s71.5 -148.833 71.5 -263.5v-113v-106v-222.5v-216.5h-129v216v218v196
c0 85.333 -15.333 149.833 -46 193.5s-86.334 65.5 -167.001 65.5c-49.333 0 -94 -9.83301 -134 -29.5s-76 -46 -108 -79s-61 -69.5 -87 -109.5v-237v-220.5v-213.5h-129z" />
    <glyph glyph-name="o" unicode="o" horiz-adv-x="1194" 
d="M601 -21c-79.333 0 -149.5 14.167 -210.5 42.5s-112.5 66.833 -154.5 115.5s-73.833 104.5 -95.5 167.5s-32.5 128.833 -32.5 197.5c0 98.667 20.167 186.5 60.5 263.5s97.333 137.5 171 181.5s160.167 66 259.5 66c76.667 0 145 -12.833 205 -38.5
s111.167 -61.667 153.5 -108s74.333 -100.5 96 -162.5s32.5 -129.333 32.5 -202c0 -98 -19.667 -186.5 -59 -265.5s-95.5 -141.667 -168.5 -188s-158.833 -69.5 -257.5 -69.5zM600 95c79.333 0 145.167 19.5 197.5 58.5s91.5 89.333 117.5 151s39 127.5 39 197.5
c0 78.667 -14.333 147.667 -43 207s-69.5 105.5 -122.5 138.5s-115.833 49.5 -188.5 49.5c-78 0 -143.833 -17.5 -197.5 -52.5s-94.167 -82.5 -121.5 -142.5s-41 -126.667 -41 -200c0 -70 13.333 -135.833 40 -197.5s66.667 -112 120 -151s120 -58.5 200 -58.5z" />
    <glyph glyph-name="p" unicode="p" horiz-adv-x="1183" 
d="M185 -389l-0.00195312 216.499v227.5v484v224v228l119 8l3 -127h15c19.333 24.667 44.833 47.834 76.5 69.501s67.834 39 108.501 52s85 19.5 133 19.5c91.333 0 169.333 -22.333 234 -67s114.167 -105.834 148.5 -183.501s51.5 -165.5 51.5 -263.5
c0 -92.667 -16 -178.5 -48 -257.5s-79.833 -142.5 -143.5 -190.5s-143.167 -72 -238.5 -72c-45.333 0 -87.166 5.83301 -125.499 17.5s-73.333 28.834 -105 51.501s-60.5 49.667 -86.5 81h-13v-79v-220.5v-213.5zM610.998 97.999c77.333 0 140.33 18.9961 188.997 56.9961
s84.5 87.333 107.5 148s34.5 125.667 34.5 195c0 72.667 -12.167 138.834 -36.5 198.501s-61.166 107.334 -110.499 143.001s-111.666 53.5 -186.999 53.5c-38.667 0 -76 -5.66699 -112 -17s-69.667 -28.166 -101 -50.499s-58.333 -50.166 -81 -83.499v-468
c22 -36.667 47.5 -68 76.5 -94s61.833 -46.167 98.5 -60.5s77.334 -21.5 122.001 -21.5z" />
    <glyph glyph-name="q" unicode="q" horiz-adv-x="1166" 
d="M869 -389v215.998v223v81h-14c-26 -32 -54.833 -59.333 -86.5 -82s-66.5 -40 -104.5 -52s-79.667 -18 -125 -18c-95.333 0 -175 24 -239 72s-111.833 111.5 -143.5 190.5s-47.5 164.833 -47.5 257.5c0 98 17 185.833 51 263.5s83.5 138.834 148.5 183.501
s143.167 67 234.5 67c48 0 92.333 -6.5 133 -19.5s76.667 -30.167 108 -51.5s57 -44.666 77 -69.999h15l3 119l119 8v-226.5v-233.5v-484v-225v-214zM572 97.998c44.667 0 85.3311 7.1709 121.998 21.5039s69.334 34.5 98.001 60.5s54.334 57.333 77.001 94v468
c-22.667 33.333 -49.5 61.166 -80.5 83.499s-64.667 39.166 -101 50.499s-73.833 17 -112.5 17c-76 0 -138.5 -17.833 -187.5 -53.5s-85.667 -83.334 -110 -143.001s-36.5 -125.834 -36.5 -198.501c0 -69.333 11.5 -134.333 34.5 -195s58.833 -110 107.5 -148
s111.667 -57 189 -57z" />
    <glyph glyph-name="r" unicode="r" horiz-adv-x="792" 
d="M185 0l0.000976562 214v225v100v224v228l115 8l4 -208h14c27.333 62.667 59.5 110 96.5 142s74.333 53.333 112 64s72.167 16 103.5 16c19.333 0 38.166 -1.33301 56.499 -4s35.833 -7 52.5 -13l-11 -132c-20.667 5.33301 -39.667 9.5 -57 12.5s-37.666 4.5 -60.999 4.5
c-18.667 0 -41 -3 -67 -9s-52.833 -18.667 -80.5 -38s-54.334 -48.333 -80.001 -87s-48.5 -90.667 -68.5 -156v-157v-220.5v-213.5h-129z" />
    <glyph glyph-name="s" unicode="s" horiz-adv-x="904" 
d="M454 -20c-40 0 -80.3359 3.16602 -121.003 9.49902s-79.334 15.333 -116.001 27s-68.667 24.834 -96 39.501l12 124c30.667 -17.333 63.334 -32.333 98.001 -45s70.5 -22.5 107.5 -29.5s74.833 -10.5 113.5 -10.5c40 0 76.833 5 110.5 15s60.667 27.667 81 53
s30.5 62 30.5 110c0 31.333 -8.5 57.166 -25.5 77.499s-45.333 38.5 -85 54.5s-93.167 34 -160.5 54c-50.667 14.667 -96.667 32.334 -138 53.001s-74.333 48.5 -99 83.5s-37 81.167 -37 138.5c0 84.667 28.5 152.334 85.5 203.001s133.833 76 230.5 76
c38.667 0 76.334 -3.5 113.001 -10.5s71 -16.333 103 -28s59.667 -24.167 83 -37.5l-12 -125c-32.667 20.667 -65.5 37.334 -98.5 50.001s-64.667 21.667 -95 27s-57.833 8 -82.5 8c-28 0 -57 -4.16699 -87 -12.5s-55.5 -24 -76.5 -47s-31.5 -56.5 -31.5 -100.5
c0 -30.667 7.16699 -56.5 21.5 -77.5s38 -39.333 71 -55s78.167 -31.834 135.5 -48.501c64 -19.333 119.833 -39.333 167.5 -60s84.334 -48 110.001 -82s38.5 -80.667 38.5 -140c0 -54.667 -12.167 -104.334 -36.5 -149.001s-62.166 -80 -113.499 -106
s-118.333 -39 -201 -39z" />
    <glyph glyph-name="t" unicode="t" horiz-adv-x="813" 
d="M547 -21c-64 0 -118 11.666 -162 34.999s-77.333 58.333 -100 105s-34 105.334 -34 176.001v183.5v174.5v159v137v185v178l128 31v-134v-122.5v-137.5v-629c0 -75.333 16 -131.666 48 -168.999s81.333 -56 148 -56c26 0 54 4.5 84 13.5s56.333 22.5 79 40.5l14 -118
c-13.333 -10 -30.5 -18.833 -51.5 -26.5s-44.667 -13.834 -71 -18.501s-53.833 -7 -82.5 -7zM52 884.999v106h688v-106h-205h-202h-50h-231z" />
    <glyph glyph-name="u" unicode="u" horiz-adv-x="1111" 
d="M463 -21c-107.333 0 -184.832 30.667 -232.499 92s-71.5 149.333 -71.5 264v113.5v94.5v160v144v144l128 5v-217v-226v-192c0 -85.333 15.5 -149.833 46.5 -193.5s86.833 -65.5 167.5 -65.5c46 0 88.5 9.83301 127.5 29.5s74.5 46 106.5 79s60.667 69.5 86 109.5v233v223
v215h129v-216v-232v-104v-225v-214h-115l-3 180h-16c-20.667 -29.333 -47.834 -59.5 -81.501 -90.5s-73.167 -57.167 -118.5 -78.5s-96.333 -32 -153 -32z" />
    <glyph glyph-name="v" unicode="v" horiz-adv-x="1009" 
d="M429 0l-70.5 188.5l-70.5 185.5l-66 176l-83 220.5l-84 220.5l139 5l92.5 -260l93.5 -261l118 -332h16l119 333l93 260.5l91 254.5h137l-83 -221.5l-84 -221.5l-66 -178l-69.5 -185l-69.5 -185h-153z" />
    <glyph glyph-name="w" unicode="w" horiz-adv-x="1585" 
d="M384 0l-62 187l-63 190l-59 176l-72 218.5l-73 219.5l136 5l84 -266.5l84 -268.5l101 -321h13l99 328l78.5 260.5l78.5 262.5h129l79 -258l80 -261l102 -332h13l103 336l81 263.5l77 251.5h137l-71.5 -219l-71.5 -219l-57 -174l-62 -191.5l-61 -187.5h-158l-78.5 252.5
l-77.5 248.5l-96 306h-15l-95 -309l-75.5 -246.5l-77.5 -251.5h-150z" />
    <glyph glyph-name="x" unicode="x" horiz-adv-x="1045" 
d="M63 0l80.5 116.5l65 93l66.5 93.5l155 222l1 -41l-151 211l-67.5 94.5l-65.5 91.5l-78 110l147 5l90.5 -129.5l84.5 -121.5l114 -165h12l115 166l83 120l86 125h150l-79 -111l-62.5 -86.5l-65.5 -90.5l-153 -213l-6 39l171 -227l105 -138l123 -164h-158l-88.5 121.5
l-88.5 121.5l-133 182h-13l-120 -174l-86 -125l-87 -126h-147z" />
    <glyph glyph-name="y" unicode="y" horiz-adv-x="1018" 
d="M279 -389l79 195.5l80 194.5v-38l-77 207.5l-76 203.5l-67 180l-81 219l-82 218l139 5l91 -262l91 -262l116 -332h15l126 334l98 258.5l97 258.5h135l-61.5 -154.5l-65 -164.5l-85.5 -214l-111 -279l-127.5 -322.5l-96.5 -240.5z" />
    <glyph glyph-name="z" unicode="z" horiz-adv-x="983" 
d="M81 0v70l171.5 225l157.5 207l332 435l20 -53h-226h-132.5h-160.5h-160v107h793v-81l-92.5 -121.5l-110 -143l-107.5 -140.5l-331 -433l-16 35h250h133h157h150v-107h-828z" />
    <glyph glyph-name="braceleft" unicode="{" horiz-adv-x="786" 
d="M591 -230c-64.667 0 -120.167 10.501 -166.5 31.501s-82 51.833 -107 92.5s-37.5 90 -37.5 148v70v70v70v70v70c0 50 -9.5 90 -28.5 120s-43.167 51.667 -72.5 65s-60.333 20 -93 20h-62v102h62c32.667 0 63.667 6.66699 93 20s53.5 35.166 72.5 65.499
s28.5 70.166 28.5 119.499v70.5v70v71v70.5v70c0 87.333 27.667 154.5 83 201.5s131.333 70.5 228 70.5h166v-111h-86h-66c-66.667 0 -117.167 -15 -151.5 -45s-51.5 -73.667 -51.5 -131v-337c0 -51.333 -6.5 -92.666 -19.5 -123.999s-31.167 -56.333 -54.5 -75
s-50.666 -34.667 -81.999 -48v-16c31.333 -14 58.666 -30.333 81.999 -49s41.5 -43.667 54.5 -75s19.5 -73 19.5 -125v-335c0 -57.333 17.167 -101 51.5 -131s84.833 -45 151.5 -45h64.5h89.5v-111h-168z" />
    <glyph glyph-name="bar" unicode="|" horiz-adv-x="519" 
d="M201 -312v172.5v164v160.5v161v564v161v160.5v164.5v172h117v-172v-164.5v-160.5v-161v-564v-161v-160.5v-164v-172.5h-117z" />
    <glyph glyph-name="braceright" unicode="}" horiz-adv-x="786" 
d="M29 -230v110.998h86.5h66.5c66.667 0 117 15 151 45s51 73.667 51 131v336c0 52 6.5 93.667 19.5 125s31.167 56.333 54.5 75s50.666 34.667 81.999 48v16c-31.333 13.333 -58.666 29.5 -81.999 48.5s-41.5 44.167 -54.5 75.5s-19.5 73 -19.5 125v335
c0 57.333 -17 101 -51 131s-84.333 45 -151 45h-65h-90v111h168c64.667 0 120.167 -10.5 166.5 -31.5s82.166 -51.833 107.499 -92.5s38 -90 38 -148v-70v-70v-70v-70v-70c0 -50 9.33301 -90 28 -120s42.667 -51.667 72 -65s60.333 -20 93 -20h63v-102h-63
c-32.667 0 -63.667 -6.66699 -93 -20s-53.333 -35.166 -72 -65.499s-28 -70.166 -28 -119.499v-71v-70v-70.5v-70.5v-70c0 -87.333 -27.667 -154.5 -83 -201.5s-131.666 -70.5 -228.999 -70.5h-166z" />
    <glyph glyph-name="asciitilde" unicode="~" horiz-adv-x="1131" 
d="M790 450c-44.667 0 -86.167 8.66699 -124.5 26s-74.5 37.5 -108.5 60.5s-67.167 43.167 -99.5 60.5s-64.833 26 -97.5 26c-38.667 0 -71.167 -11.667 -97.5 -35s-39.833 -59.666 -40.5 -108.999h-93c0 83.333 20.833 147.833 62.5 193.5s93.167 68.5 154.5 68.5
c44 0 85 -8.66699 123 -26s74 -37.5 108 -60.5s67.167 -43.167 99.5 -60.5s64.833 -26 97.5 -26c38.667 0 70.667 11.667 96 35s38.333 59.666 39 108.999h92c0 -84 -20 -148.667 -60 -194s-90.333 -68 -151 -68z" />
    <glyph glyph-name="uni00A0" unicode="&#xa0;" horiz-adv-x="383" 
 />
    <glyph glyph-name="exclamdown" unicode="&#xa1;" horiz-adv-x="457" 
d="M144 -395c6.66699 162 12.833 324.833 18.5 488.5s9.16699 328.167 10.5 493.5l107 3c1.33301 -166 5 -330.5 11 -493.5l18 -485.5zM227.999 864c-23.333 0 -44 4.83398 -62 14.501s-31.667 23.167 -41 40.5s-14 37.666 -14 60.999c0 36 10.667 64.333 32 85s50 31 86 31
c24 0 44.833 -4.83301 62.5 -14.5s31.167 -23 40.5 -40s14 -37.5 14 -61.5c0 -34.667 -10.333 -62.667 -31 -84s-49.667 -32 -87 -32z" />
    <glyph glyph-name="cent" unicode="&#xa2;" horiz-adv-x="994" 
d="M509 -274v172.5v164v160.5v161v206v161v160.5v164.5v172h101v-172v-164.5v-160.5v-161v-206v-161v-161v-164.5v-171.5h-101zM605 -19c-106 0 -196.002 22.667 -270.002 68s-130.333 107 -169 185s-58 165.333 -58 262c0 98 18.833 186 56.5 264s92.167 139.667 163.5 185
s157.666 68 258.999 68c38.667 0 76.667 -3.33301 114 -10s72.5 -15.834 105.5 -27.501s62.5 -24.834 88.5 -39.501l-14 -122c-36.667 21.333 -71.667 37.833 -105 49.5s-64.666 19.667 -93.999 24s-56.333 6.5 -81 6.5c-109.333 0 -196.833 -35.5 -262.5 -106.5
s-98.5 -167.167 -98.5 -288.5c0 -76 14.333 -144.333 43 -205s71.5 -108.667 128.5 -144s128.167 -53 213.5 -53c29.333 0 58.833 2.66699 88.5 8s58.834 13.5 87.501 24.5s56.334 24.833 83.001 41.5l15 -123c-21.333 -11.333 -46.833 -22.166 -76.5 -32.499
s-62.667 -18.666 -99 -24.999s-75.833 -9.5 -118.5 -9.5z" />
    <glyph glyph-name="sterling" unicode="&#xa3;" horiz-adv-x="1174" 
d="M136 0l0.00292969 81.999c42.667 38 75.167 77.333 97.5 118s37.666 82.334 45.999 125.001s12.5 85 12.5 127v230v229c0 163.333 39.5 285 118.5 365s188.5 120 328.5 120c38.667 0 76.667 -3.5 114 -10.5s72.666 -16.167 105.999 -27.5s62.666 -24.333 87.999 -39
l-15 -124c-37.333 20.667 -73 36.834 -107 48.501s-65.667 19.667 -95 24s-57 6.5 -83 6.5c-106.667 0 -186.667 -30 -240 -90s-80 -154 -80 -282v-424c0 -49.333 -4.83301 -96.333 -14.5 -141s-27.5 -88.334 -53.5 -131.001s-64 -85 -114 -127l-14 42h289h229.5h184.5h172
v-121h-970zM124.003 706.999v100h177h160h65h160.5h176.5v-100h-176.5h-160.5h-65h-160h-177z" />
    <glyph glyph-name="currency" unicode="&#xa4;" horiz-adv-x="1230" 
d="M611 241c-57.333 0 -110.333 9.16699 -159 27.5s-91 44.833 -127 79.5s-64 76.667 -84 126s-30 105 -30 167c0 78.667 17.5 148 52.5 208s82.833 107 143.5 141s130 51 208 51c58 0 111.333 -9.66699 160 -29s91 -46.833 127 -82.5s64 -78 84 -127s30 -102.833 30 -161.5
c0 -83.333 -17.667 -154.833 -53 -214.5s-83.333 -105.5 -144 -137.5s-130 -48 -208 -48zM181 124l-84 84l126 125.5l112 112.5l84 -84l-112.5 -112.5zM612 357c79.333 0 146.168 23.167 200.501 69.5s81.5 117.5 81.5 213.5c0 60.667 -12.5 112.167 -37.5 154.5
s-58.5 74.666 -100.5 96.999s-89 33.5 -141 33.5c-52.667 0 -100.334 -11.167 -143.001 -33.5s-76.5 -54.666 -101.5 -96.999s-37.5 -93.833 -37.5 -154.5c0 -64 12.333 -117 37 -159s58.167 -73.167 100.5 -93.5s89.5 -30.5 141.5 -30.5zM336.002 838l-112.5 113.5
l-125.5 124.5l82 83l126.5 -125.5l112.5 -113.5zM1050 125l-125.5 125.5l-113.5 112.5l83 82l113.5 -112.5l124.5 -125.5zM895.002 837l-84 84l113.5 113.5l124.5 124.5l84 -84l-125 -124.5z" />
    <glyph glyph-name="yen" unicode="&#xa5;" horiz-adv-x="1233" 
d="M553 552l-300 496l-53.5 90l-58.5 97l-82 135h155l97 -163l76 -129.5l80 -135.5l142 -242h16l144 244l79.5 134.5l77.5 130l96 161.5h152l-96.5 -161l-97.5 -161l-299 -496h-128zM550 0v221.5v231.5v208h135v-208v-231.5v-221.5h-135zM165 294v93h177h160h232h160.5
h176.5v-93h-176.5h-160.5h-232h-160h-177zM165 572v92h177h160h232h160.5h176.5v-92h-176.5h-160.5h-232h-160h-177z" />
    <glyph glyph-name="brokenbar" unicode="&#xa6;" horiz-adv-x="519" 
d="M201 728v182v161v160.5v164.5v172h117v-172v-164.5v-160.5v-161v-182h-117zM201 -312v172.5v164v160.5v161v182h117v-182v-161v-160.5v-164v-172.5h-117z" />
    <glyph glyph-name="section" unicode="&#xa7;" horiz-adv-x="1074" 
d="M490 -249c-46.667 0 -94.4971 4.16406 -143.497 12.4971s-95.5 19.5 -139.5 33.5s-82.333 30.333 -115 49l13 124c36.667 -21.333 75.834 -39.666 117.501 -54.999s84.5 -27.333 128.5 -36s88 -13 132 -13c51.333 0 98.333 6.66699 141 20s76.834 36.833 102.501 70.5
s38.5 80.167 38.5 139.5c0 41.333 -10.667 75 -32 101s-56.333 49.167 -105 69.5s-114 43.166 -196 68.499c-62 19.333 -117.833 42 -167.5 68s-89 59.167 -118 99.5s-43.5 91.833 -43.5 154.5c0 46.667 8.66699 89.667 26 129s42.666 73.833 75.999 103.5
s73.666 52.167 120.999 67.5l90 -84c-29.333 -5.33301 -57.833 -16.166 -85.5 -32.499s-50.334 -38.833 -68.001 -67.5s-26.5 -65.334 -26.5 -110.001c0 -42 9.66699 -76.833 29 -104.5s49.666 -51.667 90.999 -72s94.666 -40.166 159.999 -59.499
c78 -23.333 145.5 -47.833 202.5 -73.5s101.167 -58.667 132.5 -99s47 -95.166 47 -164.499c0 -61.333 -14.167 -117.666 -42.5 -168.999s-72.5 -92.5 -132.5 -123.5s-137.667 -46.5 -233 -46.5zM787.003 257.997l-89 76.998c48.667 14 88 39.5 118 76.5s45 86.833 45 149.5
c0 42.667 -10.667 77.667 -32 105s-56.333 51.5 -105 72.5s-114 43.833 -196 68.5c-59.333 17.333 -114.166 38.833 -164.499 64.5s-90.5 59.167 -120.5 100.5s-45 94.333 -45 159c0 95.333 33.167 172.666 99.5 231.999s156.5 89 270.5 89
c45.333 0 89.5 -4.16699 132.5 -12.5s83.167 -19.5 120.5 -33.5s70.666 -29.333 99.999 -46l-13 -126c-40.667 26.667 -80.167 47.5 -118.5 62.5s-74.833 25.5 -109.5 31.5s-66.334 9 -95.001 9c-24.667 0 -51.5 -2.66699 -80.5 -8s-56.667 -15.5 -83 -30.5
s-47.833 -36.167 -64.5 -63.5s-25 -62.666 -25 -105.999c0 -40 9.83301 -73.333 29.5 -100s50 -50.167 91 -70.5s94.167 -40.166 159.5 -59.499c78 -23.333 145.5 -48 202.5 -74s101.167 -59.167 132.5 -99.5s47 -93.166 47 -158.499c0 -66.667 -16.667 -127.167 -50 -181.5
s-85.666 -96.833 -156.999 -127.5z" />
    <glyph glyph-name="dieresis" unicode="&#xa8;" horiz-adv-x="1200" 
d="M804 1224c-28 0 -50.833 8.83105 -68.5 26.498s-26.5 43.5 -26.5 77.5c0 34.667 9 60.834 27 78.501s41.333 26.5 70 26.5c29.333 0 52.5 -9.16699 69.5 -27.5s25.5 -44.166 25.5 -77.499c0 -34 -8.66699 -59.833 -26 -77.5s-41 -26.5 -71 -26.5zM388 1224
c-28 0 -50.832 8.83105 -68.499 26.498s-26.5 43.5 -26.5 77.5c0 34.667 9 60.834 27 78.501s41.333 26.5 70 26.5c29.333 0 52.666 -9.16699 69.999 -27.5s26 -44.166 26 -77.499c0 -34 -8.66699 -59.833 -26 -77.5s-41.333 -26.5 -72 -26.5z" />
    <glyph glyph-name="copyright" unicode="&#xa9;" horiz-adv-x="1643" 
d="M828 -21c-119.333 0 -223.832 18.834 -313.499 56.501s-164.667 89.167 -225 154.5s-105.833 140.666 -136.5 225.999s-46 176 -46 272c0 132.667 28.333 252.5 85 359.5s138.5 191.833 245.5 254.5s235.5 94 385.5 94c152.667 0 282 -31.667 388 -95
s186.667 -148.5 242 -255.5s83 -226.167 83 -357.5c0 -135.333 -28.5 -256.333 -85.5 -363s-138.333 -191 -244 -253s-231.834 -93 -378.501 -93zM845.001 312.001c-78 0 -143.997 16.6689 -197.997 50.002s-95.167 78.333 -123.5 135s-42.5 120.667 -42.5 192
s13.833 135.333 41.5 192s67.667 101.667 120 135s115.5 50 189.5 50c28 0 55.667 -2.33301 83 -7s53.166 -11.334 77.499 -20.001s45.833 -18.334 64.5 -29.001l-10 -102c-40.667 24.667 -78.334 40.834 -113.001 48.501s-65.667 11.5 -93 11.5
c-73.333 0 -133.5 -23.833 -180.5 -71.5s-70.5 -116.167 -70.5 -205.5c0 -85.333 23 -153.833 69 -205.5s112.667 -77.5 200 -77.5c33.333 0 65.666 4.5 96.999 13.5s62 22.833 92 41.5l12 -102c-16 -8.66699 -34.667 -16.834 -56 -24.501s-45.333 -13.667 -72 -18
s-55.667 -6.5 -87 -6.5zM828.004 72.0029c124 0 231.833 25.333 323.5 76s162.667 122 213 214s75.5 200.667 75.5 326c0 124.667 -25 233 -75 325s-121.167 163.333 -213.5 214s-201.833 76 -328.5 76c-125.333 0 -234.5 -25.5 -327.5 -76.5s-165 -122.5 -216 -214.5
s-76.5 -200 -76.5 -324c0 -124.667 25 -233.167 75 -325.5s121.667 -163.833 215 -214.5s205 -76 335 -76z" />
    <glyph glyph-name="ordfeminine" unicode="&#xaa;" horiz-adv-x="786" 
d="M307 667c-71.333 0 -126.497 19.5 -165.497 58.5s-58.5 88.5 -58.5 148.5c0 42 7.66699 77.5 23 106.5s35.166 52.833 59.499 71.5s50.333 33.167 78 43.5s53.834 17.833 78.501 22.5l249 51c2 52 -5 91.333 -21 118s-38.167 44.834 -66.5 54.501s-60.5 14.5 -96.5 14.5
c-22 0 -46.333 -2 -73 -6s-55.834 -10.667 -87.501 -20s-65.834 -22.333 -102.501 -39l-8 103c19.333 7.33301 40.5 14.5 63.5 21.5s47.167 13.167 72.5 18.5s51.166 9.66602 77.499 12.999s52.5 5 78.5 5c79.333 0 142.5 -20.167 189.5 -60.5s70.5 -106.166 70.5 -197.499
v-89v-103v-95v-105v-120h-92l-4 120h-12c-16 -24.667 -37 -47.334 -63 -68.001s-55.333 -37 -88 -49s-66.667 -18 -102 -18zM340.003 760c27.333 0 55.335 4.99805 84.002 14.998s55.5 25.833 80.5 47.5s46.167 50.167 63.5 85.5l1 196
c-8.66699 -4.66699 -19.834 -9.5 -33.501 -14.5s-33.834 -10.833 -60.501 -17.5s-63.667 -15 -111 -25c-30 -5.33301 -58.5 -13.666 -85.5 -24.999s-49.167 -27.333 -66.5 -48s-26 -48 -26 -82c0 -47.333 14.5 -81.166 43.5 -101.499s65.833 -30.5 110.5 -30.5z" />
    <glyph glyph-name="guillemotleft" unicode="&#xab;" horiz-adv-x="1094" 
d="M883 -4l-190 252.5l-191 252.5l191 252l190 253l134 -8l-185 -245.5l-185 -244.5v-16l185 -244l185 -245zM444 -4l-190 252.5l-191 252.5l191 252l190 253l134 -8l-185 -245.5l-185 -244.5v-16l185 -244l185 -245z" />
    <glyph glyph-name="logicalnot" unicode="&#xac;" horiz-adv-x="1131" 
d="M882 325v177.5v160.5v158l92 -82h-162h-148h-198h-159.5h-177.5v117h177.5h159.5h198h160.5h176.5v-193v-160.5v-177.5h-119z" />
    <glyph glyph-name="uni00AD" unicode="&#xad;" horiz-adv-x="844" 
d="M129 535v117h154.5h138.5h139h153v-117h-153h-139h-138.5h-154.5z" />
    <glyph glyph-name="registered" unicode="&#xae;" horiz-adv-x="1133" 
d="M571 517c-110.667 0 -202.832 22.4971 -276.499 67.4971s-128.667 104.333 -165 178s-54.5 154.167 -54.5 241.5c0 90.667 19.167 172.834 57.5 246.501s94.166 132 167.499 175s162.333 64.5 267 64.5c106 0 195.5 -21.833 268.5 -65.5s128.5 -102.167 166.5 -175.5
s57 -155 57 -245c0 -93.333 -19.5 -176.666 -58.5 -249.999s-95 -131.166 -168 -173.499s-160.167 -63.5 -261.5 -63.5zM374.002 730.997v92v96v192v97.5v92.5l78 -12v-90.5v-95.5v-184v-96v-92h-78zM571.002 587.997c86 0 160 17.167 222 51.5s109.333 82.833 142 145.5
s49 135.667 49 219s-16.167 156 -48.5 218s-79.666 110.5 -141.999 145.5s-137.5 52.5 -225.5 52.5c-88.667 0 -164.334 -17.5 -227.001 -52.5s-110.5 -83.667 -143.5 -146s-49.5 -134.833 -49.5 -217.5c0 -62 9.16699 -118.5 27.5 -169.5s45.5 -95 81.5 -132
s80.333 -65.333 133 -85s113 -29.5 181 -29.5zM723.002 730.997l-54.5 72.5l-50.5 65.5l-98 129l48 -31h-131v62h105c43.333 0 78.333 7.83301 105 23.5s40 44.5 40 86.5c0 30 -7 51.667 -21 65s-30.5 21.5 -49.5 24.5s-35.833 4.5 -50.5 4.5h-139l-53 68h83h112
c60 0 108 -12.167 144 -36.5s54 -64.833 54 -121.5c0 -46.667 -14.667 -86.5 -44 -119.5s-79.333 -49.5 -150 -49.5l30 34l87 -112l68 -87l60 -78h-95z" />
    <glyph glyph-name="macron" unicode="&#xaf;" horiz-adv-x="1200" 
d="M294 1269v103h146h160h160.5h145.5v-103h-145.5h-160.5h-160h-146z" />
    <glyph glyph-name="degree" unicode="&#xb0;" horiz-adv-x="940" 
d="M470 639c-76 0 -143.669 15.5 -203.002 46.5s-106 74.667 -140 131s-51 122.5 -51 198.5c0 72 17 136.667 51 194s80.833 102.833 140.5 136.5s127.834 50.5 204.501 50.5c76 0 143.333 -16.833 202 -50.5s104.834 -79.167 138.501 -136.5s50.5 -122 50.5 -194
c0 -76 -16.833 -142.167 -50.5 -198.5s-80 -100 -139 -131s-126.833 -46.5 -203.5 -46.5zM469.998 743c86 0 153.831 24.166 203.498 72.499s74.5 114.5 74.5 198.5c0 54 -11.333 101.833 -34 143.5s-54.5 74.334 -95.5 98.001s-89.833 35.5 -146.5 35.5
c-86 0 -154.167 -25.833 -204.5 -77.5s-75.5 -118.167 -75.5 -199.5c0 -56 11.333 -104.167 34 -144.5s54.834 -71.5 96.501 -93.5s90.834 -33 147.501 -33z" />
    <glyph glyph-name="plusminus" unicode="&#xb1;" horiz-adv-x="1131" 
d="M129 0v117h177.5h159.5h198h160.5h176.5v-117h-176.5h-160.5h-198h-159.5h-177.5zM129 714v117h177.5h159.5h198h160.5h176.5v-117h-176.5h-160.5h-198h-159.5h-177.5zM506 307v177v160v256v160.5v177.5h119v-177.5v-160.5v-256v-160v-177h-119z" />
    <glyph glyph-name="uni00B2" unicode="&#xb2;" horiz-adv-x="795" 
d="M71 603l-0.00195312 77.9971l87 72.5l88 72.5c68.667 56.667 127.334 109.334 176.001 158.001s86 95.667 112 141s39 91.333 39 138c0 58.667 -16.5 102.834 -49.5 132.501s-85.167 44.5 -156.5 44.5c-29.333 0 -60.166 -3.5 -92.499 -10.5s-64.833 -17.333 -97.5 -31
s-65 -30.5 -97 -50.5l-13 111c20.667 11.333 43.5 21.833 68.5 31.5s51.333 18.334 79 26.001s56 13.667 85 18s57.833 6.5 86.5 6.5c64 0 118.667 -10.833 164 -32.5s79.666 -52.167 102.999 -91.5s35 -86 35 -140c0 -50.667 -12.167 -101 -36.5 -151
s-60.666 -101.333 -108.999 -154s-108.5 -108 -180.5 -166l-159 -128l-20 25h156h185h183v-100h-636z" />
    <glyph glyph-name="uni00B3" unicode="&#xb3;" horiz-adv-x="821" 
d="M397 588c-29.333 0 -58.8311 1.83203 -88.498 5.49902s-58.667 8.83398 -87 15.501s-55.166 14.667 -80.499 24s-48.666 19.333 -69.999 30l12 105c25.333 -14 51.166 -26 77.499 -36s52.166 -18.5 77.499 -25.5s50.5 -12.167 75.5 -15.5s49.167 -5 72.5 -5
c86 0 147 16.167 183 48.5s54 73.5 54 123.5c0 59.333 -25.333 104.666 -76 135.999s-122 47 -214 47h-42.5h-43.5v83h41.5h40.5c90.667 0 156.834 16.333 198.501 49s62.5 74 62.5 124c0 49.333 -18.167 85.833 -54.5 109.5s-84.833 35.5 -145.5 35.5
c-30.667 0 -62 -3.66699 -94 -11s-64 -18 -96 -32s-64 -31 -96 -51l-11 108c20.667 12 43.167 23 67.5 33s49.833 18.833 76.5 26.5s54.334 13.834 83.001 18.501s57 7 85 7c59.333 0 111.5 -9.16699 156.5 -27.5s80.167 -44.5 105.5 -78.5s38 -74 38 -120
c0 -57.333 -18.333 -105 -55 -143s-79.334 -62.333 -128.001 -73v-11c33.333 -6 66.666 -18.5 99.999 -37.5s61.166 -45.167 83.499 -78.5s33.5 -74.333 33.5 -123c0 -74 -28.333 -136 -85 -186s-142.334 -75 -257.001 -75z" />
    <glyph glyph-name="acute" unicode="&#xb4;" horiz-adv-x="1200" 
d="M464 1160l140 198l138 195l151 4l-107.5 -133l-105.5 -131l-105 -130z" />
    <glyph glyph-name="uni00B5" unicode="&#xb5;" horiz-adv-x="1145" 
d="M185 -389v216.5v227.5v488v160v144v144l129 5v-145.5v-145v-152.5v-192c0 -85.333 15.5 -149.833 46.5 -193.5s86.5 -65.5 166.5 -65.5c46.667 0 89.334 9.83301 128.001 29.5s74 46 106 79s61 69.5 87 109.5v233v223v215h129v-144.5v-145v-158.5v-243v-140v-160h-114
c-0.666992 30 -1.5 60.333 -2.5 91s-1.83301 60.667 -2.5 90h-16c-19.333 -29.333 -45 -59.5 -77 -90.5s-70 -57.333 -114 -79s-93.333 -32.5 -148 -32.5c-56 0 -102.833 9.5 -140.5 28.5s-67.834 48.167 -90.501 87.5h42v-45v-220.5v-213.5z" />
    <glyph glyph-name="paragraph" unicode="&#xb6;" horiz-adv-x="1077" 
d="M446 608c-80 0 -147.833 19.332 -203.5 57.999s-98.167 89.5 -127.5 152.5s-44 131.167 -44 204.5c0 78.667 15.667 148.334 47 209.001s75 108.167 131 142.5s121.667 51.5 197 51.5h40v-818h-40zM449 -349.001v336.5v321.5v459v321.5v336.5h95v-336.5v-321.5v-459
v-321.5v-336.5h-95zM730 -349.001v336.5v321.5v459v321.5v336.5h96v-336.5v-321.5v-459v-321.5v-336.5h-96zM485 1334v92h198h160.5h177.5v-92h-177.5h-160.5h-198z" />
    <glyph glyph-name="periodcentered" unicode="&#xb7;" horiz-adv-x="457" 
d="M228 529c-23.333 0 -44 5.00195 -62 15.002s-31.667 23.667 -41 41s-14 37.666 -14 60.999c0 36 10.667 64.167 32 84.5s50 30.5 86 30.5c24 0 44.833 -4.66699 62.5 -14s31.167 -22.5 40.5 -39.5s14 -37.5 14 -61.5c0 -34.667 -10.333 -62.834 -31 -84.501
s-49.667 -32.5 -87 -32.5z" />
    <glyph glyph-name="cedilla" unicode="&#xb8;" horiz-adv-x="1200" 
d="M551 -426c-13.333 0 -27.333 0.664062 -42 1.99707s-28.667 3 -42 5s-25 4.66699 -35 8v90c9.33301 -3.33301 23.666 -6.66602 42.999 -9.99902s40.333 -5 63 -5c49.333 0 83.333 8.16699 102 24.5s28 36.5 28 60.5c0 13.333 -4.83301 26.5 -14.5 39.5
s-27.5 24.667 -53.5 35s-63.667 17.5 -113 21.5l79 188h80v-33l-52 -119c48.667 -6.66699 86.5 -17.667 113.5 -33s45.667 -33 56 -53s15.5 -40.333 15.5 -61c0 -29.333 -7.5 -56.166 -22.5 -80.499s-39.167 -43.666 -72.5 -57.999s-77.666 -21.5 -132.999 -21.5z" />
    <glyph glyph-name="uni00B9" unicode="&#xb9;" horiz-adv-x="625" 
d="M79 1257l-27 91l174.5 90l170.5 87l-2 -105l-149.5 -76.5zM342 603v143v152v286v145v144l55 52l55 -3v-156v-164v-304v-152v-143h-110z" />
    <glyph glyph-name="ordmasculine" unicode="&#xba;" horiz-adv-x="908" 
d="M457 666c-80.667 0 -148.999 18.666 -204.999 55.999s-98.5 86 -127.5 146s-43.5 125.333 -43.5 196c0 74.667 15.333 141.167 46 199.5s74 104.166 130 137.499s122 50 198 50c78.667 0 145.667 -17 201 -51s97.666 -80.167 126.999 -138.5s44 -124.166 44 -197.499
c0 -74 -15 -141.167 -45 -201.5s-72.667 -108.166 -128 -143.499s-121 -53 -197 -53zM456.001 760.999c59.333 0 108.332 14.5 146.999 43.5s67.667 66.5 87 112.5s29 95 29 147c0 87.333 -23.5 157.833 -70.5 211.5s-111.167 80.5 -192.5 80.5c-58 0 -106.667 -13 -146 -39
s-69.333 -61.167 -90 -105.5s-31 -93.5 -31 -147.5c0 -52 9.83301 -101 29.5 -147s49.334 -83.5 89.001 -112.5s89.167 -43.5 148.5 -43.5z" />
    <glyph glyph-name="guillemotright" unicode="&#xbb;" horiz-adv-x="1094" 
d="M649 -4l-134 8l185.5 245l185.5 245v16l-185.5 244l-185.5 245l134 7l191 -253l191 -252l-191 -252.5zM210 -4l-134 8l185.5 245l185.5 245v16l-185.5 244l-185.5 245l134 7l191 -253l191 -252l-191 -252.5z" />
    <glyph glyph-name="onequarter" unicode="&#xbc;" horiz-adv-x="1854" 
d="M79 1161l-27 91l174.5 90l170.5 87l-2 -105l-149.5 -76.5zM342 507v143v152v286v145v144l55 52l55 -3v-156v-164v-304v-152v-143h-110zM451 0l119 216l132 242l273 496l95 173l83 150l82 149h131l-81.5 -149l-82.5 -150l-95 -173l-273 -496l-133 -242l-119 -216h-131z
M1517 0v119.5v133.5l8 21v304v143v143l80 38l-78.5 -105.5l-78.5 -106.5l-171 -228l-69 -93l-67 -90l-4 24h409l19 7h125.5h120.5v-100h-120.5h-125.5h-519v77l64 85.5l75.5 101.5l70.5 95l123 167l69.5 91.5l68.5 91.5h110v-164.5v-160.5v-341v-133.5v-119.5h-110z" />
    <glyph glyph-name="onehalf" unicode="&#xbd;" horiz-adv-x="1987" 
d="M79 1161l-27 91l174.5 90l170.5 87l-2 -105l-149.5 -76.5zM342 507v143v152v286v145v144l55 52l55 -3v-156v-164v-304v-152v-143h-110zM451 0l119 216l132 242l273 496l95 173l83 150l82 149h131l-81.5 -149l-82.5 -150l-95 -173l-273 -496l-133 -242l-119 -216h-131z
M1263 0l-0.00195312 77.9971l87 72.5l88 72.5c68.667 56.667 127.334 109.334 176.001 158.001s86 95.667 112 141s39 91.333 39 138c0 58.667 -16.5 102.834 -49.5 132.501s-85.167 44.5 -156.5 44.5c-29.333 0 -60.166 -3.5 -92.499 -10.5s-64.833 -17.333 -97.5 -31
s-65 -30.5 -97 -50.5l-13 111c20.667 11.333 43.5 21.833 68.5 31.5s51.333 18.334 79 26.001s56 13.667 85 18s57.833 6.5 86.5 6.5c64 0 118.667 -10.833 164 -32.5s79.666 -52.167 102.999 -91.5s35 -86 35 -140c0 -50.667 -12.167 -101 -36.5 -151
s-60.666 -101.333 -108.999 -154s-108.5 -108 -180.5 -166l-159 -128l-20 25h156h185h183v-100h-636z" />
    <glyph glyph-name="threequarters" unicode="&#xbe;" horiz-adv-x="1960" 
d="M397 492c-29.333 0 -58.8311 1.83203 -88.498 5.49902s-58.667 8.83398 -87 15.501s-55.166 14.667 -80.499 24s-48.666 19.333 -69.999 30l12 105c25.333 -14 51.166 -26 77.499 -36s52.166 -18.5 77.499 -25.5s50.5 -12.167 75.5 -15.5s49.167 -5 72.5 -5
c86 0 147 16.167 183 48.5s54 73.5 54 123.5c0 59.333 -25.333 104.666 -76 135.999s-122 47 -214 47h-42.5h-43.5v83h41.5h40.5c90.667 0 156.834 16.333 198.501 49s62.5 74 62.5 124c0 49.333 -18.167 85.833 -54.5 109.5s-84.833 35.5 -145.5 35.5
c-30.667 0 -62 -3.66699 -94 -11s-64 -18 -96 -32s-64 -31 -96 -51l-11 108c20.667 12 43.167 23 67.5 33s49.833 18.833 76.5 26.5s54.334 13.834 83.001 18.501s57 7 85 7c59.333 0 111.5 -9.16699 156.5 -27.5s80.167 -44.5 105.5 -78.5s38 -74 38 -120
c0 -57.333 -18.333 -105 -55 -143s-79.334 -62.333 -128.001 -73v-11c33.333 -6 66.666 -18.5 99.999 -37.5s61.166 -45.167 83.499 -78.5s33.5 -74.333 33.5 -123c0 -74 -28.333 -136 -85 -186s-142.334 -75 -257.001 -75zM557.002 -0.000976562l119 216l132 242l273 496
l95 173l83 150l82 149h131l-81.5 -149l-82.5 -150l-95 -173l-273 -496l-133 -242l-119 -216h-131zM1623 -0.000976562v119.5v133.5l8 21v304v143v143l80 38l-78.5 -105.5l-78.5 -106.5l-171 -228l-69 -93l-67 -90l-4 24h409l19 7h125.5h120.5v-100h-120.5h-125.5h-519v77
l64 85.5l75.5 101.5l70.5 95l123 167l69.5 91.5l68.5 91.5h110v-164.5v-160.5v-341v-133.5v-119.5h-110z" />
    <glyph glyph-name="questiondown" unicode="&#xbf;" horiz-adv-x="783" 
d="M446 -423c-67.333 0 -126.334 10.5 -177.001 31.5s-90 52 -118 93s-42 91.833 -42 152.5s13 113.5 39 158.5s58.667 84.5 98 118.5s78.666 65.333 117.999 94c45.333 34 85.333 67.333 120 100s52 70 52 112c0 46.667 -14.5 79 -43.5 97s-63.5 27 -103.5 27
c-25.333 0 -48.5 -2.66699 -69.5 -8s-38.5 -11 -52.5 -17l-6 82c11.333 3.33301 25.333 6.83301 42 10.5s34.667 6.66699 54 9s39 3.5 59 3.5c74.667 0 133.5 -18 176.5 -54s64.5 -84.333 64.5 -145c0 -42 -10 -79.167 -30 -111.5s-45.833 -62 -77.5 -89
s-65.167 -53.5 -100.5 -79.5s-69.166 -53 -101.499 -81s-59 -59 -80 -93s-31.5 -72.667 -31.5 -116c0 -58 20.333 -102.167 61 -132.5s96.667 -45.5 168 -45.5c30.667 0 61.834 2.83301 93.501 8.5s63.834 14.334 96.501 26.001s65.334 25.834 98.001 42.501l9 -121l-60 -23
c-22.667 -8.66699 -47.334 -16.834 -74.001 -24.501s-55.334 -13.834 -86.001 -18.501s-62.667 -7 -96 -7zM455.999 864c-24 0 -44.667 4.83398 -62 14.501s-30.833 23.167 -40.5 40.5s-14.5 37.666 -14.5 60.999c0 36 10.667 64.333 32 85s50 31 86 31
c24 0 44.833 -4.83301 62.5 -14.5s31.167 -23 40.5 -40s14 -37.5 14 -61.5c0 -34.667 -10.5 -62.667 -31.5 -84s-49.833 -32 -86.5 -32z" />
    <glyph glyph-name="Agrave" unicode="&#xc0;" horiz-adv-x="1365" 
d="M63 0l90 242.5l90 241.5l181 489l88.5 238l79.5 215h188l79 -216l87 -238l180 -491l89 -242.5l87 -238.5h-146l-94.5 263.5l-91.5 256.5l-277 774h-16l-279 -767l-94.5 -261.5l-96.5 -265.5h-144zM306 375l10 114h746l8 -114h-764zM708 1579l-104.5 117.5l-105.5 119
l-108 121.5l150 2l139.5 -178.5l139.5 -179.5z" />
    <glyph glyph-name="Aacute" unicode="&#xc1;" horiz-adv-x="1365" 
d="M63 0l90 242.5l90 241.5l181 489l88.5 238l79.5 215h188l79 -216l87 -238l180 -491l89 -242.5l87 -238.5h-146l-94.5 263.5l-91.5 256.5l-277 774h-16l-279 -767l-94.5 -261.5l-96.5 -265.5h-144zM306 375l10 114h746l8 -114h-764zM547 1579l140 180l138 178l151 2
l-107 -121l-105.5 -119l-105.5 -118z" />
    <glyph glyph-name="Acircumflex" unicode="&#xc2;" horiz-adv-x="1365" 
d="M63 0l90 242.5l90 241.5l181 489l88.5 238l79.5 215h188l79 -216l87 -238l180 -491l89 -242.5l87 -238.5h-146l-94.5 263.5l-91.5 256.5l-277 774h-16l-279 -767l-94.5 -261.5l-96.5 -265.5h-144zM306 375l10 114h746l8 -114h-764zM922 1577l-131 151.5l-131 152.5h41
l-131 -150.5l-130 -149.5h-111l138.5 177l139.5 179h147l138.5 -179.5l139.5 -178.5z" />
    <glyph glyph-name="Atilde" unicode="&#xc3;" horiz-adv-x="1365" 
d="M63 0l90 242.5l90 241.5l181 489l88.5 238l79.5 215h188l79 -216l87 -238l180 -491l89 -242.5l87 -238.5h-146l-94.5 263.5l-91.5 256.5l-277 774h-16l-279 -767l-94.5 -261.5l-96.5 -265.5h-144zM306 375l10 114h746l8 -114h-764zM849 1577
c-39.333 0 -73.1699 8.83301 -101.503 26.5s-54 38.334 -77 62.001s-45.333 44.334 -67 62.001s-45.167 26.5 -70.5 26.5c-40 0 -68 -12.333 -84 -37s-24.333 -61.667 -25 -111h-87c0 82 16.333 144.667 49 188s77.334 65 134.001 65c38.667 0 72.167 -8.83301 100.5 -26.5
s53.833 -38.334 76.5 -62.001s44.834 -44.334 66.501 -62.001s45.167 -26.5 70.5 -26.5c40 0 67.833 12.5 83.5 37.5s23.834 61.833 24.501 110.5h87c0 -81.333 -16 -143.833 -48 -187.5s-76 -65.5 -132 -65.5z" />
    <glyph glyph-name="Adieresis" unicode="&#xc4;" horiz-adv-x="1365" 
d="M63 0l90 242.5l90 241.5l181 489l88.5 238l79.5 215h188l79 -216l87 -238l180 -491l89 -242.5l87 -238.5h-146l-94.5 263.5l-91.5 256.5l-277 774h-16l-279 -767l-94.5 -261.5l-96.5 -265.5h-144zM306 375l10 114h746l8 -114h-764zM889 1643
c-28 0 -50.833 8.66504 -68.5 25.998s-26.5 43.333 -26.5 78s9 60.834 27 78.501s41.333 26.5 70 26.5c29.333 0 52.5 -9.16699 69.5 -27.5s25.5 -44.166 25.5 -77.499c0 -34.667 -8.66699 -60.667 -26 -78s-41 -26 -71 -26zM473 1643c-28 0 -50.832 8.66504 -68.499 25.998
s-26.5 43.333 -26.5 78s9 60.834 27 78.501s41.333 26.5 70 26.5c29.333 0 52.666 -9.16699 69.999 -27.5s26 -44.166 26 -77.499c0 -34.667 -8.66699 -60.667 -26 -78s-41.333 -26 -72 -26z" />
    <glyph glyph-name="Aring" unicode="&#xc5;" horiz-adv-x="1365" 
d="M63 0l90 242.5l90 241.5l181 489l88.5 238l79.5 215h188l79 -216l87 -238l180 -491l89 -242.5l87 -238.5h-146l-94.5 263.5l-91.5 256.5l-277 774h-16l-279 -767l-94.5 -261.5l-96.5 -265.5h-144zM306 375l10 114h746l8 -114h-764zM681 1567
c-42.667 0 -80.1689 7.83301 -112.502 23.5s-57.666 38.5 -75.999 68.5s-27.5 66.333 -27.5 109c0 60 20.167 108.333 60.5 145s92.833 55 157.5 55c42.667 0 80.334 -8.5 113.001 -25.5s58 -40.5 76 -70.5s27 -64.667 27 -104c0 -42.667 -9.16699 -79 -27.5 -109
s-43.833 -52.833 -76.5 -68.5s-70.667 -23.5 -114 -23.5zM680.998 1643c38.667 0 70.668 10.333 96.001 31s38 52 38 94c0 38 -12.5 68.167 -37.5 90.5s-56.5 33.5 -94.5 33.5c-38.667 0 -70.667 -11 -96 -33s-38 -52.333 -38 -91c0 -42 12.667 -73.333 38 -94
s56.666 -31 93.999 -31z" />
    <glyph glyph-name="AE" unicode="&#xc6;" horiz-adv-x="1928" 
d="M30 0l136 241.5l134 241.5l277 495l130.5 233l120.5 215h981v-123h-142h-160.5h-192.5h-277l41 104v-232v-244v-438v-241v-231l-39 102h288h171.5h160h151.5v-123h-870v231v242v477v242.5v219.5l69 -106h-104l-433 -779l-145 -261.5l-148 -265.5h-149zM348 375l10 114
h637l9 -114h-656zM1048 664v119h281h242.5h195.5v-119h-99.5h-101.5h-110.5h-127.5h-280z" />
    <glyph glyph-name="Ccedilla" unicode="&#xc7;" horiz-adv-x="1371" 
d="M832 -21c-112 0 -212.839 18.667 -302.506 56s-165.834 89.166 -228.501 155.499s-110.667 144.333 -144 234s-50 186.834 -50 291.501c0 144 29.667 271.333 89 382s141.5 197.167 246.5 259.5s225.833 93.5 362.5 93.5c47.333 0 93.333 -3.33301 138 -10
s86.834 -16 126.501 -28s76.167 -24.667 109.5 -38s62 -26.666 86 -39.999l-14 -138c-51.333 30 -101.666 54.333 -150.999 73s-97.833 32.334 -145.5 41.001s-94.5 13 -140.5 13c-109.333 0 -206.166 -24.833 -290.499 -74.5s-150.5 -120 -198.5 -211
s-72 -198.833 -72 -323.5c0 -84 12.333 -162.833 37 -236.5s61.834 -138.5 111.501 -194.5s111.334 -99.833 185.001 -131.5s158.834 -47.5 255.501 -47.5c34.667 0 69.167 2.16699 103.5 6.5s68.5 11 102.5 20s67.333 21.167 100 36.5s64 33.666 94 54.999l14 -137
c-28 -18 -58.833 -33.833 -92.5 -47.5s-68.667 -24.834 -105 -33.501s-73.666 -15.167 -111.999 -19.5s-76.5 -6.5 -114.5 -6.5zM751.994 -426c-13.333 0 -27.333 0.664062 -42 1.99707s-28.667 3 -42 5s-25 4.66699 -35 8v90
c9.33301 -3.33301 23.666 -6.66602 42.999 -9.99902s40.333 -5 63 -5c49.333 0 83.333 8.16699 102 24.5s28 36.5 28 60.5c0 13.333 -4.83301 26.5 -14.5 39.5s-27.5 24.667 -53.5 35s-63.667 17.5 -113 21.5l79 188h80v-33l-52 -119
c48.667 -6.66699 86.5 -17.667 113.5 -33s45.667 -33 56 -53s15.5 -40.333 15.5 -61c0 -29.333 -7.5 -56.166 -22.5 -80.499s-39.167 -43.666 -72.5 -57.999s-77.666 -21.5 -132.999 -21.5z" />
    <glyph glyph-name="Egrave" unicode="&#xc8;" horiz-adv-x="1185" 
d="M197 0v231v242v477v244.5v231.5h869v-123h-219h-275h-313l76 104v-232v-244v-438v-241v-231l-70 102h319h254h229v-123h-870zM305 664v119h282h241.5h195.5v-119h-200.5h-238.5h-280zM659 1579l-104.5 117.5l-105.5 119l-108 121.5l150 2l139.5 -178.5l139.5 -179.5z" />
    <glyph glyph-name="Eacute" unicode="&#xc9;" horiz-adv-x="1185" 
d="M197 0v231v242v477v244.5v231.5h869v-123h-219h-275h-313l76 104v-232v-244v-438v-241v-231l-70 102h319h254h229v-123h-870zM305 664v119h282h241.5h195.5v-119h-200.5h-238.5h-280zM498 1579l140 180l138 178l151 2l-107 -121l-105.5 -119l-105.5 -118z" />
    <glyph glyph-name="Ecircumflex" unicode="&#xca;" horiz-adv-x="1185" 
d="M197 0v231v242v477v244.5v231.5h869v-123h-219h-275h-313l76 104v-232v-244v-438v-241v-231l-70 102h319h254h229v-123h-870zM305 664v119h282h241.5h195.5v-119h-200.5h-238.5h-280zM873 1577l-131 151.5l-131 152.5h41l-131 -150.5l-130 -149.5h-111l138.5 177
l139.5 179h147l138.5 -179.5l139.5 -178.5z" />
    <glyph glyph-name="Edieresis" unicode="&#xcb;" horiz-adv-x="1185" 
d="M197 0v231v242v477v244.5v231.5h869v-123h-219h-275h-313l76 104v-232v-244v-438v-241v-231l-70 102h319h254h229v-123h-870zM305 664v119h282h241.5h195.5v-119h-200.5h-238.5h-280zM840 1643c-28 0 -50.833 8.66504 -68.5 25.998s-26.5 43.333 -26.5 78
s9 60.834 27 78.501s41.333 26.5 70 26.5c29.333 0 52.5 -9.16699 69.5 -27.5s25.5 -44.166 25.5 -77.499c0 -34.667 -8.66699 -60.667 -26 -78s-41 -26 -71 -26zM424 1643c-28 0 -50.832 8.66504 -68.499 25.998s-26.5 43.333 -26.5 78s9 60.834 27 78.501
s41.333 26.5 70 26.5c29.333 0 52.666 -9.16699 69.999 -27.5s26 -44.166 26 -77.499c0 -34.667 -8.66699 -60.667 -26 -78s-41.333 -26 -72 -26z" />
    <glyph glyph-name="Igrave" unicode="&#xcc;" horiz-adv-x="540" 
d="M199 0v231v242v477v244.5v231.5h142v-231.5v-244.5v-477v-242v-231h-142zM293 1579l-104.5 117.5l-105.5 119l-108 121.5l150 2l139.5 -178.5l139.5 -179.5z" />
    <glyph glyph-name="Iacute" unicode="&#xcd;" horiz-adv-x="540" 
d="M199 0v231v242v477v244.5v231.5h142v-231.5v-244.5v-477v-242v-231h-142zM132 1579l140 180l138 178l151 2l-107 -121l-105.5 -119l-105.5 -118z" />
    <glyph glyph-name="Icircumflex" unicode="&#xce;" horiz-adv-x="540" 
d="M199 0v231v242v477v244.5v231.5h142v-231.5v-244.5v-477v-242v-231h-142zM507 1577l-131 151.5l-131 152.5h41l-131 -150.5l-130 -149.5h-111l138.5 177l139.5 179h147l138.5 -179.5l139.5 -178.5z" />
    <glyph glyph-name="Idieresis" unicode="&#xcf;" horiz-adv-x="540" 
d="M199 0v231v242v477v244.5v231.5h142v-231.5v-244.5v-477v-242v-231h-142zM474 1643c-28 0 -50.833 8.66504 -68.5 25.998s-26.5 43.333 -26.5 78s9 60.834 27 78.501s41.333 26.5 70 26.5c29.333 0 52.5 -9.16699 69.5 -27.5s25.5 -44.166 25.5 -77.499
c0 -34.667 -8.66699 -60.667 -26 -78s-41 -26 -71 -26zM58 1643c-28 0 -50.832 8.66504 -68.499 25.998s-26.5 43.333 -26.5 78s9 60.834 27 78.501s41.333 26.5 70 26.5c29.333 0 52.666 -9.16699 69.999 -27.5s26 -44.166 26 -77.499c0 -34.667 -8.66699 -60.667 -26 -78
s-41.333 -26 -72 -26z" />
    <glyph glyph-name="Eth" unicode="&#xd0;" horiz-adv-x="1475" 
d="M-22 642v107h177.5h159.5h93h160h177v-107h-177h-160h-93h-159.5h-177.5zM197 0l0.00195312 231v242v477v244.5v231.5h170.5h155.5h156c110.667 0 208.667 -15.833 294 -47.5s157.333 -78.167 216 -139.5s103.167 -135.5 133.5 -222.5s45.5 -186.167 45.5 -297.5
c0 -100.667 -13.5 -194.5 -40.5 -281.5s-69.333 -163.167 -127 -228.5s-133.334 -116.5 -227.001 -153.5s-207.834 -55.5 -342.501 -55.5h-153h-137.5h-143.5zM338.002 120l295 -0.00195312c145.333 0 261 26.333 347 79s147.833 124.334 185.5 215.001
s56.5 193.334 56.5 308.001c0 88.667 -11.167 168.834 -33.5 240.501s-56.5 133.167 -102.5 184.5s-104.667 90.666 -176 117.999s-156 41 -254 41h-318v-182v-197v-431v-195v-181z" />
    <glyph glyph-name="Ntilde" unicode="&#xd1;" horiz-adv-x="1510" 
d="M197 0v231v242v477v244.5v231.5h130l260.5 -366l248.5 -349l330 -463h12v702v244.5v231.5h135v-231.5v-244.5v-477v-242v-231h-127l-236.5 333l-274.5 385l-331 466h-12v-711v-242v-231h-135zM922 1577c-39.333 0 -73.1699 8.83301 -101.503 26.5s-54 38.334 -77 62.001
s-45.333 44.334 -67 62.001s-45.167 26.5 -70.5 26.5c-40 0 -68 -12.333 -84 -37s-24.333 -61.667 -25 -111h-87c0 82 16.333 144.667 49 188s77.334 65 134.001 65c38.667 0 72.167 -8.83301 100.5 -26.5s53.833 -38.334 76.5 -62.001s44.834 -44.334 66.501 -62.001
s45.167 -26.5 70.5 -26.5c40 0 67.833 12.5 83.5 37.5s23.834 61.833 24.501 110.5h87c0 -81.333 -16 -143.833 -48 -187.5s-76 -65.5 -132 -65.5z" />
    <glyph glyph-name="Ograve" unicode="&#xd2;" horiz-adv-x="1635" 
d="M825 -21c-119.333 0 -223.831 19.5029 -313.498 58.5029s-164.5 92.5 -224.5 160.5s-105 146.333 -135 235s-45 182.667 -45 282c0 138 28.167 262.667 84.5 374s137.666 199.5 243.999 264.5s234.166 97.5 383.499 97.5c114 0 215 -18.833 303 -56.5
s162.167 -90.334 222.5 -158.001s106 -145.834 137 -234.501s46.5 -184.334 46.5 -287.001c0 -140 -28.167 -265.5 -84.5 -376.5s-137 -198.667 -242 -263s-230.5 -96.5 -376.5 -96.5zM820.002 105.003c98 0 182.332 16.666 252.999 49.999s128.834 78.833 174.501 136.5
s79.5 122.834 101.5 195.501s33 148.667 33 228c0 85.333 -11.833 165 -35.5 239s-59 138.833 -106 194.5s-105.5 99.167 -175.5 130.5s-151.667 47 -245 47c-96 0 -179.5 -16.5 -250.5 -49.5s-129.833 -78.167 -176.5 -135.5s-81.667 -122.5 -105 -195.5
s-35 -149.833 -35 -230.5s11.333 -157.667 34 -231s57 -138.5 103 -195.5s104.667 -101.833 176 -134.5s156 -49 254 -49zM842.001 1579l-104.5 117.5l-105.5 119l-108 121.5l150 2l139.5 -178.5l139.5 -179.5z" />
    <glyph glyph-name="Oacute" unicode="&#xd3;" horiz-adv-x="1635" 
d="M825 -21c-119.333 0 -223.831 19.5029 -313.498 58.5029s-164.5 92.5 -224.5 160.5s-105 146.333 -135 235s-45 182.667 -45 282c0 138 28.167 262.667 84.5 374s137.666 199.5 243.999 264.5s234.166 97.5 383.499 97.5c114 0 215 -18.833 303 -56.5
s162.167 -90.334 222.5 -158.001s106 -145.834 137 -234.501s46.5 -184.334 46.5 -287.001c0 -140 -28.167 -265.5 -84.5 -376.5s-137 -198.667 -242 -263s-230.5 -96.5 -376.5 -96.5zM820.002 105.003c98 0 182.332 16.666 252.999 49.999s128.834 78.833 174.501 136.5
s79.5 122.834 101.5 195.501s33 148.667 33 228c0 85.333 -11.833 165 -35.5 239s-59 138.833 -106 194.5s-105.5 99.167 -175.5 130.5s-151.667 47 -245 47c-96 0 -179.5 -16.5 -250.5 -49.5s-129.833 -78.167 -176.5 -135.5s-81.667 -122.5 -105 -195.5
s-35 -149.833 -35 -230.5s11.333 -157.667 34 -231s57 -138.5 103 -195.5s104.667 -101.833 176 -134.5s156 -49 254 -49zM681.001 1579l140 180l138 178l151 2l-107 -121l-105.5 -119l-105.5 -118z" />
    <glyph glyph-name="Ocircumflex" unicode="&#xd4;" horiz-adv-x="1635" 
d="M825 -21c-119.333 0 -223.831 19.5029 -313.498 58.5029s-164.5 92.5 -224.5 160.5s-105 146.333 -135 235s-45 182.667 -45 282c0 138 28.167 262.667 84.5 374s137.666 199.5 243.999 264.5s234.166 97.5 383.499 97.5c114 0 215 -18.833 303 -56.5
s162.167 -90.334 222.5 -158.001s106 -145.834 137 -234.501s46.5 -184.334 46.5 -287.001c0 -140 -28.167 -265.5 -84.5 -376.5s-137 -198.667 -242 -263s-230.5 -96.5 -376.5 -96.5zM820.002 105.003c98 0 182.332 16.666 252.999 49.999s128.834 78.833 174.501 136.5
s79.5 122.834 101.5 195.501s33 148.667 33 228c0 85.333 -11.833 165 -35.5 239s-59 138.833 -106 194.5s-105.5 99.167 -175.5 130.5s-151.667 47 -245 47c-96 0 -179.5 -16.5 -250.5 -49.5s-129.833 -78.167 -176.5 -135.5s-81.667 -122.5 -105 -195.5
s-35 -149.833 -35 -230.5s11.333 -157.667 34 -231s57 -138.5 103 -195.5s104.667 -101.833 176 -134.5s156 -49 254 -49zM1056 1577l-131 151.5l-131 152.5h41l-131 -150.5l-130 -149.5h-111l138.5 177l139.5 179h147l138.5 -179.5l139.5 -178.5z" />
    <glyph glyph-name="Otilde" unicode="&#xd5;" horiz-adv-x="1635" 
d="M825 -21c-119.333 0 -223.831 19.5029 -313.498 58.5029s-164.5 92.5 -224.5 160.5s-105 146.333 -135 235s-45 182.667 -45 282c0 138 28.167 262.667 84.5 374s137.666 199.5 243.999 264.5s234.166 97.5 383.499 97.5c114 0 215 -18.833 303 -56.5
s162.167 -90.334 222.5 -158.001s106 -145.834 137 -234.501s46.5 -184.334 46.5 -287.001c0 -140 -28.167 -265.5 -84.5 -376.5s-137 -198.667 -242 -263s-230.5 -96.5 -376.5 -96.5zM820.002 105.003c98 0 182.332 16.666 252.999 49.999s128.834 78.833 174.501 136.5
s79.5 122.834 101.5 195.501s33 148.667 33 228c0 85.333 -11.833 165 -35.5 239s-59 138.833 -106 194.5s-105.5 99.167 -175.5 130.5s-151.667 47 -245 47c-96 0 -179.5 -16.5 -250.5 -49.5s-129.833 -78.167 -176.5 -135.5s-81.667 -122.5 -105 -195.5
s-35 -149.833 -35 -230.5s11.333 -157.667 34 -231s57 -138.5 103 -195.5s104.667 -101.833 176 -134.5s156 -49 254 -49zM983.001 1577c-39.333 0 -73.1699 8.83301 -101.503 26.5s-54 38.334 -77 62.001s-45.333 44.334 -67 62.001s-45.167 26.5 -70.5 26.5
c-40 0 -68 -12.333 -84 -37s-24.333 -61.667 -25 -111h-87c0 82 16.333 144.667 49 188s77.334 65 134.001 65c38.667 0 72.167 -8.83301 100.5 -26.5s53.833 -38.334 76.5 -62.001s44.834 -44.334 66.501 -62.001s45.167 -26.5 70.5 -26.5c40 0 67.833 12.5 83.5 37.5
s23.834 61.833 24.501 110.5h87c0 -81.333 -16 -143.833 -48 -187.5s-76 -65.5 -132 -65.5z" />
    <glyph glyph-name="Odieresis" unicode="&#xd6;" horiz-adv-x="1635" 
d="M825 -21c-119.333 0 -223.831 19.5029 -313.498 58.5029s-164.5 92.5 -224.5 160.5s-105 146.333 -135 235s-45 182.667 -45 282c0 138 28.167 262.667 84.5 374s137.666 199.5 243.999 264.5s234.166 97.5 383.499 97.5c114 0 215 -18.833 303 -56.5
s162.167 -90.334 222.5 -158.001s106 -145.834 137 -234.501s46.5 -184.334 46.5 -287.001c0 -140 -28.167 -265.5 -84.5 -376.5s-137 -198.667 -242 -263s-230.5 -96.5 -376.5 -96.5zM820.002 105.003c98 0 182.332 16.666 252.999 49.999s128.834 78.833 174.501 136.5
s79.5 122.834 101.5 195.501s33 148.667 33 228c0 85.333 -11.833 165 -35.5 239s-59 138.833 -106 194.5s-105.5 99.167 -175.5 130.5s-151.667 47 -245 47c-96 0 -179.5 -16.5 -250.5 -49.5s-129.833 -78.167 -176.5 -135.5s-81.667 -122.5 -105 -195.5
s-35 -149.833 -35 -230.5s11.333 -157.667 34 -231s57 -138.5 103 -195.5s104.667 -101.833 176 -134.5s156 -49 254 -49zM1023 1643c-28 0 -50.833 8.66504 -68.5 25.998s-26.5 43.333 -26.5 78s9 60.834 27 78.501s41.333 26.5 70 26.5c29.333 0 52.5 -9.16699 69.5 -27.5
s25.5 -44.166 25.5 -77.499c0 -34.667 -8.66699 -60.667 -26 -78s-41 -26 -71 -26zM607.001 1643c-28 0 -50.832 8.66504 -68.499 25.998s-26.5 43.333 -26.5 78s9 60.834 27 78.501s41.333 26.5 70 26.5c29.333 0 52.666 -9.16699 69.999 -27.5s26 -44.166 26 -77.499
c0 -34.667 -8.66699 -60.667 -26 -78s-41.333 -26 -72 -26z" />
    <glyph glyph-name="multiply" unicode="&#xd7;" horiz-adv-x="1124" 
d="M905 167l-125.5 126.5l-113.5 113.5l-294 293l-112.5 113.5l-125.5 125.5l84 84l126.5 -125l113.5 -115l292 -292l115 -113.5l125 -126.5zM218 167l-84 84l84.5 85.5l80.5 80l75 74.5l292 293l114.5 114.5l124.5 124.5l85 -84l-124.5 -125.5l-114.5 -113.5l-293 -293
l-113.5 -113.5z" />
    <glyph glyph-name="Oslash" unicode="&#xd8;" horiz-adv-x="1635" 
d="M825 -21c-119.333 0 -223.831 19.5029 -313.498 58.5029s-164.5 92.5 -224.5 160.5s-105 146.333 -135 235s-45 182.667 -45 282c0 138 28.167 262.667 84.5 374s137.666 199.5 243.999 264.5s234.166 97.5 383.499 97.5c114 0 215 -18.833 303 -56.5
s162.167 -90.334 222.5 -158.001s106 -145.834 137 -234.501s46.5 -184.334 46.5 -287.001c0 -140 -28.167 -265.5 -84.5 -376.5s-137 -198.667 -242 -263s-230.5 -96.5 -376.5 -96.5zM820.002 105.003c98 0 182.332 16.666 252.999 49.999s128.834 78.833 174.501 136.5
s79.5 122.834 101.5 195.501s33 148.667 33 228c0 85.333 -11.833 165 -35.5 239s-59 138.833 -106 194.5s-105.5 99.167 -175.5 130.5s-151.667 47 -245 47c-96 0 -179.5 -16.5 -250.5 -49.5s-129.833 -78.167 -176.5 -135.5s-81.667 -122.5 -105 -195.5
s-35 -149.833 -35 -230.5s11.333 -157.667 34 -231s57 -138.5 103 -195.5s104.667 -101.833 176 -134.5s156 -49 254 -49zM257.001 -122.998l-77 64l196.5 257.5l199.5 261.5l394 514l205.5 268.5l195.5 255.5l80 -60l-196 -256.5l-203 -265.5l-397 -519l-203.5 -266z" />
    <glyph glyph-name="Ugrave" unicode="&#xd9;" horiz-adv-x="1462" 
d="M732 -21c-130 0 -235.833 22.832 -317.5 68.499s-141.834 109.5 -180.501 191.5s-58 177.333 -58 286v110v148.5v166.5v244.5v231.5h141v-231.5v-244.5v-407c0 -91.333 13.5 -169.666 40.5 -234.999s70.833 -115.5 131.5 -150.5s141.334 -52.5 242.001 -52.5
c102 0 183 17.5 243 52.5s103.333 85.167 130 150.5s40 144.333 40 237v405v244.5v231.5h140v-231.5v-244.5v-166.5v-149v-109.5c0 -108.667 -19.333 -204 -58 -286s-98.667 -145.833 -180 -191.5s-186 -68.5 -314 -68.5zM758 1579l-104.5 117.5l-105.5 119l-108 121.5
l150 2l139.5 -178.5l139.5 -179.5z" />
    <glyph glyph-name="Uacute" unicode="&#xda;" horiz-adv-x="1462" 
d="M732 -21c-130 0 -235.833 22.832 -317.5 68.499s-141.834 109.5 -180.501 191.5s-58 177.333 -58 286v110v148.5v166.5v244.5v231.5h141v-231.5v-244.5v-407c0 -91.333 13.5 -169.666 40.5 -234.999s70.833 -115.5 131.5 -150.5s141.334 -52.5 242.001 -52.5
c102 0 183 17.5 243 52.5s103.333 85.167 130 150.5s40 144.333 40 237v405v244.5v231.5h140v-231.5v-244.5v-166.5v-149v-109.5c0 -108.667 -19.333 -204 -58 -286s-98.667 -145.833 -180 -191.5s-186 -68.5 -314 -68.5zM597 1579l140 180l138 178l151 2l-107 -121
l-105.5 -119l-105.5 -118z" />
    <glyph glyph-name="Ucircumflex" unicode="&#xdb;" horiz-adv-x="1462" 
d="M732 -21c-130 0 -235.833 22.832 -317.5 68.499s-141.834 109.5 -180.501 191.5s-58 177.333 -58 286v110v148.5v166.5v244.5v231.5h141v-231.5v-244.5v-407c0 -91.333 13.5 -169.666 40.5 -234.999s70.833 -115.5 131.5 -150.5s141.334 -52.5 242.001 -52.5
c102 0 183 17.5 243 52.5s103.333 85.167 130 150.5s40 144.333 40 237v405v244.5v231.5h140v-231.5v-244.5v-166.5v-149v-109.5c0 -108.667 -19.333 -204 -58 -286s-98.667 -145.833 -180 -191.5s-186 -68.5 -314 -68.5zM972 1577l-131 151.5l-131 152.5h41l-131 -150.5
l-130 -149.5h-111l138.5 177l139.5 179h147l138.5 -179.5l139.5 -178.5z" />
    <glyph glyph-name="Udieresis" unicode="&#xdc;" horiz-adv-x="1462" 
d="M732 -21c-130 0 -235.833 22.832 -317.5 68.499s-141.834 109.5 -180.501 191.5s-58 177.333 -58 286v110v148.5v166.5v244.5v231.5h141v-231.5v-244.5v-407c0 -91.333 13.5 -169.666 40.5 -234.999s70.833 -115.5 131.5 -150.5s141.334 -52.5 242.001 -52.5
c102 0 183 17.5 243 52.5s103.333 85.167 130 150.5s40 144.333 40 237v405v244.5v231.5h140v-231.5v-244.5v-166.5v-149v-109.5c0 -108.667 -19.333 -204 -58 -286s-98.667 -145.833 -180 -191.5s-186 -68.5 -314 -68.5zM939 1643c-28 0 -50.833 8.66504 -68.5 25.998
s-26.5 43.333 -26.5 78s9 60.834 27 78.501s41.333 26.5 70 26.5c29.333 0 52.5 -9.16699 69.5 -27.5s25.5 -44.166 25.5 -77.499c0 -34.667 -8.66699 -60.667 -26 -78s-41 -26 -71 -26zM523 1643c-28 0 -50.832 8.66504 -68.499 25.998s-26.5 43.333 -26.5 78
s9 60.834 27 78.501s41.333 26.5 70 26.5c29.333 0 52.666 -9.16699 69.999 -27.5s26 -44.166 26 -77.499c0 -34.667 -8.66699 -60.667 -26 -78s-41.333 -26 -72 -26z" />
    <glyph glyph-name="Yacute" unicode="&#xdd;" horiz-adv-x="1288" 
d="M579 572l-316 518l-96 159l-108 177h162l101.5 -171.5l80.5 -135l84 -141.5l151 -252h16l146 244l88 147.5l83.5 138.5l102.5 170h159l-104 -170l-100 -165l-317 -519h-133zM575 0v231v242v216h141v-216v-242v-231h-141zM510 1579l140 180l138 178l151 2l-107 -121
l-105.5 -119l-105.5 -118z" />
    <glyph glyph-name="Thorn" unicode="&#xde;" horiz-adv-x="1242" 
d="M197 0v231v242v477v244.5v231.5h139v-231.5v-244.5v-477v-242v-231h-139zM631 323l-108.499 -0.000976562h-111.5h-94v118h291c92.667 0 168.667 11 228 33s103.166 56.667 131.499 104s42.5 109.333 42.5 186c0 64 -10.667 114.667 -32 152s-48.833 65 -82.5 83
s-70 29.667 -109 35s-76.5 8 -112.5 8h-357v120h156h210c106.667 0 194.667 -14.333 264 -43s121 -72.334 155 -131.001s51 -133 51 -223c0 -85.333 -15.833 -161.166 -47.5 -227.499s-85.5 -118.666 -161.5 -156.999s-180.333 -57.5 -313 -57.5z" />
    <glyph glyph-name="germandbls" unicode="&#xdf;" horiz-adv-x="1209" 
d="M677 -9c-20 0 -40.498 1 -61.498 3s-39.5 4.66699 -55.5 8v105c12 -2.66699 26.333 -4.83398 43 -6.50098s34.334 -2.5 53.001 -2.5c100 0 177 28.833 231 86.5s81 134.834 81 231.501c0 74 -16.5 135.333 -49.5 184s-77.5 84.834 -133.5 108.501s-119 35.5 -189 35.5
v106c51.333 0 99.166 10.667 143.499 32s80.166 52.666 107.499 93.999s41 91.333 41 150c0 75.333 -22.833 135.333 -68.5 180s-107.834 67 -186.501 67c-90.667 0 -160.334 -28.333 -209.001 -85s-73 -143.334 -73 -260.001v-589v-225v-214h-128v214v225v100v246v246
c0 148.667 36.833 262.334 110.5 341.001s174.5 118 302.5 118c74.667 0 140.334 -14 197.001 -42s100.834 -67.833 132.501 -119.5s47.5 -112.834 47.5 -183.501c0 -61.333 -10.667 -113.333 -32 -156s-47.833 -77.167 -79.5 -103.5s-62.834 -46.5 -93.501 -60.5v-15
c29.333 -9.33301 60.833 -23.166 94.5 -41.499s65.5 -42.833 95.5 -73.5s54.5 -69 73.5 -115s28.5 -101.667 28.5 -167c0 -124.667 -37.5 -226.167 -112.5 -304.5s-178.5 -117.5 -310.5 -117.5zM52.002 887v104h208v-104h-208z" />
    <glyph glyph-name="agrave" unicode="&#xe0;" horiz-adv-x="1035" 
d="M414 -20c-60.667 0 -113.333 11.5029 -158 34.5029s-79.334 55.667 -104.001 98s-37 92.5 -37 150.5c0 53.333 9.66699 98 29 134s44.833 65.5 76.5 88.5s66.167 41 103.5 54s74.333 22.833 111 29.5l324 60c2.66699 76 -6.83301 133.167 -28.5 171.5s-51.5 64 -89.5 77
s-80 19.5 -126 19.5c-22.667 0 -47 -1.5 -73 -4.5s-53.333 -7.83301 -82 -14.5s-59.167 -15.334 -91.5 -26.001s-66.5 -23.667 -102.5 -39l-8 122c24 10 50.833 19.667 80.5 29s61.167 17.666 94.5 24.999s67.5 13.166 102.5 17.499s69.167 6.5 102.5 6.5
c71.333 0 132.833 -11.5 184.5 -34.5s91.334 -59.5 119.001 -109.5s41.5 -114.333 41.5 -193v-118v-136v-135v-135.5v-151.5h-118l-5 147h-16c-20.667 -28 -47.5 -54.833 -80.5 -80.5s-70.667 -46.5 -113 -62.5s-87.833 -24 -136.5 -24zM446.001 92.0029
c38 0 76.3311 7.49902 114.998 22.499s74.834 38.167 108.501 69.5s62.167 71 85.5 119l1 242c-11.333 -6 -26.333 -12.167 -45 -18.5s-46.667 -13.666 -84 -21.999s-89.666 -18.833 -156.999 -31.5c-42 -7.33301 -79.833 -19 -113.5 -35s-60.5 -37.833 -80.5 -65.5
s-30 -62.5 -30 -104.5c0 -64 19.167 -109.333 57.5 -136s85.833 -40 142.5 -40zM553.999 1160l-105.5 131l-105.5 130.5l-107 131.5l150 4l139.5 -196l139.5 -198z" />
    <glyph glyph-name="aacute" unicode="&#xe1;" horiz-adv-x="1035" 
d="M414 -20c-60.667 0 -113.333 11.5029 -158 34.5029s-79.334 55.667 -104.001 98s-37 92.5 -37 150.5c0 53.333 9.66699 98 29 134s44.833 65.5 76.5 88.5s66.167 41 103.5 54s74.333 22.833 111 29.5l324 60c2.66699 76 -6.83301 133.167 -28.5 171.5s-51.5 64 -89.5 77
s-80 19.5 -126 19.5c-22.667 0 -47 -1.5 -73 -4.5s-53.333 -7.83301 -82 -14.5s-59.167 -15.334 -91.5 -26.001s-66.5 -23.667 -102.5 -39l-8 122c24 10 50.833 19.667 80.5 29s61.167 17.666 94.5 24.999s67.5 13.166 102.5 17.499s69.167 6.5 102.5 6.5
c71.333 0 132.833 -11.5 184.5 -34.5s91.334 -59.5 119.001 -109.5s41.5 -114.333 41.5 -193v-118v-136v-135v-135.5v-151.5h-118l-5 147h-16c-20.667 -28 -47.5 -54.833 -80.5 -80.5s-70.667 -46.5 -113 -62.5s-87.833 -24 -136.5 -24zM446.001 92.0029
c38 0 76.3311 7.49902 114.998 22.499s74.834 38.167 108.501 69.5s62.167 71 85.5 119l1 242c-11.333 -6 -26.333 -12.167 -45 -18.5s-46.667 -13.666 -84 -21.999s-89.666 -18.833 -156.999 -31.5c-42 -7.33301 -79.833 -19 -113.5 -35s-60.5 -37.833 -80.5 -65.5
s-30 -62.5 -30 -104.5c0 -64 19.167 -109.333 57.5 -136s85.833 -40 142.5 -40zM392.999 1160l140 198l138 195l151 4l-107.5 -133l-105.5 -131l-105 -130z" />
    <glyph glyph-name="acircumflex" unicode="&#xe2;" horiz-adv-x="1035" 
d="M414 -20c-60.667 0 -113.333 11.5029 -158 34.5029s-79.334 55.667 -104.001 98s-37 92.5 -37 150.5c0 53.333 9.66699 98 29 134s44.833 65.5 76.5 88.5s66.167 41 103.5 54s74.333 22.833 111 29.5l324 60c2.66699 76 -6.83301 133.167 -28.5 171.5s-51.5 64 -89.5 77
s-80 19.5 -126 19.5c-22.667 0 -47 -1.5 -73 -4.5s-53.333 -7.83301 -82 -14.5s-59.167 -15.334 -91.5 -26.001s-66.5 -23.667 -102.5 -39l-8 122c24 10 50.833 19.667 80.5 29s61.167 17.666 94.5 24.999s67.5 13.166 102.5 17.499s69.167 6.5 102.5 6.5
c71.333 0 132.833 -11.5 184.5 -34.5s91.334 -59.5 119.001 -109.5s41.5 -114.333 41.5 -193v-118v-136v-135v-135.5v-151.5h-118l-5 147h-16c-20.667 -28 -47.5 -54.833 -80.5 -80.5s-70.667 -46.5 -113 -62.5s-87.833 -24 -136.5 -24zM446.001 92.0029
c38 0 76.3311 7.49902 114.998 22.499s74.834 38.167 108.501 69.5s62.167 71 85.5 119l1 242c-11.333 -6 -26.333 -12.167 -45 -18.5s-46.667 -13.666 -84 -21.999s-89.666 -18.833 -156.999 -31.5c-42 -7.33301 -79.833 -19 -113.5 -35s-60.5 -37.833 -80.5 -65.5
s-30 -62.5 -30 -104.5c0 -64 19.167 -109.333 57.5 -136s85.833 -40 142.5 -40zM767.999 1158l-130 166l-131 166h39l-130 -164.5l-130 -163.5h-111l139 196l139 195h147l138.5 -195.5l139.5 -196.5z" />
    <glyph glyph-name="atilde" unicode="&#xe3;" horiz-adv-x="1035" 
d="M414 -20c-60.667 0 -113.333 11.5029 -158 34.5029s-79.334 55.667 -104.001 98s-37 92.5 -37 150.5c0 53.333 9.66699 98 29 134s44.833 65.5 76.5 88.5s66.167 41 103.5 54s74.333 22.833 111 29.5l324 60c2.66699 76 -6.83301 133.167 -28.5 171.5s-51.5 64 -89.5 77
s-80 19.5 -126 19.5c-22.667 0 -47 -1.5 -73 -4.5s-53.333 -7.83301 -82 -14.5s-59.167 -15.334 -91.5 -26.001s-66.5 -23.667 -102.5 -39l-8 122c24 10 50.833 19.667 80.5 29s61.167 17.666 94.5 24.999s67.5 13.166 102.5 17.499s69.167 6.5 102.5 6.5
c71.333 0 132.833 -11.5 184.5 -34.5s91.334 -59.5 119.001 -109.5s41.5 -114.333 41.5 -193v-118v-136v-135v-135.5v-151.5h-118l-5 147h-16c-20.667 -28 -47.5 -54.833 -80.5 -80.5s-70.667 -46.5 -113 -62.5s-87.833 -24 -136.5 -24zM446.001 92.0029
c38 0 76.3311 7.49902 114.998 22.499s74.834 38.167 108.501 69.5s62.167 71 85.5 119l1 242c-11.333 -6 -26.333 -12.167 -45 -18.5s-46.667 -13.666 -84 -21.999s-89.666 -18.833 -156.999 -31.5c-42 -7.33301 -79.833 -19 -113.5 -35s-60.5 -37.833 -80.5 -65.5
s-30 -62.5 -30 -104.5c0 -64 19.167 -109.333 57.5 -136s85.833 -40 142.5 -40zM694.999 1158c-39.333 0 -73.1699 9 -101.503 27s-54 38.667 -77 62s-45.333 44 -67 62s-45.167 27 -70.5 27c-40 0 -68 -12.5 -84 -37.5s-24.333 -62.167 -25 -111.5h-87
c0 82 16.333 144.667 49 188s77.334 65 134.001 65c38.667 0 72.167 -8.83301 100.5 -26.5s53.833 -38.167 76.5 -61.5s44.834 -44 66.501 -62s45.167 -27 70.5 -27c40 0 67.833 12.5 83.5 37.5s23.834 62.167 24.501 111.5h87c0 -82 -16 -144.833 -48 -188.5
s-76 -65.5 -132 -65.5z" />
    <glyph glyph-name="adieresis" unicode="&#xe4;" horiz-adv-x="1035" 
d="M414 -20c-60.667 0 -113.333 11.5029 -158 34.5029s-79.334 55.667 -104.001 98s-37 92.5 -37 150.5c0 53.333 9.66699 98 29 134s44.833 65.5 76.5 88.5s66.167 41 103.5 54s74.333 22.833 111 29.5l324 60c2.66699 76 -6.83301 133.167 -28.5 171.5s-51.5 64 -89.5 77
s-80 19.5 -126 19.5c-22.667 0 -47 -1.5 -73 -4.5s-53.333 -7.83301 -82 -14.5s-59.167 -15.334 -91.5 -26.001s-66.5 -23.667 -102.5 -39l-8 122c24 10 50.833 19.667 80.5 29s61.167 17.666 94.5 24.999s67.5 13.166 102.5 17.499s69.167 6.5 102.5 6.5
c71.333 0 132.833 -11.5 184.5 -34.5s91.334 -59.5 119.001 -109.5s41.5 -114.333 41.5 -193v-118v-136v-135v-135.5v-151.5h-118l-5 147h-16c-20.667 -28 -47.5 -54.833 -80.5 -80.5s-70.667 -46.5 -113 -62.5s-87.833 -24 -136.5 -24zM446.001 92.0029
c38 0 76.3311 7.49902 114.998 22.499s74.834 38.167 108.501 69.5s62.167 71 85.5 119l1 242c-11.333 -6 -26.333 -12.167 -45 -18.5s-46.667 -13.666 -84 -21.999s-89.666 -18.833 -156.999 -31.5c-42 -7.33301 -79.833 -19 -113.5 -35s-60.5 -37.833 -80.5 -65.5
s-30 -62.5 -30 -104.5c0 -64 19.167 -109.333 57.5 -136s85.833 -40 142.5 -40zM734.999 1224c-28 0 -50.833 8.83105 -68.5 26.498s-26.5 43.5 -26.5 77.5c0 34.667 9 60.834 27 78.501s41.333 26.5 70 26.5c29.333 0 52.5 -9.16699 69.5 -27.5s25.5 -44.166 25.5 -77.499
c0 -34 -8.66699 -59.833 -26 -77.5s-41 -26.5 -71 -26.5zM318.999 1224c-28 0 -50.832 8.83105 -68.499 26.498s-26.5 43.5 -26.5 77.5c0 34.667 9 60.834 27 78.501s41.333 26.5 70 26.5c29.333 0 52.666 -9.16699 69.999 -27.5s26 -44.166 26 -77.499
c0 -34 -8.66699 -59.833 -26 -77.5s-41.333 -26.5 -72 -26.5z" />
    <glyph glyph-name="aring" unicode="&#xe5;" horiz-adv-x="1035" 
d="M414 -20c-60.667 0 -113.333 11.5029 -158 34.5029s-79.334 55.667 -104.001 98s-37 92.5 -37 150.5c0 53.333 9.66699 98 29 134s44.833 65.5 76.5 88.5s66.167 41 103.5 54s74.333 22.833 111 29.5l324 60c2.66699 76 -6.83301 133.167 -28.5 171.5s-51.5 64 -89.5 77
s-80 19.5 -126 19.5c-22.667 0 -47 -1.5 -73 -4.5s-53.333 -7.83301 -82 -14.5s-59.167 -15.334 -91.5 -26.001s-66.5 -23.667 -102.5 -39l-8 122c24 10 50.833 19.667 80.5 29s61.167 17.666 94.5 24.999s67.5 13.166 102.5 17.499s69.167 6.5 102.5 6.5
c71.333 0 132.833 -11.5 184.5 -34.5s91.334 -59.5 119.001 -109.5s41.5 -114.333 41.5 -193v-118v-136v-135v-135.5v-151.5h-118l-5 147h-16c-20.667 -28 -47.5 -54.833 -80.5 -80.5s-70.667 -46.5 -113 -62.5s-87.833 -24 -136.5 -24zM446.001 92.0029
c38 0 76.3311 7.49902 114.998 22.499s74.834 38.167 108.501 69.5s62.167 71 85.5 119l1 242c-11.333 -6 -26.333 -12.167 -45 -18.5s-46.667 -13.666 -84 -21.999s-89.666 -18.833 -156.999 -31.5c-42 -7.33301 -79.833 -19 -113.5 -35s-60.5 -37.833 -80.5 -65.5
s-30 -62.5 -30 -104.5c0 -64 19.167 -109.333 57.5 -136s85.833 -40 142.5 -40zM526.999 1132c-42.667 0 -80.1689 7.83301 -112.502 23.5s-57.666 38.5 -75.999 68.5s-27.5 66.333 -27.5 109c0 60 20.167 108.333 60.5 145s92.833 55 157.5 55
c42.667 0 80.334 -8.5 113.001 -25.5s58 -40.5 76 -70.5s27 -64.667 27 -104c0 -42.667 -9.16699 -79 -27.5 -109s-43.833 -52.833 -76.5 -68.5s-70.667 -23.5 -114 -23.5zM526.997 1208c38.667 0 70.668 10.333 96.001 31s38 52 38 94c0 38 -12.5 68.167 -37.5 90.5
s-56.5 33.5 -94.5 33.5c-38.667 0 -70.667 -11 -96 -33s-38 -52.333 -38 -91c0 -42 12.667 -73.333 38 -94s56.666 -31 93.999 -31z" />
    <glyph glyph-name="ae" unicode="&#xe6;" horiz-adv-x="1635" 
d="M1223 -20c-112.667 0 -204.671 22.498 -276.004 67.498s-124 106.833 -158 185.5s-51 168.334 -51 269.001c0 99.333 16.833 187.5 50.5 264.5s82.334 137.333 146.001 181s140.834 65.5 231.501 65.5c80.667 0 150.667 -16.5 210 -49.5s105 -80.833 137 -143.5
s48 -139 48 -229c0 -24 -0.5 -45.833 -1.5 -65.5s-3.16699 -39.167 -6.5 -58.5l-114 66c1.33301 10.667 2.16602 21 2.49902 31s0.5 19.667 0.5 29c0 104 -25.5 181.833 -76.5 233.5s-117.5 77.5 -199.5 77.5c-68 0 -125.167 -16.667 -171.5 -50s-81.333 -79.333 -105 -138
s-35.5 -125.667 -35.5 -201v-17c0 -123.333 30 -221.166 90 -293.499s156.333 -108.5 289 -108.5c32.667 0 66.334 2.66699 101.001 8s69 13.333 103 24s66.667 24.667 98 42l7 -121c-25.333 -14 -54.666 -26.167 -87.999 -36.5s-69.666 -18.333 -108.999 -24
s-80 -8.5 -122 -8.5zM420.996 91.998c38 0 76.5 7.49902 115.5 22.499s75.333 38.167 109 69.5s62.167 71 85.5 119l1 242c-11.333 -6 -26.5 -12.167 -45.5 -18.5s-47.167 -13.666 -84.5 -21.999s-89.333 -18.833 -156 -31.5c-42 -7.33301 -79.833 -19 -113.5 -35
s-60.5 -37.833 -80.5 -65.5s-30 -62.5 -30 -104.5c0 -64 19 -109.333 57 -136s85.333 -40 142 -40zM396.996 -20.0029c-63.333 0 -118.003 11.5029 -164.003 34.5029s-81.333 55.667 -106 98s-37 92.5 -37 150.5c0 53.333 9.66699 98 29 134s44.833 65.5 76.5 88.5
s66.334 41 104.001 54s74.834 22.833 111.501 29.5l323 60c3.33301 76 -5.83398 133.167 -27.501 171.5s-51.5 64 -89.5 77s-80.333 19.5 -127 19.5c-22.667 0 -47 -1.5 -73 -4.5s-53.167 -7.83301 -81.5 -14.5s-58.666 -15.334 -90.999 -26.001s-66.833 -23.667 -103.5 -39
l-8 122c24 10 50.667 19.667 80 29s60.333 17.666 93 24.999s66 13.166 100 17.499s67.667 6.5 101 6.5c103.333 0 184.5 -26.5 243.5 -79.5s88.5 -138.833 88.5 -257.5l-28 -174l14 -242c-31.333 -63.333 -69.666 -115.833 -114.999 -157.5s-94.833 -72.5 -148.5 -92.5
s-108.5 -30 -164.5 -30zM779.993 467v97l691 4l82 -21v-80h-773z" />
    <glyph glyph-name="ccedilla" unicode="&#xe7;" horiz-adv-x="994" 
d="M605 -19c-106 0 -196.002 22.667 -270.002 68s-130.333 107 -169 185s-58 165.333 -58 262c0 98 18.833 186 56.5 264s92.167 139.667 163.5 185s157.666 68 258.999 68c38.667 0 76.667 -3.33301 114 -10s72.5 -15.834 105.5 -27.501s62.5 -24.834 88.5 -39.501
l-14 -122c-36.667 21.333 -71.667 37.833 -105 49.5s-64.666 19.667 -93.999 24s-56.333 6.5 -81 6.5c-109.333 0 -196.833 -35.5 -262.5 -106.5s-98.5 -167.167 -98.5 -288.5c0 -76 14.333 -144.333 43 -205s71.5 -108.667 128.5 -144s128.167 -53 213.5 -53
c29.333 0 58.833 2.66699 88.5 8s58.834 13.5 87.501 24.5s56.334 24.833 83.001 41.5l15 -123c-21.333 -11.333 -46.833 -22.166 -76.5 -32.499s-62.667 -18.666 -99 -24.999s-75.833 -9.5 -118.5 -9.5zM526.998 -426c-13.333 0 -27.333 0.664062 -42 1.99707
s-28.667 3 -42 5s-25 4.66699 -35 8v90c9.33301 -3.33301 23.666 -6.66602 42.999 -9.99902s40.333 -5 63 -5c49.333 0 83.333 8.16699 102 24.5s28 36.5 28 60.5c0 13.333 -4.83301 26.5 -14.5 39.5s-27.5 24.667 -53.5 35s-63.667 17.5 -113 21.5l79 188h80v-33l-52 -119
c48.667 -6.66699 86.5 -17.667 113.5 -33s45.667 -33 56 -53s15.5 -40.333 15.5 -61c0 -29.333 -7.5 -56.166 -22.5 -80.499s-39.167 -43.666 -72.5 -57.999s-77.666 -21.5 -132.999 -21.5z" />
    <glyph glyph-name="egrave" unicode="&#xe8;" horiz-adv-x="1055" 
d="M620 -20c-116 0 -211.836 22.499 -287.503 67.499s-132 106.833 -169 185.5s-55.5 168.334 -55.5 269.001c0 99.333 18.5 187.5 55.5 264.5s89.333 137.333 157 181s147.834 65.5 240.501 65.5c81.333 0 151.833 -16.5 211.5 -49.5s105.5 -80.833 137.5 -143.5
s48 -139 48 -229c0 -24 -0.5 -45.833 -1.5 -65.5s-3.16699 -39.167 -6.5 -58.5l-114 66c1.33301 10.667 2.16602 21 2.49902 31s0.5 19.667 0.5 29c0 104 -25.333 181.833 -76 233.5s-117.334 77.5 -200.001 77.5c-68 0 -126.167 -16.667 -174.5 -50
s-85.333 -79.333 -111 -138s-38.5 -125.667 -38.5 -201v-17c0 -82.667 14.167 -154 42.5 -214s71.333 -106.333 129 -139s130.834 -49 219.501 -49c32.667 0 66.334 2.66699 101.001 8s69 13.333 103 24s66.667 24.667 98 42l7 -121
c-25.333 -14 -54.666 -26.167 -87.999 -36.5s-69.666 -18.333 -108.999 -24s-80 -8.5 -122 -8.5zM164.997 466.999v97l703 4l82 -27v-74h-785zM580.997 1160l-105.5 131l-105.5 130.5l-107 131.5l150 4l139.5 -196l139.5 -198z" />
    <glyph glyph-name="eacute" unicode="&#xe9;" horiz-adv-x="1055" 
d="M620 -20c-116 0 -211.836 22.499 -287.503 67.499s-132 106.833 -169 185.5s-55.5 168.334 -55.5 269.001c0 99.333 18.5 187.5 55.5 264.5s89.333 137.333 157 181s147.834 65.5 240.501 65.5c81.333 0 151.833 -16.5 211.5 -49.5s105.5 -80.833 137.5 -143.5
s48 -139 48 -229c0 -24 -0.5 -45.833 -1.5 -65.5s-3.16699 -39.167 -6.5 -58.5l-114 66c1.33301 10.667 2.16602 21 2.49902 31s0.5 19.667 0.5 29c0 104 -25.333 181.833 -76 233.5s-117.334 77.5 -200.001 77.5c-68 0 -126.167 -16.667 -174.5 -50
s-85.333 -79.333 -111 -138s-38.5 -125.667 -38.5 -201v-17c0 -82.667 14.167 -154 42.5 -214s71.333 -106.333 129 -139s130.834 -49 219.501 -49c32.667 0 66.334 2.66699 101.001 8s69 13.333 103 24s66.667 24.667 98 42l7 -121
c-25.333 -14 -54.666 -26.167 -87.999 -36.5s-69.666 -18.333 -108.999 -24s-80 -8.5 -122 -8.5zM164.997 466.999v97l703 4l82 -27v-74h-785zM419.997 1160l140 198l138 195l151 4l-107.5 -133l-105.5 -131l-105 -130z" />
    <glyph glyph-name="ecircumflex" unicode="&#xea;" horiz-adv-x="1055" 
d="M620 -20c-116 0 -211.836 22.499 -287.503 67.499s-132 106.833 -169 185.5s-55.5 168.334 -55.5 269.001c0 99.333 18.5 187.5 55.5 264.5s89.333 137.333 157 181s147.834 65.5 240.501 65.5c81.333 0 151.833 -16.5 211.5 -49.5s105.5 -80.833 137.5 -143.5
s48 -139 48 -229c0 -24 -0.5 -45.833 -1.5 -65.5s-3.16699 -39.167 -6.5 -58.5l-114 66c1.33301 10.667 2.16602 21 2.49902 31s0.5 19.667 0.5 29c0 104 -25.333 181.833 -76 233.5s-117.334 77.5 -200.001 77.5c-68 0 -126.167 -16.667 -174.5 -50
s-85.333 -79.333 -111 -138s-38.5 -125.667 -38.5 -201v-17c0 -82.667 14.167 -154 42.5 -214s71.333 -106.333 129 -139s130.834 -49 219.501 -49c32.667 0 66.334 2.66699 101.001 8s69 13.333 103 24s66.667 24.667 98 42l7 -121
c-25.333 -14 -54.666 -26.167 -87.999 -36.5s-69.666 -18.333 -108.999 -24s-80 -8.5 -122 -8.5zM164.997 466.999v97l703 4l82 -27v-74h-785zM794.997 1158l-130 166l-131 166h39l-130 -164.5l-130 -163.5h-111l139 196l139 195h147l138.5 -195.5l139.5 -196.5z" />
    <glyph glyph-name="edieresis" unicode="&#xeb;" horiz-adv-x="1055" 
d="M620 -20c-116 0 -211.836 22.499 -287.503 67.499s-132 106.833 -169 185.5s-55.5 168.334 -55.5 269.001c0 99.333 18.5 187.5 55.5 264.5s89.333 137.333 157 181s147.834 65.5 240.501 65.5c81.333 0 151.833 -16.5 211.5 -49.5s105.5 -80.833 137.5 -143.5
s48 -139 48 -229c0 -24 -0.5 -45.833 -1.5 -65.5s-3.16699 -39.167 -6.5 -58.5l-114 66c1.33301 10.667 2.16602 21 2.49902 31s0.5 19.667 0.5 29c0 104 -25.333 181.833 -76 233.5s-117.334 77.5 -200.001 77.5c-68 0 -126.167 -16.667 -174.5 -50
s-85.333 -79.333 -111 -138s-38.5 -125.667 -38.5 -201v-17c0 -82.667 14.167 -154 42.5 -214s71.333 -106.333 129 -139s130.834 -49 219.501 -49c32.667 0 66.334 2.66699 101.001 8s69 13.333 103 24s66.667 24.667 98 42l7 -121
c-25.333 -14 -54.666 -26.167 -87.999 -36.5s-69.666 -18.333 -108.999 -24s-80 -8.5 -122 -8.5zM164.997 466.999v97l703 4l82 -27v-74h-785zM761.997 1224c-28 0 -50.833 8.83105 -68.5 26.498s-26.5 43.5 -26.5 77.5c0 34.667 9 60.834 27 78.501s41.333 26.5 70 26.5
c29.333 0 52.5 -9.16699 69.5 -27.5s25.5 -44.166 25.5 -77.499c0 -34 -8.66699 -59.833 -26 -77.5s-41 -26.5 -71 -26.5zM345.997 1224c-28 0 -50.832 8.83105 -68.499 26.498s-26.5 43.5 -26.5 77.5c0 34.667 9 60.834 27 78.501s41.333 26.5 70 26.5
c29.333 0 52.666 -9.16699 69.999 -27.5s26 -44.166 26 -77.499c0 -34 -8.66699 -59.833 -26 -77.5s-41.333 -26.5 -72 -26.5z" />
    <glyph glyph-name="igrave" unicode="&#xec;" horiz-adv-x="502" 
d="M187 0v214v225v100v161v146v145l128 4v-145.5v-147v-163.5v-100v-225v-214h-128zM276 1160l-105.5 131l-105.5 130.5l-107 131.5l150 4l139.5 -196l139.5 -198z" />
    <glyph glyph-name="iacute" unicode="&#xed;" horiz-adv-x="502" 
d="M187 0v214v225v100v161v146v145l128 4v-145.5v-147v-163.5v-100v-225v-214h-128zM115 1160l140 198l138 195l151 4l-107.5 -133l-105.5 -131l-105 -130z" />
    <glyph glyph-name="icircumflex" unicode="&#xee;" horiz-adv-x="502" 
d="M187 0v214v225v100v161v146v145l128 4v-145.5v-147v-163.5v-100v-225v-214h-128zM457 1158l-87 131.5l-87.5 131l-88.5 132.5h120l122 -194.5l122 -197.5zM-61 1162l122 195.5l122 195.5h120l-88.5 -131.5l-86.5 -129l-87 -130.5h-102z" />
    <glyph glyph-name="idieresis" unicode="&#xef;" horiz-adv-x="502" 
d="M187 0v214v225v100v161v146v145l128 4v-145.5v-147v-163.5v-100v-225v-214h-128zM420 1224c-28 0 -50.5 8.83105 -67.5 26.498s-25.5 43.5 -25.5 77.5c0 34.667 8.66699 60.834 26 78.501s40.333 26.5 69 26.5s51.167 -9.16699 67.5 -27.5s24.5 -44.166 24.5 -77.499
c0 -22.667 -3.83301 -41.667 -11.5 -57s-18.5 -27 -32.5 -35s-30.667 -12 -50 -12zM79 1224c-27.333 0 -49.668 8.83105 -67.001 26.498s-26 43.5 -26 77.5c0 34.667 8.83301 60.834 26.5 78.501s40.5 26.5 68.5 26.5c28.667 0 51.334 -9.16699 68.001 -27.5
s25 -44.166 25 -77.499c0 -22.667 -4 -41.667 -12 -57s-19 -27 -33 -35s-30.667 -12 -50 -12z" />
    <glyph glyph-name="eth" unicode="&#xf0;" horiz-adv-x="1180" 
d="M594 -20c-104 0 -192.164 23.666 -264.497 70.999s-127.333 109.5 -165 186.5s-56.5 159.833 -56.5 248.5c0 90.667 18.5 172.334 55.5 245.001s88.667 130.334 155 173.001s143.5 64 231.5 64c38 0 76.833 -4.66699 116.5 -14s79.167 -23.833 118.5 -43.5
s77.333 -45.834 114 -78.501l43 9c10 -28 16.167 -57.667 18.5 -89s-0.833984 -61 -9.50098 -89c-44.667 55.333 -89.5 96.5 -134.5 123.5s-87.333 44.667 -127 53s-73.834 12.5 -102.501 12.5c-77.333 0 -141.833 -17.333 -193.5 -52s-90.167 -80.167 -115.5 -136.5
s-38 -116.5 -38 -180.5c0 -65.333 13.167 -127.5 39.5 -186.5s65.666 -107.333 117.999 -145s117.833 -56.5 196.5 -56.5c116 0 202.5 45.5 259.5 136.5s85.5 217.833 85.5 380.5c0 126.667 -21.667 242.5 -65 347.5s-106.666 200.833 -189.999 287.5
c-34 37.333 -72 72.833 -114 106.5s-87.333 65.834 -136 96.501l108 50c48 -28.667 93.5 -60.167 136.5 -94.5s82.833 -71.5 119.5 -111.5c84.667 -90 151.5 -190.833 200.5 -302.5s73.5 -240.834 73.5 -387.501c0 -128 -17.833 -238.667 -53.5 -332
s-88.834 -165.333 -159.501 -216s-159 -76 -265 -76zM352.003 1112l-28 92l166.5 50l146.5 45l92 28l145 43.5l167 50.5l28 -92l-166.5 -50l-146.5 -44l-92 -28l-146 -44.5z" />
    <glyph glyph-name="ntilde" unicode="&#xf1;" horiz-adv-x="1143" 
d="M185 0v214v225v100v224v228l115 8l4 -186h16c20.667 29.333 47.834 59.333 81.501 90s73.667 56.667 120 78s99.5 32 159.5 32c107.333 0 184.833 -30.5 232.5 -91.5s71.5 -148.833 71.5 -263.5v-113v-106v-222.5v-216.5h-129v216v218v196
c0 85.333 -15.333 149.833 -46 193.5s-86.334 65.5 -167.001 65.5c-49.333 0 -94 -9.83301 -134 -29.5s-76 -46 -108 -79s-61 -69.5 -87 -109.5v-237v-220.5v-213.5h-129zM752 1158c-39.333 0 -73.1699 9 -101.503 27s-54 38.667 -77 62s-45.333 44 -67 62
s-45.167 27 -70.5 27c-40 0 -68 -12.5 -84 -37.5s-24.333 -62.167 -25 -111.5h-87c0 82 16.333 144.667 49 188s77.334 65 134.001 65c38.667 0 72.167 -8.83301 100.5 -26.5s53.833 -38.167 76.5 -61.5s44.834 -44 66.501 -62s45.167 -27 70.5 -27
c40 0 67.833 12.5 83.5 37.5s23.834 62.167 24.501 111.5h87c0 -82 -16 -144.833 -48 -188.5s-76 -65.5 -132 -65.5z" />
    <glyph glyph-name="ograve" unicode="&#xf2;" horiz-adv-x="1194" 
d="M601 -21c-79.333 0 -149.5 14.167 -210.5 42.5s-112.5 66.833 -154.5 115.5s-73.833 104.5 -95.5 167.5s-32.5 128.833 -32.5 197.5c0 98.667 20.167 186.5 60.5 263.5s97.333 137.5 171 181.5s160.167 66 259.5 66c76.667 0 145 -12.833 205 -38.5
s111.167 -61.667 153.5 -108s74.333 -100.5 96 -162.5s32.5 -129.333 32.5 -202c0 -98 -19.667 -186.5 -59 -265.5s-95.5 -141.667 -168.5 -188s-158.833 -69.5 -257.5 -69.5zM600 95c79.333 0 145.167 19.5 197.5 58.5s91.5 89.333 117.5 151s39 127.5 39 197.5
c0 78.667 -14.333 147.667 -43 207s-69.5 105.5 -122.5 138.5s-115.833 49.5 -188.5 49.5c-78 0 -143.833 -17.5 -197.5 -52.5s-94.167 -82.5 -121.5 -142.5s-41 -126.667 -41 -200c0 -70 13.333 -135.833 40 -197.5s66.667 -112 120 -151s120 -58.5 200 -58.5z
M621.001 1160l-105.5 131l-105.5 130.5l-107 131.5l150 4l139.5 -196l139.5 -198z" />
    <glyph glyph-name="oacute" unicode="&#xf3;" horiz-adv-x="1194" 
d="M601 -21c-79.333 0 -149.5 14.167 -210.5 42.5s-112.5 66.833 -154.5 115.5s-73.833 104.5 -95.5 167.5s-32.5 128.833 -32.5 197.5c0 98.667 20.167 186.5 60.5 263.5s97.333 137.5 171 181.5s160.167 66 259.5 66c76.667 0 145 -12.833 205 -38.5
s111.167 -61.667 153.5 -108s74.333 -100.5 96 -162.5s32.5 -129.333 32.5 -202c0 -98 -19.667 -186.5 -59 -265.5s-95.5 -141.667 -168.5 -188s-158.833 -69.5 -257.5 -69.5zM600 95c79.333 0 145.167 19.5 197.5 58.5s91.5 89.333 117.5 151s39 127.5 39 197.5
c0 78.667 -14.333 147.667 -43 207s-69.5 105.5 -122.5 138.5s-115.833 49.5 -188.5 49.5c-78 0 -143.833 -17.5 -197.5 -52.5s-94.167 -82.5 -121.5 -142.5s-41 -126.667 -41 -200c0 -70 13.333 -135.833 40 -197.5s66.667 -112 120 -151s120 -58.5 200 -58.5z
M460.001 1160l140 198l138 195l151 4l-107.5 -133l-105.5 -131l-105 -130z" />
    <glyph glyph-name="ocircumflex" unicode="&#xf4;" horiz-adv-x="1194" 
d="M601 -21c-79.333 0 -149.5 14.167 -210.5 42.5s-112.5 66.833 -154.5 115.5s-73.833 104.5 -95.5 167.5s-32.5 128.833 -32.5 197.5c0 98.667 20.167 186.5 60.5 263.5s97.333 137.5 171 181.5s160.167 66 259.5 66c76.667 0 145 -12.833 205 -38.5
s111.167 -61.667 153.5 -108s74.333 -100.5 96 -162.5s32.5 -129.333 32.5 -202c0 -98 -19.667 -186.5 -59 -265.5s-95.5 -141.667 -168.5 -188s-158.833 -69.5 -257.5 -69.5zM600 95c79.333 0 145.167 19.5 197.5 58.5s91.5 89.333 117.5 151s39 127.5 39 197.5
c0 78.667 -14.333 147.667 -43 207s-69.5 105.5 -122.5 138.5s-115.833 49.5 -188.5 49.5c-78 0 -143.833 -17.5 -197.5 -52.5s-94.167 -82.5 -121.5 -142.5s-41 -126.667 -41 -200c0 -70 13.333 -135.833 40 -197.5s66.667 -112 120 -151s120 -58.5 200 -58.5z
M835.001 1158l-130 166l-131 166h39l-130 -164.5l-130 -163.5h-111l139 196l139 195h147l138.5 -195.5l139.5 -196.5z" />
    <glyph glyph-name="otilde" unicode="&#xf5;" horiz-adv-x="1194" 
d="M601 -21c-79.333 0 -149.5 14.167 -210.5 42.5s-112.5 66.833 -154.5 115.5s-73.833 104.5 -95.5 167.5s-32.5 128.833 -32.5 197.5c0 98.667 20.167 186.5 60.5 263.5s97.333 137.5 171 181.5s160.167 66 259.5 66c76.667 0 145 -12.833 205 -38.5
s111.167 -61.667 153.5 -108s74.333 -100.5 96 -162.5s32.5 -129.333 32.5 -202c0 -98 -19.667 -186.5 -59 -265.5s-95.5 -141.667 -168.5 -188s-158.833 -69.5 -257.5 -69.5zM600 95c79.333 0 145.167 19.5 197.5 58.5s91.5 89.333 117.5 151s39 127.5 39 197.5
c0 78.667 -14.333 147.667 -43 207s-69.5 105.5 -122.5 138.5s-115.833 49.5 -188.5 49.5c-78 0 -143.833 -17.5 -197.5 -52.5s-94.167 -82.5 -121.5 -142.5s-41 -126.667 -41 -200c0 -70 13.333 -135.833 40 -197.5s66.667 -112 120 -151s120 -58.5 200 -58.5z
M762.001 1158c-39.333 0 -73.1699 9 -101.503 27s-54 38.667 -77 62s-45.333 44 -67 62s-45.167 27 -70.5 27c-40 0 -68 -12.5 -84 -37.5s-24.333 -62.167 -25 -111.5h-87c0 82 16.333 144.667 49 188s77.334 65 134.001 65c38.667 0 72.167 -8.83301 100.5 -26.5
s53.833 -38.167 76.5 -61.5s44.834 -44 66.501 -62s45.167 -27 70.5 -27c40 0 67.833 12.5 83.5 37.5s23.834 62.167 24.501 111.5h87c0 -82 -16 -144.833 -48 -188.5s-76 -65.5 -132 -65.5z" />
    <glyph glyph-name="odieresis" unicode="&#xf6;" horiz-adv-x="1194" 
d="M601 -21c-79.333 0 -149.5 14.167 -210.5 42.5s-112.5 66.833 -154.5 115.5s-73.833 104.5 -95.5 167.5s-32.5 128.833 -32.5 197.5c0 98.667 20.167 186.5 60.5 263.5s97.333 137.5 171 181.5s160.167 66 259.5 66c76.667 0 145 -12.833 205 -38.5
s111.167 -61.667 153.5 -108s74.333 -100.5 96 -162.5s32.5 -129.333 32.5 -202c0 -98 -19.667 -186.5 -59 -265.5s-95.5 -141.667 -168.5 -188s-158.833 -69.5 -257.5 -69.5zM600 95c79.333 0 145.167 19.5 197.5 58.5s91.5 89.333 117.5 151s39 127.5 39 197.5
c0 78.667 -14.333 147.667 -43 207s-69.5 105.5 -122.5 138.5s-115.833 49.5 -188.5 49.5c-78 0 -143.833 -17.5 -197.5 -52.5s-94.167 -82.5 -121.5 -142.5s-41 -126.667 -41 -200c0 -70 13.333 -135.833 40 -197.5s66.667 -112 120 -151s120 -58.5 200 -58.5z
M802.001 1224c-28 0 -50.833 8.83105 -68.5 26.498s-26.5 43.5 -26.5 77.5c0 34.667 9 60.834 27 78.501s41.333 26.5 70 26.5c29.333 0 52.5 -9.16699 69.5 -27.5s25.5 -44.166 25.5 -77.499c0 -34 -8.66699 -59.833 -26 -77.5s-41 -26.5 -71 -26.5zM386.001 1224
c-28 0 -50.832 8.83105 -68.499 26.498s-26.5 43.5 -26.5 77.5c0 34.667 9 60.834 27 78.501s41.333 26.5 70 26.5c29.333 0 52.666 -9.16699 69.999 -27.5s26 -44.166 26 -77.499c0 -34 -8.66699 -59.833 -26 -77.5s-41.333 -26.5 -72 -26.5z" />
    <glyph glyph-name="divide" unicode="&#xf7;" horiz-adv-x="1131" 
d="M129 536v118h177.5h159.5h198h160.5h176.5v-118h-176.5h-160.5h-198h-159.5h-177.5zM563 129c-33.333 0 -60 10 -80 30s-30 46.667 -30 80c0 34 10 60.667 30 80s46.667 29 80 29c34.667 0 61.834 -9.66699 81.501 -29s29.5 -46 29.5 -80
c0 -33.333 -9.83301 -60 -29.5 -80s-46.834 -30 -81.501 -30zM563 839c-33.333 0 -59.999 10.167 -79.999 30.5s-30 46.833 -30 79.5c0 34 10 60.667 30 80s47 29 81 29s60.833 -9.66699 80.5 -29s29.5 -46 29.5 -80c0 -32.667 -9.83301 -59.167 -29.5 -79.5
s-46.834 -30.5 -81.501 -30.5z" />
    <glyph glyph-name="oslash" unicode="&#xf8;" horiz-adv-x="1194" 
d="M601 -20c-79.333 0 -149.498 14.0029 -210.498 42.0029s-112.5 66.333 -154.5 115s-73.833 104.5 -95.5 167.5s-32.5 128.833 -32.5 197.5c0 98.667 20.167 186.5 60.5 263.5s97.333 137.5 171 181.5s160.167 66 259.5 66c76.667 0 145 -12.833 205 -38.5
s111.167 -61.834 153.5 -108.501s74.333 -100.834 96 -162.501s32.5 -128.834 32.5 -201.501c0 -98 -19.833 -186.333 -59.5 -265s-95.834 -141.167 -168.501 -187.5s-158.334 -69.5 -257.001 -69.5zM600.002 95.0029c79.333 0 145.167 19.5 197.5 58.5
s91.5 89.5 117.5 151.5s39 127.667 39 197c0 78.667 -14.333 147.667 -43 207s-69.5 105.5 -122.5 138.5s-115.833 49.5 -188.5 49.5c-78 0 -143.833 -17.5 -197.5 -52.5s-94.167 -82.5 -121.5 -142.5s-41 -126.667 -41 -200c0 -69.333 13.333 -135 40 -197
s66.667 -112.5 120 -151.5s120 -58.5 200 -58.5zM192.003 -122.997l-71 55l146 191l146 190l288 377l152 199l141 185l74 -53l-145 -190l-152 -198l-289 -377l-147.5 -193.5z" />
    <glyph glyph-name="ugrave" unicode="&#xf9;" horiz-adv-x="1111" 
d="M463 -21c-107.333 0 -184.832 30.667 -232.499 92s-71.5 149.333 -71.5 264v113.5v94.5v160v144v144l128 5v-217v-226v-192c0 -85.333 15.5 -149.833 46.5 -193.5s86.833 -65.5 167.5 -65.5c46 0 88.5 9.83301 127.5 29.5s74.5 46 106.5 79s60.667 69.5 86 109.5v233v223
v215h129v-216v-232v-104v-225v-214h-115l-3 180h-16c-20.667 -29.333 -47.834 -59.5 -81.501 -90.5s-73.167 -57.167 -118.5 -78.5s-96.333 -32 -153 -32zM580.001 1160l-105.5 131l-105.5 130.5l-107 131.5l150 4l139.5 -196l139.5 -198z" />
    <glyph glyph-name="uacute" unicode="&#xfa;" horiz-adv-x="1111" 
d="M463 -21c-107.333 0 -184.832 30.667 -232.499 92s-71.5 149.333 -71.5 264v113.5v94.5v160v144v144l128 5v-217v-226v-192c0 -85.333 15.5 -149.833 46.5 -193.5s86.833 -65.5 167.5 -65.5c46 0 88.5 9.83301 127.5 29.5s74.5 46 106.5 79s60.667 69.5 86 109.5v233v223
v215h129v-216v-232v-104v-225v-214h-115l-3 180h-16c-20.667 -29.333 -47.834 -59.5 -81.501 -90.5s-73.167 -57.167 -118.5 -78.5s-96.333 -32 -153 -32zM419.001 1160l140 198l138 195l151 4l-107.5 -133l-105.5 -131l-105 -130z" />
    <glyph glyph-name="ucircumflex" unicode="&#xfb;" horiz-adv-x="1111" 
d="M463 -21c-107.333 0 -184.832 30.667 -232.499 92s-71.5 149.333 -71.5 264v113.5v94.5v160v144v144l128 5v-217v-226v-192c0 -85.333 15.5 -149.833 46.5 -193.5s86.833 -65.5 167.5 -65.5c46 0 88.5 9.83301 127.5 29.5s74.5 46 106.5 79s60.667 69.5 86 109.5v233v223
v215h129v-216v-232v-104v-225v-214h-115l-3 180h-16c-20.667 -29.333 -47.834 -59.5 -81.501 -90.5s-73.167 -57.167 -118.5 -78.5s-96.333 -32 -153 -32zM794.001 1158l-130 166l-131 166h39l-130 -164.5l-130 -163.5h-111l139 196l139 195h147l138.5 -195.5l139.5 -196.5z
" />
    <glyph glyph-name="udieresis" unicode="&#xfc;" horiz-adv-x="1111" 
d="M463 -21c-107.333 0 -184.832 30.667 -232.499 92s-71.5 149.333 -71.5 264v113.5v94.5v160v144v144l128 5v-217v-226v-192c0 -85.333 15.5 -149.833 46.5 -193.5s86.833 -65.5 167.5 -65.5c46 0 88.5 9.83301 127.5 29.5s74.5 46 106.5 79s60.667 69.5 86 109.5v233v223
v215h129v-216v-232v-104v-225v-214h-115l-3 180h-16c-20.667 -29.333 -47.834 -59.5 -81.501 -90.5s-73.167 -57.167 -118.5 -78.5s-96.333 -32 -153 -32zM761.001 1224c-28 0 -50.833 8.83105 -68.5 26.498s-26.5 43.5 -26.5 77.5c0 34.667 9 60.834 27 78.501
s41.333 26.5 70 26.5c29.333 0 52.5 -9.16699 69.5 -27.5s25.5 -44.166 25.5 -77.499c0 -34 -8.66699 -59.833 -26 -77.5s-41 -26.5 -71 -26.5zM345.001 1224c-28 0 -50.832 8.83105 -68.499 26.498s-26.5 43.5 -26.5 77.5c0 34.667 9 60.834 27 78.501s41.333 26.5 70 26.5
c29.333 0 52.666 -9.16699 69.999 -27.5s26 -44.166 26 -77.499c0 -34 -8.66699 -59.833 -26 -77.5s-41.333 -26.5 -72 -26.5z" />
    <glyph glyph-name="yacute" unicode="&#xfd;" horiz-adv-x="1018" 
d="M279 -389l79 195.5l80 194.5v-38l-77 207.5l-76 203.5l-67 180l-81 219l-82 218l139 5l91 -262l91 -262l116 -332h15l126 334l98 258.5l97 258.5h135l-61.5 -154.5l-65 -164.5l-85.5 -214l-111 -279l-127.5 -322.5l-96.5 -240.5zM374 1160l140 198l138 195l151 4
l-107.5 -133l-105.5 -131l-105 -130z" />
    <glyph glyph-name="thorn" unicode="&#xfe;" horiz-adv-x="1183" 
d="M185 -389l-0.000976562 216.502v227.5v933v244.5v230.5l129 19v-241.5v-252.5v-114h16c18.667 23.333 43.334 45.666 74.001 66.999s66.167 38.666 106.5 51.999s84.5 20 132.5 20c90 0 167.167 -22.333 231.5 -67s113.666 -105.834 147.999 -183.501
s51.5 -165.5 51.5 -263.5c0 -92.667 -16 -178.5 -48 -257.5s-79.833 -142.5 -143.5 -190.5s-143.167 -72 -238.5 -72c-45.333 0 -87.166 5.83301 -125.499 17.5s-73.333 28.834 -105 51.501s-60.5 49.667 -86.5 81h-13v-79v-220.5v-213.5zM610.999 98.002
c77.333 0 140.33 18.9961 188.997 56.9961s84.5 87.333 107.5 148s34.5 125.667 34.5 195c0 72.667 -12.167 138.834 -36.5 198.501s-61.166 107.334 -110.499 143.001s-111.666 53.5 -186.999 53.5c-38.667 0 -76 -5.66699 -112 -17s-69.667 -28.166 -101 -50.499
s-58.333 -50.166 -81 -83.499v-468c22 -36.667 47.5 -68 76.5 -94s61.833 -46.167 98.5 -60.5s77.334 -21.5 122.001 -21.5z" />
    <glyph glyph-name="ydieresis" unicode="&#xff;" horiz-adv-x="1018" 
d="M279 -389l79 195.5l80 194.5v-38l-77 207.5l-76 203.5l-67 180l-81 219l-82 218l139 5l91 -262l91 -262l116 -332h15l126 334l98 258.5l97 258.5h135l-61.5 -154.5l-65 -164.5l-85.5 -214l-111 -279l-127.5 -322.5l-96.5 -240.5zM716 1224
c-28 0 -50.833 8.83105 -68.5 26.498s-26.5 43.5 -26.5 77.5c0 34.667 9 60.834 27 78.501s41.333 26.5 70 26.5c29.333 0 52.5 -9.16699 69.5 -27.5s25.5 -44.166 25.5 -77.499c0 -34 -8.66699 -59.833 -26 -77.5s-41 -26.5 -71 -26.5zM300 1224
c-28 0 -50.832 8.83105 -68.499 26.498s-26.5 43.5 -26.5 77.5c0 34.667 9 60.834 27 78.501s41.333 26.5 70 26.5c29.333 0 52.666 -9.16699 69.999 -27.5s26 -44.166 26 -77.499c0 -34 -8.66699 -59.833 -26 -77.5s-41.333 -26.5 -72 -26.5z" />
    <glyph glyph-name="Amacron" unicode="&#x100;" horiz-adv-x="1365" 
d="M63 0l90 242.5l90 241.5l181 489l88.5 238l79.5 215h188l79 -216l87 -238l180 -491l89 -242.5l87 -238.5h-146l-94.5 263.5l-91.5 256.5l-277 774h-16l-279 -767l-94.5 -261.5l-96.5 -265.5h-144zM306 375l10 114h746l8 -114h-764zM377 1688v103h146h160h160.5h145.5
v-103h-145.5h-160.5h-160h-146z" />
    <glyph glyph-name="amacron" unicode="&#x101;" horiz-adv-x="1035" 
d="M414 -20c-60.667 0 -113.333 11.5029 -158 34.5029s-79.334 55.667 -104.001 98s-37 92.5 -37 150.5c0 53.333 9.66699 98 29 134s44.833 65.5 76.5 88.5s66.167 41 103.5 54s74.333 22.833 111 29.5l324 60c2.66699 76 -6.83301 133.167 -28.5 171.5s-51.5 64 -89.5 77
s-80 19.5 -126 19.5c-22.667 0 -47 -1.5 -73 -4.5s-53.333 -7.83301 -82 -14.5s-59.167 -15.334 -91.5 -26.001s-66.5 -23.667 -102.5 -39l-8 122c24 10 50.833 19.667 80.5 29s61.167 17.666 94.5 24.999s67.5 13.166 102.5 17.499s69.167 6.5 102.5 6.5
c71.333 0 132.833 -11.5 184.5 -34.5s91.334 -59.5 119.001 -109.5s41.5 -114.333 41.5 -193v-118v-136v-135v-135.5v-151.5h-118l-5 147h-16c-20.667 -28 -47.5 -54.833 -80.5 -80.5s-70.667 -46.5 -113 -62.5s-87.833 -24 -136.5 -24zM446.001 92.0029
c38 0 76.3311 7.49902 114.998 22.499s74.834 38.167 108.501 69.5s62.167 71 85.5 119l1 242c-11.333 -6 -26.333 -12.167 -45 -18.5s-46.667 -13.666 -84 -21.999s-89.666 -18.833 -156.999 -31.5c-42 -7.33301 -79.833 -19 -113.5 -35s-60.5 -37.833 -80.5 -65.5
s-30 -62.5 -30 -104.5c0 -64 19.167 -109.333 57.5 -136s85.833 -40 142.5 -40zM222.999 1269v103h146h160h160.5h145.5v-103h-145.5h-160.5h-160h-146z" />
    <glyph glyph-name="Abreve" unicode="&#x102;" horiz-adv-x="1365" 
d="M63 0l90 242.5l90 241.5l181 489l88.5 238l79.5 215h188l79 -216l87 -238l180 -491l89 -242.5l87 -238.5h-146l-94.5 263.5l-91.5 256.5l-277 774h-16l-279 -767l-94.5 -261.5l-96.5 -265.5h-144zM306 375l10 114h746l8 -114h-764zM679 1572
c-99.333 0 -175.5 31 -228.5 93s-79.5 152.333 -79.5 271l100 4c0 -93.333 18.167 -161 54.5 -203s87.5 -63 153.5 -63c68 0 120.167 20.667 156.5 62s54.5 108 54.5 200h100c0 -79.333 -11.833 -146 -35.5 -200s-58.5 -94.833 -104.5 -122.5s-103 -41.5 -171 -41.5z" />
    <glyph glyph-name="abreve" unicode="&#x103;" horiz-adv-x="1035" 
d="M414 -20c-60.667 0 -113.333 11.5029 -158 34.5029s-79.334 55.667 -104.001 98s-37 92.5 -37 150.5c0 53.333 9.66699 98 29 134s44.833 65.5 76.5 88.5s66.167 41 103.5 54s74.333 22.833 111 29.5l324 60c2.66699 76 -6.83301 133.167 -28.5 171.5s-51.5 64 -89.5 77
s-80 19.5 -126 19.5c-22.667 0 -47 -1.5 -73 -4.5s-53.333 -7.83301 -82 -14.5s-59.167 -15.334 -91.5 -26.001s-66.5 -23.667 -102.5 -39l-8 122c24 10 50.833 19.667 80.5 29s61.167 17.666 94.5 24.999s67.5 13.166 102.5 17.499s69.167 6.5 102.5 6.5
c71.333 0 132.833 -11.5 184.5 -34.5s91.334 -59.5 119.001 -109.5s41.5 -114.333 41.5 -193v-118v-136v-135v-135.5v-151.5h-118l-5 147h-16c-20.667 -28 -47.5 -54.833 -80.5 -80.5s-70.667 -46.5 -113 -62.5s-87.833 -24 -136.5 -24zM446.001 92.0029
c38 0 76.3311 7.49902 114.998 22.499s74.834 38.167 108.501 69.5s62.167 71 85.5 119l1 242c-11.333 -6 -26.333 -12.167 -45 -18.5s-46.667 -13.666 -84 -21.999s-89.666 -18.833 -156.999 -31.5c-42 -7.33301 -79.833 -19 -113.5 -35s-60.5 -37.833 -80.5 -65.5
s-30 -62.5 -30 -104.5c0 -64 19.167 -109.333 57.5 -136s85.833 -40 142.5 -40zM524.999 1153c-99.333 0 -175.5 31.167 -228.5 93.5s-79.5 152.5 -79.5 270.5l100 4c0 -93.333 18.167 -161 54.5 -203s87.5 -63 153.5 -63c68 0 120.167 20.667 156.5 62s54.5 108 54.5 200
h100c0 -78.667 -11.833 -145.167 -35.5 -199.5s-58.5 -95.333 -104.5 -123s-103 -41.5 -171 -41.5z" />
    <glyph glyph-name="Aogonek" unicode="&#x104;" horiz-adv-x="1365" 
d="M63 0l90 242.5l90 241.5l181 489l88.5 238l79.5 215h188l79 -216l87 -238l180 -491l89 -242.5l87 -238.5h-146l-94.5 263.5l-91.5 256.5l-277 774h-16l-279 -767l-94.5 -261.5l-96.5 -265.5h-144zM306 375l10 114h746l8 -114h-764zM1197 -410
c-43.333 0 -80.166 6.50098 -110.499 19.501s-53.5 31.333 -69.5 55s-24 51.167 -24 82.5c0 32 7.66699 62.833 23 92.5s38.333 58.834 69 87.501s69.667 56.667 117 84v30l68 5l32 -46c-55.333 -28 -102.833 -62.5 -142.5 -103.5s-59.5 -81.833 -59.5 -122.5
c0 -30.667 10.167 -53.334 30.5 -68.001s47.166 -22 80.499 -22c23.333 0 43.333 1.66699 60 5s29.667 6.66602 39 9.99902v-94c-14.667 -4 -32.167 -7.5 -52.5 -10.5s-40.5 -4.5 -60.5 -4.5z" />
    <glyph glyph-name="aogonek" unicode="&#x105;" horiz-adv-x="1041" 
d="M414 -20c-60.667 0 -113.333 11.5029 -158 34.5029s-79.334 55.667 -104.001 98s-37 92.5 -37 150.5c0 53.333 9.66699 98 29 134s44.833 65.5 76.5 88.5s66.167 41 103.5 54s74.333 22.833 111 29.5l324 60c2.66699 76 -6.83301 133.167 -28.5 171.5s-51.5 64 -89.5 77
s-80 19.5 -126 19.5c-22.667 0 -47 -1.5 -73 -4.5s-53.333 -7.83301 -82 -14.5s-59.167 -15.334 -91.5 -26.001s-66.5 -23.667 -102.5 -39l-8 122c24 10 50.833 19.667 80.5 29s61.167 17.666 94.5 24.999s67.5 13.166 102.5 17.499s69.167 6.5 102.5 6.5
c71.333 0 132.833 -11.5 184.5 -34.5s91.334 -59.5 119.001 -109.5s41.5 -114.333 41.5 -193v-118v-136v-135v-135.5v-151.5h-118l-5 147h-16c-20.667 -28 -47.5 -54.833 -80.5 -80.5s-70.667 -46.5 -113 -62.5s-87.833 -24 -136.5 -24zM446.001 92.0029
c38 0 76.3311 7.49902 114.998 22.499s74.834 38.167 108.501 69.5s62.167 71 85.5 119l1 242c-11.333 -6 -26.333 -12.167 -45 -18.5s-46.667 -13.666 -84 -21.999s-89.666 -18.833 -156.999 -31.5c-42 -7.33301 -79.833 -19 -113.5 -35s-60.5 -37.833 -80.5 -65.5
s-30 -62.5 -30 -104.5c0 -64 19.167 -109.333 57.5 -136s85.833 -40 142.5 -40zM777.999 -409.998c-43.333 0 -80.166 6.50098 -110.499 19.501s-53.5 31.333 -69.5 55s-24 51.167 -24 82.5c0 32 7.66699 62.833 23 92.5s38.333 58.834 69 87.501s69.667 56.667 117 84v33
l55 5l45 -49c-55.333 -28 -102.833 -62.5 -142.5 -103.5s-59.5 -81.833 -59.5 -122.5c0 -30.667 10.167 -53.334 30.5 -68.001s47.166 -22 80.499 -22c23.333 0 43.333 1.66699 60 5s29.667 6.66602 39 9.99902v-94c-14.667 -4 -32.167 -7.5 -52.5 -10.5
s-40.5 -4.5 -60.5 -4.5z" />
    <glyph glyph-name="Cacute" unicode="&#x106;" horiz-adv-x="1371" 
d="M832 -21c-112 0 -212.839 18.667 -302.506 56s-165.834 89.166 -228.501 155.499s-110.667 144.333 -144 234s-50 186.834 -50 291.501c0 144 29.667 271.333 89 382s141.5 197.167 246.5 259.5s225.833 93.5 362.5 93.5c47.333 0 93.333 -3.33301 138 -10
s86.834 -16 126.501 -28s76.167 -24.667 109.5 -38s62 -26.666 86 -39.999l-14 -138c-51.333 30 -101.666 54.333 -150.999 73s-97.833 32.334 -145.5 41.001s-94.5 13 -140.5 13c-109.333 0 -206.166 -24.833 -290.499 -74.5s-150.5 -120 -198.5 -211
s-72 -198.833 -72 -323.5c0 -84 12.333 -162.833 37 -236.5s61.834 -138.5 111.501 -194.5s111.334 -99.833 185.001 -131.5s158.834 -47.5 255.501 -47.5c34.667 0 69.167 2.16699 103.5 6.5s68.5 11 102.5 20s67.333 21.167 100 36.5s64 33.666 94 54.999l14 -137
c-28 -18 -58.833 -33.833 -92.5 -47.5s-68.667 -24.834 -105 -33.501s-73.666 -15.167 -111.999 -19.5s-76.5 -6.5 -114.5 -6.5zM646.994 1579l140 180l138 178l151 2l-107 -121l-105.5 -119l-105.5 -118z" />
    <glyph glyph-name="cacute" unicode="&#x107;" horiz-adv-x="994" 
d="M605 -19c-106 0 -196.002 22.667 -270.002 68s-130.333 107 -169 185s-58 165.333 -58 262c0 98 18.833 186 56.5 264s92.167 139.667 163.5 185s157.666 68 258.999 68c38.667 0 76.667 -3.33301 114 -10s72.5 -15.834 105.5 -27.501s62.5 -24.834 88.5 -39.501
l-14 -122c-36.667 21.333 -71.667 37.833 -105 49.5s-64.666 19.667 -93.999 24s-56.333 6.5 -81 6.5c-109.333 0 -196.833 -35.5 -262.5 -106.5s-98.5 -167.167 -98.5 -288.5c0 -76 14.333 -144.333 43 -205s71.5 -108.667 128.5 -144s128.167 -53 213.5 -53
c29.333 0 58.833 2.66699 88.5 8s58.834 13.5 87.501 24.5s56.334 24.833 83.001 41.5l15 -123c-21.333 -11.333 -46.833 -22.166 -76.5 -32.499s-62.667 -18.666 -99 -24.999s-75.833 -9.5 -118.5 -9.5zM422.998 1160l140 198l138 195l151 4l-107.5 -133l-105.5 -131
l-105 -130z" />
    <glyph glyph-name="Ccircumflex" unicode="&#x108;" horiz-adv-x="1371" 
d="M832 -21c-112 0 -212.839 18.667 -302.506 56s-165.834 89.166 -228.501 155.499s-110.667 144.333 -144 234s-50 186.834 -50 291.501c0 144 29.667 271.333 89 382s141.5 197.167 246.5 259.5s225.833 93.5 362.5 93.5c47.333 0 93.333 -3.33301 138 -10
s86.834 -16 126.501 -28s76.167 -24.667 109.5 -38s62 -26.666 86 -39.999l-14 -138c-51.333 30 -101.666 54.333 -150.999 73s-97.833 32.334 -145.5 41.001s-94.5 13 -140.5 13c-109.333 0 -206.166 -24.833 -290.499 -74.5s-150.5 -120 -198.5 -211
s-72 -198.833 -72 -323.5c0 -84 12.333 -162.833 37 -236.5s61.834 -138.5 111.501 -194.5s111.334 -99.833 185.001 -131.5s158.834 -47.5 255.501 -47.5c34.667 0 69.167 2.16699 103.5 6.5s68.5 11 102.5 20s67.333 21.167 100 36.5s64 33.666 94 54.999l14 -137
c-28 -18 -58.833 -33.833 -92.5 -47.5s-68.667 -24.834 -105 -33.501s-73.666 -15.167 -111.999 -19.5s-76.5 -6.5 -114.5 -6.5zM1021.99 1577l-131 151.5l-131 152.5h41l-131 -150.5l-130 -149.5h-111l138.5 177l139.5 179h147l138.5 -179.5l139.5 -178.5z" />
    <glyph glyph-name="ccircumflex" unicode="&#x109;" horiz-adv-x="994" 
d="M605 -19c-106 0 -196.002 22.667 -270.002 68s-130.333 107 -169 185s-58 165.333 -58 262c0 98 18.833 186 56.5 264s92.167 139.667 163.5 185s157.666 68 258.999 68c38.667 0 76.667 -3.33301 114 -10s72.5 -15.834 105.5 -27.501s62.5 -24.834 88.5 -39.501
l-14 -122c-36.667 21.333 -71.667 37.833 -105 49.5s-64.666 19.667 -93.999 24s-56.333 6.5 -81 6.5c-109.333 0 -196.833 -35.5 -262.5 -106.5s-98.5 -167.167 -98.5 -288.5c0 -76 14.333 -144.333 43 -205s71.5 -108.667 128.5 -144s128.167 -53 213.5 -53
c29.333 0 58.833 2.66699 88.5 8s58.834 13.5 87.501 24.5s56.334 24.833 83.001 41.5l15 -123c-21.333 -11.333 -46.833 -22.166 -76.5 -32.499s-62.667 -18.666 -99 -24.999s-75.833 -9.5 -118.5 -9.5zM797.998 1158l-130 166l-131 166h39l-130 -164.5l-130 -163.5h-111
l139 196l139 195h147l138.5 -195.5l139.5 -196.5z" />
    <glyph glyph-name="Cdotaccent" unicode="&#x10a;" horiz-adv-x="1371" 
d="M832 -21c-112 0 -212.839 18.667 -302.506 56s-165.834 89.166 -228.501 155.499s-110.667 144.333 -144 234s-50 186.834 -50 291.501c0 144 29.667 271.333 89 382s141.5 197.167 246.5 259.5s225.833 93.5 362.5 93.5c47.333 0 93.333 -3.33301 138 -10
s86.834 -16 126.501 -28s76.167 -24.667 109.5 -38s62 -26.666 86 -39.999l-14 -138c-51.333 30 -101.666 54.333 -150.999 73s-97.833 32.334 -145.5 41.001s-94.5 13 -140.5 13c-109.333 0 -206.166 -24.833 -290.499 -74.5s-150.5 -120 -198.5 -211
s-72 -198.833 -72 -323.5c0 -84 12.333 -162.833 37 -236.5s61.834 -138.5 111.501 -194.5s111.334 -99.833 185.001 -131.5s158.834 -47.5 255.501 -47.5c34.667 0 69.167 2.16699 103.5 6.5s68.5 11 102.5 20s67.333 21.167 100 36.5s64 33.666 94 54.999l14 -137
c-28 -18 -58.833 -33.833 -92.5 -47.5s-68.667 -24.834 -105 -33.501s-73.666 -15.167 -111.999 -19.5s-76.5 -6.5 -114.5 -6.5zM778.994 1643c-30.667 0 -55.834 9 -75.501 27s-29.5 45.333 -29.5 82s9.83301 64.167 29.5 82.5s45.5 27.5 77.5 27.5s57.667 -9.5 77 -28.5
s29 -46.167 29 -81.5c0 -36.667 -9.66699 -64 -29 -82s-45.666 -27 -78.999 -27z" />
    <glyph glyph-name="cdotaccent" unicode="&#x10b;" horiz-adv-x="994" 
d="M605 -19c-106 0 -196.002 22.667 -270.002 68s-130.333 107 -169 185s-58 165.333 -58 262c0 98 18.833 186 56.5 264s92.167 139.667 163.5 185s157.666 68 258.999 68c38.667 0 76.667 -3.33301 114 -10s72.5 -15.834 105.5 -27.501s62.5 -24.834 88.5 -39.501
l-14 -122c-36.667 21.333 -71.667 37.833 -105 49.5s-64.666 19.667 -93.999 24s-56.333 6.5 -81 6.5c-109.333 0 -196.833 -35.5 -262.5 -106.5s-98.5 -167.167 -98.5 -288.5c0 -76 14.333 -144.333 43 -205s71.5 -108.667 128.5 -144s128.167 -53 213.5 -53
c29.333 0 58.833 2.66699 88.5 8s58.834 13.5 87.501 24.5s56.334 24.833 83.001 41.5l15 -123c-21.333 -11.333 -46.833 -22.166 -76.5 -32.499s-62.667 -18.666 -99 -24.999s-75.833 -9.5 -118.5 -9.5zM555.998 1240c-30.667 0 -55.834 9 -75.501 27
s-29.5 45.667 -29.5 83c0 36.667 9.83301 64.167 29.5 82.5s45.5 27.5 77.5 27.5s57.667 -9.5 77 -28.5s29 -46.167 29 -81.5c0 -37.333 -9.66699 -65 -29 -83s-45.666 -27 -78.999 -27z" />
    <glyph glyph-name="Ccaron" unicode="&#x10c;" horiz-adv-x="1371" 
d="M832 -21c-112 0 -212.839 18.667 -302.506 56s-165.834 89.166 -228.501 155.499s-110.667 144.333 -144 234s-50 186.834 -50 291.501c0 144 29.667 271.333 89 382s141.5 197.167 246.5 259.5s225.833 93.5 362.5 93.5c47.333 0 93.333 -3.33301 138 -10
s86.834 -16 126.501 -28s76.167 -24.667 109.5 -38s62 -26.666 86 -39.999l-14 -138c-51.333 30 -101.666 54.333 -150.999 73s-97.833 32.334 -145.5 41.001s-94.5 13 -140.5 13c-109.333 0 -206.166 -24.833 -290.499 -74.5s-150.5 -120 -198.5 -211
s-72 -198.833 -72 -323.5c0 -84 12.333 -162.833 37 -236.5s61.834 -138.5 111.501 -194.5s111.334 -99.833 185.001 -131.5s158.834 -47.5 255.501 -47.5c34.667 0 69.167 2.16699 103.5 6.5s68.5 11 102.5 20s67.333 21.167 100 36.5s64 33.666 94 54.999l14 -137
c-28 -18 -58.833 -33.833 -92.5 -47.5s-68.667 -24.834 -105 -33.501s-73.666 -15.167 -111.999 -19.5s-76.5 -6.5 -114.5 -6.5zM709.994 1579l-138.5 178.5l-139.5 178.5l110 2l131.5 -151.5l130.5 -152.5h-41l131.5 151l129.5 149h111l-138 -177l-140 -178h-147z" />
    <glyph glyph-name="ccaron" unicode="&#x10d;" horiz-adv-x="994" 
d="M605 -19c-106 0 -196.002 22.667 -270.002 68s-130.333 107 -169 185s-58 165.333 -58 262c0 98 18.833 186 56.5 264s92.167 139.667 163.5 185s157.666 68 258.999 68c38.667 0 76.667 -3.33301 114 -10s72.5 -15.834 105.5 -27.501s62.5 -24.834 88.5 -39.501
l-14 -122c-36.667 21.333 -71.667 37.833 -105 49.5s-64.666 19.667 -93.999 24s-56.333 6.5 -81 6.5c-109.333 0 -196.833 -35.5 -262.5 -106.5s-98.5 -167.167 -98.5 -288.5c0 -76 14.333 -144.333 43 -205s71.5 -108.667 128.5 -144s128.167 -53 213.5 -53
c29.333 0 58.833 2.66699 88.5 8s58.834 13.5 87.501 24.5s56.334 24.833 83.001 41.5l15 -123c-21.333 -11.333 -46.833 -22.166 -76.5 -32.499s-62.667 -18.666 -99 -24.999s-75.833 -9.5 -118.5 -9.5zM485.998 1148l-138.5 197l-139.5 196l110 2l130.5 -165.5
l130.5 -166.5h-39l131 165l129 163h111l-139 -194l-139 -197h-147z" />
    <glyph glyph-name="Dcaron" unicode="&#x10e;" horiz-adv-x="1475" 
d="M197 0l0.00195312 231v242v477v244.5v231.5h170.5h155.5h156c110.667 0 208.667 -15.833 294 -47.5s157.333 -78.167 216 -139.5s103.167 -135.5 133.5 -222.5s45.5 -186.167 45.5 -297.5c0 -100.667 -13.5 -194.5 -40.5 -281.5s-69.333 -163.167 -127 -228.5
s-133.334 -116.5 -227.001 -153.5s-207.834 -55.5 -342.501 -55.5h-153h-137.5h-143.5zM338.002 120l295 -0.00195312c145.333 0 261 26.333 347 79s147.833 124.334 185.5 215.001s56.5 193.334 56.5 308.001c0 88.667 -11.167 168.834 -33.5 240.501
s-56.5 133.167 -102.5 184.5s-104.667 90.666 -176 117.999s-156 41 -254 41h-318v-182v-197v-431v-195v-181zM629.002 1579l-138.5 178.5l-139.5 178.5l110 2l131.5 -151.5l130.5 -152.5h-41l131.5 151l129.5 149h111l-138 -177l-140 -178h-147z" />
    <glyph glyph-name="dcaron" unicode="&#x10f;" horiz-adv-x="1166" 
d="M539 -21c-95.333 0 -174.999 23.999 -238.999 71.999s-111.833 111.5 -143.5 190.5s-47.5 164.833 -47.5 257.5c0 98 17 185.833 51 263.5s83.5 138.834 148.5 183.501s143.167 67 234.5 67c46.667 0 90 -6.33301 130 -19s75.167 -29.334 105.5 -50.001
s55.166 -42.667 74.499 -66h16v110v245v230l129 19v-242.5v-251.5v-549v-225v-214h-114l-6 137h-14c-27.333 -34 -57.333 -62.667 -90 -86s-68.5 -41.166 -107.5 -53.499s-81.5 -18.5 -127.5 -18.5zM572.001 97.999c44.667 0 85.3311 7.1709 121.998 21.5039
s69.334 34.5 98.001 60.5s54.334 57.333 77.001 94v468c-22.667 33.333 -49.5 61.166 -80.5 83.499s-64.667 39.166 -101 50.499s-73.833 17 -112.5 17c-76 0 -138.5 -17.833 -187.5 -53.5s-85.667 -83.334 -110 -143.001s-36.5 -125.834 -36.5 -198.501
c0 -69.333 11.5 -134.333 34.5 -195s58.833 -110 107.5 -148s111.667 -57 189 -57zM1167 1087c15.333 34 27.833 69.6631 37.5 106.996s16.667 73.333 21 108s6.5 64.334 6.5 89.001v75.5v74.5l59 5c20 -1.33301 35 -9.16602 45 -23.499s15 -34.833 15 -61.5
c0 -31.333 -3 -64.166 -9 -98.499s-14.167 -68.333 -24.5 -102s-22 -65.167 -35 -94.5s-26.5 -54.666 -40.5 -75.999z" />
    <glyph glyph-name="Dcroat" unicode="&#x110;" horiz-adv-x="1475" 
d="M-22 642v107h177.5h159.5h93h160h177v-107h-177h-160h-93h-159.5h-177.5zM197 0l0.00195312 231v242v477v244.5v231.5h170.5h155.5h156c110.667 0 208.667 -15.833 294 -47.5s157.333 -78.167 216 -139.5s103.167 -135.5 133.5 -222.5s45.5 -186.167 45.5 -297.5
c0 -100.667 -13.5 -194.5 -40.5 -281.5s-69.333 -163.167 -127 -228.5s-133.334 -116.5 -227.001 -153.5s-207.834 -55.5 -342.501 -55.5h-153h-137.5h-143.5zM338.002 120l295 -0.00195312c145.333 0 261 26.333 347 79s147.833 124.334 185.5 215.001
s56.5 193.334 56.5 308.001c0 88.667 -11.167 168.834 -33.5 240.501s-56.5 133.167 -102.5 184.5s-104.667 90.666 -176 117.999s-156 41 -254 41h-318v-182v-197v-431v-195v-181z" />
    <glyph glyph-name="dcroat" unicode="&#x111;" horiz-adv-x="1152" 
d="M498 1202v96h163h145h86h146h162v-96h-162h-146h-86h-145h-163zM539 -21c-95.333 0 -174.999 23.999 -238.999 71.999s-111.833 111.5 -143.5 190.5s-47.5 164.833 -47.5 257.5c0 98 17 185.833 51 263.5s83.5 138.834 148.5 183.501s143.167 67 234.5 67
c46.667 0 90 -6.33301 130 -19s75.167 -29.334 105.5 -50.001s55.166 -42.667 74.499 -66h16v110v245v230l129 19v-242.5v-251.5v-549v-225v-214h-114l-6 137h-14c-27.333 -34 -57.333 -62.667 -90 -86s-68.5 -41.166 -107.5 -53.499s-81.5 -18.5 -127.5 -18.5z
M572.001 97.999c44.667 0 85.3311 7.1709 121.998 21.5039s69.334 34.5 98.001 60.5s54.334 57.333 77.001 94v468c-22.667 33.333 -49.5 61.166 -80.5 83.499s-64.667 39.166 -101 50.499s-73.833 17 -112.5 17c-76 0 -138.5 -17.833 -187.5 -53.5
s-85.667 -83.334 -110 -143.001s-36.5 -125.834 -36.5 -198.501c0 -69.333 11.5 -134.333 34.5 -195s58.833 -110 107.5 -148s111.667 -57 189 -57z" />
    <glyph glyph-name="Emacron" unicode="&#x112;" horiz-adv-x="1185" 
d="M197 0v231v242v477v244.5v231.5h869v-123h-219h-275h-313l76 104v-232v-244v-438v-241v-231l-70 102h319h254h229v-123h-870zM305 664v119h282h241.5h195.5v-119h-200.5h-238.5h-280zM328 1688v103h146h160h160.5h145.5v-103h-145.5h-160.5h-160h-146z" />
    <glyph glyph-name="emacron" unicode="&#x113;" horiz-adv-x="1055" 
d="M620 -20c-116 0 -211.836 22.499 -287.503 67.499s-132 106.833 -169 185.5s-55.5 168.334 -55.5 269.001c0 99.333 18.5 187.5 55.5 264.5s89.333 137.333 157 181s147.834 65.5 240.501 65.5c81.333 0 151.833 -16.5 211.5 -49.5s105.5 -80.833 137.5 -143.5
s48 -139 48 -229c0 -24 -0.5 -45.833 -1.5 -65.5s-3.16699 -39.167 -6.5 -58.5l-114 66c1.33301 10.667 2.16602 21 2.49902 31s0.5 19.667 0.5 29c0 104 -25.333 181.833 -76 233.5s-117.334 77.5 -200.001 77.5c-68 0 -126.167 -16.667 -174.5 -50
s-85.333 -79.333 -111 -138s-38.5 -125.667 -38.5 -201v-17c0 -82.667 14.167 -154 42.5 -214s71.333 -106.333 129 -139s130.834 -49 219.501 -49c32.667 0 66.334 2.66699 101.001 8s69 13.333 103 24s66.667 24.667 98 42l7 -121
c-25.333 -14 -54.666 -26.167 -87.999 -36.5s-69.666 -18.333 -108.999 -24s-80 -8.5 -122 -8.5zM164.997 466.999v97l703 4l82 -27v-74h-785zM249.997 1269v103h146h160h160.5h145.5v-103h-145.5h-160.5h-160h-146z" />
    <glyph glyph-name="Ebreve" unicode="&#x114;" horiz-adv-x="1185" 
d="M197 0v231v242v477v244.5v231.5h869v-123h-219h-275h-313l76 104v-232v-244v-438v-241v-231l-70 102h319h254h229v-123h-870zM305 664v119h282h241.5h195.5v-119h-200.5h-238.5h-280zM630 1572c-99.333 0 -175.5 31 -228.5 93s-79.5 152.333 -79.5 271l100 4
c0 -93.333 18.167 -161 54.5 -203s87.5 -63 153.5 -63c68 0 120.167 20.667 156.5 62s54.5 108 54.5 200h100c0 -79.333 -11.833 -146 -35.5 -200s-58.5 -94.833 -104.5 -122.5s-103 -41.5 -171 -41.5z" />
    <glyph glyph-name="ebreve" unicode="&#x115;" horiz-adv-x="1055" 
d="M620 -20c-116 0 -211.836 22.499 -287.503 67.499s-132 106.833 -169 185.5s-55.5 168.334 -55.5 269.001c0 99.333 18.5 187.5 55.5 264.5s89.333 137.333 157 181s147.834 65.5 240.501 65.5c81.333 0 151.833 -16.5 211.5 -49.5s105.5 -80.833 137.5 -143.5
s48 -139 48 -229c0 -24 -0.5 -45.833 -1.5 -65.5s-3.16699 -39.167 -6.5 -58.5l-114 66c1.33301 10.667 2.16602 21 2.49902 31s0.5 19.667 0.5 29c0 104 -25.333 181.833 -76 233.5s-117.334 77.5 -200.001 77.5c-68 0 -126.167 -16.667 -174.5 -50
s-85.333 -79.333 -111 -138s-38.5 -125.667 -38.5 -201v-17c0 -82.667 14.167 -154 42.5 -214s71.333 -106.333 129 -139s130.834 -49 219.501 -49c32.667 0 66.334 2.66699 101.001 8s69 13.333 103 24s66.667 24.667 98 42l7 -121
c-25.333 -14 -54.666 -26.167 -87.999 -36.5s-69.666 -18.333 -108.999 -24s-80 -8.5 -122 -8.5zM164.997 466.999v97l703 4l82 -27v-74h-785zM551.997 1153c-99.333 0 -175.5 31.167 -228.5 93.5s-79.5 152.5 -79.5 270.5l100 4c0 -93.333 18.167 -161 54.5 -203
s87.5 -63 153.5 -63c68 0 120.167 20.667 156.5 62s54.5 108 54.5 200h100c0 -78.667 -11.833 -145.167 -35.5 -199.5s-58.5 -95.333 -104.5 -123s-103 -41.5 -171 -41.5z" />
    <glyph glyph-name="Edotaccent" unicode="&#x116;" horiz-adv-x="1185" 
d="M197 0v231v242v477v244.5v231.5h869v-123h-219h-275h-313l76 104v-232v-244v-438v-241v-231l-70 102h319h254h229v-123h-870zM305 664v119h282h241.5h195.5v-119h-200.5h-238.5h-280zM630 1643c-30.667 0 -55.834 9 -75.501 27s-29.5 45.333 -29.5 82
s9.83301 64.167 29.5 82.5s45.5 27.5 77.5 27.5s57.667 -9.5 77 -28.5s29 -46.167 29 -81.5c0 -36.667 -9.66699 -64 -29 -82s-45.666 -27 -78.999 -27z" />
    <glyph glyph-name="edotaccent" unicode="&#x117;" horiz-adv-x="1055" 
d="M620 -20c-116 0 -211.836 22.499 -287.503 67.499s-132 106.833 -169 185.5s-55.5 168.334 -55.5 269.001c0 99.333 18.5 187.5 55.5 264.5s89.333 137.333 157 181s147.834 65.5 240.501 65.5c81.333 0 151.833 -16.5 211.5 -49.5s105.5 -80.833 137.5 -143.5
s48 -139 48 -229c0 -24 -0.5 -45.833 -1.5 -65.5s-3.16699 -39.167 -6.5 -58.5l-114 66c1.33301 10.667 2.16602 21 2.49902 31s0.5 19.667 0.5 29c0 104 -25.333 181.833 -76 233.5s-117.334 77.5 -200.001 77.5c-68 0 -126.167 -16.667 -174.5 -50
s-85.333 -79.333 -111 -138s-38.5 -125.667 -38.5 -201v-17c0 -82.667 14.167 -154 42.5 -214s71.333 -106.333 129 -139s130.834 -49 219.501 -49c32.667 0 66.334 2.66699 101.001 8s69 13.333 103 24s66.667 24.667 98 42l7 -121
c-25.333 -14 -54.666 -26.167 -87.999 -36.5s-69.666 -18.333 -108.999 -24s-80 -8.5 -122 -8.5zM164.997 466.999v97l703 4l82 -27v-74h-785zM551.997 1240c-30.667 0 -55.834 9 -75.501 27s-29.5 45.667 -29.5 83c0 36.667 9.83301 64.167 29.5 82.5s45.5 27.5 77.5 27.5
s57.667 -9.5 77 -28.5s29 -46.167 29 -81.5c0 -37.333 -9.66699 -65 -29 -83s-45.666 -27 -78.999 -27z" />
    <glyph glyph-name="Eogonek" unicode="&#x118;" horiz-adv-x="1185" 
d="M197 0v231v242v477v244.5v231.5h869v-123h-219h-275h-313l76 104v-232v-244v-438v-241v-231l-70 102h319h254h229v-123h-870zM305 664v119h282h241.5h195.5v-119h-200.5h-238.5h-280zM962 -410c-43.333 0 -80.166 6.50098 -110.499 19.501s-53.5 31.333 -69.5 55
s-24 51.167 -24 82.5c0 32 7.66699 62.833 23 92.5s38.333 58.834 69 87.501s69.667 56.667 117 84v30l68 5l32 -46c-55.333 -28 -102.833 -62.5 -142.5 -103.5s-59.5 -81.833 -59.5 -122.5c0 -30.667 10.167 -53.334 30.5 -68.001s47.166 -22 80.499 -22
c23.333 0 43.333 1.66699 60 5s29.667 6.66602 39 9.99902v-94c-14.667 -4 -32.167 -7.5 -52.5 -10.5s-40.5 -4.5 -60.5 -4.5z" />
    <glyph glyph-name="eogonek" unicode="&#x119;" horiz-adv-x="1055" 
d="M620 -20c-116 0 -211.836 22.499 -287.503 67.499s-132 106.833 -169 185.5s-55.5 168.334 -55.5 269.001c0 99.333 18.5 187.5 55.5 264.5s89.333 137.333 157 181s147.834 65.5 240.501 65.5c81.333 0 151.833 -16.5 211.5 -49.5s105.5 -80.833 137.5 -143.5
s48 -139 48 -229c0 -24 -0.5 -45.833 -1.5 -65.5s-3.16699 -39.167 -6.5 -58.5l-114 66c1.33301 10.667 2.16602 21 2.49902 31s0.5 19.667 0.5 29c0 104 -25.333 181.833 -76 233.5s-117.334 77.5 -200.001 77.5c-68 0 -126.167 -16.667 -174.5 -50
s-85.333 -79.333 -111 -138s-38.5 -125.667 -38.5 -201v-17c0 -82.667 14.167 -154 42.5 -214s71.333 -106.333 129 -139s130.834 -49 219.501 -49c32.667 0 66.334 2.66699 101.001 8s69 13.333 103 24s66.667 24.667 98 42l7 -121
c-25.333 -14 -54.666 -26.167 -87.999 -36.5s-69.666 -18.333 -108.999 -24s-80 -8.5 -122 -8.5zM164.997 466.999v97l703 4l82 -27v-74h-785zM658.997 -410.001c-43.333 0 -80.166 6.50098 -110.499 19.501s-53.5 31.333 -69.5 55s-24 51.167 -24 82.5
c0 32 7.66699 62.833 23 92.5s38.333 58.834 69 87.501s69.667 56.667 117 84v30l68 5l32 -46c-55.333 -28 -102.833 -62.5 -142.5 -103.5s-59.5 -81.833 -59.5 -122.5c0 -30.667 10.167 -53.334 30.5 -68.001s47.166 -22 80.499 -22c23.333 0 43.333 1.66699 60 5
s29.667 6.66602 39 9.99902v-94c-14.667 -4 -32.167 -7.5 -52.5 -10.5s-40.5 -4.5 -60.5 -4.5z" />
    <glyph glyph-name="Ecaron" unicode="&#x11a;" horiz-adv-x="1185" 
d="M197 0v231v242v477v244.5v231.5h869v-123h-219h-275h-313l76 104v-232v-244v-438v-241v-231l-70 102h319h254h229v-123h-870zM305 664v119h282h241.5h195.5v-119h-200.5h-238.5h-280zM561 1579l-138.5 178.5l-139.5 178.5l110 2l131.5 -151.5l130.5 -152.5h-41l131.5 151
l129.5 149h111l-138 -177l-140 -178h-147z" />
    <glyph glyph-name="ecaron" unicode="&#x11b;" horiz-adv-x="1055" 
d="M620 -20c-116 0 -211.836 22.499 -287.503 67.499s-132 106.833 -169 185.5s-55.5 168.334 -55.5 269.001c0 99.333 18.5 187.5 55.5 264.5s89.333 137.333 157 181s147.834 65.5 240.501 65.5c81.333 0 151.833 -16.5 211.5 -49.5s105.5 -80.833 137.5 -143.5
s48 -139 48 -229c0 -24 -0.5 -45.833 -1.5 -65.5s-3.16699 -39.167 -6.5 -58.5l-114 66c1.33301 10.667 2.16602 21 2.49902 31s0.5 19.667 0.5 29c0 104 -25.333 181.833 -76 233.5s-117.334 77.5 -200.001 77.5c-68 0 -126.167 -16.667 -174.5 -50
s-85.333 -79.333 -111 -138s-38.5 -125.667 -38.5 -201v-17c0 -82.667 14.167 -154 42.5 -214s71.333 -106.333 129 -139s130.834 -49 219.501 -49c32.667 0 66.334 2.66699 101.001 8s69 13.333 103 24s66.667 24.667 98 42l7 -121
c-25.333 -14 -54.666 -26.167 -87.999 -36.5s-69.666 -18.333 -108.999 -24s-80 -8.5 -122 -8.5zM164.997 466.999v97l703 4l82 -27v-74h-785zM482.997 1148l-138.5 197l-139.5 196l110 2l130.5 -165.5l130.5 -166.5h-39l131 165l129 163h111l-139 -194l-139 -197h-147z" />
    <glyph glyph-name="Gcircumflex" unicode="&#x11c;" horiz-adv-x="1468" 
d="M864 -20c-124 0 -232.999 18.6641 -326.999 55.9971s-173 89.333 -237 156s-112.167 144.834 -144.5 234.501s-48.5 186.5 -48.5 290.5c0 142.667 29.5 269.334 88.5 380.001s141.833 197.334 248.5 260.001s231.334 94 374.001 94c50 0 98.5 -3.5 145.5 -10.5
s91.167 -16.333 132.5 -28s79.333 -24.334 114 -38.001s64.334 -27.167 89.001 -40.5l-15 -137c-54.667 30 -108 54.333 -160 73s-102.833 32.334 -152.5 41.001s-98.5 13 -146.5 13c-84.667 0 -161.834 -13.833 -231.501 -41.5s-130.167 -68 -181.5 -121
s-90.833 -117 -118.5 -192s-41.5 -159.5 -41.5 -253.5c0 -86 12.167 -166 36.5 -240s61.666 -139 111.999 -195s114.666 -99.667 192.999 -131s171.166 -47 278.499 -47c36.667 0 73.667 1.83301 111 5.5s74.5 9.5 111.5 17.5s73.333 18.5 109 31.5s70.167 28.5 103.5 46.5
l17 -137c-23.333 -10 -51.666 -20.167 -84.999 -30.5s-70.166 -19.833 -110.499 -28.5s-82.833 -15.5 -127.5 -20.5s-90.334 -7.5 -137.001 -7.5zM1189 64.9971v182.5v155.5v163v143h135v-143v-163v-155v-181zM1038 1577l-131 151.5l-131 152.5h41l-131 -150.5l-130 -149.5
h-111l138.5 177l139.5 179h147l138.5 -179.5l139.5 -178.5z" />
    <glyph glyph-name="gcircumflex" unicode="&#x11d;" horiz-adv-x="1080" 
d="M490 -406c-73.333 0 -134.334 6.83496 -183.001 20.502s-87.334 32 -116.001 55s-49 48.5 -61 76.5s-18 56 -18 84c0 45.333 11.167 83.166 33.5 113.499s48.5 54.5 78.5 72.5s56.667 30.333 80 37v13c-12 3.33301 -26.167 10.333 -42.5 21s-30.833 25.834 -43.5 45.501
s-19 44.834 -19 75.501c0 24.667 4.83301 46.834 14.5 66.501s24 36.834 43 51.501s42.5 27.334 70.5 38.001v13c-14.667 4.66699 -34.167 14.167 -58.5 28.5s-49 34.166 -74 59.499s-46.333 56.666 -64 93.999s-26.5 81.333 -26.5 132c0 64.667 16 121.167 48 169.5
s76.5 85.833 133.5 112.5s122.5 40 196.5 40c30 0 56.333 -1.83301 79 -5.5s46 -7.16699 70 -10.5s53.333 -5 88 -5h318v-101h-196.5h-193.5l38 63c62.667 -28.667 107.834 -66.834 135.501 -114.501s41.5 -100.167 41.5 -157.5c0 -65.333 -13.167 -120 -39.5 -164
s-63.666 -79.833 -111.999 -107.5s-105.5 -49.167 -171.5 -64.5c-74.667 -17.333 -130 -33.833 -166 -49.5s-54 -38.834 -54 -69.501c0 -22 7.33301 -39 22 -51s38.167 -20.5 70.5 -25.5s74.833 -7.5 127.5 -7.5h44c94 0 170.167 -7.33301 228.5 -22
s101 -37.834 128 -69.501s40.5 -73.834 40.5 -126.501c0 -54.667 -14.5 -102.667 -43.5 -144s-67.833 -75.833 -116.5 -103.5s-101.667 -48.5 -159 -62.5s-114.333 -21 -171 -21zM497.999 -294.998c78.667 0 144.501 11 197.501 33s93 48.667 120 80s40.5 61 40.5 89
c0 28.667 -8 52.167 -24 70.5s-45.333 31.833 -88 40.5s-104.334 13 -185.001 13h-39c-47.333 -0.666992 -92.833 -8.33398 -136.5 -23.001s-79.5 -35.167 -107.5 -61.5s-42 -57.166 -42 -92.499c0 -19.333 4.33301 -38 13 -56s23.167 -34 43.5 -48s47.5 -25 81.5 -33
s76 -12 126 -12zM469 438.002c27.333 6 56.667 13.501 88 22.501s60.833 21.833 88.5 38.5s50.167 39.167 67.5 67.5s26 64.5 26 108.5c0 53.333 -13.833 96.333 -41.5 129s-61.167 56.667 -100.5 72s-77 23 -113 23c-46 0 -88.333 -7.83301 -127 -23.5
s-70 -39.334 -94 -71.001s-36 -72.167 -36 -121.5c0 -50 11.833 -92 35.5 -126s54 -60.833 91 -80.5s75.5 -32.5 115.5 -38.5zM748.001 1158l-130 166l-131 166h39l-130 -164.5l-130 -163.5h-111l139 196l139 195h147l138.5 -195.5l139.5 -196.5z" />
    <glyph glyph-name="Gbreve" unicode="&#x11e;" horiz-adv-x="1468" 
d="M864 -20c-124 0 -232.999 18.6641 -326.999 55.9971s-173 89.333 -237 156s-112.167 144.834 -144.5 234.501s-48.5 186.5 -48.5 290.5c0 142.667 29.5 269.334 88.5 380.001s141.833 197.334 248.5 260.001s231.334 94 374.001 94c50 0 98.5 -3.5 145.5 -10.5
s91.167 -16.333 132.5 -28s79.333 -24.334 114 -38.001s64.334 -27.167 89.001 -40.5l-15 -137c-54.667 30 -108 54.333 -160 73s-102.833 32.334 -152.5 41.001s-98.5 13 -146.5 13c-84.667 0 -161.834 -13.833 -231.501 -41.5s-130.167 -68 -181.5 -121
s-90.833 -117 -118.5 -192s-41.5 -159.5 -41.5 -253.5c0 -86 12.167 -166 36.5 -240s61.666 -139 111.999 -195s114.666 -99.667 192.999 -131s171.166 -47 278.499 -47c36.667 0 73.667 1.83301 111 5.5s74.5 9.5 111.5 17.5s73.333 18.5 109 31.5s70.167 28.5 103.5 46.5
l17 -137c-23.333 -10 -51.666 -20.167 -84.999 -30.5s-70.166 -19.833 -110.499 -28.5s-82.833 -15.5 -127.5 -20.5s-90.334 -7.5 -137.001 -7.5zM1189 64.9971v182.5v155.5v163v143h135v-143v-163v-155v-181zM795.001 1572c-99.333 0 -175.5 31 -228.5 93
s-79.5 152.333 -79.5 271l100 4c0 -93.333 18.167 -161 54.5 -203s87.5 -63 153.5 -63c68 0 120.167 20.667 156.5 62s54.5 108 54.5 200h100c0 -79.333 -11.833 -146 -35.5 -200s-58.5 -94.833 -104.5 -122.5s-103 -41.5 -171 -41.5z" />
    <glyph glyph-name="gbreve" unicode="&#x11f;" horiz-adv-x="1080" 
d="M490 -406c-73.333 0 -134.334 6.83496 -183.001 20.502s-87.334 32 -116.001 55s-49 48.5 -61 76.5s-18 56 -18 84c0 45.333 11.167 83.166 33.5 113.499s48.5 54.5 78.5 72.5s56.667 30.333 80 37v13c-12 3.33301 -26.167 10.333 -42.5 21s-30.833 25.834 -43.5 45.501
s-19 44.834 -19 75.501c0 24.667 4.83301 46.834 14.5 66.501s24 36.834 43 51.501s42.5 27.334 70.5 38.001v13c-14.667 4.66699 -34.167 14.167 -58.5 28.5s-49 34.166 -74 59.499s-46.333 56.666 -64 93.999s-26.5 81.333 -26.5 132c0 64.667 16 121.167 48 169.5
s76.5 85.833 133.5 112.5s122.5 40 196.5 40c30 0 56.333 -1.83301 79 -5.5s46 -7.16699 70 -10.5s53.333 -5 88 -5h318v-101h-196.5h-193.5l38 63c62.667 -28.667 107.834 -66.834 135.501 -114.501s41.5 -100.167 41.5 -157.5c0 -65.333 -13.167 -120 -39.5 -164
s-63.666 -79.833 -111.999 -107.5s-105.5 -49.167 -171.5 -64.5c-74.667 -17.333 -130 -33.833 -166 -49.5s-54 -38.834 -54 -69.501c0 -22 7.33301 -39 22 -51s38.167 -20.5 70.5 -25.5s74.833 -7.5 127.5 -7.5h44c94 0 170.167 -7.33301 228.5 -22
s101 -37.834 128 -69.501s40.5 -73.834 40.5 -126.501c0 -54.667 -14.5 -102.667 -43.5 -144s-67.833 -75.833 -116.5 -103.5s-101.667 -48.5 -159 -62.5s-114.333 -21 -171 -21zM497.999 -294.998c78.667 0 144.501 11 197.501 33s93 48.667 120 80s40.5 61 40.5 89
c0 28.667 -8 52.167 -24 70.5s-45.333 31.833 -88 40.5s-104.334 13 -185.001 13h-39c-47.333 -0.666992 -92.833 -8.33398 -136.5 -23.001s-79.5 -35.167 -107.5 -61.5s-42 -57.166 -42 -92.499c0 -19.333 4.33301 -38 13 -56s23.167 -34 43.5 -48s47.5 -25 81.5 -33
s76 -12 126 -12zM469 438.002c27.333 6 56.667 13.501 88 22.501s60.833 21.833 88.5 38.5s50.167 39.167 67.5 67.5s26 64.5 26 108.5c0 53.333 -13.833 96.333 -41.5 129s-61.167 56.667 -100.5 72s-77 23 -113 23c-46 0 -88.333 -7.83301 -127 -23.5
s-70 -39.334 -94 -71.001s-36 -72.167 -36 -121.5c0 -50 11.833 -92 35.5 -126s54 -60.833 91 -80.5s75.5 -32.5 115.5 -38.5zM505.001 1153c-99.333 0 -175.5 31.167 -228.5 93.5s-79.5 152.5 -79.5 270.5l100 4c0 -93.333 18.167 -161 54.5 -203s87.5 -63 153.5 -63
c68 0 120.167 20.667 156.5 62s54.5 108 54.5 200h100c0 -78.667 -11.833 -145.167 -35.5 -199.5s-58.5 -95.333 -104.5 -123s-103 -41.5 -171 -41.5z" />
    <glyph glyph-name="Gdotaccent" unicode="&#x120;" horiz-adv-x="1468" 
d="M864 -20c-124 0 -232.999 18.6641 -326.999 55.9971s-173 89.333 -237 156s-112.167 144.834 -144.5 234.501s-48.5 186.5 -48.5 290.5c0 142.667 29.5 269.334 88.5 380.001s141.833 197.334 248.5 260.001s231.334 94 374.001 94c50 0 98.5 -3.5 145.5 -10.5
s91.167 -16.333 132.5 -28s79.333 -24.334 114 -38.001s64.334 -27.167 89.001 -40.5l-15 -137c-54.667 30 -108 54.333 -160 73s-102.833 32.334 -152.5 41.001s-98.5 13 -146.5 13c-84.667 0 -161.834 -13.833 -231.501 -41.5s-130.167 -68 -181.5 -121
s-90.833 -117 -118.5 -192s-41.5 -159.5 -41.5 -253.5c0 -86 12.167 -166 36.5 -240s61.666 -139 111.999 -195s114.666 -99.667 192.999 -131s171.166 -47 278.499 -47c36.667 0 73.667 1.83301 111 5.5s74.5 9.5 111.5 17.5s73.333 18.5 109 31.5s70.167 28.5 103.5 46.5
l17 -137c-23.333 -10 -51.666 -20.167 -84.999 -30.5s-70.166 -19.833 -110.499 -28.5s-82.833 -15.5 -127.5 -20.5s-90.334 -7.5 -137.001 -7.5zM1189 64.9971v182.5v155.5v163v143h135v-143v-163v-155v-181zM795.001 1643c-30.667 0 -55.834 9 -75.501 27
s-29.5 45.333 -29.5 82s9.83301 64.167 29.5 82.5s45.5 27.5 77.5 27.5s57.667 -9.5 77 -28.5s29 -46.167 29 -81.5c0 -36.667 -9.66699 -64 -29 -82s-45.666 -27 -78.999 -27z" />
    <glyph glyph-name="gdotaccent" unicode="&#x121;" horiz-adv-x="1080" 
d="M490 -406c-73.333 0 -134.334 6.83496 -183.001 20.502s-87.334 32 -116.001 55s-49 48.5 -61 76.5s-18 56 -18 84c0 45.333 11.167 83.166 33.5 113.499s48.5 54.5 78.5 72.5s56.667 30.333 80 37v13c-12 3.33301 -26.167 10.333 -42.5 21s-30.833 25.834 -43.5 45.501
s-19 44.834 -19 75.501c0 24.667 4.83301 46.834 14.5 66.501s24 36.834 43 51.501s42.5 27.334 70.5 38.001v13c-14.667 4.66699 -34.167 14.167 -58.5 28.5s-49 34.166 -74 59.499s-46.333 56.666 -64 93.999s-26.5 81.333 -26.5 132c0 64.667 16 121.167 48 169.5
s76.5 85.833 133.5 112.5s122.5 40 196.5 40c30 0 56.333 -1.83301 79 -5.5s46 -7.16699 70 -10.5s53.333 -5 88 -5h318v-101h-196.5h-193.5l38 63c62.667 -28.667 107.834 -66.834 135.501 -114.501s41.5 -100.167 41.5 -157.5c0 -65.333 -13.167 -120 -39.5 -164
s-63.666 -79.833 -111.999 -107.5s-105.5 -49.167 -171.5 -64.5c-74.667 -17.333 -130 -33.833 -166 -49.5s-54 -38.834 -54 -69.501c0 -22 7.33301 -39 22 -51s38.167 -20.5 70.5 -25.5s74.833 -7.5 127.5 -7.5h44c94 0 170.167 -7.33301 228.5 -22
s101 -37.834 128 -69.501s40.5 -73.834 40.5 -126.501c0 -54.667 -14.5 -102.667 -43.5 -144s-67.833 -75.833 -116.5 -103.5s-101.667 -48.5 -159 -62.5s-114.333 -21 -171 -21zM497.999 -294.998c78.667 0 144.501 11 197.501 33s93 48.667 120 80s40.5 61 40.5 89
c0 28.667 -8 52.167 -24 70.5s-45.333 31.833 -88 40.5s-104.334 13 -185.001 13h-39c-47.333 -0.666992 -92.833 -8.33398 -136.5 -23.001s-79.5 -35.167 -107.5 -61.5s-42 -57.166 -42 -92.499c0 -19.333 4.33301 -38 13 -56s23.167 -34 43.5 -48s47.5 -25 81.5 -33
s76 -12 126 -12zM469 438.002c27.333 6 56.667 13.501 88 22.501s60.833 21.833 88.5 38.5s50.167 39.167 67.5 67.5s26 64.5 26 108.5c0 53.333 -13.833 96.333 -41.5 129s-61.167 56.667 -100.5 72s-77 23 -113 23c-46 0 -88.333 -7.83301 -127 -23.5
s-70 -39.334 -94 -71.001s-36 -72.167 -36 -121.5c0 -50 11.833 -92 35.5 -126s54 -60.833 91 -80.5s75.5 -32.5 115.5 -38.5zM505.001 1240c-30.667 0 -55.834 9 -75.501 27s-29.5 45.667 -29.5 83c0 36.667 9.83301 64.167 29.5 82.5s45.5 27.5 77.5 27.5
s57.667 -9.5 77 -28.5s29 -46.167 29 -81.5c0 -37.333 -9.66699 -65 -29 -83s-45.666 -27 -78.999 -27z" />
    <glyph glyph-name="uni0122" unicode="&#x122;" horiz-adv-x="1468" 
d="M864 -20c-124 0 -232.999 18.6641 -326.999 55.9971s-173 89.333 -237 156s-112.167 144.834 -144.5 234.501s-48.5 186.5 -48.5 290.5c0 142.667 29.5 269.334 88.5 380.001s141.833 197.334 248.5 260.001s231.334 94 374.001 94c50 0 98.5 -3.5 145.5 -10.5
s91.167 -16.333 132.5 -28s79.333 -24.334 114 -38.001s64.334 -27.167 89.001 -40.5l-15 -137c-54.667 30 -108 54.333 -160 73s-102.833 32.334 -152.5 41.001s-98.5 13 -146.5 13c-84.667 0 -161.834 -13.833 -231.501 -41.5s-130.167 -68 -181.5 -121
s-90.833 -117 -118.5 -192s-41.5 -159.5 -41.5 -253.5c0 -86 12.167 -166 36.5 -240s61.666 -139 111.999 -195s114.666 -99.667 192.999 -131s171.166 -47 278.499 -47c36.667 0 73.667 1.83301 111 5.5s74.5 9.5 111.5 17.5s73.333 18.5 109 31.5s70.167 28.5 103.5 46.5
l17 -137c-23.333 -10 -51.666 -20.167 -84.999 -30.5s-70.166 -19.833 -110.499 -28.5s-82.833 -15.5 -127.5 -20.5s-90.334 -7.5 -137.001 -7.5zM1189 64.9971v182.5v155.5v163v143h135v-143v-163v-155v-181zM675.001 -568.003c28 36.667 45.5 72.5 52.5 107.5
s10.5 79.5 10.5 133.5v60.5v59.5l68 5c30.667 -1.33301 53.5 -10.833 68.5 -28.5s22.5 -40.5 22.5 -68.5c0 -32.667 -6.33301 -65.667 -19 -99s-30.5 -64.5 -53.5 -93.5s-49.833 -53.833 -80.5 -74.5z" />
    <glyph glyph-name="uni0123" unicode="&#x123;" horiz-adv-x="1080" 
d="M490 -406c-73.333 0 -134.334 6.83496 -183.001 20.502s-87.334 32 -116.001 55s-49 48.5 -61 76.5s-18 56 -18 84c0 45.333 11.167 83.166 33.5 113.499s48.5 54.5 78.5 72.5s56.667 30.333 80 37v13c-12 3.33301 -26.167 10.333 -42.5 21s-30.833 25.834 -43.5 45.501
s-19 44.834 -19 75.501c0 24.667 4.83301 46.834 14.5 66.501s24 36.834 43 51.501s42.5 27.334 70.5 38.001v13c-14.667 4.66699 -34.167 14.167 -58.5 28.5s-49 34.166 -74 59.499s-46.333 56.666 -64 93.999s-26.5 81.333 -26.5 132c0 64.667 16 121.167 48 169.5
s76.5 85.833 133.5 112.5s122.5 40 196.5 40c30 0 56.333 -1.83301 79 -5.5s46 -7.16699 70 -10.5s53.333 -5 88 -5h318v-101h-196.5h-193.5l38 63c62.667 -28.667 107.834 -66.834 135.501 -114.501s41.5 -100.167 41.5 -157.5c0 -65.333 -13.167 -120 -39.5 -164
s-63.666 -79.833 -111.999 -107.5s-105.5 -49.167 -171.5 -64.5c-74.667 -17.333 -130 -33.833 -166 -49.5s-54 -38.834 -54 -69.501c0 -22 7.33301 -39 22 -51s38.167 -20.5 70.5 -25.5s74.833 -7.5 127.5 -7.5h44c94 0 170.167 -7.33301 228.5 -22
s101 -37.834 128 -69.501s40.5 -73.834 40.5 -126.501c0 -54.667 -14.5 -102.667 -43.5 -144s-67.833 -75.833 -116.5 -103.5s-101.667 -48.5 -159 -62.5s-114.333 -21 -171 -21zM497.999 -294.998c78.667 0 144.501 11 197.501 33s93 48.667 120 80s40.5 61 40.5 89
c0 28.667 -8 52.167 -24 70.5s-45.333 31.833 -88 40.5s-104.334 13 -185.001 13h-39c-47.333 -0.666992 -92.833 -8.33398 -136.5 -23.001s-79.5 -35.167 -107.5 -61.5s-42 -57.166 -42 -92.499c0 -19.333 4.33301 -38 13 -56s23.167 -34 43.5 -48s47.5 -25 81.5 -33
s76 -12 126 -12zM469 438.002c27.333 6 56.667 13.501 88 22.501s60.833 21.833 88.5 38.5s50.167 39.167 67.5 67.5s26 64.5 26 108.5c0 53.333 -13.833 96.333 -41.5 129s-61.167 56.667 -100.5 72s-77 23 -113 23c-46 0 -88.333 -7.83301 -127 -23.5
s-70 -39.334 -94 -71.001s-36 -72.167 -36 -121.5c0 -50 11.833 -92 35.5 -126s54 -60.833 91 -80.5s75.5 -32.5 115.5 -38.5zM496.001 1240c-30.667 2 -53.5 12.001 -68.5 30.001s-22.5 40.667 -22.5 68c0 32 6.33301 64.667 19 98s30.5 64.666 53.5 93.999
s49.833 54 80.5 74l69 2c-28 -36 -45.5 -71.5 -52.5 -106.5s-10.5 -79.833 -10.5 -134.5v-59.5v-60.5z" />
    <glyph glyph-name="Hcircumflex" unicode="&#x124;" horiz-adv-x="1499" 
d="M1161 0v231v242v477v244.5v231.5h141v-231.5v-244.5v-477v-242v-231h-141zM197 0v231v242v477v244.5v231.5h141v-231.5v-244.5v-477v-242v-231h-141zM282 661v124h941v-124h-941zM989 1577l-131 151.5l-131 152.5h41l-131 -150.5l-130 -149.5h-111l138.5 177l139.5 179
h147l138.5 -179.5l139.5 -178.5z" />
    <glyph glyph-name="hcircumflex" unicode="&#x125;" horiz-adv-x="1143" 
d="M185 0l0.000976562 214v225v549v244.5v230.5l129 19v-241.5v-252.5v-170h16c20 28.667 46.333 58 79 88s71.5 55.333 116.5 76s96.833 31 155.5 31c107.333 0 184.833 -30.5 232.5 -91.5s71.5 -148.833 71.5 -263.5v-113v-106v-222.5v-216.5h-129v216v218v196
c0 85.333 -15.333 149.833 -46 193.5s-86.334 65.5 -167.001 65.5c-49.333 0 -94 -9.83301 -134 -29.5s-76 -46 -108 -79s-61 -69.5 -87 -109.5v-237v-220.5v-213.5h-129zM783.001 1617l-130 166l-131 166h39l-130 -164.5l-130 -163.5h-111l139 196l139 195h147
l138.5 -195.5l139.5 -196.5z" />
    <glyph glyph-name="Hbar" unicode="&#x126;" horiz-adv-x="1499" 
d="M1161 0v231v242v477v244.5v231.5h141v-155.5v-154v-166.5v-477v-242v-231h-141zM197 0v231v242v477v166.5v154v155.5h141v-231.5v-244.5v-477v-242v-231h-141zM282 652v120h941v-120h-941zM41 1050v103h196h178h671h177.5h196.5v-103h-196.5h-177.5h-671h-178h-196z" />
    <glyph glyph-name="hbar" unicode="&#x127;" horiz-adv-x="1143" 
d="M-17 1202v96h163h145h86h145h162v-96h-162h-145h-86h-145h-163zM185 0l0.000976562 214v225v549v244.5v230.5l129 19v-241.5v-252.5v-170h16c20 28.667 46.333 58 79 88s71.5 55.333 116.5 76s96.833 31 155.5 31c107.333 0 184.833 -30.5 232.5 -91.5
s71.5 -148.833 71.5 -263.5v-113v-106v-222.5v-216.5h-129v216v218v196c0 85.333 -15.333 149.833 -46 193.5s-86.334 65.5 -167.001 65.5c-49.333 0 -94 -9.83301 -134 -29.5s-76 -46 -108 -79s-61 -69.5 -87 -109.5v-237v-220.5v-213.5h-129z" />
    <glyph glyph-name="Itilde" unicode="&#x128;" horiz-adv-x="540" 
d="M199 0v231v242v477v244.5v231.5h142v-231.5v-244.5v-477v-242v-231h-142zM434 1577c-39.333 0 -73.1699 8.83301 -101.503 26.5s-54 38.334 -77 62.001s-45.333 44.334 -67 62.001s-45.167 26.5 -70.5 26.5c-40 0 -68 -12.333 -84 -37s-24.333 -61.667 -25 -111h-87
c0 82 16.333 144.667 49 188s77.334 65 134.001 65c38.667 0 72.167 -8.83301 100.5 -26.5s53.833 -38.334 76.5 -62.001s44.834 -44.334 66.501 -62.001s45.167 -26.5 70.5 -26.5c40 0 67.833 12.5 83.5 37.5s23.834 61.833 24.501 110.5h87
c0 -81.333 -16 -143.833 -48 -187.5s-76 -65.5 -132 -65.5z" />
    <glyph glyph-name="itilde" unicode="&#x129;" horiz-adv-x="502" 
d="M187 0v214v225v100v161v146v145l128 4v-145.5v-147v-163.5v-100v-225v-214h-128zM401 1158c-35.333 0 -65.8301 9 -91.4971 27s-48.834 38.667 -69.501 62s-40.5 44 -59.5 62s-39.833 27 -62.5 27c-34.667 0 -59.334 -12.5 -74.001 -37.5s-22.334 -62.167 -23.001 -111.5
h-82c0 81.333 14.833 143.833 44.5 187.5s69.834 65.5 120.501 65.5c36 0 66.833 -8.83301 92.5 -26.5s48.667 -38.167 69 -61.5s40.166 -44 59.499 -62s40.333 -27 63 -27c35.333 0 59.5 12.5 72.5 37.5s19.833 62.167 20.5 111.5h84c0 -82 -14.667 -144.833 -44 -188.5
s-69.333 -65.5 -120 -65.5z" />
    <glyph glyph-name="Imacron" unicode="&#x12a;" horiz-adv-x="540" 
d="M199 0v231v242v477v244.5v231.5h142v-231.5v-244.5v-477v-242v-231h-142zM-38 1688v103h146h160h160.5h145.5v-103h-145.5h-160.5h-160h-146z" />
    <glyph glyph-name="imacron" unicode="&#x12b;" horiz-adv-x="502" 
d="M187 0v214v225v100v161v146v145l128 4v-145.5v-147v-163.5v-100v-225v-214h-128zM-4 1269v103h122h133h134h121v-103h-121h-134h-133h-122z" />
    <glyph glyph-name="Ibreve" unicode="&#x12c;" horiz-adv-x="540" 
d="M199 0v231v242v477v244.5v231.5h142v-231.5v-244.5v-477v-242v-231h-142zM264 1572c-99.333 0 -175.5 31 -228.5 93s-79.5 152.333 -79.5 271l100 4c0 -93.333 18.167 -161 54.5 -203s87.5 -63 153.5 -63c68 0 120.167 20.667 156.5 62s54.5 108 54.5 200h100
c0 -79.333 -11.833 -146 -35.5 -200s-58.5 -94.833 -104.5 -122.5s-103 -41.5 -171 -41.5z" />
    <glyph glyph-name="ibreve" unicode="&#x12d;" horiz-adv-x="502" 
d="M187 0v214v225v100v161v146v145l128 4v-145.5v-147v-163.5v-100v-225v-214h-128zM248 1153c-90.667 0 -160.166 31.333 -208.499 94s-72.5 152.667 -72.5 270l98 4c0 -93.333 15.667 -161 47 -203s76.666 -63 135.999 -63s104.833 20.667 136.5 62s47.5 108 47.5 200h98
c0 -78.667 -10.833 -145.167 -32.5 -199.5s-53.5 -95.333 -95.5 -123s-93.333 -41.5 -154 -41.5z" />
    <glyph glyph-name="Iogonek" unicode="&#x12e;" horiz-adv-x="540" 
d="M199 0v231v242v477v244.5v231.5h142v-231.5v-244.5v-477v-242v-231h-142zM236 -410c-43.333 0 -80.166 6.50098 -110.499 19.501s-53.5 31.333 -69.5 55s-24 51.167 -24 82.5c0 32 7.66699 62.833 23 92.5s38.333 58.834 69 87.501s69.667 56.667 117 84v30l68 5l32 -46
c-55.333 -28 -102.833 -62.5 -142.5 -103.5s-59.5 -81.833 -59.5 -122.5c0 -30.667 10.167 -53.334 30.5 -68.001s47.166 -22 80.499 -22c23.333 0 43.333 1.66699 60 5s29.667 6.66602 39 9.99902v-94c-14.667 -4 -32.167 -7.5 -52.5 -10.5s-40.5 -4.5 -60.5 -4.5z" />
    <glyph glyph-name="iogonek" unicode="&#x12f;" horiz-adv-x="502" 
d="M187 0v214v225v100v161v146v145l128 4v-145.5v-147v-163.5v-100v-225v-214h-128zM247 1240c-30.667 0 -55.834 9 -75.501 27s-29.5 45.667 -29.5 83c0 36.667 9.83301 64.167 29.5 82.5s45.5 27.5 77.5 27.5s57.667 -9.5 77 -28.5s29 -46.167 29 -81.5
c0 -37.333 -9.66699 -65 -29 -83s-45.666 -27 -78.999 -27zM210 -410c-43.333 0 -80.166 6.50098 -110.499 19.501s-53.5 31.333 -69.5 55s-24 51.167 -24 82.5c0 32 7.66699 62.833 23 92.5s38.333 58.834 69 87.501s69.667 56.667 117 84v30l68 5l32 -46
c-55.333 -28 -102.833 -62.5 -142.5 -103.5s-59.5 -81.833 -59.5 -122.5c0 -30.667 10.167 -53.334 30.5 -68.001s47.166 -22 80.499 -22c23.333 0 43.333 1.66699 60 5s29.667 6.66602 39 9.99902v-94c-14.667 -4 -32.167 -7.5 -52.5 -10.5s-40.5 -4.5 -60.5 -4.5z" />
    <glyph glyph-name="Idotaccent" unicode="&#x130;" horiz-adv-x="540" 
d="M199 0v231v242v477v244.5v231.5h142v-231.5v-244.5v-477v-242v-231h-142zM265 1643c-30.667 0 -55.834 9 -75.501 27s-29.5 45.333 -29.5 82s9.83301 64.167 29.5 82.5s45.5 27.5 77.5 27.5s57.667 -9.5 77 -28.5s29 -46.167 29 -81.5c0 -36.667 -9.66699 -64 -29 -82
s-45.666 -27 -78.999 -27z" />
    <glyph glyph-name="dotlessi" unicode="&#x131;" horiz-adv-x="502" 
d="M187 0v214v225v100v161v146v145l128 4v-145.5v-147v-163.5v-100v-225v-214h-128z" />
    <glyph glyph-name="Jcircumflex" unicode="&#x134;" horiz-adv-x="567" 
d="M37 -317c39.333 42 73.167 84.334 101.5 127.001s50.166 89.5 65.499 140.5s23.333 110.5 24 178.5v393v428v244.5v231.5h140v-231.5v-244.5v-377v-235.5v-223.5c0 -53.333 -4.83301 -101.833 -14.5 -145.5s-23 -82.667 -40 -117s-36.167 -65.333 -57.5 -93
s-43.666 -52.834 -66.999 -75.501h-152zM534.001 1577l-131 151.5l-131 152.5h41l-131 -150.5l-130 -149.5h-111l138.5 177l139.5 179h147l138.5 -179.5l139.5 -178.5z" />
    <glyph glyph-name="jcircumflex" unicode="&#x135;" horiz-adv-x="497" 
d="M18 -389c39.333 42 71.501 84.0029 96.501 126.003s43.333 88.5 55 139.5s17.5 111.167 17.5 180.5v382v100v161v146v145l128 4v-145.5v-147v-163.5v-208.5v-158.5v-135c0 -50.667 -3.5 -96.834 -10.5 -138.501s-17.167 -79.834 -30.5 -114.501
s-29.333 -65.834 -48 -93.501s-39.334 -52.5 -62.001 -74.5zM457.001 1158l-87 131.5l-87.5 131l-88.5 132.5h120l122 -194.5l122 -197.5zM-60.999 1162l122 195.5l122 195.5h120l-88.5 -131.5l-86.5 -129l-87 -130.5h-102z" />
    <glyph glyph-name="uni0136" unicode="&#x136;" horiz-adv-x="1327" 
d="M1080 0l-193 198l-176 180l-293 300h-100v118h100l253 252l176 176l202 202h177l-224 -222l-217 -216l-274 -272l-2 61l305 -315l152 -157l158.5 -164l136.5 -141h-181zM197 0v231v242v477v244.5v231.5h140v-231.5v-244.5v-477v-242v-231h-140zM554 -568
c28 36.667 45.5 72.5 52.5 107.5s10.5 79.5 10.5 133.5v60.5v59.5l68 5c30.667 -1.33301 53.5 -10.833 68.5 -28.5s22.5 -40.5 22.5 -68.5c0 -32.667 -6.33301 -65.667 -19 -99s-30.5 -64.5 -53.5 -93.5s-49.833 -53.833 -80.5 -74.5z" />
    <glyph glyph-name="uni0137" unicode="&#x137;" horiz-adv-x="1067" 
d="M848 0l-147.5 139.5l-148.5 138.5l-187 176h-69v97h80l156 154l145.5 143.5l143.5 142.5h165l-179 -173.5l-177 -172.5l-175 -170l-4 65l202 -194l185 -173l185 -173h-175zM185 0v214v225v549v244.5v230.5l129 19v-241.5v-252.5v-566v-214.5v-207.5h-129zM425 -568
c28 36.667 45.5 72.5 52.5 107.5s10.5 79.5 10.5 133.5v60.5v59.5l68 5c30.667 -1.33301 53.5 -10.833 68.5 -28.5s22.5 -40.5 22.5 -68.5c0 -32.667 -6.33301 -65.667 -19 -99s-30.5 -64.5 -53.5 -93.5s-49.833 -53.833 -80.5 -74.5z" />
    <glyph glyph-name="kgreenlandic" unicode="&#x138;" horiz-adv-x="1067" 
d="M185 0v214v225v104v160v144v144l129 5v-217v-226v-131v-214.5v-207.5h-129zM848 0l-147.5 139.5l-148.5 138.5l-187 176h-69v97h80l156 154l145.5 143.5l143.5 142.5h165l-179 -173.5l-177 -172.5l-175 -170l-4 65l202 -194l185 -173l185 -173h-175z" />
    <glyph glyph-name="Lacute" unicode="&#x139;" horiz-adv-x="1140" 
d="M197 0v231v242v477v244.5v231.5h141v-231.5v-244.5v-456v-242v-231l-56 106h257h207h166.5h156.5v-127h-872zM255 1579l140 180l138 178l151 2l-107 -121l-105.5 -119l-105.5 -118z" />
    <glyph glyph-name="lacute" unicode="&#x13a;" horiz-adv-x="499" 
d="M185 0v214v225v549v245v230l129 19v-242.5v-251.5v-549v-225v-214h-129zM113 1619l140 198l138 195l151 4l-107.5 -133l-105.5 -131l-105 -130z" />
    <glyph glyph-name="uni013B" unicode="&#x13b;" horiz-adv-x="1140" 
d="M197 0v231v242v477v244.5v231.5h141v-231.5v-244.5v-456v-242v-231l-56 106h257h207h166.5h156.5v-127h-872zM506 -568c28 36.667 45.5 72.5 52.5 107.5s10.5 79.5 10.5 133.5v60.5v59.5l68 5c30.667 -1.33301 53.5 -10.833 68.5 -28.5s22.5 -40.5 22.5 -68.5
c0 -32.667 -6.33301 -65.667 -19 -99s-30.5 -64.5 -53.5 -93.5s-49.833 -53.833 -80.5 -74.5z" />
    <glyph glyph-name="uni013C" unicode="&#x13c;" horiz-adv-x="499" 
d="M185 0v214v225v549v245v230l129 19v-242.5v-251.5v-549v-225v-214h-129zM125 -568c28 36.667 45.5 72.5 52.5 107.5s10.5 79.5 10.5 133.5v60.5v59.5l68 5c30.667 -1.33301 53.5 -10.833 68.5 -28.5s22.5 -40.5 22.5 -68.5c0 -32.667 -6.33301 -65.667 -19 -99
s-30.5 -64.5 -53.5 -93.5s-49.833 -53.833 -80.5 -74.5z" />
    <glyph glyph-name="Lcaron" unicode="&#x13d;" horiz-adv-x="1140" 
d="M197 0v231v242v477v244.5v231.5h141v-231.5v-244.5v-456v-242v-231l-56 106h257h207h166.5h156.5v-127h-872zM623 1087c15.333 34 27.833 69.6631 37.5 106.996s16.667 73.333 21 108s6.5 64.334 6.5 89.001v75.5v74.5l59 5c20 -1.33301 35 -9.16602 45 -23.499
s15 -34.833 15 -61.5c0 -31.333 -3 -64.166 -9 -98.499s-14.167 -68.333 -24.5 -102s-22 -65.167 -35 -94.5s-26.5 -54.666 -40.5 -75.999z" />
    <glyph glyph-name="lcaron" unicode="&#x13e;" horiz-adv-x="513" 
d="M185 0v214v225v549v245v230l129 19v-242.5v-251.5v-549v-225v-214h-129zM483 1087c15.333 34 27.833 69.6631 37.5 106.996s16.667 73.333 21 108s6.5 64.334 6.5 89.001v75.5v74.5l59 5c20 -1.33301 35 -9.16602 45 -23.499s15 -34.833 15 -61.5
c0 -31.333 -3 -64.166 -9 -98.499s-14.167 -68.333 -24.5 -102s-22 -65.167 -35 -94.5s-26.5 -54.666 -40.5 -75.999z" />
    <glyph glyph-name="Ldot" unicode="&#x13f;" horiz-adv-x="1140" 
d="M197 0v231v242v477v244.5v231.5h141v-231.5v-244.5v-456v-242v-231l-56 106h257h207h166.5h156.5v-127h-872zM843 608c-30.667 0 -55.833 9.16699 -75.5 27.5s-29.5 45.833 -29.5 82.5s9.83301 64.167 29.5 82.5s45.5 27.5 77.5 27.5s57.5 -9.5 76.5 -28.5
s28.5 -46.167 28.5 -81.5c0 -36.667 -9.5 -64.167 -28.5 -82.5s-45.167 -27.5 -78.5 -27.5z" />
    <glyph glyph-name="ldot" unicode="&#x140;" horiz-adv-x="760" 
d="M185 0v214v225v549v245v230l129 19v-242.5v-251.5v-549v-225v-214h-129zM628 608c-30.667 0 -55.833 9.16699 -75.5 27.5s-29.5 45.833 -29.5 82.5s9.83301 64.167 29.5 82.5s45.5 27.5 77.5 27.5s57.5 -9.5 76.5 -28.5s28.5 -46.167 28.5 -81.5
c0 -36.667 -9.5 -64.167 -28.5 -82.5s-45.167 -27.5 -78.5 -27.5z" />
    <glyph glyph-name="Lslash" unicode="&#x141;" horiz-adv-x="1151" 
d="M208 0v231v242v477v244.5v231.5h140v-231.5v-244.5v-456v-242v-231l-55 106h257h206.5h166.5h157v-127h-872zM10 565l-32 102l183.5 54.5l166.5 49.5l96 29l167.5 49l182.5 54l29 -103l-181.5 -53l-166.5 -50l-97 -29l-165.5 -49.5z" />
    <glyph glyph-name="lslash" unicode="&#x142;" horiz-adv-x="574" 
d="M9 557l-28 92l135 40.5l124 35.5l66 20l124 37l135 40l28 -93l-137.5 -39.5l-122.5 -36.5l-66 -20l-124 -35.5zM223 0v214v225v549v245v230l129 19v-242.5v-251.5v-549v-225v-214h-129z" />
    <glyph glyph-name="Nacute" unicode="&#x143;" horiz-adv-x="1510" 
d="M197 0v231v242v477v244.5v231.5h130l260.5 -366l248.5 -349l330 -463h12v702v244.5v231.5h135v-231.5v-244.5v-477v-242v-231h-127l-236.5 333l-274.5 385l-331 466h-12v-711v-242v-231h-135zM620 1579l140 180l138 178l151 2l-107 -121l-105.5 -119l-105.5 -118z" />
    <glyph glyph-name="nacute" unicode="&#x144;" horiz-adv-x="1143" 
d="M185 0v214v225v100v224v228l115 8l4 -186h16c20.667 29.333 47.834 59.333 81.501 90s73.667 56.667 120 78s99.5 32 159.5 32c107.333 0 184.833 -30.5 232.5 -91.5s71.5 -148.833 71.5 -263.5v-113v-106v-222.5v-216.5h-129v216v218v196
c0 85.333 -15.333 149.833 -46 193.5s-86.334 65.5 -167.001 65.5c-49.333 0 -94 -9.83301 -134 -29.5s-76 -46 -108 -79s-61 -69.5 -87 -109.5v-237v-220.5v-213.5h-129zM450 1160l140 198l138 195l151 4l-107.5 -133l-105.5 -131l-105 -130z" />
    <glyph glyph-name="uni0145" unicode="&#x145;" horiz-adv-x="1510" 
d="M197 0v231v242v477v244.5v231.5h130l260.5 -366l248.5 -349l330 -463h12v702v244.5v231.5h135v-231.5v-244.5v-477v-242v-231h-127l-236.5 333l-274.5 385l-331 466h-12v-711v-242v-231h-135zM632 -568c28 36.667 45.5 72.5 52.5 107.5s10.5 79.5 10.5 133.5v60.5v59.5
l68 5c30.667 -1.33301 53.5 -10.833 68.5 -28.5s22.5 -40.5 22.5 -68.5c0 -32.667 -6.33301 -65.667 -19 -99s-30.5 -64.5 -53.5 -93.5s-49.833 -53.833 -80.5 -74.5z" />
    <glyph glyph-name="uni0146" unicode="&#x146;" horiz-adv-x="1143" 
d="M185 0v214v225v100v224v228l115 8l4 -186h16c20.667 29.333 47.834 59.333 81.501 90s73.667 56.667 120 78s99.5 32 159.5 32c107.333 0 184.833 -30.5 232.5 -91.5s71.5 -148.833 71.5 -263.5v-113v-106v-222.5v-216.5h-129v216v218v196
c0 85.333 -15.333 149.833 -46 193.5s-86.334 65.5 -167.001 65.5c-49.333 0 -94 -9.83301 -134 -29.5s-76 -46 -108 -79s-61 -69.5 -87 -109.5v-237v-220.5v-213.5h-129zM462 -568c28 36.667 45.5 72.5 52.5 107.5s10.5 79.5 10.5 133.5v60.5v59.5l68 5
c30.667 -1.33301 53.5 -10.833 68.5 -28.5s22.5 -40.5 22.5 -68.5c0 -32.667 -6.33301 -65.667 -19 -99s-30.5 -64.5 -53.5 -93.5s-49.833 -53.833 -80.5 -74.5z" />
    <glyph glyph-name="Ncaron" unicode="&#x147;" horiz-adv-x="1510" 
d="M197 0v231v242v477v244.5v231.5h130l260.5 -366l248.5 -349l330 -463h12v702v244.5v231.5h135v-231.5v-244.5v-477v-242v-231h-127l-236.5 333l-274.5 385l-331 466h-12v-711v-242v-231h-135zM683 1579l-138.5 178.5l-139.5 178.5l110 2l131.5 -151.5l130.5 -152.5h-41
l131.5 151l129.5 149h111l-138 -177l-140 -178h-147z" />
    <glyph glyph-name="ncaron" unicode="&#x148;" horiz-adv-x="1143" 
d="M185 0v214v225v100v224v228l115 8l4 -186h16c20.667 29.333 47.834 59.333 81.501 90s73.667 56.667 120 78s99.5 32 159.5 32c107.333 0 184.833 -30.5 232.5 -91.5s71.5 -148.833 71.5 -263.5v-113v-106v-222.5v-216.5h-129v216v218v196
c0 85.333 -15.333 149.833 -46 193.5s-86.334 65.5 -167.001 65.5c-49.333 0 -94 -9.83301 -134 -29.5s-76 -46 -108 -79s-61 -69.5 -87 -109.5v-237v-220.5v-213.5h-129zM513 1148l-138.5 197l-139.5 196l110 2l130.5 -165.5l130.5 -166.5h-39l131 165l129 163h111
l-139 -194l-139 -197h-147z" />
    <glyph glyph-name="Eng" unicode="&#x14a;" horiz-adv-x="1510" 
d="M982 -384c39.333 42.667 73.332 85.1699 101.999 127.503s50.5 89 65.5 140s22.5 110.833 22.5 179.5v30l56 -93h-42l-237 334l-274 384l-331 466h-12v-711v-242v-231h-135v231v242v477v244.5v231.5h130l261 -366l248 -349l330 -463h12v702v244.5v231.5h135v-231.5
v-244.5v-442v-235.5v-223.5c0 -54 -4.83301 -102.833 -14.5 -146.5s-23 -82.834 -40 -117.501s-36.167 -65.834 -57.5 -93.501s-43.666 -52.834 -66.999 -75.501h-152z" />
    <glyph glyph-name="eng" unicode="&#x14b;" horiz-adv-x="1143" 
d="M687 -389c39.333 42 71.502 84.0029 96.502 126.003s43.333 88.5 55 139.5s17.5 111.167 17.5 180.5v377v196c0 85.333 -15.333 149.833 -46 193.5s-86.334 65.5 -167.001 65.5c-49.333 0 -94 -9.83301 -134 -29.5s-76 -46 -108 -79s-61 -69.5 -87 -109.5v-237v-220.5
v-213.5h-129v214v225v100v224v228l115 8l4 -186h16c20.667 29.333 47.834 59.333 81.501 90s73.667 56.667 120 78s99.5 32 159.5 32c107.333 0 184.833 -30.5 232.5 -91.5s71.5 -148.833 71.5 -263.5v-61.5v-57.5v-208.5v-158.5v-135
c0 -50.667 -3.5 -96.834 -10.5 -138.501s-17.333 -79.834 -31 -114.501s-29.834 -65.834 -48.501 -93.501s-39.334 -52.5 -62.001 -74.5z" />
    <glyph glyph-name="Omacron" unicode="&#x14c;" horiz-adv-x="1635" 
d="M825 -21c-119.333 0 -223.831 19.5029 -313.498 58.5029s-164.5 92.5 -224.5 160.5s-105 146.333 -135 235s-45 182.667 -45 282c0 138 28.167 262.667 84.5 374s137.666 199.5 243.999 264.5s234.166 97.5 383.499 97.5c114 0 215 -18.833 303 -56.5
s162.167 -90.334 222.5 -158.001s106 -145.834 137 -234.501s46.5 -184.334 46.5 -287.001c0 -140 -28.167 -265.5 -84.5 -376.5s-137 -198.667 -242 -263s-230.5 -96.5 -376.5 -96.5zM820.002 105.003c98 0 182.332 16.666 252.999 49.999s128.834 78.833 174.501 136.5
s79.5 122.834 101.5 195.501s33 148.667 33 228c0 85.333 -11.833 165 -35.5 239s-59 138.833 -106 194.5s-105.5 99.167 -175.5 130.5s-151.667 47 -245 47c-96 0 -179.5 -16.5 -250.5 -49.5s-129.833 -78.167 -176.5 -135.5s-81.667 -122.5 -105 -195.5
s-35 -149.833 -35 -230.5s11.333 -157.667 34 -231s57 -138.5 103 -195.5s104.667 -101.833 176 -134.5s156 -49 254 -49zM511.001 1688v103h146h160h160.5h145.5v-103h-145.5h-160.5h-160h-146z" />
    <glyph glyph-name="omacron" unicode="&#x14d;" horiz-adv-x="1194" 
d="M601 -21c-79.333 0 -149.5 14.167 -210.5 42.5s-112.5 66.833 -154.5 115.5s-73.833 104.5 -95.5 167.5s-32.5 128.833 -32.5 197.5c0 98.667 20.167 186.5 60.5 263.5s97.333 137.5 171 181.5s160.167 66 259.5 66c76.667 0 145 -12.833 205 -38.5
s111.167 -61.667 153.5 -108s74.333 -100.5 96 -162.5s32.5 -129.333 32.5 -202c0 -98 -19.667 -186.5 -59 -265.5s-95.5 -141.667 -168.5 -188s-158.833 -69.5 -257.5 -69.5zM600 95c79.333 0 145.167 19.5 197.5 58.5s91.5 89.333 117.5 151s39 127.5 39 197.5
c0 78.667 -14.333 147.667 -43 207s-69.5 105.5 -122.5 138.5s-115.833 49.5 -188.5 49.5c-78 0 -143.833 -17.5 -197.5 -52.5s-94.167 -82.5 -121.5 -142.5s-41 -126.667 -41 -200c0 -70 13.333 -135.833 40 -197.5s66.667 -112 120 -151s120 -58.5 200 -58.5z
M290.001 1269v103h146h160h160.5h145.5v-103h-145.5h-160.5h-160h-146z" />
    <glyph glyph-name="Obreve" unicode="&#x14e;" horiz-adv-x="1635" 
d="M825 -21c-119.333 0 -223.831 19.5029 -313.498 58.5029s-164.5 92.5 -224.5 160.5s-105 146.333 -135 235s-45 182.667 -45 282c0 138 28.167 262.667 84.5 374s137.666 199.5 243.999 264.5s234.166 97.5 383.499 97.5c114 0 215 -18.833 303 -56.5
s162.167 -90.334 222.5 -158.001s106 -145.834 137 -234.501s46.5 -184.334 46.5 -287.001c0 -140 -28.167 -265.5 -84.5 -376.5s-137 -198.667 -242 -263s-230.5 -96.5 -376.5 -96.5zM820.002 105.003c98 0 182.332 16.666 252.999 49.999s128.834 78.833 174.501 136.5
s79.5 122.834 101.5 195.501s33 148.667 33 228c0 85.333 -11.833 165 -35.5 239s-59 138.833 -106 194.5s-105.5 99.167 -175.5 130.5s-151.667 47 -245 47c-96 0 -179.5 -16.5 -250.5 -49.5s-129.833 -78.167 -176.5 -135.5s-81.667 -122.5 -105 -195.5
s-35 -149.833 -35 -230.5s11.333 -157.667 34 -231s57 -138.5 103 -195.5s104.667 -101.833 176 -134.5s156 -49 254 -49zM813.001 1572c-99.333 0 -175.5 31 -228.5 93s-79.5 152.333 -79.5 271l100 4c0 -93.333 18.167 -161 54.5 -203s87.5 -63 153.5 -63
c68 0 120.167 20.667 156.5 62s54.5 108 54.5 200h100c0 -79.333 -11.833 -146 -35.5 -200s-58.5 -94.833 -104.5 -122.5s-103 -41.5 -171 -41.5z" />
    <glyph glyph-name="obreve" unicode="&#x14f;" horiz-adv-x="1194" 
d="M601 -21c-79.333 0 -149.5 14.167 -210.5 42.5s-112.5 66.833 -154.5 115.5s-73.833 104.5 -95.5 167.5s-32.5 128.833 -32.5 197.5c0 98.667 20.167 186.5 60.5 263.5s97.333 137.5 171 181.5s160.167 66 259.5 66c76.667 0 145 -12.833 205 -38.5
s111.167 -61.667 153.5 -108s74.333 -100.5 96 -162.5s32.5 -129.333 32.5 -202c0 -98 -19.667 -186.5 -59 -265.5s-95.5 -141.667 -168.5 -188s-158.833 -69.5 -257.5 -69.5zM600 95c79.333 0 145.167 19.5 197.5 58.5s91.5 89.333 117.5 151s39 127.5 39 197.5
c0 78.667 -14.333 147.667 -43 207s-69.5 105.5 -122.5 138.5s-115.833 49.5 -188.5 49.5c-78 0 -143.833 -17.5 -197.5 -52.5s-94.167 -82.5 -121.5 -142.5s-41 -126.667 -41 -200c0 -70 13.333 -135.833 40 -197.5s66.667 -112 120 -151s120 -58.5 200 -58.5z
M592.001 1153c-99.333 0 -175.5 31.167 -228.5 93.5s-79.5 152.5 -79.5 270.5l100 4c0 -93.333 18.167 -161 54.5 -203s87.5 -63 153.5 -63c68 0 120.167 20.667 156.5 62s54.5 108 54.5 200h100c0 -78.667 -11.833 -145.167 -35.5 -199.5s-58.5 -95.333 -104.5 -123
s-103 -41.5 -171 -41.5z" />
    <glyph glyph-name="Ohungarumlaut" unicode="&#x150;" horiz-adv-x="1635" 
d="M825 -21c-119.333 0 -223.831 19.5029 -313.498 58.5029s-164.5 92.5 -224.5 160.5s-105 146.333 -135 235s-45 182.667 -45 282c0 138 28.167 262.667 84.5 374s137.666 199.5 243.999 264.5s234.166 97.5 383.499 97.5c114 0 215 -18.833 303 -56.5
s162.167 -90.334 222.5 -158.001s106 -145.834 137 -234.501s46.5 -184.334 46.5 -287.001c0 -140 -28.167 -265.5 -84.5 -376.5s-137 -198.667 -242 -263s-230.5 -96.5 -376.5 -96.5zM820.002 105.003c98 0 182.332 16.666 252.999 49.999s128.834 78.833 174.501 136.5
s79.5 122.834 101.5 195.501s33 148.667 33 228c0 85.333 -11.833 165 -35.5 239s-59 138.833 -106 194.5s-105.5 99.167 -175.5 130.5s-151.667 47 -245 47c-96 0 -179.5 -16.5 -250.5 -49.5s-129.833 -78.167 -176.5 -135.5s-81.667 -122.5 -105 -195.5
s-35 -149.833 -35 -230.5s11.333 -157.667 34 -231s57 -138.5 103 -195.5s104.667 -101.833 176 -134.5s156 -49 254 -49zM896.001 1579l138.5 179l137.5 179l146 2l-105.5 -121l-104.5 -119l-104 -118zM545.001 1579l117 179.5l116 178.5l139 2l-90.5 -121l-90 -119
l-90.5 -118z" />
    <glyph glyph-name="ohungarumlaut" unicode="&#x151;" horiz-adv-x="1194" 
d="M601 -21c-79.333 0 -149.5 14.167 -210.5 42.5s-112.5 66.833 -154.5 115.5s-73.833 104.5 -95.5 167.5s-32.5 128.833 -32.5 197.5c0 98.667 20.167 186.5 60.5 263.5s97.333 137.5 171 181.5s160.167 66 259.5 66c76.667 0 145 -12.833 205 -38.5
s111.167 -61.667 153.5 -108s74.333 -100.5 96 -162.5s32.5 -129.333 32.5 -202c0 -98 -19.667 -186.5 -59 -265.5s-95.5 -141.667 -168.5 -188s-158.833 -69.5 -257.5 -69.5zM600 95c79.333 0 145.167 19.5 197.5 58.5s91.5 89.333 117.5 151s39 127.5 39 197.5
c0 78.667 -14.333 147.667 -43 207s-69.5 105.5 -122.5 138.5s-115.833 49.5 -188.5 49.5c-78 0 -143.833 -17.5 -197.5 -52.5s-94.167 -82.5 -121.5 -142.5s-41 -126.667 -41 -200c0 -70 13.333 -135.833 40 -197.5s66.667 -112 120 -151s120 -58.5 200 -58.5z
M675.001 1160l139 198l137 195l146 4l-105.5 -133l-104.5 -131.5l-104 -129.5zM324.001 1160l118 197.5l115 195.5l139 4l-90.5 -133l-90 -131.5l-90.5 -129.5z" />
    <glyph glyph-name="OE" unicode="&#x152;" horiz-adv-x="2178" 
d="M832 -20c-114.667 0 -216.834 18.5 -306.501 55.5s-165.667 88.667 -228 155s-109.666 144.333 -141.999 234s-48.5 186.834 -48.5 291.501c0 144.667 29.167 272.167 87.5 382.5s139.833 196.833 244.5 259.5s226.667 94 366 94c64.667 0 125.834 -6 183.501 -18
s110 -27.333 157 -46s86.833 -37 119.5 -55l-15 -138c-78 45.333 -153 78.166 -225 98.499s-142.333 30.5 -211 30.5c-107.333 0 -203.166 -24.833 -287.499 -74.5s-151 -120 -200 -211s-73.5 -198.833 -73.5 -323.5c0 -84 12.667 -162.833 38 -236.5
s62.833 -138.5 112.5 -194.5s111.167 -100 184.5 -132s157.666 -48 252.999 -48c71.333 0 140.666 9.16699 207.999 27.5s131.666 48.833 192.999 91.5l14 -139c-38.667 -24.667 -81.167 -44.667 -127.5 -60s-94.666 -26.5 -144.999 -33.5s-100.833 -10.5 -151.5 -10.5z
M1190 0v231v242v477v244.5v231.5h869v-123h-218.5h-275.5h-313l76 104v-232v-244v-438v-241v-231l-70 102h320h253h230v-123h-871zM1298 664v119h282h241.5h195.5v-119h-200h-238h-281z" />
    <glyph glyph-name="oe" unicode="&#x153;" horiz-adv-x="1875" 
d="M582 -20c-78.667 0 -148.495 14.0029 -209.495 42.0029s-112.333 66.333 -154 115s-73.334 104.5 -95.001 167.5s-32.5 128.833 -32.5 197.5c0 98.667 20.167 186.5 60.5 263.5s97.166 137.5 170.499 181.5s159.666 66 258.999 66
c75.333 0 142.666 -12.833 201.999 -38.5s109.666 -61.834 150.999 -108.501s72.833 -100.834 94.5 -162.501s32.5 -128.834 32.5 -201.501c0 -98 -19.5 -186.333 -58.5 -265s-94.333 -141.167 -166 -187.5s-156.5 -69.5 -254.5 -69.5zM584.005 95.0029
c79.333 0 145.168 19.5 197.501 58.5s91.5 89.5 117.5 151.5s39 127.667 39 197c0 78.667 -14.5 147.667 -43.5 207s-69.833 105.5 -122.5 138.5s-115.334 49.5 -188.001 49.5c-78.667 0 -144.667 -17.5 -198 -52.5s-93.666 -82.5 -120.999 -142.5s-41 -126.667 -41 -200
c0 -69.333 13.167 -135 39.5 -197s66.166 -112.5 119.499 -151.5s120.333 -58.5 201 -58.5zM1455.01 -19.9971c-115.333 0 -210.669 22.499 -286.002 67.499s-131.5 106.833 -168.5 185.5s-55.5 168.334 -55.5 269.001c0 99.333 18.333 187.5 55 264.5
s88.834 137.333 156.501 181s147.834 65.5 240.501 65.5c81.333 0 151.666 -16.5 210.999 -49.5s105.166 -80.833 137.499 -143.5s48.5 -139 48.5 -229c0 -24 -0.5 -45.833 -1.5 -65.5s-3.16699 -39.167 -6.5 -58.5l-114 66c1.33301 10.667 2.16602 21 2.49902 31
s0.5 19.667 0.5 29c0 104 -25.5 181.833 -76.5 233.5s-117.5 77.5 -199.5 77.5c-68 0 -126.167 -16.667 -174.5 -50s-85.333 -79.333 -111 -138s-38.5 -125.667 -38.5 -201v-17c0 -82.667 14.167 -154 42.5 -214s71.333 -106.333 129 -139s130.834 -49 219.501 -49
c32.667 0 66.334 2.66699 101.001 8s69 13.333 103 24s66.667 24.667 98 42l6 -121c-25.333 -14 -54.666 -26.167 -87.999 -36.5s-69.5 -18.333 -108.5 -24s-79.833 -8.5 -122.5 -8.5zM1000 467.002v97l704 4l82 -21v-80h-786z" />
    <glyph glyph-name="Racute" unicode="&#x154;" horiz-adv-x="1328" 
d="M197 0l0.00488281 231.001v242v477v244.5v231.5h126h155.5h183.5c106.667 0 195 -12.833 265 -38.5s122.333 -66.334 157 -122.001s52 -128.5 52 -218.5c0 -76.667 -14.833 -147 -44.5 -211s-79.834 -115.333 -150.501 -154s-167 -58.334 -289 -59.001l40 64l233 -280
l115 -138.5l119.5 -143.5l103.5 -125h-167l-146.5 177.5l-139.5 168.5l-260 320l87 -65h-326v118h280c91.333 0 166.666 10.5 225.999 31.5s103.166 54.667 131.499 101s42.5 107.5 42.5 183.5c0 65.333 -10.5 116.333 -31.5 153s-48.333 63.334 -82 80.001
s-69.834 27.167 -108.501 31.5s-76.334 6.5 -113.001 6.5h-411l90 101v-233.5v-242.5v-458v-242v-231h-138zM493.005 1579l140 180l138 178l151 2l-107 -121l-105.5 -119l-105.5 -118z" />
    <glyph glyph-name="racute" unicode="&#x155;" horiz-adv-x="792" 
d="M185 0l0.000976562 214v225v100v224v228l115 8l4 -208h14c27.333 62.667 59.5 110 96.5 142s74.333 53.333 112 64s72.167 16 103.5 16c19.333 0 38.166 -1.33301 56.499 -4s35.833 -7 52.5 -13l-11 -132c-20.667 5.33301 -39.667 9.5 -57 12.5s-37.666 4.5 -60.999 4.5
c-18.667 0 -41 -3 -67 -9s-52.833 -18.667 -80.5 -38s-54.334 -48.333 -80.001 -87s-48.5 -90.667 -68.5 -156v-157v-220.5v-213.5h-129zM330.001 1160l140 198l138 195l151 4l-107.5 -133l-105.5 -131l-105 -130z" />
    <glyph glyph-name="uni0156" unicode="&#x156;" horiz-adv-x="1328" 
d="M197 0l0.00488281 231.001v242v477v244.5v231.5h126h155.5h183.5c106.667 0 195 -12.833 265 -38.5s122.333 -66.334 157 -122.001s52 -128.5 52 -218.5c0 -76.667 -14.833 -147 -44.5 -211s-79.834 -115.333 -150.501 -154s-167 -58.334 -289 -59.001l40 64l233 -280
l115 -138.5l119.5 -143.5l103.5 -125h-167l-146.5 177.5l-139.5 168.5l-260 320l87 -65h-326v118h280c91.333 0 166.666 10.5 225.999 31.5s103.166 54.667 131.499 101s42.5 107.5 42.5 183.5c0 65.333 -10.5 116.333 -31.5 153s-48.333 63.334 -82 80.001
s-69.834 27.167 -108.501 31.5s-76.334 6.5 -113.001 6.5h-411l90 101v-233.5v-242.5v-458v-242v-231h-138zM545.005 -567.999c28 36.667 45.5 72.5 52.5 107.5s10.5 79.5 10.5 133.5v60.5v59.5l68 5c30.667 -1.33301 53.5 -10.833 68.5 -28.5s22.5 -40.5 22.5 -68.5
c0 -32.667 -6.33301 -65.667 -19 -99s-30.5 -64.5 -53.5 -93.5s-49.833 -53.833 -80.5 -74.5z" />
    <glyph glyph-name="uni0157" unicode="&#x157;" horiz-adv-x="792" 
d="M185 0l0.000976562 214v225v100v224v228l115 8l4 -208h14c27.333 62.667 59.5 110 96.5 142s74.333 53.333 112 64s72.167 16 103.5 16c19.333 0 38.166 -1.33301 56.499 -4s35.833 -7 52.5 -13l-11 -132c-20.667 5.33301 -39.667 9.5 -57 12.5s-37.666 4.5 -60.999 4.5
c-18.667 0 -41 -3 -67 -9s-52.833 -18.667 -80.5 -38s-54.334 -48.333 -80.001 -87s-48.5 -90.667 -68.5 -156v-157v-220.5v-213.5h-129zM125.001 -568c28 36.667 45.5 72.5 52.5 107.5s10.5 79.5 10.5 133.5v60.5v59.5l68 5c30.667 -1.33301 53.5 -10.833 68.5 -28.5
s22.5 -40.5 22.5 -68.5c0 -32.667 -6.33301 -65.667 -19 -99s-30.5 -64.5 -53.5 -93.5s-49.833 -53.833 -80.5 -74.5z" />
    </font>
</defs>
</svg>
