<?xml version="1.0" standalone="no"?>
<!DOCTYPE svg PUBLIC "-//W3C//DTD SVG 1.1//EN" "http://www.w3.org/Graphics/SVG/1.1/DTD/svg11.dtd" >
<svg>
<metadata>
Created by FontForge 20090914 at Tue Oct 19 11:13:12 2021
 By www-data
Copyright 2019 The Commissioner Project Authors (https://github.com/kosbarts/Commissioner)
</metadata>
<defs>
<font id="Commissioner-SemiBold" horiz-adv-x="0" >
  <font-face 
    font-family="Commissioner SemiBold"
    font-weight="600"
    font-stretch="normal"
    units-per-em="2000"
    panose-1="0 0 0 0 0 0 0 0 0 0"
    ascent="1600"
    descent="-400"
    x-height="996"
    cap-height="1426"
    bbox="-291 -575.002 2713 2354"
    underline-thickness="50"
    underline-position="-75"
    unicode-range="U+000D-U+FB02"
  />
<missing-glyph horiz-adv-x="1240" 
d="M70 -384v2020h1100v-2020h-1100zM180 -273h879v1798h-879v-1798zM628 422c-70 0 -122.331 14.8359 -156.998 44.5029s-52 68.5 -52 116.5c0 54 16.833 97.833 50.5 131.5s71.167 65.5 112.5 95.5c24 17.333 46.667 34.833 68 52.5s38.833 37.167 52.5 58.5
s20.5 45 20.5 71c0 34.667 -13.333 61.5 -40 80.5s-63.667 28.5 -111 28.5c-24 0 -49.167 -2.5 -75.5 -7.5s-53 -12.333 -80 -22s-54.167 -21.834 -81.5 -36.501l-8 175c20.667 8.66699 45.834 17.667 75.501 27s62.5 17.333 98.5 24s74.667 10 116 10
c95.333 0 169.666 -19.333 222.999 -58s80 -98 80 -178c0 -52 -10.833 -96.833 -32.5 -134.5s-48.334 -69.834 -80.001 -96.501l-91.5 -74c-30.667 -22 -57.5 -43.667 -80.5 -65s-34.5 -45 -34.5 -71c0 -26.667 8.83301 -45.167 26.5 -55.5s37.834 -15.5 60.501 -15.5
c16.667 0 32.667 2.16699 48 6.5s28.666 8.83301 39.999 13.5l7 -96c-10.667 -4.66699 -24.167 -8.83398 -40.5 -12.501s-34.333 -6.66699 -54 -9s-39.834 -3.5 -60.501 -3.5zM601.002 20.0029c-41.333 0 -74.333 12.667 -99 38s-37 57 -37 95
c0 38.667 12.333 70.167 37 94.5s57.667 36.5 99 36.5c42.667 0 76 -12.167 100 -36.5s36 -55.833 36 -94.5c0 -38 -12 -69.667 -36 -95s-57.333 -38 -100 -38z" />
    <glyph glyph-name="fi" unicode="fi" horiz-adv-x="1352" 
d="M213 0v209.001v225v100v129v143.5v150v148.5c0 76 10.5 139 31.5 189s49.667 89.667 86 119s77.666 50 123.999 62s95.5 18 147.5 18c28.667 0 55.834 -1.33301 81.501 -4s49.167 -6.33398 70.5 -11.001s39 -9.66699 53 -15l-21 -211
c-22.667 8.66699 -46.334 15.667 -71.001 21s-49.667 8 -75 8c-61.333 0 -107.166 -14.833 -137.499 -44.5s-45.5 -75.5 -45.5 -137.5v-55.5v-47.5l10 -46v-516v-225v-209h-254zM41 803.001v193h722v-193h-185.5h-180.5h-111h-245zM953 0.000976562v209v225v100v173.5v147
v141.5l254 8v-144v-149.5v-176.5v-100v-225v-209h-254zM1078 1175c-48.667 0 -87.667 12.167 -117 36.5s-44 63.166 -44 116.499c0 48.667 14.667 85.834 44 111.501s69 38.5 119 38.5s89.5 -13.333 118.5 -40s43.5 -63.334 43.5 -110.001
c0 -53.333 -14.5 -92.166 -43.5 -116.499s-69.167 -36.5 -120.5 -36.5z" />
    <glyph glyph-name="fl" unicode="fl" horiz-adv-x="1342" 
d="M213 0l0.000976562 209v225v100v129v143.5v150v148.5c0 76 10.5 139 31.5 189s49.667 89.667 86 119s77.666 50 123.999 62s95.5 18 147.5 18c26 0 50.5 -1.16699 73.5 -3.5s44 -5.33301 63 -9s34.833 -7.5 47.5 -11.5v-217c-22.667 8.66699 -46.334 15.667 -71.001 21
s-49.667 8 -75 8c-61.333 0 -107.166 -14.833 -137.499 -44.5s-45.5 -75.5 -45.5 -137.5v-55.5v-47.5l10 -46v-516v-225v-209h-254zM41.001 804v192h722v-192h-185.5h-180.5h-111h-245zM948.001 0v209v225v553v242.5v235.5l254 24v-242.5v-259.5v-553v-225v-209h-254z" />
    <glyph glyph-name="f_f" unicode="ff" horiz-adv-x="1569" 
d="M973 0v209.001v225v100v129v143.5v150v148.5c0 76 10.333 139 31 189s49.167 89.667 85.5 119s77.833 50 124.5 62s95.667 18 147 18c28.667 0 55.834 -1.33301 81.501 -4s49.167 -6.33398 70.5 -11.001s39 -9.66699 53 -15l-20 -211
c-23.333 8.66699 -47.333 15.667 -72 21s-49.334 8 -74.001 8c-62 0 -108 -14.833 -138 -44.5s-45 -75.5 -45 -137.5v-55.5v-47.5l10 -46v-516v-225v-209h-254zM800 803.001v193h722v-193h-185.5h-180.5h-111h-245zM213 0.000976562v209.001v225v100v129v143.5v150v148.5
c0 76 10.5 139 31.5 189s49.667 89.667 86 119s77.666 50 123.999 62s95.5 18 147.5 18c28.667 0 55.834 -1.33301 81.501 -4s49.167 -6.33398 70.5 -11.001s39 -9.66699 53 -15l-21 -211c-22.667 8.66699 -46.334 15.667 -71.001 21s-49.667 8 -75 8
c-61.333 0 -107.166 -14.833 -137.499 -44.5s-45.5 -75.5 -45.5 -137.5v-55.5v-47.5l10 -46v-516v-225v-209h-254zM41 803.002v193h722v-193h-185.5h-180.5h-111h-245z" />
    <glyph glyph-name="f_f_i" unicode="ffi" horiz-adv-x="2111" 
d="M973 0v209.001v225v100v129v143.5v150v148.5c0 76 10.333 139 31 189s49.167 89.667 85.5 119s77.833 50 124.5 62s95.667 18 147 18c28.667 0 55.834 -1.33301 81.501 -4s49.167 -6.33398 70.5 -11.001s39 -9.66699 53 -15l-20 -211
c-23.333 8.66699 -47.333 15.667 -72 21s-49.334 8 -74.001 8c-62 0 -108 -14.833 -138 -44.5s-45 -75.5 -45 -137.5v-55.5v-47.5l10 -46v-516v-225v-209h-254zM800 803.001v193h722v-193h-185.5h-180.5h-111h-245zM213 0.000976562v209.001v225v100v129v143.5v150v148.5
c0 76 10.5 139 31.5 189s49.667 89.667 86 119s77.666 50 123.999 62s95.5 18 147.5 18c28.667 0 55.834 -1.33301 81.501 -4s49.167 -6.33398 70.5 -11.001s39 -9.66699 53 -15l-21 -211c-22.667 8.66699 -46.334 15.667 -71.001 21s-49.667 8 -75 8
c-61.333 0 -107.166 -14.833 -137.499 -44.5s-45.5 -75.5 -45.5 -137.5v-55.5v-47.5l10 -46v-516v-225v-209h-254zM41 803.002v193h722v-193h-185.5h-180.5h-111h-245zM1713 0.00195312v209v225v100v173.5v147v141.5l254 8v-144v-149.5v-176.5v-100v-225v-209h-254z
M1837 1175c-48.667 0 -87.667 12.167 -117 36.5s-44 63.166 -44 116.499c0 48.667 14.667 85.834 44 111.501s69 38.5 119 38.5s89.5 -13.333 118.5 -40s43.5 -63.334 43.5 -110.001c0 -53.333 -14.5 -92.166 -43.5 -116.499s-69.167 -36.5 -120.5 -36.5z" />
    <glyph glyph-name="f_f_l" unicode="ffl" horiz-adv-x="2101" 
d="M213 0v209.001v225v100v129v143.5v150v148.5c0 76 10.5 139 31.5 189s49.667 89.667 86 119s77.666 50 123.999 62s95.5 18 147.5 18c28.667 0 55.834 -1.33301 81.501 -4s49.167 -6.33398 70.5 -11.001s39 -9.66699 53 -15l-21 -211
c-22.667 8.66699 -46.334 15.667 -71.001 21s-49.667 8 -75 8c-61.333 0 -107.166 -14.833 -137.499 -44.5s-45.5 -75.5 -45.5 -137.5v-55.5v-47.5l10 -46v-516v-225v-209h-254zM41 803.001v193h722v-193h-185.5h-180.5h-111h-245zM973 0.000976562l0.000976562 209v225v100
v129v143.5v150v148.5c0 76 10.333 139 31 189s49.167 89.667 85.5 119s77.833 50 124.5 62s95.667 18 147 18c26 0 50.667 -1.16699 74 -3.5s44.5 -5.33301 63.5 -9s34.833 -7.5 47.5 -11.5v-217c-23.333 8.66699 -47.333 15.667 -72 21s-49.334 8 -74.001 8
c-62 0 -108 -14.833 -138 -44.5s-45 -75.5 -45 -137.5v-55.5v-47.5l10 -46v-516v-225v-209h-254zM800.001 803.001v193h722v-193h-185.5h-180.5h-111h-245zM1708 0.000976562v209v225v553v242.5v235.5l254 24v-242.5v-259.5v-553v-225v-209h-254z" />
    <glyph glyph-name=".notdef" horiz-adv-x="1240" 
d="M70 -384v2020h1100v-2020h-1100zM180 -273h879v1798h-879v-1798zM628 422c-70 0 -122.331 14.8359 -156.998 44.5029s-52 68.5 -52 116.5c0 54 16.833 97.833 50.5 131.5s71.167 65.5 112.5 95.5c24 17.333 46.667 34.833 68 52.5s38.833 37.167 52.5 58.5
s20.5 45 20.5 71c0 34.667 -13.333 61.5 -40 80.5s-63.667 28.5 -111 28.5c-24 0 -49.167 -2.5 -75.5 -7.5s-53 -12.333 -80 -22s-54.167 -21.834 -81.5 -36.501l-8 175c20.667 8.66699 45.834 17.667 75.501 27s62.5 17.333 98.5 24s74.667 10 116 10
c95.333 0 169.666 -19.333 222.999 -58s80 -98 80 -178c0 -52 -10.833 -96.833 -32.5 -134.5s-48.334 -69.834 -80.001 -96.501l-91.5 -74c-30.667 -22 -57.5 -43.667 -80.5 -65s-34.5 -45 -34.5 -71c0 -26.667 8.83301 -45.167 26.5 -55.5s37.834 -15.5 60.501 -15.5
c16.667 0 32.667 2.16699 48 6.5s28.666 8.83301 39.999 13.5l7 -96c-10.667 -4.66699 -24.167 -8.83398 -40.5 -12.501s-34.333 -6.66699 -54 -9s-39.834 -3.5 -60.501 -3.5zM601.002 20.0029c-41.333 0 -74.333 12.667 -99 38s-37 57 -37 95
c0 38.667 12.333 70.167 37 94.5s57.667 36.5 99 36.5c42.667 0 76 -12.167 100 -36.5s36 -55.833 36 -94.5c0 -38 -12 -69.667 -36 -95s-57.333 -38 -100 -38z" />
    <glyph glyph-name="NULL" 
 />
    <glyph glyph-name="NULL" 
 />
    <glyph glyph-name="CR" unicode="&#xd;" horiz-adv-x="382" 
 />
    <glyph glyph-name="space" unicode=" " horiz-adv-x="382" 
 />
    <glyph glyph-name="exclam" unicode="!" horiz-adv-x="510" 
d="M154 518c-4.66699 160 -10.5 318.833 -17.5 476.5s-14.5 314.5 -22.5 470.5l285 8l-21.5 -473.5c-7 -159 -12.833 -318.5 -17.5 -478.5zM254 -25c-34 0 -63.667 7.16504 -89 21.498s-44.666 34 -57.999 59s-20 53.167 -20 84.5c0 47.333 15.167 86 45.5 116
s71.166 45 122.499 45c35.333 0 65.5 -6.83301 90.5 -20.5s44.167 -32.667 57.5 -57s20 -52.166 20 -83.499c0 -47.333 -14.833 -86.666 -44.5 -117.999s-71.167 -47 -124.5 -47z" />
    <glyph glyph-name="quotedbl" unicode="&#x22;" horiz-adv-x="829" 
d="M108 824c-4 111.333 -9.33301 221.833 -16 331.5s-13.667 218.834 -21 327.501l260 6c-7.33301 -108.667 -14.333 -218.334 -21 -329.001s-12 -222 -16 -334zM501 824c-4 111.333 -9.33301 221.833 -16 331.5s-13.667 218.834 -21 327.501l260 6
c-7.33301 -108.667 -14.333 -218.334 -21 -329.001s-12 -222 -16 -334z" />
    <glyph glyph-name="numbersign" unicode="#" horiz-adv-x="1385" 
d="M30 278v190h193.5h174.5h484h175.5h193.5v-190h-193.5h-175.5h-484h-174.5h-193.5zM222 0l37.5 200.5l41.5 227.5l87 459l29.5 160l26.5 138l26 141h195l-26.5 -138l-26 -139.5l-30.5 -162.5l-86 -458l-42 -225l-38 -203h-194zM135 852v190h193.5h174.5h484h175.5h193.5
v-190h-193.5h-175.5h-484h-174.5h-193.5zM712 0l37.5 200.5l42.5 227.5l86 459l30.5 160.5l26 138l26.5 140.5h194c-9.33301 -47.333 -18 -93.333 -26 -138l-25.5 -139.5l-30.5 -162.5l-87 -458l-41.5 -225l-38.5 -203h-194z" />
    <glyph glyph-name="dollar" unicode="$" horiz-adv-x="1140" 
d="M571 -24c-57.333 0 -115.335 4.83203 -174.002 14.499s-113.167 22.334 -163.5 38.001s-91.166 31.834 -122.499 48.501l21 227c43.333 -23.333 88.833 -43.5 136.5 -60.5s96.167 -30 145.5 -39s98.333 -13.5 147 -13.5c53.333 0 100.5 6.33301 141.5 19
s73.167 33 96.5 61s35 64.667 35 110c0 39.333 -14 71.333 -42 96s-67.833 46.334 -119.5 65.001s-113.5 38.667 -185.5 60c-84 25.333 -155.5 54.166 -214.5 86.499s-104 73.166 -135 122.499s-46.5 112.666 -46.5 189.999c0 76.667 17 144.667 51 204s85.5 106 154.5 140
s155.5 51 259.5 51c41.333 0 82.833 -2.66699 124.5 -8s81.834 -12.833 120.501 -22.5s74.667 -20.334 108 -32.001s62 -23.834 86 -36.501l-21 -231c-40 25.333 -82 46.166 -126 62.499s-87.667 28.5 -131 36.5s-84.333 12 -123 12c-46 0 -88.833 -6 -128.5 -18
s-72 -31 -97 -57s-37.5 -59.333 -37.5 -100c0 -35.333 11 -64 33 -86s56 -42 102 -60s105.667 -38.333 179 -61c108 -33.333 193.333 -68.166 256 -104.499s107.167 -78.666 133.5 -126.999s39.5 -108.166 39.5 -179.499c0 -80.667 -17.667 -151.667 -53 -213
s-90 -109.166 -164 -143.499s-169.333 -51.5 -286 -51.5zM487.998 -274.001v172.5v164v160.5v161v564v161v160.5v164.5v172h191v-172v-164.5v-160.5v-161v-564v-162v-160.5v-164v-171.5h-191z" />
    <glyph glyph-name="percent" unicode="%" horiz-adv-x="1840" 
d="M384 0l126 216.5l142 242.5l290 496l100.5 171.5l88 151l86.5 148.5h228l-86.5 -148.5l-88.5 -151l-100 -171.5l-290 -496l-142 -242.5l-127 -216.5h-227zM449 732c-76.667 0 -144.169 14.5 -202.502 43.5s-104 70.5 -137 124.5s-49.5 118.333 -49.5 193
c0 68.667 16.5 130.167 49.5 184.5s78.833 97.333 137.5 129s126.334 47.5 203.001 47.5s144.167 -15.833 202.5 -47.5s104 -74.667 137 -129s49.5 -115.833 49.5 -184.5c0 -74.667 -16.5 -139 -49.5 -193s-78.667 -95.5 -137 -124.5s-126.166 -43.5 -203.499 -43.5z
M448.998 895c62.667 0 111.331 17.333 145.998 52s52 82.667 52 144c0 38 -7.83301 72 -23.5 102s-38.167 53.667 -67.5 71s-64.666 26 -105.999 26c-61.333 0 -109.833 -18.667 -145.5 -56s-53.5 -85 -53.5 -143c0 -61.333 17.833 -109.333 53.5 -144
s83.834 -52 144.501 -52zM1381 -25c-77.333 0 -145.165 14.5 -203.498 43.5s-104 70.667 -137 125s-49.5 118.5 -49.5 192.5c0 68.667 16.5 130.167 49.5 184.5s78.833 97.333 137.5 129s126.334 47.5 203.001 47.5c77.333 0 145.166 -15.833 203.499 -47.5
s103.833 -74.667 136.5 -129s49 -115.833 49 -184.5c0 -74 -16.333 -138.167 -49 -192.5s-78.334 -96 -137.001 -125s-126.334 -43.5 -203.001 -43.5zM1381 138c62 0 110.499 17.5 145.499 52.5s52.5 82.833 52.5 143.5c0 38 -8 72 -24 102s-38.667 53.667 -68 71
s-64.666 26 -105.999 26c-61.333 0 -109.833 -18.5 -145.5 -55.5s-53.5 -84.833 -53.5 -143.5c0 -60.667 17.833 -108.5 53.5 -143.5s84.167 -52.5 145.5 -52.5z" />
    <glyph glyph-name="ampersand" unicode="&#x26;" horiz-adv-x="1508" 
d="M1173 0l-129.5 136.498l-130.5 135.5l-446 466c-58 60 -103.667 119.333 -137 178s-50 122.667 -50 192c0 74 17.667 136.833 53 188.5s82.833 90.834 142.5 117.501s125.834 40 198.501 40c74.667 0 142.167 -12.667 202.5 -38s108.166 -62.333 143.499 -111
s53 -108 53 -178c0 -56 -10.5 -104.667 -31.5 -146s-48.5 -76.833 -82.5 -106.5s-70.667 -55.167 -110 -76.5s-77.333 -39.666 -114 -54.999l-105 145c44.667 18 82.834 37.833 114.501 59.5s56 46.5 73 74.5s25.5 60.667 25.5 98c0 42.667 -14.667 78.5 -44 107.5
s-66.666 43.5 -111.999 43.5c-44.667 0 -81.334 -14.667 -110.001 -44s-43 -68 -43 -116c0 -40.667 11.167 -80.5 33.5 -119.5s58.166 -84.5 107.499 -136.5l430 -452l191.5 -201l191.5 -202h-315zM527 -23.002c-99.333 0 -182 17.666 -248 52.999s-115.667 83 -149 143
s-50 127 -50 201c0 80.667 16.833 150.5 50.5 209.5s77.5 109 131.5 150s111.333 74.833 172 101.5l109 -153c-43.333 -20 -81.166 -43.667 -113.499 -71s-57.333 -58.166 -75 -92.499s-26.5 -72.5 -26.5 -114.5s9 -79.333 27 -112s44.833 -58.5 80.5 -77.5
s79.167 -28.5 130.5 -28.5c33.333 0 66.666 7 99.999 21s65.833 34.667 97.5 62s62.5 61 92.5 101l134 -140l7 -38h-28c-38.667 -44.667 -79.667 -83 -123 -115s-91 -56.667 -143 -74s-110.667 -26 -176 -26zM1138 349.997l-148 147l112.5 176l110.5 174l211 -137l-142 -179
z" />
    <glyph glyph-name="quotesingle" unicode="'" horiz-adv-x="436" 
d="M108 824c-4 111.333 -9.33301 221.833 -16 331.5s-13.667 218.834 -21 327.501l260 6c-7.33301 -108.667 -14.333 -218.334 -21 -329.001s-12 -222 -16 -334z" />
    <glyph glyph-name="parenleft" unicode="(" horiz-adv-x="806" 
d="M577 -257c-69.333 45.333 -133.166 97.9941 -191.499 157.994s-108.833 127.333 -151.5 202s-75.667 157.334 -99 248.001s-35 189.334 -35 296.001c0 107.333 11.667 206.333 35 297s56.333 173.334 99 248.001s93.167 141.834 151.5 201.501
s122.166 112.167 191.499 157.5l164 -77c-67.333 -56.667 -130.166 -123.167 -188.499 -199.5s-105.333 -166 -141 -269s-53.5 -222.5 -53.5 -358.5c0 -135.333 17.833 -254.666 53.5 -357.999s82.667 -193.166 141 -269.499s121.166 -142.833 188.499 -199.5z" />
    <glyph glyph-name="parenright" unicode=")" horiz-adv-x="806" 
d="M229 -257l-164 77.0059c67.333 56.667 130.166 123.167 188.499 199.5s105.333 166 141 269s53.5 222.5 53.5 358.5c0 135.333 -17.833 254.666 -53.5 357.999s-82.667 193.166 -141 269.499s-121.166 142.833 -188.499 199.5l164 77
c69.333 -45.333 133.166 -98 191.499 -158s108.833 -127.333 151.5 -202s75.667 -157.334 99 -248.001s35 -189.334 35 -296.001c0 -107.333 -11.667 -206.333 -35 -297s-56.333 -173.334 -99 -248.001s-93.167 -141.834 -151.5 -201.501s-122.166 -112.167 -191.499 -157.5
z" />
    <glyph glyph-name="asterisk" unicode="*" horiz-adv-x="972" 
d="M836 725l-187.5 132l-188.5 132l-205 104.5l-205 103.5l85 146l188.5 -132l188.5 -133l205 -103.5l205 -104.5zM135 725l-85 145l205 105l205 104l188.5 132.5l187.5 131.5l86 -146l-205.5 -103.5l-204.5 -103.5l-188 -132.5zM401 575l16.5 229.5l16.5 230.5l-16.5 229
l-16.5 229h170c-6 -76 -11.667 -152.333 -17 -229l-16 -229l16.5 -230.5l16.5 -229.5h-170z" />
    <glyph glyph-name="plus" unicode="+" horiz-adv-x="1190" 
d="M481 109v193.5v174.5v254v175.5v193.5h228v-193.5v-175.5v-254v-174.5v-193.5h-228zM110 493v222h193.5h174.5h234h175.5h193.5v-222h-193.5h-175.5h-234h-174.5h-193.5z" />
    <glyph glyph-name="comma" unicode="," horiz-adv-x="487" 
d="M38 -314c25.333 38 45.5029 76.498 60.5029 115.498s26 80.167 33 123.5s10.5 90 10.5 140v114.5v117.5l118 10c49.333 -5.33301 84.833 -24.166 106.5 -56.499s32.5 -72.166 32.5 -119.499c0 -45.333 -6.83301 -89.666 -20.5 -132.999s-31.834 -84.333 -54.501 -123
s-47.834 -73.834 -75.501 -105.501s-55.834 -58.5 -84.501 -80.5z" />
    <glyph glyph-name="hyphen" unicode="-" horiz-adv-x="850" 
d="M110 488v222h165.5h149.5h150h165v-222h-165h-150h-149.5h-165.5z" />
    <glyph glyph-name="period" unicode="." horiz-adv-x="510" 
d="M254 -25c-34 0 -63.667 7.16504 -89 21.498s-44.666 34 -57.999 59s-20 53.167 -20 84.5c0 47.333 15.167 86 45.5 116s71.166 45 122.499 45c35.333 0 65.5 -6.83301 90.5 -20.5s44.167 -32.667 57.5 -57s20 -52.166 20 -83.499
c0 -47.333 -14.833 -86.666 -44.5 -117.999s-71.167 -47 -124.5 -47z" />
    <glyph glyph-name="slash" unicode="/" horiz-adv-x="902" 
d="M41 0l86.5 215.5l96.5 240.5l200 496l101 250l90 224h247l-60.5 -149.5l-61.5 -152l-71 -177.5l-198 -491l-97 -240.5l-87 -215.5h-246z" />
    <glyph glyph-name="zero" unicode="0" horiz-adv-x="1321" 
d="M666 -24c-101.333 0 -188.166 18 -260.499 54s-131.333 86.333 -177 151s-79.334 140.167 -101.001 226.5s-32.5 179.833 -32.5 280.5c0 140.667 20.333 264.667 61 372s102.667 191.166 186 251.499s189 90.5 317 90.5c97.333 0 181.666 -17.333 252.999 -52
s130.333 -83.667 177 -147s81.334 -138.666 104.001 -225.999s34 -183.333 34 -288c0 -144 -20.833 -269.5 -62.5 -376.5s-104.167 -189.833 -187.5 -248.5s-187 -88 -311 -88zM662 197c71.333 0 128.5 21.3359 171.5 64.0029s74.333 101 94 175s29.5 158.333 29.5 253
c0 100 -10.5 186.667 -31.5 260s-53.167 130.166 -96.5 170.499s-99 60.5 -167 60.5c-69.333 0 -125.833 -20.833 -169.5 -62.5s-75.667 -99.334 -96 -173.001s-30.5 -158.834 -30.5 -255.501c0 -96 9.66699 -181 29 -255s50.833 -132 94.5 -174s101.167 -63 172.5 -63z" />
    <glyph glyph-name="one" unicode="1" horiz-adv-x="889" 
d="M111 914l-61 205l263.5 131.5l263.5 131.5l-9 -237l-228 -115.5zM442 0v209v225v413v208v209l135 118l127 -8v-235.5v-242.5v-462v-225v-209h-262z" />
    <glyph glyph-name="two" unicode="2" horiz-adv-x="1128" 
d="M90 0l0.00195312 179.001l114 97.5l113 97.5c89.333 76 165.833 147 229.5 213s112.5 129.667 146.5 191s51 122.666 51 183.999c0 72 -19.833 126 -59.5 162s-99.5 54 -179.5 54c-32 0 -64.667 -3.33301 -98 -10s-66.833 -16.167 -100.5 -28.5
s-67.334 -27.333 -101.001 -45s-66.5 -37.167 -98.5 -58.5l-24 252c30 15.333 63.333 29.833 100 43.5s75.5 25.834 116.5 36.501s83 19 126 25s86.167 9 129.5 9c98.667 0 182.167 -16.333 250.5 -49s120.166 -79.334 155.499 -140.001s53 -133 53 -217
c0 -72.667 -15.5 -144.667 -46.5 -216s-77.833 -143.333 -140.5 -216s-141 -147 -235 -223l-206 -167l-34 52h258h212h212v-226h-944z" />
    <glyph glyph-name="three" unicode="3" horiz-adv-x="1157" 
d="M557 -25c-46 0 -91.332 2.83594 -135.999 8.50293s-87.667 13.334 -129 23.001s-79.833 21.167 -115.5 34.5s-67.834 27 -96.501 41l21 241c36 -19.333 72.5 -36.666 109.5 -51.999s73.667 -28.333 110 -39s72.166 -19 107.499 -25s69.333 -9 102 -9
c96.667 0 166 18.5 208 55.5s63 84.167 63 141.5c0 67.333 -27.667 118.666 -83 153.999s-133.666 53 -234.999 53h-78h-77v204h69.5h70.5c68.667 0 124.5 8.5 167.5 25.5s74.5 40.167 94.5 69.5s30 63.333 30 102c0 58.667 -21.833 102.5 -65.5 131.5
s-100.167 43.5 -169.5 43.5c-31.333 0 -63.666 -3.16699 -96.999 -9.5s-66.833 -15.333 -100.5 -27s-67 -25.834 -100 -42.501s-65.5 -35.334 -97.5 -56.001l-25 244c30 16 62.833 31 98.5 45s73.5 26.167 113.5 36.5s81 18.666 123 24.999s84.333 9.5 127 9.5
c96 0 178.667 -14.333 248 -43s122.5 -69 159.5 -121s55.5 -113.667 55.5 -185c0 -57.333 -11.667 -107.333 -35 -150s-54.333 -77.5 -93 -104.5s-81.667 -45.833 -129 -56.5v-21c36 -6.66699 71.5 -18.334 106.5 -35.001s67 -39.167 96 -67.5s52 -62.833 69 -103.5
s25.5 -88 25.5 -142c0 -76 -18.5 -144 -55.5 -204s-93.333 -107.5 -169 -142.5s-171.834 -52.5 -288.501 -52.5z" />
    <glyph glyph-name="four" unicode="4" horiz-adv-x="1218" 
d="M687 0v188v207l10 40v407v207.5v208.5l189 60l-105.5 -151.5l-104.5 -146.5l-226 -321l-90.5 -128.5l-90.5 -129.5l-8 79h492l31 4h126h136.5h119.5v-226h-119.5h-136.5h-126h-732v176l90 128l99.5 141l93.5 131l170 240l92 130l92 131h259v-243.5v-238.5v-498v-207v-188
h-261z" />
    <glyph glyph-name="five" unicode="5" horiz-adv-x="1160" 
d="M551 -25c-45.333 0 -90.1699 2.83008 -134.503 8.49707s-86.666 13.334 -126.999 23.001s-78.166 21.167 -113.499 34.5s-67.333 27 -96 41l21 241c36 -19.333 72.333 -36.666 109 -51.999s73.167 -28.333 109.5 -39s71.833 -19 106.5 -25s68 -9 100 -9
c95.333 0 165.5 21.833 210.5 65.5s67.5 104.834 67.5 183.501c0 57.333 -11.667 103.5 -35 138.5s-55.5 60.667 -96.5 77s-87.833 24.5 -140.5 24.5c-44 0 -87.167 -5.16699 -129.5 -15.5s-85.5 -29.833 -129.5 -58.5l-114 8v225v274.5v254.5h840v-226h-238h-239h-199
l86 83c0 -52.667 -0.333008 -105.5 -1 -158.5s-1.66699 -105.5 -3 -157.5v-76h21c35.333 17.333 72.5 30.5 111.5 39.5s78.5 13.5 118.5 13.5c77.333 0 147.5 -16.167 210.5 -48.5s113.167 -81 150.5 -146s56 -146.167 56 -243.5c0 -95.333 -19.167 -179 -57.5 -251
s-96.166 -128.167 -173.499 -168.5s-174.333 -60.5 -291 -60.5z" />
    <glyph glyph-name="six" unicode="6" horiz-adv-x="1227" 
d="M644 -25c-120.667 0 -221.661 26.3379 -302.994 79.0049s-142.666 130.334 -183.999 233.001s-62 229.667 -62 381c0 125.333 13.333 234.166 40 326.499s65.167 168.5 115.5 228.5s110.666 104.833 180.999 134.5s148.833 44.5 235.5 44.5
c36.667 0 72.5 -2.16699 107.5 -6.5s68.667 -10.5 101 -18.5s63.833 -17.333 94.5 -28s59.667 -22.334 87 -35.001l-25 -238c-26.667 17.333 -54.667 32.166 -84 44.499s-58.833 22.666 -88.5 30.999s-59.334 14.666 -89.001 18.999s-58.5 6.5 -86.5 6.5
c-80.667 0 -145.334 -19 -194.001 -57s-84 -95.167 -106 -171.5s-33 -171.833 -33 -286.5c0 -106.667 11.167 -194.167 33.5 -262.5s54.5 -119 96.5 -152s92.667 -49.5 152 -49.5c56.667 0 103.167 12 139.5 36s63.166 55.5 80.499 94.5s26 81.167 26 126.5
c0 44.667 -8.5 85 -25.5 121s-43.167 64.5 -78.5 85.5s-81 31.5 -137 31.5c-22.667 0 -45.834 -2 -69.501 -6s-48 -11 -73 -21s-50 -23.833 -75 -41.5s-50.167 -40.167 -75.5 -67.5c-20 27.333 -33 50.666 -39 69.999s-6 39 0 59s18.333 45 37 75l33 -2
c21.333 22 44.666 41.5 69.999 58.5s52.166 31.333 80.499 43s58.5 20.667 90.5 27s65.667 9.5 101 9.5c84 0 157.833 -17.833 221.5 -53.5s113 -85.667 148 -150s52.5 -139.833 52.5 -226.5c0 -84.667 -17.833 -164.5 -53.5 -239.5s-90.167 -135.833 -163.5 -182.5
s-166.333 -70 -279 -70z" />
    <glyph glyph-name="seven" unicode="7" horiz-adv-x="1085" 
d="M193 0l118 258.5l115 255.5l180 397l66 145.5l66 145.5l51 -54h-266h-235.5h-237.5v226h965v-176l-103 -231l-104 -234l-119 -266l-103 -232.5l-104 -234.5h-289z" />
    <glyph glyph-name="eight" unicode="8" horiz-adv-x="1229" 
d="M616 -25c-120.667 0 -220 18 -298 54s-136 85 -174 147s-57 132 -57 210c0 74 14.5 135 43.5 183s64.833 85.333 107.5 112s85.334 44.667 128.001 54v21c-42.667 10.667 -81.834 29 -117.501 55s-64.667 59 -87 99s-33.5 87 -33.5 141
c0 70.667 19.5 132.334 58.5 185.001s94.833 93.667 167.5 123s160 44 262 44c100.667 0 187.167 -14.667 259.5 -44s128 -70.333 167 -123s58.5 -114.334 58.5 -185.001c0 -54 -10.833 -101 -32.5 -141s-50.667 -73 -87 -99s-75.833 -44.333 -118.5 -55v-21
c42.667 -9.33301 85.5 -27.5 128.5 -54.5s78.833 -64.5 107.5 -112.5s43 -108.667 43 -182c0 -78 -19 -148 -57 -210s-95.833 -111 -173.5 -147s-176.167 -54 -295.5 -54zM616 199c62 0 112.497 9.33301 151.497 28s67.833 44.167 86.5 76.5s28 68.833 28 109.5
c0 46.667 -11.667 86 -35 118s-55.166 55.833 -95.499 71.5s-86.166 23.5 -137.499 23.5s-97 -7.83301 -137 -23.5s-71.5 -39.5 -94.5 -71.5s-34.5 -71.333 -34.5 -118c0 -40.667 9.16699 -77.167 27.5 -109.5s47.333 -57.833 87 -76.5s90.834 -28 153.501 -28zM615.997 824
c73.333 0 130.166 17.5 170.499 52.5s60.5 79.833 60.5 134.5c0 57.333 -21.167 100.833 -63.5 130.5s-98.166 44.5 -167.499 44.5c-70.667 0 -127 -14.833 -169 -44.5s-63 -73.167 -63 -130.5c0 -36.667 9 -69.167 27 -97.5s44.333 -50.333 79 -66s76.667 -23.5 126 -23.5z
" />
    <glyph glyph-name="nine" unicode="9" horiz-adv-x="1227" 
d="M560 -25c-36.667 0 -72.502 2.16602 -107.502 6.49902s-68.667 10.666 -101 18.999s-63.833 17.833 -94.5 28.5s-59.667 22 -87 34l24 238c28 -16 56.5 -30.5 85.5 -43.5s58.333 -23.667 88 -32s59.334 -14.666 89.001 -18.999s58.5 -6.5 86.5 -6.5
c80.667 0 145.334 19 194.001 57s84 95.167 106 171.5s33 172.166 33 287.499c0 106 -11.167 193.333 -33.5 262s-54.5 119.334 -96.5 152.001s-92.667 49 -152 49c-56.667 0 -103.167 -12 -139.5 -36s-63.166 -55.5 -80.499 -94.5s-26 -81.167 -26 -126.5
c0 -44.667 8.5 -84.834 25.5 -120.501s43.167 -64.167 78.5 -85.5s80.666 -32 135.999 -32c23.333 0 46.833 2 70.5 6s48 11 73 21s50 23.833 75 41.5s50.167 40.167 75.5 67.5c19.333 -27.333 32.166 -50.5 38.499 -69.5s6.33301 -38.5 0 -58.5s-18.5 -45.333 -36.5 -76
l-33 2c-22 -21.333 -45.5 -40.666 -70.5 -57.999s-51.667 -31.833 -80 -43.5s-58.666 -20.667 -90.999 -27s-65.833 -9.5 -100.5 -9.5c-84.667 0 -158.667 17.833 -222 53.5s-112.5 85.667 -147.5 150s-52.5 139.833 -52.5 226.5c0 84.667 17.833 164.5 53.5 239.5
s90.167 135.833 163.5 182.5s166.333 70 279 70c120 0 220.833 -26.167 302.5 -78.5s143.167 -130 184.5 -233s62 -230.167 62 -381.5c0 -124.667 -13.5 -233.167 -40.5 -325.5s-65.5 -168.666 -115.5 -228.999s-110.167 -105.333 -180.5 -135s-148.833 -44.5 -235.5 -44.5z
" />
    <glyph glyph-name="colon" unicode=":" horiz-adv-x="510" 
d="M254 696c-34 0 -63.667 7.16504 -89 21.498s-44.666 34 -57.999 59s-20 53.167 -20 84.5c0 47.333 15.167 86 45.5 116s71.166 45 122.499 45c35.333 0 65.5 -6.83301 90.5 -20.5s44.167 -32.667 57.5 -57s20 -52.166 20 -83.499
c0 -47.333 -14.833 -86.666 -44.5 -117.999s-71.167 -47 -124.5 -47zM254 -25.002c-34 0 -63.667 7.16504 -89 21.498s-44.666 34 -57.999 59s-20 53.167 -20 84.5c0 47.333 15.167 86 45.5 116s71.166 45 122.499 45c35.333 0 65.5 -6.83301 90.5 -20.5
s44.167 -32.667 57.5 -57s20 -52.166 20 -83.499c0 -47.333 -14.833 -86.666 -44.5 -117.999s-71.167 -47 -124.5 -47z" />
    <glyph glyph-name="semicolon" unicode=";" horiz-adv-x="510" 
d="M254 696c-34 0 -63.667 7.16504 -89 21.498s-44.666 34 -57.999 59s-20 53.167 -20 84.5c0 47.333 15.167 86 45.5 116s71.166 45 122.499 45c35.333 0 65.5 -6.83301 90.5 -20.5s44.167 -32.667 57.5 -57s20 -52.166 20 -83.499
c0 -47.333 -14.833 -86.666 -44.5 -117.999s-71.167 -47 -124.5 -47zM61 -314.002c25.333 38 45.5029 76.498 60.5029 115.498s26 80.167 33 123.5s10.5 90 10.5 140v114.5v117.5l118 10c49.333 -5.33301 84.833 -24.166 106.5 -56.499s32.5 -72.166 32.5 -119.499
c0 -45.333 -6.83301 -89.666 -20.5 -132.999s-31.834 -84.333 -54.501 -123s-47.834 -73.834 -75.501 -105.501s-55.834 -58.5 -84.501 -80.5z" />
    <glyph glyph-name="less" unicode="&#x3c;" horiz-adv-x="1150" 
d="M1041 120l-194 77l-177 70l-193 78l-175 70l-192 76v224l193 76.5l175 69.5l193 78l176 70l194 77v-235l-193 -76.5l-194 -78.5l-205 -82v-22l205 -82l194 -77l193 -78v-235z" />
    <glyph glyph-name="equal" unicode="=" horiz-adv-x="1150" 
d="M120 258v222h193.5h174.5h174h175.5h193.5v-222h-193.5h-175.5h-174h-174.5h-193.5zM120 729v221h193.5h174.5h174h175.5h193.5v-221h-193.5h-175.5h-174h-174.5h-193.5z" />
    <glyph glyph-name="greater" unicode="&#x3e;" horiz-adv-x="1150" 
d="M110 120v235l192.5 78l194.5 77l204 82v22l-204 82l-194.5 78l-192.5 77v235l193 -76.5l176 -70.5l194 -78l175 -69.5l193 -76.5v-224l-193 -76l-175 -70l-194 -78l-176 -70.5z" />
    <glyph glyph-name="question" unicode="?" horiz-adv-x="886" 
d="M445 458c-86.667 0 -151.167 18.168 -193.5 54.501s-63.5 84.166 -63.5 143.499c0 44 9.5 82.167 28.5 114.5s43.833 61.5 74.5 87.5s63 51 97 75c28.667 21.333 56 42.833 82 64.5s47.167 45.167 63.5 70.5s24.5 54 24.5 86c0 42.667 -15.667 75.167 -47 97.5
s-76.333 33.5 -135 33.5c-30 0 -61 -3 -93 -9s-64.667 -14.833 -98 -26.5s-66.333 -26.5 -99 -44.5l-12 218c19.333 8 41.833 16.167 67.5 24.5s53.667 16.333 84 24s62.833 14 97.5 19s71 7.5 109 7.5c78 0 144.833 -10.5 200.5 -31.5s98.167 -53 127.5 -96
s44 -97.167 44 -162.5c0 -64 -13 -119 -39 -165s-58.333 -85.667 -97 -119s-76.334 -63 -113.001 -89c-38 -27.333 -70.833 -53.833 -98.5 -79.5s-41.5 -53.834 -41.5 -84.501c0 -33.333 10.5 -56.166 31.5 -68.499s45.167 -18.5 72.5 -18.5
c20.667 0 40.334 2.66699 59.001 8s35 11 49 17l8 -119c-14 -5.33301 -31 -10.333 -51 -15s-41.833 -8.66699 -65.5 -12s-48.167 -5 -73.5 -5zM413 -24.999c-34 0 -63.499 7.16504 -88.499 21.498s-44.333 34 -58 59s-20.5 53.167 -20.5 84.5c0 47.333 15.167 86 45.5 116
s71.166 45 122.499 45c35.333 0 65.5 -6.83301 90.5 -20.5s44.167 -32.667 57.5 -57s20 -52.166 20 -83.499c0 -47.333 -14.833 -86.666 -44.5 -117.999s-71.167 -47 -124.5 -47z" />
    <glyph glyph-name="at" unicode="@" horiz-adv-x="1777" 
d="M950 -279c-160.667 0 -299.998 26.6719 -417.998 80.0049s-213.167 126.166 -285.5 218.499s-120.666 197.5 -144.999 315.5s-22.833 241 4.5 369c24 116.667 62.833 217.334 116.5 302.001s118 154.5 193 209.5s157.5 95.833 247.5 122.5s183.333 40 280 40
c127.333 0 241.333 -22.833 342 -68.5s184.334 -108.667 251.001 -189s112.667 -173.166 138 -278.499s26.333 -218.333 3 -339c-13.333 -70 -34.333 -129.333 -63 -178s-61.334 -87.834 -98.001 -117.501s-73.834 -51.334 -111.501 -65.001s-72.834 -20.5 -105.501 -20.5
c-52.667 0 -97.834 7.16699 -135.501 21.5s-68.5 33 -92.5 56s-41.333 47.833 -52 74.5h-17c-31.333 -48 -69.666 -82.333 -114.999 -103s-89 -31 -131 -31c-76 0 -137.833 22.167 -185.5 66.5s-79.834 102.666 -96.501 174.999s-16.334 149.833 0.999023 232.5
c14 70 37.833 132.5 71.5 187.5s75.334 98.333 125.001 130s105.5 47.5 167.5 47.5c34.667 0 66.834 -5 96.501 -15s56.167 -24.333 79.5 -43s43 -40.334 59 -65.001h18l28 101l182 11l-46 -221l-49 -231l-8 -38c-14.667 -70.667 -12 -120.834 8 -150.501
s49.333 -44.5 88 -44.5c25.333 0 49.5 5.83301 72.5 17.5s44.333 28.5 64 50.5s36.667 48.667 51 80s25.5 66 33.5 104c20 100.667 20.833 193 2.5 277s-53.333 157 -105 219s-117.5 110 -197.5 144s-172 51 -276 51c-118.667 0 -224.167 -21.833 -316.5 -65.5
s-168.833 -106.834 -229.5 -189.501s-103.667 -182.667 -129 -300c-24 -108 -26.833 -210.167 -8.5 -306.5s56.5 -181.5 114.5 -255.5s135.5 -131.833 232.5 -173.5s212.5 -62.5 346.5 -62.5c51.333 0 107.333 4.66699 168 14s124.5 26.333 191.5 51s135.833 60 206.5 106
v-174c-54.667 -34.667 -113.167 -63 -175.5 -85s-126.333 -38.167 -192 -48.5s-131.834 -15.5 -198.501 -15.5zM815.002 322.005c32 0 63 9.16797 93 27.501s55.667 46.166 77 83.499l60 283c-18 22.667 -40 41.167 -66 55.5s-56.333 21.5 -91 21.5
c-57.333 0 -103.833 -20.333 -139.5 -61s-60.167 -91.667 -73.5 -153c-9.33301 -45.333 -10.5 -87.5 -3.5 -126.5s22.5 -70.5 46.5 -94.5s56.333 -36 97 -36z" />
    <glyph glyph-name="A" unicode="A" horiz-adv-x="1418" 
d="M48 0l82 242l81 241l166 489l81.5 239.5l72.5 214.5h362l73 -218l80 -236l164 -490l82 -243l80 -239h-289l-74 241l-72 234l-217 710h-22l-219 -702l-74.5 -240.5l-75.5 -242.5h-281zM365 318l28 212h666l23 -212h-717z" />
    <glyph glyph-name="B" unicode="B" horiz-adv-x="1313" 
d="M637 0l-194.997 -0.00488281h-162.5h-124.5v225v242v483v247v229h264h295c92.667 0 170.667 -7.83301 234 -23.5s114.166 -38 152.499 -67s66 -63.667 83 -104s25.5 -85.833 25.5 -136.5c0 -60.667 -11.333 -113.5 -34 -158.5s-53.334 -82 -92.001 -111
s-82.334 -50.167 -131.001 -63.5v-23c54 -11.333 103 -30.166 147 -56.499s78.833 -62.666 104.5 -108.999s38.5 -105.166 38.5 -176.499c0 -58.667 -9.5 -112.167 -28.5 -160.5s-51.167 -90.166 -96.5 -125.499s-107 -62.666 -185 -81.999s-176.333 -29 -295 -29z
M429.003 220.995l232 -0.00292969c68.667 0 124.5 7.83301 167.5 23.5s74.5 38.334 94.5 68.001s30 65.834 30 108.501c0 66.667 -23.5 115.334 -70.5 146.001s-114.167 46 -201.5 46h-317v211h307c57.333 0 104.5 8.83301 141.5 26.5s64.167 41.5 81.5 71.5s26 64 26 102
c0 60.667 -18.833 106.167 -56.5 136.5s-94.5 45.5 -170.5 45.5h-264v-150v-170v-359v-161.5v-144.5z" />
    <glyph glyph-name="C" unicode="C" horiz-adv-x="1368" 
d="M829 -25c-114.667 0 -217.999 17.8311 -309.999 53.498s-170.333 86.334 -235 152.001s-114.167 143.667 -148.5 234s-51.5 189.833 -51.5 298.5c0 143.333 29.167 270.833 87.5 382.5s141.166 199.334 248.499 263.001s235 95.5 383 95.5c46 0 91.5 -3 136.5 -9
s88 -14.333 129 -25s79 -22.5 114 -35.5s65.833 -26.833 92.5 -41.5l-22 -262c-51.333 32 -101.333 57.833 -150 77.5s-95.5 33.834 -140.5 42.501s-88.5 13 -130.5 13c-88 0 -166.5 -19.667 -235.5 -59s-123.167 -96.333 -162.5 -171s-59 -165 -59 -271
c0 -68.667 10.167 -133.5 30.5 -194.5s50.833 -114.833 91.5 -161.5s91.5 -83.167 152.5 -109.5s132.167 -39.5 213.5 -39.5c32 0 64.333 2.16699 97 6.5s65.334 11.166 98.001 20.499s65 22 97 38s63.667 35.333 95 58l17 -259c-28 -16.667 -59.333 -31.167 -94 -43.5
s-70.834 -22.5 -108.501 -30.5s-76.5 -13.833 -116.5 -17.5s-79.667 -5.5 -119 -5.5z" />
    <glyph glyph-name="D" unicode="D" horiz-adv-x="1469" 
d="M155 0l0.00195312 225v242v482v248v229h175.5h182h187.5c109.333 0 206.5 -15.667 291.5 -47s156.667 -77.5 215 -138.5s102.666 -135.167 132.999 -222.5s45.5 -187.333 45.5 -300c0 -100.667 -13.333 -194.5 -40 -281.5s-69.334 -163.167 -128.001 -228.5
s-136 -116.333 -232 -153s-213 -55 -351 -55h-173h-154.5h-151.5zM436.002 226l198.002 0.000976562c113.333 0 203.666 21.5 270.999 64.5s115.666 102 144.999 177s44 159.833 44 254.5c0 72 -8.66699 137.333 -26 196s-43.833 109.167 -79.5 151.5
s-81.5 74.666 -137.5 96.999s-122.333 33.5 -199 33.5h-216v-147v-167v-354v-162v-144z" />
    <glyph glyph-name="E" unicode="E" horiz-adv-x="1191" 
d="M155 0v225v242v483v247v229h926v-233h-202.5h-255.5h-344l150 190v-229.5v-247.5v-395v-242v-226l-132 190h347h233h211v-233h-933zM366 610v221h266h230h185v-221h-190h-226h-265z" />
    <glyph glyph-name="F" unicode="F" horiz-adv-x="1152" 
d="M155 0v225v242v482v248v229h912v-235h-202.5h-255.5h-293l114 192v-229v-248v-439v-242v-225h-275zM360 591v226h257h229.5h185.5v-226h-190.5h-225.5h-256z" />
    <glyph glyph-name="G" unicode="G" horiz-adv-x="1461" 
d="M850 -24c-123.333 0 -232.5 18.334 -327.5 55.001s-175 88 -240 154s-114.333 144 -148 234s-50.5 188.333 -50.5 295c0 144.667 29.667 272.667 89 384s144 198.5 254 261.5s241.333 94.5 394 94.5c50 0 98.667 -3.16699 146 -9.5s92.166 -15 134.499 -26
s81.666 -23 117.999 -36s67.833 -26.5 94.5 -40.5l-22 -261c-55.333 31.333 -109.166 56.833 -161.499 76.5s-102.666 34 -150.999 43s-94.166 13.5 -137.499 13.5c-67.333 0 -129.5 -10.833 -186.5 -32.5s-106.667 -54 -149 -97s-75.166 -95.667 -98.499 -158
s-35 -133.5 -35 -213.5c0 -70.667 10 -136.834 30 -198.501s50.333 -115.834 91 -162.501s92.667 -83.167 156 -109.5s137.666 -39.5 222.999 -39.5c40 0 78.667 1.83301 116 5.5s73.666 9.83398 108.999 18.501s70 19.5 104 32.5s68 28.833 102 47.5l33 -252
c-22.667 -10 -51.5 -19.667 -86.5 -29s-74.167 -17.833 -117.5 -25.5s-89 -13.667 -137 -18s-96.667 -6.5 -146 -6.5zM1074 50.001v191.5v165.5v171.5v151.5h263v-151.5v-171.5v-164.5v-187.5z" />
    <glyph glyph-name="H" unicode="H" horiz-adv-x="1500" 
d="M1064 0v225v242v482v248v229h281v-229v-248v-482v-242v-225h-281zM155 0v225v242v482v248v229h281v-229v-248v-482v-242v-225h-281zM354 602v235h798v-235h-798z" />
    <glyph glyph-name="I" unicode="I" horiz-adv-x="606" 
d="M160 0v225v242v482v248v229h286v-229v-248v-482v-242v-225h-286z" />
    <glyph glyph-name="J" unicode="J" horiz-adv-x="620" 
d="M14 -312c36 45.333 66.165 91.501 90.498 138.501s42.833 96.833 55.5 149.5s19 110.667 19 174v456v343v248v229h280v-229v-248v-312v-259.5v-246.5c0 -54.667 -4.5 -104.334 -13.5 -149.001s-21.667 -84.834 -38 -120.501s-35.166 -67.667 -56.499 -96
s-44.666 -54.166 -69.999 -77.499h-267z" />
    <glyph glyph-name="K" unicode="K" horiz-adv-x="1379" 
d="M993 0l-142.5 184l-130.5 168l-216 277h-94v222h91l191 228l133.5 161l153.5 186h326l-191.5 -222l-188.5 -219l-238 -277l-5 123l265 -339l131.5 -168l137.5 -175l117 -149h-340zM155 0v225v242v482v248v229h280v-229v-248v-482v-242v-225h-280z" />
    <glyph glyph-name="L" unicode="L" horiz-adv-x="1155" 
d="M155 0v225v242v482v248v229h281v-229v-248v-438v-241.5v-225.5l-99 201h273h188.5h151.5h143v-245h-938z" />
    <glyph glyph-name="M" unicode="M" horiz-adv-x="1923" 
d="M111 0l29 225.5l30 243.5l59 476l31 244.5l29 236.5h283l101 -253.5l96 -241.5l189 -475h19l184 474l94.5 240.5l97.5 255.5h280l29.5 -235.5l30.5 -246.5l60 -478l31 -240.5l28 -225.5h-266l-38 310l-34 275l-45 368h-19l-143 -396l-104.5 -288l-97.5 -269h-187
l-66.5 174.5l-74.5 191l-75 190.5l-154 397h-19l-44 -366l-34 -276.5l-37 -310.5h-263z" />
    <glyph glyph-name="N" unicode="N" horiz-adv-x="1503" 
d="M155 0v225v242v482v248v229h246l208.5 -299l196.5 -283l257 -369h21v474v248v229h264v-229v-248v-482v-242v-225h-243l-189 271.5l-217 310.5l-260 373h-21v-488v-242v-225h-263z" />
    <glyph glyph-name="O" unicode="O" horiz-adv-x="1630" 
d="M822 -25c-126 0 -235.496 19.6631 -328.496 58.9961s-169.667 93.333 -230 162s-105.333 147.334 -135 236.001s-44.5 182.334 -44.5 281.001c0 138 27.667 263.167 83 375.5s137.166 201.333 245.499 267s242.166 98.5 401.499 98.5c121.333 0 227.666 -19 318.999 -57
s167.666 -91 228.999 -159s107.333 -146.667 138 -236s46 -185.333 46 -288c0 -141.333 -28 -267.666 -84 -378.999s-138 -199.166 -246 -263.499s-239.333 -96.5 -394 -96.5zM817.004 207.996c74.667 0 139.333 13.5 194 40.5s100.167 64.333 136.5 112
s63.333 101.834 81 162.501s26.5 124.334 26.5 191.001c0 71.333 -9.66699 137.666 -29 198.999s-47.5 115.166 -84.5 161.499s-82.667 82.333 -137 108s-116.833 38.5 -187.5 38.5c-72.667 0 -136.667 -13.333 -192 -40s-101.5 -63.667 -138.5 -111
s-64.833 -101.5 -83.5 -162.5s-28 -125.5 -28 -193.5s9 -132.333 27 -193s45.333 -114.667 82 -162s82.667 -84.333 138 -111s120.333 -40 195 -40z" />
    <glyph glyph-name="P" unicode="P" horiz-adv-x="1284" 
d="M155 0v224.999v242v483v247v229h225.5h323.5c113.333 0 207.666 -14.333 282.999 -43s132 -74.834 170 -138.501s57 -148.5 57 -254.5c0 -91.333 -16.667 -172.166 -50 -242.499s-87.333 -125.333 -162 -165s-175 -59.5 -301 -59.5h-104.5h-110h-91.5v221h245
c66.667 0 121.334 8.33301 164.001 25s74.167 42.834 94.5 78.501s30.5 82.167 30.5 139.5c0 46.667 -7.33301 84.167 -22 112.5s-34 49.833 -58 64.5s-50.333 24.667 -79 30s-57 8 -85 8h-389l135 181v-229.5v-247.5v-439v-242v-225h-276z" />
    <glyph glyph-name="Q" unicode="Q" horiz-adv-x="1630" 
d="M1238 -344l-123 107l-120 104l-155 135l152 154l210 -166l135.5 -107l146.5 -116zM822 -25c-126 0 -235.496 19.6631 -328.496 58.9961s-169.667 93.333 -230 162s-105.333 147.334 -135 236.001s-44.5 182.334 -44.5 281.001c0 138 27.667 263.167 83 375.5
s137.166 201.333 245.499 267s242.166 98.5 401.499 98.5c121.333 0 227.666 -19 318.999 -57s167.666 -91 228.999 -159s107.333 -146.667 138 -236s46 -185.333 46 -288c0 -141.333 -28 -267.666 -84 -378.999s-138 -199.166 -246 -263.499s-239.333 -96.5 -394 -96.5z
M817.004 207.996c74.667 0 139.333 13.5 194 40.5s100.167 64.333 136.5 112s63.333 101.834 81 162.501s26.5 124.334 26.5 191.001c0 71.333 -9.66699 137.666 -29 198.999s-47.5 115.166 -84.5 161.499s-82.667 82.333 -137 108s-116.833 38.5 -187.5 38.5
c-72.667 0 -136.667 -13.333 -192 -40s-101.5 -63.667 -138.5 -111s-64.833 -101.5 -83.5 -162.5s-28 -125.5 -28 -193.5s9 -132.333 27 -193s45.333 -114.667 82 -162s82.667 -84.333 138 -111s120.333 -40 195 -40z" />
    <glyph glyph-name="R" unicode="R" horiz-adv-x="1369" 
d="M155 0l0.000976562 225v242v483v247v229h146h180.5h198.5c113.333 0 209 -12.833 287 -38.5s136.833 -67.834 176.5 -126.501s59.5 -138 59.5 -238c0 -80.667 -15.833 -154 -47.5 -220s-83 -118.5 -154 -157.5s-165.167 -58.833 -282.5 -59.5l103 112l205 -285
l101.5 -141l105 -146l90.5 -126h-320l-113.5 165.5l-106.5 154.5l-242 353l168 -140h-331v217h250c62.667 0 115.167 7.5 157.5 22.5s74.166 40 95.499 75s32 82.5 32 142.5c0 46.667 -7.16699 84 -21.5 112s-33.5 49.333 -57.5 64s-50.167 24.334 -78.5 29.001
s-56.833 7 -85.5 7h-439l197 181v-234.5v-242.5v-439v-242v-225h-274z" />
    <glyph glyph-name="S" unicode="S" horiz-adv-x="1192" 
d="M595 -25c-59.333 0 -119.836 5.16504 -181.503 15.498s-119 23.333 -172 39s-95.833 31.5 -128.5 47.5l21 254c46 -26 93.833 -48.333 143.5 -67s99.667 -33 150 -43s99.5 -15 147.5 -15c50 0 94.333 6.33301 133 19s68.834 32.334 90.501 59.001s32.5 60.667 32.5 102
c0 42 -12.833 76.667 -38.5 104s-62.667 51.166 -111 71.499s-106.166 40.5 -173.499 60.5c-88 26.667 -163.167 56.834 -225.5 90.501s-110 76.5 -143 128.5s-49.5 119 -49.5 201c0 80 18.167 151.167 54.5 213.5s90.833 111 163.5 146s163.667 52.5 273 52.5
c43.333 0 87 -2.83301 131 -8.5s86.333 -13.334 127 -23.001s78.167 -20.667 112.5 -33s64.166 -25.166 89.499 -38.499l-23 -254c-41.333 26.667 -84.833 49.334 -130.5 68.001s-90.667 32.667 -135 42s-85.166 14 -122.499 14c-44.667 0 -85.5 -6.16699 -122.5 -18.5
s-66.667 -31 -89 -56s-33.5 -56.5 -33.5 -94.5c0 -36.667 10 -67.334 30 -92.001s51.333 -46.667 94 -66s97.334 -39.333 164.001 -60c114 -34.667 204 -70.5 270 -107.5s112.833 -81.167 140.5 -132.5s41.5 -115.666 41.5 -192.999c0 -84 -18.5 -158 -55.5 -222
s-94.5 -114 -172.5 -150s-178.667 -54 -302 -54z" />
    <glyph glyph-name="T" unicode="T" horiz-adv-x="1288" 
d="M505 0v225v242v439v248v229l107 -202h-183h-204.5h-169.5v245h1178v-245h-169h-205h-183l108 202v-229v-248v-439v-242v-225h-279z" />
    <glyph glyph-name="U" unicode="U" horiz-adv-x="1458" 
d="M731 -25c-141.333 0 -255.333 23.166 -342 69.499s-149.834 112 -189.501 197s-59.5 185.167 -59.5 300.5v105v144v158v248v229h280v-229v-248v-389c0 -74 10.333 -137.333 31 -190s53.834 -92.834 99.501 -120.501s105.5 -41.5 179.5 -41.5
c75.333 0 135.5 13.833 180.5 41.5s77.333 67.834 97 120.501s29.5 116.334 29.5 191.001v388v248v229h280v-229v-248v-158.5v-145.5v-104c0 -114.667 -20.667 -214.5 -62 -299.5s-105 -150.667 -191 -197s-197 -69.5 -333 -69.5z" />
    <glyph glyph-name="V" unicode="V" horiz-adv-x="1405" 
d="M514 0l-74.5 228l-73.5 224l-146 447l-54.5 166.5l-59.5 183l-58 177.5h310l89 -301.5l87 -300.5l157 -539h22l162 542l89.5 298l89.5 301h302l-58 -178l-59 -180.5l-55 -167.5l-147 -449l-72.5 -224l-74.5 -227h-376z" />
    <glyph glyph-name="W" unicode="W" horiz-adv-x="2076" 
d="M435 0l-61 226.5l-62 223.5l-121 448l-71 260.5l-73 267.5h314l67 -290.5l67 -291.5l117 -512h22l118 519l43 188l45.5 198l42.5 189h304l68 -287.5l68 -289.5l121 -517h22l119 520l65.5 287l64.5 287h315l-73.5 -267l-71.5 -258l-125 -451l-63 -226l-62 -224h-344
l-67.5 271l-66.5 269l-122 487h-22l-118 -487l-64.5 -269.5l-65.5 -270.5h-330z" />
    <glyph glyph-name="X" unicode="X" horiz-adv-x="1399" 
d="M61 0l112 201l120 213l200 355v-69l-176 294l-123.5 205l-135.5 227h319l98 -172l91 -161l112 -196h22l108 198l88 161l92 170h309l-125.5 -222.5l-111.5 -194.5l-191 -335v77l196 -312l139 -220.5l137 -218.5h-330l-96 162l-86 146l-137 233h-23l-128 -234l-81.5 -148
l-87.5 -159h-311z" />
    <glyph glyph-name="Y" unicode="Y" horiz-adv-x="1343" 
d="M540 521l-299 549l-92.5 169.5l-102.5 186.5h318l73.5 -150l57.5 -118.5l60 -123.5l107 -220h25l105 213l63.5 129l60 121.5l74.5 148.5h309l-97.5 -180l-95.5 -175l-298 -550h-268zM534 0v225v242v289h281v-289v-242v-225h-281z" />
    <glyph glyph-name="Z" unicode="Z" horiz-adv-x="1363" 
d="M85 0v150l117 152.5l131.5 170.5l121.5 158l501 650l40 -89h-375h-246.5h-270.5v234h1160v-191l-168 -215.5l-164 -210.5l-523 -672l-26 97h341h181.5h196.5h172v-234h-1189z" />
    <glyph glyph-name="bracketleft" unicode="[" horiz-adv-x="791" 
d="M165 -242v225v242v841v248v229h581v-204h-135h-169h-153l109 161v-229v-248v-754v-241.5v-225.5l-92 160h150h153.5h140.5v-204h-585z" />
    <glyph glyph-name="backslash" unicode="\" horiz-adv-x="902" 
d="M615 0l-87 215.5l-97 240.5l-198 492l-71 176.5l-61 152l-60 149.5h246l91 -224l100 -250l200 -496l97 -240.5l87 -215.5h-247z" />
    <glyph glyph-name="bracketright" unicode="]" horiz-adv-x="791" 
d="M45 -242v204h135.5h168.5h153l-109 -161v230v247v754v242.5v224.5l92 -160h-150h-153h-141v204h585v-224.5v-242.5v-841v-247v-230h-581z" />
    <glyph glyph-name="asciicircum" unicode="^" horiz-adv-x="1249" 
d="M912 732l-137.5 213.5l-139.5 211.5h-22l-137.5 -208l-138.5 -210h-232l183.5 318l183.5 317h304l184.5 -319l183.5 -320z" />
    <glyph glyph-name="underscore" unicode="_" horiz-adv-x="841" 
d="M-20 -297v207h193.5h175.5h143h175.5h193.5v-207h-193.5h-175.5h-143h-175.5h-193.5z" />
    <glyph glyph-name="grave" unicode="`" horiz-adv-x="1200" 
d="M586 1139l-108 134.5l-110.5 136.5l-112.5 139l267 6l128 -206l129 -207z" />
    <glyph glyph-name="a" unicode="a" horiz-adv-x="1055" 
d="M376 -23c-56 0 -105.999 11.6738 -149.999 35.0068s-78.833 57.166 -104.5 101.499s-38.5 97.833 -38.5 160.5c0 55.333 9.66699 102.166 29 140.499s44.833 69.666 76.5 93.999s66.667 43.166 105 56.499s77.166 23 116.499 29l285 42
c2 46.667 -5.83301 82.667 -23.5 108s-42.834 42.833 -75.501 52.5s-70.334 14.5 -113.001 14.5c-22.667 0 -47.167 -1.83301 -73.5 -5.5s-54 -9.16699 -83 -16.5s-59.167 -16.5 -90.5 -27.5s-63.333 -24.167 -96 -39.5l-12 221c24.667 9.33301 52.5 18.666 83.5 27.999
s64.833 17.833 101.5 25.5s74.834 13.667 114.501 18s80.5 6.5 122.5 6.5c81.333 0 150.833 -11.833 208.5 -35.5s101.834 -61.334 132.501 -113.001s46 -118.834 46 -201.501v-119v-130v-110v-148.5v-163.5h-225l-15 130h-21c-18.667 -24.667 -42 -48.5 -70 -71.5
s-61.167 -42.333 -99.5 -58s-81.833 -23.5 -130.5 -23.5zM468.001 176.007c28 0 55.668 6.66699 83.001 20s52.833 32 76.5 56s43.834 52.667 60.501 86v157c-8.66699 -6 -20.167 -11.5 -34.5 -16.5s-35.5 -10.5 -63.5 -16.5s-67.333 -13.667 -118 -23
c-28.667 -5.33301 -52.834 -14.333 -72.501 -27s-34.834 -29 -45.501 -49s-16 -43 -16 -69c0 -43.333 13.167 -73.833 39.5 -91.5s56.5 -26.5 90.5 -26.5z" />
    <glyph glyph-name="b" unicode="b" horiz-adv-x="1184" 
d="M694 -25c-45.333 0 -86.499 6 -123.499 18s-70.667 29.333 -101 52s-57.833 50 -82.5 82h-19l-26 -127h-203v209v225v553v242.5v235.5l254 24v-242.5v-259.5v-96h22c18 26 40.667 48.833 68 68.5s58.333 35 93 46s73 16.5 115 16.5c88.667 0 163.667 -22.833 225 -68.5
s107.666 -108 138.999 -187s47 -167.833 47 -266.5c0 -92.667 -14.667 -179 -44 -259s-74.333 -144.333 -135 -193s-137 -73 -229 -73zM602.001 194c55.333 0 100.833 14.499 136.5 43.499s61.834 66.5 78.501 112.5s25 95.333 25 148
c0 55.333 -8.83301 105.833 -26.5 151.5s-44.334 82.334 -80.001 110.001s-80.834 41.5 -135.501 41.5c-27.333 0 -53.666 -4.16699 -78.999 -12.5s-49 -20.333 -71 -36s-41 -34.834 -57 -57.501v-373c15.333 -26 33 -48.667 53 -68s43 -34.166 69 -44.499
s55 -15.5 87 -15.5z" />
    <glyph glyph-name="c" unicode="c" horiz-adv-x="976" 
d="M601 -21c-111.333 0 -205.829 22.5 -283.496 67.5s-136.667 106.5 -177 184.5s-60.5 166.667 -60.5 266c0 100 19 189.5 57 268.5s94.167 141.333 168.5 187s166.5 68.5 276.5 68.5c39.333 0 78.333 -3 117 -9s75.167 -14.5 109.5 -25.5s64.833 -23.833 91.5 -38.5
l-20 -222c-38 21.333 -72.833 37.666 -104.5 48.999s-60.834 19 -87.501 23s-50.667 6 -72 6c-84 0 -151.167 -27 -201.5 -81s-75.5 -127 -75.5 -219c0 -60.667 12 -114.5 36 -161.5s59.5 -84 106.5 -111s105.5 -40.5 175.5 -40.5c26 0 52 2.33301 78 7
s51.667 11.834 77 21.501s49.666 22.167 72.999 37.5l15 -222c-22.667 -10.667 -48.834 -20.167 -78.501 -28.5s-62.834 -15 -99.501 -20s-77 -7.5 -121 -7.5z" />
    <glyph glyph-name="d" unicode="d" horiz-adv-x="1165" 
d="M490 -25c-92 0 -168.332 24.333 -228.999 73s-105.667 113 -135 193s-44 166.333 -44 259c0 98.667 15.667 187.5 47 266.5s77.666 141.333 138.999 187s136.333 68.5 225 68.5c42 0 80.333 -5.5 115 -16.5s65.5 -26.333 92.5 -46s49.833 -42.5 68.5 -68.5h22v96v241.5
v236.5l254 24v-242.5v-259.5v-553v-225v-209h-217l-15 133h-19c-25.333 -34.667 -53 -63.667 -83 -87s-63.333 -41 -100 -53s-77 -18 -121 -18zM582.001 194c32 0 61.0039 5.16797 87.0039 15.501s49 25.166 69 44.499s37.667 42 53 68v373
c-16 22.667 -34.833 41.834 -56.5 57.501s-45.334 27.667 -71.001 36s-52.167 12.5 -79.5 12.5c-54.667 0 -99.834 -13.833 -135.501 -41.5s-62.334 -64.334 -80.001 -110.001s-26.5 -96.167 -26.5 -151.5c0 -52.667 8.5 -102 25.5 -148s43.167 -83.5 78.5 -112.5
s80.666 -43.5 135.999 -43.5z" />
    <glyph glyph-name="e" unicode="e" horiz-adv-x="1054" 
d="M622 -25c-125.333 0 -228.002 22.666 -308.002 67.999s-139 107.666 -177 186.999s-57 170 -57 272c0 101.333 18.167 191.166 54.5 269.499s89.833 139.5 160.5 183.5s157.334 66 260.001 66c88.667 0 164.5 -16.167 227.5 -48.5s111.5 -80.666 145.5 -144.999
s51 -145.166 51 -242.499c0 -26 -0.5 -49.333 -1.5 -70s-3.16699 -41 -6.5 -61l-221 89c1.33301 9.33301 2.33301 18.833 3 28.5s1 18.834 1 27.501c0 73.333 -18.333 130.833 -55 172.5s-84 62.5 -142 62.5c-44 0 -82.667 -12.5 -116 -37.5s-59.666 -59.833 -78.999 -104.5
s-29 -96.334 -29 -155.001v-39c0 -64.667 11.333 -120.167 34 -166.5s57.667 -82 105 -107s107 -37.5 179 -37.5c28 0 59.5 2.5 94.5 7.5s70.5 12.833 106.5 23.5s69.667 24.334 101 41.001l8 -218c-25.333 -12.667 -55 -24 -89 -34s-72 -17.833 -114 -23.5
s-87.333 -8.5 -136 -8.5zM179.998 453.999v159l641 11l150 -57v-113h-791z" />
    <glyph glyph-name="f" unicode="f" horiz-adv-x="809" 
d="M213 0v209.001v225v100v129v143.5v150v148.5c0 76 10.5 139 31.5 189s49.667 89.667 86 119s77.666 50 123.999 62s95.5 18 147.5 18c28.667 0 55.834 -1.33301 81.501 -4s49.167 -6.33398 70.5 -11.001s39 -9.66699 53 -15l-21 -211
c-22.667 8.66699 -46.334 15.667 -71.001 21s-49.667 8 -75 8c-61.333 0 -107.166 -14.833 -137.499 -44.5s-45.5 -75.5 -45.5 -137.5v-55.5v-47.5l10 -46v-516v-225v-209h-254zM41 803.001v193h722v-193h-185.5h-180.5h-111h-245z" />
    <glyph glyph-name="g" unicode="g" horiz-adv-x="1094" 
d="M482 -408c-74.667 0 -137.331 6.33691 -187.998 19.0039s-90.834 30.167 -120.501 52.5s-50.834 47.333 -63.501 75s-19 55.834 -19 84.501c0 44.667 10.667 81.5 32 110.5s46.166 51.667 74.499 68s52.5 27.833 72.5 34.5v18c-10.667 3.33301 -24 10.666 -40 21.999
s-30.333 27.166 -43 47.499s-19 46.166 -19 77.499c0 22 4 43 12 63s20.833 38.5 38.5 55.5s40.5 31.833 68.5 44.5v18c-18.667 8 -40 19.833 -64 35.5s-47.167 35.834 -69.5 60.501s-40.833 54.667 -55.5 90s-22 76.666 -22 123.999c0 63.333 15.667 119.666 47 168.999
s77.666 88.333 138.999 117s137 43 227 43c35.333 0 66.333 -1.83301 93 -5.5l83 -11c28.667 -3.66699 64.334 -5.5 107.001 -5.5h285v-176h-183h-179l68 112c48 -28 83.167 -63.667 105.5 -107s33.5 -93.333 33.5 -150c0 -66.667 -14.167 -122.667 -42.5 -168
s-66.833 -81.833 -115.5 -109.5s-104 -48.167 -166 -61.5c-60 -13.333 -104.333 -25.333 -133 -36s-43 -26 -43 -46c0 -14.667 6 -25.834 18 -33.501s31.167 -13 57.5 -16s60.5 -4.5 102.5 -4.5h41c87.333 0 160.833 -7.5 220.5 -22.5s105 -40.333 136 -76
s46.5 -84.834 46.5 -147.501c0 -65.333 -16 -121.166 -48 -167.499s-74.833 -84 -128.5 -113s-112.167 -50.333 -175.5 -64s-126.666 -20.5 -189.999 -20.5zM512.003 -218.996c61.333 0 112.17 7.83496 152.503 23.502s70.666 33.834 90.999 54.501s30.5 38.667 30.5 54
c0 18 -6.33301 33.667 -19 47s-35.834 23.5 -69.501 30.5s-82.5 10.5 -146.5 10.5h-33c-30.667 -1.33301 -61.5 -7 -92.5 -17s-56.833 -23.667 -77.5 -41s-31 -37 -31 -59c0 -12.667 3.66699 -25.334 11 -38.001s18.666 -23.834 33.999 -33.501s35.5 -17.334 60.5 -23.001
s54.833 -8.5 89.5 -8.5zM482.007 503.006c18.667 2.66699 38.999 7.16699 60.999 13.5s42.833 15.5 62.5 27.5s35.667 27.333 48 46s18.5 41 18.5 67c0 36.667 -9.33301 66.667 -28 90s-42.167 40.666 -70.5 51.999s-57.166 17 -86.499 17c-30 0 -58.333 -5.66699 -85 -17
s-48.667 -28 -66 -50s-26 -48.667 -26 -80s8.16699 -58.333 24.5 -81s37.5 -41.167 63.5 -55.5s54 -24.166 84 -29.499z" />
    <glyph glyph-name="h" unicode="h" horiz-adv-x="1153" 
d="M139 0l-0.00195312 209.001v225v553v242v236l254 24v-242v-260v-139h23c20 28.667 44.833 56.334 74.5 83.001s64.334 48.5 104.001 65.5s84.834 25.5 135.501 25.5c102 0 178.167 -29.833 228.5 -89.5s75.5 -147.834 75.5 -264.501v-119.5v-114.5v-223.5v-210.5h-254
v209v212v169c0 65.333 -11.167 114.666 -33.5 147.999s-62.5 50 -120.5 50c-34 0 -65.167 -6.83301 -93.5 -20.5s-54 -32 -77 -55s-43.833 -48.833 -62.5 -77.5v-214v-213.5v-207.5h-254z" />
    <glyph glyph-name="i" unicode="i" horiz-adv-x="543" 
d="M144 0v209v225v100v173.5v147v141.5l254 8v-144v-149.5v-176.5v-100v-225v-209h-254zM268 1175c-48.667 0 -87.667 12.167 -117 36.5s-44 63.166 -44 116.499c0 48.667 14.667 85.834 44 111.501s69 38.5 119 38.5s89.5 -13.333 118.5 -40s43.5 -63.334 43.5 -110.001
c0 -53.333 -14.5 -92.166 -43.5 -116.499s-69.167 -36.5 -120.5 -36.5z" />
    <glyph glyph-name="j" unicode="j" horiz-adv-x="540" 
d="M-8 -392c36 42.667 65.167 87.3311 87.5 133.998s38.666 96.834 48.999 150.501s15.5 112.834 15.5 177.501v364v100v173.5v147v141.5l254 8v-144v-149.5v-176.5v-189v-157v-147c0 -49.333 -3.33301 -95 -10 -137s-16.5 -80.667 -29.5 -116s-29.167 -67.333 -48.5 -96
s-41.666 -54 -66.999 -76zM270 1175c-48.667 0 -87.667 12.167 -117 36.5s-44 63.166 -44 116.499c0 48.667 14.667 85.834 44 111.501s69 38.5 119 38.5s89.5 -13.333 118.5 -40s43.5 -63.334 43.5 -110.001c0 -53.333 -14.5 -92.166 -43.5 -116.499
s-69.167 -36.5 -120.5 -36.5z" />
    <glyph glyph-name="k" unicode="k" horiz-adv-x="1127" 
d="M784 0l-103.5 127.5l-105.5 125.5l-132 160h-73v172h80l114 145l105.5 133l104.5 133h299l-152 -178l-151 -177l-150 -175l-11 115l181 -221l155.5 -180.5l154.5 -179.5h-316zM139 0v209v225v553v242v236l254 24v-242v-260v-601v-195.5v-190.5h-254z" />
    <glyph glyph-name="l" unicode="l" horiz-adv-x="533" 
d="M139 0v209v225v553v242.5v235.5l254 24v-242.5v-259.5v-553v-225v-209h-254z" />
    <glyph glyph-name="m" unicode="m" horiz-adv-x="1745" 
d="M139 0v209.001v225v100v229v233l216 13l10 -176h23c22 31.333 48.5 61.5 79.5 90.5s67.167 52.667 108.5 71s88.333 27.5 141 27.5c78.667 0 139.334 -19.5 182.001 -58.5s71 -95.167 85 -168.5l17 -4c3.33301 -18.667 6 -38.167 8 -58.5s3 -41.833 3 -64.5v-119.5
v-114.5v-223.5v-210.5h-254v209v212v169c0 65.333 -10.5 114.666 -31.5 147.999s-58.833 50 -113.5 50c-32 0 -61.333 -6.83301 -88 -20.5s-50.834 -32.167 -72.501 -55.5s-41.5 -49 -59.5 -77v-214v-213.5v-207.5h-254zM1372 0.000976562l0.00292969 209.003v212v169
c0 65.333 -10.5 114.666 -31.5 147.999s-58.833 50 -113.5 50c-32.667 0 -62.334 -6.83301 -89.001 -20.5s-51 -32 -73 -55s-41.667 -48.833 -59 -77.5l-37 195h23c23.333 32.667 51.166 63.667 83.499 93s69.666 53.166 111.999 71.499s90.5 27.5 144.5 27.5
c100 0 174 -30.333 222 -91s72 -148.334 72 -263.001v-119.5v-114.5v-223.5v-210.5h-254z" />
    <glyph glyph-name="n" unicode="n" horiz-adv-x="1153" 
d="M139 0v209.002v225v100v229v233l216 13l10 -177h23c22 32 49.167 62.5 81.5 91.5s70 52.667 113 71s92.167 27.5 147.5 27.5c102 0 178.167 -29.833 228.5 -89.5s75.5 -147.834 75.5 -264.501v-119.5v-114.5v-223.5v-210.5h-254v209v212v169
c0 65.333 -11.167 114.666 -33.5 147.999s-62.5 50 -120.5 50c-34 0 -65.167 -6.83301 -93.5 -20.5s-54 -32 -77 -55s-43.833 -48.833 -62.5 -77.5v-214v-213.5v-207.5h-254z" />
    <glyph glyph-name="o" unicode="o" horiz-adv-x="1195" 
d="M602 -25c-88 0 -164.668 14.1699 -230.001 42.5029s-119.666 67.166 -162.999 116.499s-75.666 105.666 -96.999 168.999s-32 129.666 -32 198.999c0 99.333 20 188.166 60 266.499s98.5 140.166 175.5 185.499s170.833 68 281.5 68
c85.333 0 160.166 -13.167 224.499 -39.5s118.333 -63.166 162 -110.499s76.5 -102.5 98.5 -165.5s33 -131.167 33 -204.5c0 -100 -20.167 -189.667 -60.5 -269s-98.833 -142.166 -175.5 -188.499s-169 -69.5 -277 -69.5zM600.999 185.003
c57.333 0 104.832 15.168 142.499 45.501s65.834 69.5 84.501 117.5s28 99.333 28 154c0 64 -10.5 119.167 -31.5 165.5s-50.833 82 -89.5 107s-83.667 37.5 -135 37.5c-56.667 0 -104.5 -13.833 -143.5 -41.5s-68.333 -64.834 -88 -111.501s-29.5 -99 -29.5 -157
c0 -54.667 9.66699 -106 29 -154s48.5 -87.167 87.5 -117.5s87.5 -45.5 145.5 -45.5z" />
    <glyph glyph-name="p" unicode="p" horiz-adv-x="1184" 
d="M139 -392l0.000976562 213.001v229v484v229v233l227 13l7 -134h22c20 29.333 44.5 55.166 73.5 77.499s62.167 39.5 99.5 51.5s78.333 18 123 18c88.667 0 163.667 -22.833 225 -68.5s107.666 -108 138.999 -187s47 -167.833 47 -266.5c0 -92.667 -14.667 -179 -44 -259
s-74.333 -144.333 -135 -193s-137 -73 -229 -73c-42 0 -80.167 5.5 -114.5 16.5s-65.5 26.833 -93.5 47.5s-53.333 45.667 -76 75h-17v-77v-213.5v-207.5zM602.001 194.001c55.333 0 100.833 14.499 136.5 43.499s61.834 66.5 78.501 112.5s25 95.333 25 148
c0 55.333 -8.83301 105.833 -26.5 151.5s-44.334 82.334 -80.001 110.001s-80.834 41.5 -135.501 41.5c-27.333 0 -53.666 -4.16699 -78.999 -12.5s-49 -20.333 -71 -36s-41 -34.834 -57 -57.501v-373c15.333 -26 33 -48.667 53 -68s43 -34.166 69 -44.499
s55 -15.5 87 -15.5z" />
    <glyph glyph-name="q" unicode="q" horiz-adv-x="1174" 
d="M791 -392l0.000976562 211.5v217.5v78h-17c-23.333 -29.333 -49 -54.5 -77 -75.5s-59 -37 -93 -48s-72 -16.5 -114 -16.5c-92 0 -168.333 24.333 -229 73s-105.667 113 -135 193s-44 166.333 -44 259c0 98.667 15.667 187.5 47 266.5s77.666 141.333 138.999 187
s136.333 68.5 225 68.5c44.667 0 85.667 -6 123 -18s70.5 -29 99.5 -51s53.5 -48 73.5 -78h22l7 121l227 13v-236.5v-238.5v-484v-225v-209zM582.001 194c32 0 61.0039 5.16797 87.0039 15.501s49 25.166 69 44.499s37.667 42 53 68v373
c-16 22.667 -34.833 41.834 -56.5 57.501s-45.334 27.667 -71.001 36s-52.167 12.5 -79.5 12.5c-54.667 0 -99.834 -13.833 -135.501 -41.5s-62.334 -64.334 -80.001 -110.001s-26.5 -96.167 -26.5 -151.5c0 -52.667 8.5 -102 25.5 -148s43.167 -83.5 78.5 -112.5
s80.666 -43.5 135.999 -43.5z" />
    <glyph glyph-name="r" unicode="r" horiz-adv-x="816" 
d="M139 0l0.000976562 209.002v225v100v229v233l216 13l10 -190h22c26.667 56.667 56.334 99.5 89.001 128.5s66.167 48.667 100.5 59s66.5 15.5 96.5 15.5c16 0 33.5 -1.33301 52.5 -4s36.833 -7.33398 53.5 -14.001l-23 -249c-24 3.33301 -45.833 5.83301 -65.5 7.5
s-41.5 2.5 -65.5 2.5c-18.667 0 -38.667 -2.33301 -60 -7s-42.333 -13.834 -63 -27.501s-40.334 -33.5 -59.001 -59.5s-35.334 -60 -50.001 -102v-148v-213.5v-207.5h-254z" />
    <glyph glyph-name="s" unicode="s" horiz-adv-x="925" 
d="M448 -25c-46 0 -90.4941 3 -133.494 9s-83.167 14.333 -120.5 25s-70 22.667 -98 36l17 224c30 -18 62.833 -33.5 98.5 -46.5s72.834 -23 111.501 -30s77 -10.5 115 -10.5c29.333 0 56 2.5 80 7.5s43.167 15.167 57.5 30.5s21.5 38 21.5 68
c0 20.667 -7.16699 37.667 -21.5 51s-37.833 25.666 -70.5 36.999s-77.334 24.333 -134.001 39s-105.5 33.5 -146.5 56.5s-72.333 53.167 -94 90.5s-32.5 85.666 -32.5 144.999c0 100 32 177.333 96 232s150.333 82 259 82c46 0 90.667 -3.5 134 -10.5s82.833 -16 118.5 -27
s65.5 -22.167 89.5 -33.5l-18 -225c-30.667 19.333 -64 35.5 -100 48.5s-70.667 22.833 -104 29.5s-61 10 -83 10c-24.667 0 -47 -3.16699 -67 -9.5s-35.833 -16.833 -47.5 -31.5s-17.5 -33.667 -17.5 -57c0 -19.333 4.66699 -36.166 14 -50.499s27.166 -27.5 53.499 -39.5
s65.166 -25.333 116.499 -40c69.333 -19.333 127.166 -39.666 173.499 -60.999s81.166 -49.5 104.499 -84.5s35 -82.5 35 -142.5c0 -64 -13.833 -120 -41.5 -168s-71.334 -85.667 -131.001 -113s-137.834 -41 -234.501 -41z" />
    <glyph glyph-name="t" unicode="t" horiz-adv-x="836" 
d="M549 -25c-71.333 0 -131.999 11.167 -181.999 33.5s-88.333 57.833 -115 106.5s-40 112 -40 190v147v151.5v158.5v168v201v188l251 47v-143.5v-137.5v-155v-549c0 -64.667 12.5 -113.5 37.5 -146.5s64.833 -49.5 119.5 -49.5c22.667 0 47.167 4 73.5 12
s51.166 20.333 74.499 37l17 -209c-16.667 -10.667 -37.5 -19.667 -62.5 -27s-52.5 -13 -82.5 -17s-60.333 -6 -91 -6zM41.001 803v193h737v-193h-193h-188h-111h-245z" />
    <glyph glyph-name="u" unicode="u" horiz-adv-x="1133" 
d="M423 -25c-102 0 -178.17 29.8311 -228.503 89.498s-75.5 147.834 -75.5 264.501v115v100v171v142v139l254 8v-211.5v-218.5v-172c0 -65.333 11.167 -114.666 33.5 -147.999s62.5 -50 120.5 -50c32.667 0 62.834 6.83301 90.501 20.5s52.834 32 75.501 55
s43.334 48.833 62.001 77.5v217v214.5v207.5h254v-211.5v-240.5v-110v-225v-209h-216l-10 165h-23c-22 -32 -49 -62.5 -81 -91.5s-69.333 -52.667 -112 -71s-90.667 -27.5 -144 -27.5z" />
    <glyph glyph-name="v" unicode="v" horiz-adv-x="1066" 
d="M395 0l-67.5 189.5l-67.5 187.5l-64 176l-80 221.5l-80 221.5l274 8l65.5 -222.5l65.5 -223.5l83 -283h23l83 284l66.5 223.5l63.5 213.5h270l-79.5 -222l-80.5 -223l-64 -178l-66.5 -186l-67.5 -187h-277z" />
    <glyph glyph-name="w" unicode="w" horiz-adv-x="1641" 
d="M350 0l-58.5 188.5l-60.5 190.5l-56 177l-69.5 220l-69.5 220l270 8l60.5 -230.5l60.5 -231.5l73 -277h20l70 282l56 224l57 225h238l57 -222l57 -225l72 -284h20l73 289l57.5 225.5l54.5 216.5h273l-70 -220l-70 -220l-55 -175l-61.5 -192l-60.5 -189h-288l-56 204.5
l-56 201.5l-68 247h-20l-66 -251l-53.5 -199.5l-54.5 -202.5h-276z" />
    <glyph glyph-name="x" unicode="x" horiz-adv-x="1111" 
d="M46 0l72 120l58.5 96.5l58.5 96.5l139 229l1 -59l-138 214l-61 95l-60 93l-71 111l284 8l66 -116l62 -111l84 -147h19l82 146l59.5 108.5l61.5 111.5h289l-75 -112l-58.5 -88.5l-61.5 -93.5l-143 -215l-13 57l159 -234l97 -141.5l114 -168.5h-304l-62 106l-62 107
l-93 160h-19l-83 -153l-60 -109l-61 -111h-281z" />
    <glyph glyph-name="y" unicode="y" horiz-adv-x="1077" 
d="M240 -392l82.5 205l81.5 204v-51l-73.5 207.5l-73.5 204.5l-64 180l-78.5 219.5l-78.5 218.5l274 8l64.5 -225l64.5 -226l81 -286h23l89 286l69 221.5l69 221.5h271l-60 -155l-64 -165l-84 -215l-109 -280l-125.5 -323.5l-94.5 -241.5z" />
    <glyph glyph-name="z" unicode="z" horiz-adv-x="1019" 
d="M68 0v122l151.5 198.5l141.5 185.5l286 373l32 -78h-202h-117.5h-143h-141.5v195h850v-144l-83 -107.5l-97 -125.5l-96 -124l-278 -362l-25 62h221h116.5h139h132.5v-195h-887z" />
    <glyph glyph-name="braceleft" unicode="{" horiz-adv-x="863" 
d="M631 -242c-74.667 0 -138.832 12 -192.499 36s-94.834 59.333 -123.501 106s-43 103.334 -43 170.001v61.5v60.5v60.5v60.5v61c0 43.333 -7.66699 78.5 -23 105.5s-35.666 46.833 -60.999 59.5s-53.333 19 -84 19h-74v184h74c30.667 0 58.667 6.33301 84 19
s45.666 32.667 60.999 60s23 62.333 23 105v61.5v60.5v60.5v61v61.5c0 100 31.833 177 95.5 231s151.5 81 263.5 81h187v-204h-85h-65c-53.333 0 -93.833 -13 -121.5 -39s-41.5 -63.667 -41.5 -113v-253c0 -52 -6.83301 -95.167 -20.5 -129.5s-33.667 -62.666 -60 -84.999
s-58.833 -41.833 -97.5 -58.5v-21c38.667 -16.667 71.167 -36.334 97.5 -59.001s46.333 -51.334 60 -86.001s20.5 -77.667 20.5 -129v-252c0 -49.333 13.833 -87 41.5 -113s68.167 -39 121.5 -39h65h90v-204h-192z" />
    <glyph glyph-name="bar" unicode="|" horiz-adv-x="553" 
d="M165 -318v172.5v164v160.5v161v564v161v160.5v164.5v172h222v-172v-164.5v-160.5v-161v-564v-161v-160.5v-164v-172.5h-222z" />
    <glyph glyph-name="braceright" unicode="}" horiz-adv-x="863" 
d="M45 -242l-0.000976562 204h85.5h64.5c53.333 0 94 13 122 39s42 63.667 42 113v253c0 52 6.66699 95.167 20 129.5s33.166 62.666 59.499 84.999s58.833 41.833 97.5 58.5v21c-38.667 16.667 -71.167 36.334 -97.5 59.001s-46.166 51.334 -59.499 86.001
s-20 77.667 -20 129v252c0 49.333 -14 87 -42 113s-68.667 39 -122 39h-64.5h-90.5v204h193c74 0 137.833 -12 191.5 -36s94.834 -59.333 123.501 -106s43 -103.334 43 -170.001v-61.5v-60.5v-60.5v-60.5v-61c0 -42.667 7.66699 -77.667 23 -105s35.666 -47.333 60.999 -60
s53.333 -19 84 -19h74v-184h-74c-30.667 0 -58.667 -6.33301 -84 -19s-45.666 -32.5 -60.999 -59.5s-23 -62.167 -23 -105.5v-61.5v-60.5v-60.5v-61v-61.5c0 -100 -31.667 -177 -95 -231s-151 -81 -263 -81h-188z" />
    <glyph glyph-name="asciitilde" unicode="~" horiz-adv-x="1150" 
d="M803 422c-46 0 -88.8301 7.33203 -128.497 21.999s-76.5 31.834 -110.5 51.501s-66 36.834 -96 51.501s-58.667 22 -86 22c-33.333 0 -60.5 -9.5 -81.5 -28.5s-32.833 -46.833 -35.5 -83.5h-155c0 104 22.667 185.5 68 244.5s104.666 88.5 177.999 88.5
c46 0 88.333 -7.5 127 -22.5s74.667 -32.167 108 -51.5s65.166 -36.5 95.499 -51.5s59.5 -22.5 87.5 -22.5c32.667 0 58.667 9.5 78 28.5s30.666 47.167 33.999 84.5h155c0 -104.667 -22 -186.334 -66 -245.001s-101.333 -88 -172 -88z" />
    <glyph glyph-name="uni00A0" unicode="&#xa0;" horiz-adv-x="382" 
 />
    <glyph glyph-name="exclamdown" unicode="&#xa1;" horiz-adv-x="510" 
d="M110 -396c8 156.667 15.5 314.501 22.5 473.501s12.833 318.833 17.5 479.5l206 3c4.66699 -160.667 10.5 -319.834 17.5 -477.501l21.5 -470.5zM254 776.001c-34 0 -63.667 7.16699 -89 21.5s-44.666 33.833 -57.999 58.5s-20 52.667 -20 84c0 48 15.167 87 45.5 117
s71.166 45 122.499 45c35.333 0 65.5 -6.83301 90.5 -20.5s44.167 -32.667 57.5 -57s20 -52.5 20 -84.5c0 -46.667 -14.833 -85.667 -44.5 -117s-71.167 -47 -124.5 -47z" />
    <glyph glyph-name="cent" unicode="&#xa2;" horiz-adv-x="976" 
d="M479 -274v172.5v164v160.5v161v209v161v160.5v164.5v172h180v-172v-164.5v-160.5v-161v-209v-161.5v-161.5v-164.5v-170.5h-180zM601 -21c-111.333 0 -205.829 22.5 -283.496 67.5s-136.667 106.5 -177 184.5s-60.5 166.667 -60.5 266c0 100 19 189.5 57 268.5
s94.167 141.333 168.5 187s166.5 68.5 276.5 68.5c39.333 0 78.333 -3 117 -9s75.167 -14.5 109.5 -25.5s64.833 -23.833 91.5 -38.5l-20 -222c-38 21.333 -72.833 37.666 -104.5 48.999s-60.834 19 -87.501 23s-50.667 6 -72 6c-84 0 -151.167 -27 -201.5 -81
s-75.5 -127 -75.5 -219c0 -60.667 12 -114.5 36 -161.5s59.5 -84 106.5 -111s105.5 -40.5 175.5 -40.5c26 0 52 2.33301 78 7s51.667 11.834 77 21.501s49.666 22.167 72.999 37.5l15 -222c-22.667 -10.667 -48.834 -20.167 -78.501 -28.5s-62.834 -15 -99.501 -20
s-77 -7.5 -121 -7.5z" />
    <glyph glyph-name="sterling" unicode="&#xa3;" horiz-adv-x="1202" 
d="M110 0v139.997c40.667 34 71.667 69.5 93 106.5s35.833 74.667 43.5 113s11.5 76.5 11.5 114.5v207v207c0 168.667 42.667 296.5 128 383.5s211.666 130.5 378.999 130.5c40 0 79.667 -3 119 -9s76.166 -14.5 110.499 -25.5s64.833 -23.833 91.5 -38.5l-25 -228
c-39.333 20.667 -75.666 36.334 -108.999 47.001s-63.666 17.834 -90.999 21.501s-52 5.5 -74 5.5c-85.333 0 -150 -24.167 -194 -72.5s-66 -123.5 -66 -225.5v-327c0 -45.333 -5.33301 -88.666 -16 -129.999s-30.667 -81.5 -60 -120.5s-72 -77.833 -128 -116.5l-20 49h275
h219.5h176.5h164v-232h-1028zM109 649.997v179h193.5h174.5h74h176h193v-179h-193h-176h-74h-174.5h-193.5z" />
    <glyph glyph-name="currency" unicode="&#xa4;" horiz-adv-x="1285" 
d="M639 206c-64.667 0 -124.333 9.66699 -179 29s-102 47.666 -142 84.999s-71 83 -93 137s-33 115.667 -33 185c0 86 19.167 161.5 57.5 226.5s91.5 115.667 159.5 152s146 54.5 234 54.5c65.333 0 125.333 -10.667 180 -32s102 -51.166 142 -89.499s71 -83.833 93 -136.5
s33 -111 33 -175c0 -93.333 -19.333 -172.333 -58 -237s-92 -114 -160 -148s-146 -51 -234 -51zM231.001 69l-160 160l136.5 137l123.5 124l160 -161l-123 -123zM640.001 416c64 0 117.334 18.668 160.001 56.001s64 93.666 64 168.999c0 46 -9.66699 85.833 -29 119.5
s-45.666 59.667 -78.999 78s-71.333 27.5 -114 27.5c-42 0 -79.833 -9 -113.5 -27s-60.334 -43.833 -80.001 -77.5s-29.5 -73.834 -29.5 -120.501c0 -50.667 9.83301 -92.667 29.5 -126s46.167 -58.166 79.5 -74.499s70.666 -24.5 111.999 -24.5zM333.002 794.001
l-123.5 124.5l-136.5 136.5l156 156l137 -136l123 -125zM1056 71.001l-136 137l-124 123l156 157l124 -124l136 -137zM954.002 792.001l-160 161l124 124l136 136l160 -160l-136 -136.5z" />
    <glyph glyph-name="yen" unicode="&#xa5;" horiz-adv-x="1283" 
d="M515 507l-284 526l-51.5 95.5l-56 102.5l-77.5 143h304l69 -143.5l54.5 -112.5l56.5 -118l101 -213h24l105 215l57.5 118l55.5 113.5l69 140.5h295l-91 -170.5l-92 -169.5l-283 -527h-256zM510 0v216.5v231.5v277h267v-277v-231.5v-216.5h-267zM148 254v159h193.5h174.5
h255h175h193v-159h-193h-175h-255h-174.5h-193.5zM148 564v159h193.5h174.5h255h175h193v-159h-193h-175h-255h-174.5h-193.5z" />
    <glyph glyph-name="brokenbar" unicode="&#xa6;" horiz-adv-x="553" 
d="M165 722v182v161v160.5v164.5v172h222v-172v-164.5v-160.5v-161v-182h-222zM165 -318v172.5v164v160.5v161v182h222v-182v-161v-160.5v-164v-172.5h-222z" />
    <glyph glyph-name="section" unicode="&#xa7;" horiz-adv-x="1137" 
d="M495 -257c-55.333 0 -109 3.83496 -161 11.502s-100.333 18.167 -145 31.5s-83.334 28.666 -116.001 45.999l17 221c36.667 -22.667 76.334 -42 119.001 -58s86.167 -28.5 130.5 -37.5s87.833 -13.5 130.5 -13.5c42 0 79.833 4.66699 113.5 14s60.5 25.333 80.5 48
s30 53.667 30 93c0 31.333 -9 56.833 -27 76.5s-48 37.667 -90 54s-99 35.5 -171 57.5c-71.333 21.333 -131.333 46.833 -180 76.5s-85.5 65.334 -110.5 107.001s-37.5 91.5 -37.5 149.5c0 51.333 11 99.5 33 144.5s54.167 84.167 96.5 117.5s94.166 58 155.499 74l123 -150
c-24.667 -4.66699 -48.167 -14.667 -70.5 -30s-40.666 -34.833 -54.999 -58.5s-21.5 -50.834 -21.5 -81.501c0 -32.667 7.83301 -60.334 23.5 -83.001s40.667 -42.667 75 -60s79.833 -34 136.5 -50c84 -24 153.833 -50 209.5 -78s97.667 -63.167 126 -105.5
s42.5 -97.5 42.5 -165.5s-15.833 -128.5 -47.5 -181.5s-81.167 -94.5 -148.5 -124.5s-154.333 -45 -261 -45zM804 251.002l-133.999 134.002c43.333 11.333 78.333 33.166 105 65.499s40 69.5 40 111.5c0 35.333 -8.83301 64.5 -26.5 87.5s-47.5 43.667 -89.5 62
s-99 37.166 -171 56.499c-66.667 18.667 -124.667 42.334 -174 71.001s-87.666 65 -114.999 109s-41 97.667 -41 161c0 104.667 36 188.334 108 251.001s171.667 94 299 94c53.333 0 104.666 -4.16699 153.999 -12.5s94.5 -19 135.5 -32s76.833 -27.167 107.5 -42.5
l-17 -220c-40 26 -79.833 46.667 -119.5 62s-77.334 26.166 -113.001 32.499s-66.834 9.5 -93.501 9.5c-20.667 0 -42.667 -2.16699 -66 -6.5s-45 -12 -65 -23s-36.167 -26.167 -48.5 -45.5s-18.5 -44 -18.5 -74c0 -26.667 7.83301 -50.167 23.5 -70.5
s40.667 -38.833 75 -55.5s79.833 -33.334 136.5 -50.001c83.333 -24 153 -50.333 209 -79s98.167 -63.5 126.5 -104.5s42.5 -91.5 42.5 -151.5c0 -76 -21.667 -143.833 -65 -203.5s-111.666 -105.167 -204.999 -136.5z" />
    <glyph glyph-name="dieresis" unicode="&#xa8;" horiz-adv-x="1200" 
d="M819 1165c-43.333 0 -77.5 12.167 -102.5 36.5s-37.5 60.833 -37.5 109.5c0 44 12.667 78.833 38 104.5s60 38.5 104 38.5s78.5 -13.333 103.5 -40s37.5 -61 37.5 -103c0 -48.667 -12.5 -85.167 -37.5 -109.5s-60.167 -36.5 -105.5 -36.5zM375 1165
c-43.333 0 -77.667 12.167 -103 36.5s-38 60.833 -38 109.5c0 44 12.833 78.833 38.5 104.5s60.5 38.5 104.5 38.5s78.5 -13.333 103.5 -40s37.5 -61 37.5 -103c0 -48.667 -12.667 -85.167 -38 -109.5s-60.333 -36.5 -105 -36.5z" />
    <glyph glyph-name="copyright" unicode="&#xa9;" horiz-adv-x="1616" 
d="M815 -25c-124.667 0 -232.836 19.001 -324.503 57.001s-167.5 90.167 -227.5 156.5s-104.833 142.333 -134.5 228s-44.5 176.167 -44.5 271.5c0 133.333 27.5 254 82.5 362s136.333 193.667 244 257s239.834 95 396.501 95c158.667 0 291.834 -32 399.501 -96
s188.834 -149.833 243.501 -257.5s82 -227.5 82 -359.5c0 -136.667 -28.167 -258.834 -84.5 -366.501s-137.833 -192.5 -244.5 -254.5s-236 -93 -388 -93zM835.998 311.001c-80.667 0 -149.167 16.3311 -205.5 48.998s-99.166 77.334 -128.499 134.001s-44 121 -44 193
s13.833 136.667 41.5 194s68.5 102.5 122.5 135.5s120.667 49.5 200 49.5c28 0 56.167 -2.16699 84.5 -6.5s55 -10.5 80 -18.5s47.167 -17.333 66.5 -28l-15 -168c-40.667 24.667 -77.167 40.5 -109.5 47.5s-59.833 10.5 -82.5 10.5c-57.333 0 -104 -18.333 -140 -55
s-54 -88.667 -54 -156s19.333 -121.166 58 -161.499s93.667 -60.5 165 -60.5c29.333 0 57.833 4 85.5 12s54.5 20.333 80.5 37l12 -167c-16.667 -8 -35.834 -15 -57.501 -21s-45.667 -10.833 -72 -14.5s-55.5 -5.5 -87.5 -5.5zM813.998 120.999
c118.667 0 220.001 23.8311 304.001 71.498s148.333 114 193 199s67 184.167 67 297.5c0 111.333 -21.833 209.666 -65.5 294.999s-108 152 -193 200s-188.833 72 -311.5 72c-122 0 -225.5 -24.167 -310.5 -72.5s-149.5 -115.166 -193.5 -200.499s-66 -183.666 -66 -294.999
c0 -109.333 21.5 -206.666 64.5 -291.999s107.167 -152.5 192.5 -201.5s191.666 -73.5 318.999 -73.5z" />
    <glyph glyph-name="ordfeminine" unicode="&#xaa;" horiz-adv-x="803" 
d="M286 661c-70 0 -123.336 20.165 -160.003 60.498s-55 89.5 -55 147.5c0 44 7.5 81.333 22.5 112s34.333 55.834 58 75.501s49.334 35 77.001 46s53.834 18.833 78.501 23.5l229 45c2 30.667 -3.33301 55 -16 73s-31.334 30.667 -56.001 38s-54.334 11 -89.001 11
c-22 0 -46.667 -2.33301 -74 -7s-56.666 -12.167 -87.999 -22.5s-63.666 -24.166 -96.999 -41.499l-11 174c19.333 7.33301 41 14.333 65 21s50 12.834 78 18.501s56.833 10.167 86.5 13.5s59.834 5 90.501 5c87.333 0 156.5 -20.833 207.5 -62.5
s76.5 -109.834 76.5 -204.501v-89.5v-98.5v-72v-117.5v-132.5h-160l-11 118h-15c-14.667 -24.667 -33.834 -47.167 -57.501 -67.5s-50.667 -36.5 -81 -48.5s-63.166 -18 -98.499 -18zM364.997 813.998c20 0 40.334 3.83398 61.001 11.501s40 19.334 58 35.001
s33.667 36.167 47 61.5v154c-6.66699 -4.66699 -15.167 -9.33398 -25.5 -14.001s-25 -9.66699 -44 -15s-45.5 -12 -79.5 -20c-22 -4.66699 -42.833 -11.334 -62.5 -20.001s-35.834 -20.667 -48.501 -36s-19 -35 -19 -59c0 -34.667 11 -59.667 33 -75s48.667 -23 80 -23z" />
    <glyph glyph-name="guillemotleft" unicode="&#xab;" horiz-adv-x="1239" 
d="M918 -4l-178.5 255.5l-179.5 254.5l179.5 255.5l178.5 254.5l251 -15l-171 -243l-171 -244v-22l171 -241l171 -242zM408 -4l-178.5 255.5l-179.5 254.5l179.5 255.5l178.5 254.5l251 -15l-171 -243l-171 -244v-22l171 -241l171 -242z" />
    <glyph glyph-name="logicalnot" unicode="&#xac;" horiz-adv-x="1150" 
d="M813 299v193v175v173l187 -157h-171.5h-156.5h-194h-174.5h-193.5v222h193.5h174.5h194h175.5h193.5v-238v-175v-193h-228z" />
    <glyph glyph-name="uni00AD" unicode="&#xad;" horiz-adv-x="850" 
d="M110 488v222h165.5h149.5h150h165v-222h-165h-150h-149.5h-165.5z" />
    <glyph glyph-name="registered" unicode="&#xae;" horiz-adv-x="1150" 
d="M580 491c-118.667 0 -216 23.333 -292 70s-132.167 108 -168.5 184s-54.5 158.333 -54.5 247c0 93.333 18.833 177.833 56.5 253.5s94.167 135.834 169.5 180.501s169.333 67 282 67c114 0 209 -22.5 285 -67.5s132.833 -105.333 170.5 -181s56.5 -159.5 56.5 -251.5
c0 -96 -19.5 -181.833 -58.5 -257.5s-96.167 -135.334 -171.5 -179.001s-167 -65.5 -275 -65.5zM367 722v92v96v192v97.5v92.5l117 -18v-88v-92v-184v-96v-92h-117zM579 580c89.333 0 164.499 17.667 225.499 53s106.833 84 137.5 146s46 133.333 46 214
c0 78 -14.833 148 -44.5 210s-75.167 111.167 -136.5 147.5s-139 54.5 -233 54.5c-93.333 0 -170.5 -18 -231.5 -54s-106.5 -85.167 -136.5 -147.5s-45 -132.833 -45 -211.5c0 -56.667 8.16699 -110 24.5 -160s41.5 -93.833 75.5 -131.5s77.333 -67.167 130 -88.5
s115.334 -32 188.001 -32zM702.999 722l-48 72.501l-45 66.5l-87 130l71 -44h-134v79h94c34.667 0 62.667 6.66699 84 20s32 37.666 32 72.999c0 25.333 -5.66699 43.5 -17 54.5s-24.5 17.667 -39.5 20s-28.5 3.5 -40.5 3.5h-127l-79 95h89.5h121.5
c68 0 120.5 -12.5 157.5 -37.5s55.5 -66.167 55.5 -123.5c0 -47.333 -14.333 -87.833 -43 -121.5s-79 -50.5 -151 -50.5l47 43l80 -114l61 -88l54 -78h-136z" />
    <glyph glyph-name="macron" unicode="&#xaf;" horiz-adv-x="1200" 
d="M268 1212v189h158h174h174h158v-189h-158h-174h-174h-158z" />
    <glyph glyph-name="degree" unicode="&#xb0;" horiz-adv-x="998" 
d="M498 609c-84 0 -158.169 16 -222.502 48s-114.666 77.667 -150.999 137s-54.5 130 -54.5 212c0 74.667 18.167 142 54.5 202s86.833 107.333 151.5 142s139.334 52 224.001 52s159.167 -17.333 223.5 -52s114.5 -82 150.5 -142s54 -127.333 54 -202
c0 -82 -18 -152.667 -54 -212s-86.333 -105 -151 -137s-139.667 -48 -225 -48zM497.998 790c68 0 121 19.166 159 57.499s57 90.5 57 156.5c0 40.667 -8.5 77.334 -25.5 110.001s-41.5 58.667 -73.5 78s-70.333 29 -115 29c-66.667 0 -119.5 -20.667 -158.5 -62
s-58.5 -93 -58.5 -155c0 -44 8.83301 -82 26.5 -114s42.5 -56.667 74.5 -74s70 -26 114 -26z" />
    <glyph glyph-name="plusminus" unicode="&#xb1;" horiz-adv-x="1150" 
d="M110 0v222h193.5h174.5h194h175.5h193.5v-222h-193.5h-175.5h-194h-174.5h-193.5zM110 727v222h193.5h174.5h194h175.5h193.5v-222h-193.5h-175.5h-194h-174.5h-193.5zM461 363v193.5v174.5v214v175.5v192.5h228v-192.5v-175.5v-214v-174.5v-193.5h-228z" />
    <glyph glyph-name="uni00B2" unicode="&#xb2;" horiz-adv-x="825" 
d="M66 602l0.00195312 133.998l80.5 64l80.5 64c63.333 48.667 117 93.834 161 135.501s77.667 81.667 101 120s35 77.5 35 117.5c0 44.667 -13.333 78.334 -40 101.001s-68.334 34 -125.001 34c-29.333 0 -59.666 -4 -90.999 -12s-63 -19.333 -95 -34
s-63.333 -31.667 -94 -51l-18 195c22 10 46.333 19.667 73 29s54.667 17.5 84 24.5s59.666 12.5 90.999 16.5s62.666 6 93.999 6c71.333 0 132 -11.167 182 -33.5s87.833 -54.333 113.5 -96s38.5 -91.167 38.5 -148.5c0 -48 -10.833 -95.167 -32.5 -141.5
s-54.5 -93 -98.5 -140s-100 -94.833 -168 -143.5l-146 -107l-27 42h144h171.5h169.5v-176h-684z" />
    <glyph glyph-name="uni00B3" unicode="&#xb3;" horiz-adv-x="847" 
d="M407 581c-32.667 0 -65.166 1.66602 -97.499 4.99902s-63.5 8.33301 -93.5 15s-58 14.334 -84 23.001s-49.333 18 -70 28l16 181c26 -12.667 52 -24.167 78 -34.5s51.833 -19.166 77.5 -26.499s51 -12.833 76 -16.5s49.5 -5.5 73.5 -5.5c66.667 0 114 11.833 142 35.5
s42 54.5 42 92.5c0 42.667 -18.667 75.334 -56 98.001s-91 34 -161 34h-55.5h-55.5v129h49.5h50.5c68.667 0 119.167 11.667 151.5 35s48.5 54.333 48.5 93c0 37.333 -14.5 65 -43.5 83s-68.167 27 -117.5 27c-30.667 0 -61.667 -3.83301 -93 -11.5
s-62.833 -18.334 -94.5 -32.001s-62.5 -29.5 -92.5 -47.5l-17 185c21.333 10 44.666 19.5 69.999 28.5s52.333 17 81 24s58.334 12.5 89.001 16.5s61.667 6 93 6c70 0 130.167 -9.66699 180.5 -29s89 -47 116 -83s40.5 -78 40.5 -126c0 -56 -17.833 -101.333 -53.5 -136
s-78.167 -57.334 -127.5 -68.001v-15c33.333 -6 66.166 -18.167 98.499 -36.5s59 -43.833 80 -76.5s31.5 -73.334 31.5 -122.001c0 -79.333 -30.5 -144.666 -91.5 -195.999s-154.833 -77 -281.5 -77z" />
    <glyph glyph-name="acute" unicode="&#xb4;" horiz-adv-x="1200" 
d="M421 1139l129 205.5l127 204.5l268 6l-113 -140.5l-110 -137.5l-108 -135z" />
    <glyph glyph-name="uni00B5" unicode="&#xb5;" horiz-adv-x="1158" 
d="M139 -392l0.000976562 212.999v229v494v171v142v139l254 8v-142v-141v-147v-172c0 -65.333 11.167 -114.666 33.5 -147.999s62.5 -50 120.5 -50c32.667 0 62.667 6.83301 90 20.5s52.5 32 75.5 55s43.833 48.833 62.5 77.5v217v214.5v207.5h254v-141v-144.5v-166.5v-196
v-163.5v-184.5h-215c-2 27.333 -4.33301 55 -7 83l-8 83h-23c-18.667 -32 -41.834 -62.5 -69.501 -91.5s-60.167 -52.833 -97.5 -71.5s-79 -28 -125 -28c-45.333 0 -84.333 7.83301 -117 23.5s-59.667 40.5 -81 74.5h107v-36v-213.5v-207.5z" />
    <glyph glyph-name="paragraph" unicode="&#xb6;" horiz-adv-x="1137" 
d="M438 576c-84 0 -154.5 20.168 -211.5 60.501s-99.833 93.166 -128.5 158.499s-43 136.333 -43 213c0 80.667 15.5 152.5 46.5 215.5s75.167 112.5 132.5 148.5s125.333 54 204 54h41v-850h-41zM446 -350.999v336.5v321.5v461v321.5v336.5h161v-336.5v-321.5v-461v-321.5
v-336.5h-161zM767 -350.999v336.5v321.5v461v321.5v336.5h161v-336.5v-321.5v-461v-321.5v-336.5h-161zM525 1275v151h194h174.5h193.5v-151h-193.5h-174.5h-194z" />
    <glyph glyph-name="periodcentered" unicode="&#xb7;" horiz-adv-x="510" 
d="M254 460c-34 0 -63.667 7.16504 -89 21.498s-44.666 34 -57.999 59s-20 53.167 -20 84.5c0 47.333 15.167 86 45.5 116s71.166 45 122.499 45c35.333 0 65.5 -6.83301 90.5 -20.5s44.167 -32.667 57.5 -57s20 -52.166 20 -83.499
c0 -47.333 -14.833 -86.666 -44.5 -117.999s-71.167 -47 -124.5 -47z" />
    <glyph glyph-name="cedilla" unicode="&#xb8;" horiz-adv-x="1200" 
d="M546 -438c-16.667 0 -33.1689 0.668945 -49.502 2.00195s-31.666 3.33301 -45.999 6s-26.5 5.66699 -36.5 9v146c8.66699 -3.33301 21.5 -6.33301 38.5 -9s35.833 -4 56.5 -4c40 0 68.667 6.5 86 19.5s26 30.167 26 51.5c0 12.667 -4.16699 24.667 -12.5 36
s-23 21.666 -44 30.999s-51.167 17 -90.5 23l74 175h136v-48l-45 -104c46 -8 82.333 -19.833 109 -35.5s45.5 -34.334 56.5 -56.001s16.5 -45.167 16.5 -70.5c0 -32 -8.83301 -61 -26.5 -87s-46.667 -46.667 -87 -62s-94.166 -23 -161.499 -23z" />
    <glyph glyph-name="uni00B9" unicode="&#xb9;" horiz-adv-x="661" 
d="M84 1191l-46 159l193.5 90.5l189.5 87.5l-7 -183l-156 -72.5zM314 602v140.5v151.5v266v140.5v138.5l107 89l97 -5v-161v-163v-305v-151.5v-140.5h-204z" />
    <glyph glyph-name="ordmasculine" unicode="&#xba;" horiz-adv-x="916" 
d="M461 659c-88.667 0 -162.333 18.667 -221 56s-102.5 86.5 -131.5 147.5s-43.5 126.833 -43.5 197.5c0 74.667 15.167 141.667 45.5 201s74.666 106.333 132.999 141s129.5 52 213.5 52c86 0 158.333 -17.333 217 -52s102.834 -81.834 132.501 -141.501
s44.5 -126.5 44.5 -200.5c0 -76 -15.333 -144.167 -46 -204.5s-75.167 -108.166 -133.5 -143.499s-128.5 -53 -210.5 -53zM460.001 819c44 0 80.499 11.5 109.499 34.5s50.5 52.833 64.5 89.5s21 75.667 21 117c0 72 -17.667 129 -53 171s-82.666 63 -141.999 63
c-43.333 0 -79.833 -10.333 -109.5 -31s-52.167 -48.667 -67.5 -84s-23 -75 -23 -119c0 -41.333 7.5 -80.5 22.5 -117.5s37.333 -66.833 67 -89.5s66.5 -34 110.5 -34z" />
    <glyph glyph-name="guillemotright" unicode="&#xbb;" horiz-adv-x="1239" 
d="M831 -4l-251 15l171.5 244l171.5 243v22l-171.5 242l-171.5 241l251 13l179.5 -254.5l179.5 -255.5l-179.5 -254.5zM321 -4l-251 15l171.5 244l170.5 243v22l-170.5 242l-171.5 241l251 13l179.5 -254.5l178.5 -255.5l-178.5 -254.5z" />
    <glyph glyph-name="onequarter" unicode="&#xbc;" horiz-adv-x="1964" 
d="M84 1094l-46 159l193.5 90.5l189.5 87.5l-7 -183l-156 -72.5zM314 505v140.5v151.5v266v140.5v138.5l107 89l97 -5v-161v-163v-305v-151.5v-140.5h-204zM461 0l115 216.5l128 242.5l264 495l91.5 172.5l80.5 151l79 148.5h248l-78.5 -148.5l-80.5 -151l-92 -172.5
l-264 -495l-128.5 -242.5l-115.5 -216.5h-247zM1567 0v124.5v138.5l21 28v266v138.5v138.5l135 71l-75 -98.5l-75 -98.5l-162 -213l-65 -86l-64 -85l-6 21h346l22 20h142h135v-176h-135h-142h-526v134l61.5 80.5l73 96l68.5 89.5l119 159l66.5 87l66.5 86h198v-165v-161
v-332v-138.5v-124.5h-204z" />
    <glyph glyph-name="onehalf" unicode="&#xbd;" horiz-adv-x="2092" 
d="M84 1094l-46 159l193.5 90.5l189.5 87.5l-7 -183l-156 -72.5zM314 505v140.5v151.5v266v140.5v138.5l107 89l97 -5v-161v-163v-305v-151.5v-140.5h-204zM461 0l115 216.5l128 242.5l264 495l91.5 172.5l80.5 151l79 148.5h248l-78.5 -148.5l-80.5 -151l-92 -172.5
l-264 -495l-128.5 -242.5l-115.5 -216.5h-247zM1332 0l0.00195312 133.998l80.5 64l80.5 64c63.333 48.667 117 93.834 161 135.501s77.667 81.667 101 120s35 77.5 35 117.5c0 44.667 -13.333 78.334 -40 101.001s-68.334 34 -125.001 34c-29.333 0 -59.666 -4 -90.999 -12
s-63 -19.333 -95 -34s-63.333 -31.667 -94 -51l-18 195c22 10 46.333 19.667 73 29s54.667 17.5 84 24.5s59.666 12.5 90.999 16.5s62.666 6 93.999 6c71.333 0 132 -11.167 182 -33.5s87.833 -54.333 113.5 -96s38.5 -91.167 38.5 -148.5
c0 -48 -10.833 -95.167 -32.5 -141.5s-54.5 -93 -98.5 -140s-100 -94.833 -168 -143.5l-146 -107l-27 42h144h171.5h169.5v-176h-684z" />
    <glyph glyph-name="threequarters" unicode="&#xbe;" horiz-adv-x="2081" 
d="M407 484c-32.667 0 -65.166 1.66602 -97.499 4.99902s-63.5 8.33301 -93.5 15s-58 14.334 -84 23.001s-49.333 18 -70 28l16 181c26 -12.667 52 -24.167 78 -34.5s51.833 -19.166 77.5 -26.499s51 -12.833 76 -16.5s49.5 -5.5 73.5 -5.5c66.667 0 114 11.833 142 35.5
s42 54.5 42 92.5c0 42.667 -18.667 75.334 -56 98.001s-91 34 -161 34h-55.5h-55.5v129h49.5h50.5c68.667 0 119.167 11.667 151.5 35s48.5 54.333 48.5 93c0 37.333 -14.5 65 -43.5 83s-68.167 27 -117.5 27c-30.667 0 -61.667 -3.83301 -93 -11.5
s-62.833 -18.334 -94.5 -32.001s-62.5 -29.5 -92.5 -47.5l-17 185c21.333 10 44.666 19.5 69.999 28.5s52.333 17 81 24s58.334 12.5 89.001 16.5s61.667 6 93 6c70 0 130.167 -9.66699 180.5 -29s89 -47 116 -83s40.5 -78 40.5 -126c0 -56 -17.833 -101.333 -53.5 -136
s-78.167 -57.334 -127.5 -68.001v-15c33.333 -6 66.166 -18.167 98.499 -36.5s59 -43.833 80 -76.5s31.5 -73.334 31.5 -122.001c0 -79.333 -30.5 -144.666 -91.5 -195.999s-154.833 -77 -281.5 -77zM578.001 -0.000976562l115 216.5l128 242.5l264 495l91.5 172.5l80.5 151
l79 148.5h248l-78.5 -148.5l-80.5 -151l-92 -172.5l-264 -495l-128.5 -242.5l-115.5 -216.5h-247zM1684 -0.000976562v124.5v138.5l21 28v266v138.5v138.5l135 71l-75 -98.5l-75 -98.5l-162 -213l-65 -86l-64 -85l-6 21h346l22 20h142h135v-176h-135h-142h-526v134
l61.5 80.5l73 96l68.5 89.5l119 159l66.5 87l66.5 86h198v-165v-161v-332v-138.5v-124.5h-204z" />
    <glyph glyph-name="questiondown" unicode="&#xbf;" horiz-adv-x="826" 
d="M454 -421c-78 0 -144.829 10.5 -200.496 31.5s-98.167 53 -127.5 96s-44 97.167 -44 162.5c0 64 13 119 39 165s58.333 85.667 97 119s76 63 112 89c38 28 71 54.667 99 80s42 53.666 42 84.999c0 32.667 -10.5 55.167 -31.5 67.5s-45.167 18.5 -72.5 18.5
c-20.667 0 -40.334 -2.5 -59.001 -7.5s-35 -10.833 -49 -17.5l-8 120c13.333 4.66699 30.166 9.33398 50.499 14.001s42.333 8.66699 66 12s47.834 5 72.501 5c87.333 0 152.166 -18.167 194.499 -54.5s63.5 -84.166 63.5 -143.499c0 -44 -9.66699 -82.167 -29 -114.5
s-44.166 -61.5 -74.499 -87.5s-62.5 -51 -96.5 -75c-29.333 -21.333 -56.833 -42.833 -82.5 -64.5s-46.834 -45.167 -63.501 -70.5s-25 -54 -25 -86c0 -42 16 -74.333 48 -97s77 -34 135 -34c29.333 0 60.166 3 92.499 9s65 14.833 98 26.5s66.167 26.5 99.5 44.5l12 -218
c-19.333 -7.33301 -41.833 -15.333 -67.5 -24s-53.834 -16.834 -84.501 -24.501s-63.167 -14 -97.5 -19s-70.5 -7.5 -108.5 -7.5zM471.004 776c-34.667 0 -64.334 7.16699 -89.001 21.5s-44 33.833 -58 58.5s-21 52.667 -21 84c0 48 15.167 87 45.5 117s71.5 45 123.5 45
c35.333 0 65.333 -6.83301 90 -20.5s43.834 -32.667 57.501 -57s20.5 -52.5 20.5 -84.5c0 -46.667 -14.833 -85.667 -44.5 -117s-71.167 -47 -124.5 -47z" />
    <glyph glyph-name="Agrave" unicode="&#xc0;" horiz-adv-x="1418" 
d="M48 0l82 242l81 241l166 489l81.5 239.5l72.5 214.5h362l73 -218l80 -236l164 -490l82 -243l80 -239h-289l-74 241l-72 234l-217 710h-22l-219 -702l-74.5 -240.5l-75.5 -242.5h-281zM365 318l28 212h666l23 -212h-717zM695 1559l-108 122l-110 123.5l-113 127.5l267 5
l128 -187.5l129 -187.5z" />
    <glyph glyph-name="Aacute" unicode="&#xc1;" horiz-adv-x="1418" 
d="M48 0l82 242l81 241l166 489l81.5 239.5l72.5 214.5h362l73 -218l80 -236l164 -490l82 -243l80 -239h-289l-74 241l-72 234l-217 710h-22l-219 -702l-74.5 -240.5l-75.5 -242.5h-281zM365 318l28 212h666l23 -212h-717zM530 1559l129 187l127 186l268 5l-112.5 -128
l-110.5 -125l-108 -122z" />
    <glyph glyph-name="Acircumflex" unicode="&#xc2;" horiz-adv-x="1418" 
d="M48 0l82 242l81 241l166 489l81.5 239.5l72.5 214.5h362l73 -218l80 -236l164 -490l82 -243l80 -239h-289l-74 241l-72 234l-217 710h-22l-219 -702l-74.5 -240.5l-75.5 -242.5h-281zM365 318l28 212h666l23 -212h-717zM905 1557l-114.5 137.5l-116.5 139.5h66
l-114.5 -137.5l-113.5 -135.5h-193l128 185l128 188h265l128 -188.5l128 -185.5z" />
    <glyph glyph-name="Atilde" unicode="&#xc3;" horiz-adv-x="1418" 
d="M48 0l82 242l81 241l166 489l81.5 239.5l72.5 214.5h362l73 -218l80 -236l164 -490l82 -243l80 -239h-289l-74 241l-72 234l-217 710h-22l-219 -702l-74.5 -240.5l-75.5 -242.5h-281zM365 318l28 212h666l23 -212h-717zM883 1547
c-40.667 0 -76.334 7.99805 -107.001 23.998s-57.834 34.667 -81.501 56s-45.667 40 -66 56s-40.833 24 -61.5 24c-33.333 0 -57.166 -12 -71.499 -36s-23.166 -54 -26.499 -90h-138c0 100 19.167 176.667 57.5 230s89.833 80 154.5 80c40 0 75 -8.16699 105 -24.5
s56.5 -35.166 79.5 -56.499s44.833 -40 65.5 -56s41.667 -24 63 -24c32.667 0 55.667 12 69 36s21.333 54 24 90h138c0 -99.333 -18.5 -175.666 -55.5 -228.999s-86.5 -80 -148.5 -80z" />
    <glyph glyph-name="Adieresis" unicode="&#xc4;" horiz-adv-x="1418" 
d="M48 0l82 242l81 241l166 489l81.5 239.5l72.5 214.5h362l73 -218l80 -236l164 -490l82 -243l80 -239h-289l-74 241l-72 234l-217 710h-22l-219 -702l-74.5 -240.5l-75.5 -242.5h-281zM365 318l28 212h666l23 -212h-717zM930 1585c-43.333 0 -77.5 12.167 -102.5 36.5
s-37.5 60.833 -37.5 109.5c0 44 12.667 78.833 38 104.5s60 38.5 104 38.5s78.5 -13.333 103.5 -40s37.5 -61 37.5 -103c0 -48.667 -12.5 -85.167 -37.5 -109.5s-60.167 -36.5 -105.5 -36.5zM486 1585c-43.333 0 -77.667 12.167 -103 36.5s-38 60.833 -38 109.5
c0 44 12.833 78.833 38.5 104.5s60.5 38.5 104.5 38.5s78.5 -13.333 103.5 -40s37.5 -61 37.5 -103c0 -48.667 -12.667 -85.167 -38 -109.5s-60.333 -36.5 -105 -36.5z" />
    <glyph glyph-name="Aring" unicode="&#xc5;" horiz-adv-x="1418" 
d="M48 0l82 242l81 241l166 489l81.5 239.5l72.5 214.5h362l73 -218l80 -236l164 -490l82 -243l80 -239h-289l-74 241l-72 234l-217 710h-22l-219 -702l-74.5 -240.5l-75.5 -242.5h-281zM365 318l28 212h666l23 -212h-717zM707 1540
c-50.667 0 -94.832 8.66797 -132.499 26.001s-67.334 43 -89.001 77s-32.5 76 -32.5 126c0 68.667 23.5 123.5 70.5 164.5s108.833 61.5 185.5 61.5c50.667 0 95 -9.66699 133 -29s67.667 -46 89 -80s32 -73 32 -117c0 -50.667 -10.833 -92.834 -32.5 -126.501
s-51.5 -59.167 -89.5 -76.5s-82.667 -26 -134 -26zM707.002 1653c36.667 0 66.167 9.83105 88.5 29.498s33.5 48.167 33.5 85.5c0 32.667 -11.167 59.834 -33.5 81.501s-51.166 32.5 -86.499 32.5c-36 0 -65.333 -10.667 -88 -32s-34 -48.666 -34 -81.999
c0 -37.333 11.167 -65.833 33.5 -85.5s51.166 -29.5 86.499 -29.5z" />
    <glyph glyph-name="AE" unicode="&#xc6;" horiz-adv-x="1975" 
d="M26 0l121.5 241.5l120.5 241.5l246 491l118.5 236l107.5 216h1125v-233h-132h-149h-178h-288l94 190v-229.5v-247.5v-395v-242v-226l-86 190h301h158h147.5h139.5v-233h-933v225v242v483v245v210l137 -204h-183l-347 -717l-116.5 -241.5l-117.5 -242.5h-286zM405 318
l29 212h601l24 -212h-654zM1150 610v221h265h230h185v-221h-93h-96.5h-105h-120.5h-265z" />
    <glyph glyph-name="Ccedilla" unicode="&#xc7;" horiz-adv-x="1368" 
d="M829 -25c-114.667 0 -217.999 17.8311 -309.999 53.498s-170.333 86.334 -235 152.001s-114.167 143.667 -148.5 234s-51.5 189.833 -51.5 298.5c0 143.333 29.167 270.833 87.5 382.5s141.166 199.334 248.499 263.001s235 95.5 383 95.5c46 0 91.5 -3 136.5 -9
s88 -14.333 129 -25s79 -22.5 114 -35.5s65.833 -26.833 92.5 -41.5l-22 -262c-51.333 32 -101.333 57.833 -150 77.5s-95.5 33.834 -140.5 42.501s-88.5 13 -130.5 13c-88 0 -166.5 -19.667 -235.5 -59s-123.167 -96.333 -162.5 -171s-59 -165 -59 -271
c0 -68.667 10.167 -133.5 30.5 -194.5s50.833 -114.833 91.5 -161.5s91.5 -83.167 152.5 -109.5s132.167 -39.5 213.5 -39.5c32 0 64.333 2.16699 97 6.5s65.334 11.166 98.001 20.499s65 22 97 38s63.667 35.333 95 58l17 -259c-28 -16.667 -59.333 -31.167 -94 -43.5
s-70.834 -22.5 -108.501 -30.5s-76.5 -13.833 -116.5 -17.5s-79.667 -5.5 -119 -5.5zM741.001 -438.002c-16.667 0 -33.1689 0.668945 -49.502 2.00195s-31.666 3.33301 -45.999 6s-26.5 5.66699 -36.5 9v146c8.66699 -3.33301 21.5 -6.33301 38.5 -9s35.833 -4 56.5 -4
c40 0 68.667 6.5 86 19.5s26 30.167 26 51.5c0 12.667 -4.16699 24.667 -12.5 36s-23 21.666 -44 30.999s-51.167 17 -90.5 23l74 175h136v-48l-45 -104c46 -8 82.333 -19.833 109 -35.5s45.5 -34.334 56.5 -56.001s16.5 -45.167 16.5 -70.5c0 -32 -8.83301 -61 -26.5 -87
s-46.667 -46.667 -87 -62s-94.166 -23 -161.499 -23z" />
    <glyph glyph-name="Egrave" unicode="&#xc8;" horiz-adv-x="1191" 
d="M155 0v225v242v483v247v229h926v-233h-202.5h-255.5h-344l150 190v-229.5v-247.5v-395v-242v-226l-132 190h347h233h211v-233h-933zM366 610v221h266h230h185v-221h-190h-226h-265zM609 1559l-108 122l-110 123.5l-113 127.5l267 5l128 -187.5l129 -187.5z" />
    <glyph glyph-name="Eacute" unicode="&#xc9;" horiz-adv-x="1191" 
d="M155 0v225v242v483v247v229h926v-233h-202.5h-255.5h-344l150 190v-229.5v-247.5v-395v-242v-226l-132 190h347h233h211v-233h-933zM366 610v221h266h230h185v-221h-190h-226h-265zM444 1559l129 187l127 186l268 5l-112.5 -128l-110.5 -125l-108 -122z" />
    <glyph glyph-name="Ecircumflex" unicode="&#xca;" horiz-adv-x="1191" 
d="M155 0v225v242v483v247v229h926v-233h-202.5h-255.5h-344l150 190v-229.5v-247.5v-395v-242v-226l-132 190h347h233h211v-233h-933zM366 610v221h266h230h185v-221h-190h-226h-265zM819 1557l-114.5 137.5l-116.5 139.5h66l-114.5 -137.5l-113.5 -135.5h-193l128 185
l128 188h265l128 -188.5l128 -185.5z" />
    <glyph glyph-name="Edieresis" unicode="&#xcb;" horiz-adv-x="1191" 
d="M155 0v225v242v483v247v229h926v-233h-202.5h-255.5h-344l150 190v-229.5v-247.5v-395v-242v-226l-132 190h347h233h211v-233h-933zM366 610v221h266h230h185v-221h-190h-226h-265zM844 1585c-43.333 0 -77.5 12.167 -102.5 36.5s-37.5 60.833 -37.5 109.5
c0 44 12.667 78.833 38 104.5s60 38.5 104 38.5s78.5 -13.333 103.5 -40s37.5 -61 37.5 -103c0 -48.667 -12.5 -85.167 -37.5 -109.5s-60.167 -36.5 -105.5 -36.5zM400 1585c-43.333 0 -77.667 12.167 -103 36.5s-38 60.833 -38 109.5c0 44 12.833 78.833 38.5 104.5
s60.5 38.5 104.5 38.5s78.5 -13.333 103.5 -40s37.5 -61 37.5 -103c0 -48.667 -12.667 -85.167 -38 -109.5s-60.333 -36.5 -105 -36.5z" />
    <glyph glyph-name="Igrave" unicode="&#xcc;" horiz-adv-x="606" 
d="M160 0v225v242v482v248v229h286v-229v-248v-482v-242v-225h-286zM284 1559l-108 122l-110 123.5l-113 127.5l267 5l128 -187.5l129 -187.5z" />
    <glyph glyph-name="Iacute" unicode="&#xcd;" horiz-adv-x="606" 
d="M160 0v225v242v482v248v229h286v-229v-248v-482v-242v-225h-286zM119 1559l129 187l127 186l268 5l-112.5 -128l-110.5 -125l-108 -122z" />
    <glyph glyph-name="Icircumflex" unicode="&#xce;" horiz-adv-x="606" 
d="M160 0v225v242v482v248v229h286v-229v-248v-482v-242v-225h-286zM494 1557l-114.5 137.5l-116.5 139.5h66l-114.5 -137.5l-113.5 -135.5h-193l128 185l128 188h265l128 -188.5l128 -185.5z" />
    <glyph glyph-name="Idieresis" unicode="&#xcf;" horiz-adv-x="606" 
d="M160 0v225v242v482v248v229h286v-229v-248v-482v-242v-225h-286zM519 1585c-43.333 0 -77.5 12.167 -102.5 36.5s-37.5 60.833 -37.5 109.5c0 44 12.667 78.833 38 104.5s60 38.5 104 38.5s78.5 -13.333 103.5 -40s37.5 -61 37.5 -103
c0 -48.667 -12.5 -85.167 -37.5 -109.5s-60.167 -36.5 -105.5 -36.5zM75 1585c-43.333 0 -77.667 12.167 -103 36.5s-38 60.833 -38 109.5c0 44 12.833 78.833 38.5 104.5s60.5 38.5 104.5 38.5s78.5 -13.333 103.5 -40s37.5 -61 37.5 -103
c0 -48.667 -12.667 -85.167 -38 -109.5s-60.333 -36.5 -105 -36.5z" />
    <glyph glyph-name="Eth" unicode="&#xd0;" horiz-adv-x="1469" 
d="M-26 606v193h180h163h94h164h179v-193h-179h-164h-94h-163h-180zM155 0l0.00195312 225v242v482v248v229h175.5h182h187.5c109.333 0 206.5 -15.667 291.5 -47s156.667 -77.5 215 -138.5s102.666 -135.167 132.999 -222.5s45.5 -187.333 45.5 -300
c0 -100.667 -13.333 -194.5 -40 -281.5s-69.334 -163.167 -128.001 -228.5s-136 -116.333 -232 -153s-213 -55 -351 -55h-173h-154.5h-151.5zM436.002 226l198.002 0.000976562c113.333 0 203.666 21.5 270.999 64.5s115.666 102 144.999 177s44 159.833 44 254.5
c0 72 -8.66699 137.333 -26 196s-43.833 109.167 -79.5 151.5s-81.5 74.666 -137.5 96.999s-122.333 33.5 -199 33.5h-216v-147v-167v-354v-162v-144z" />
    <glyph glyph-name="Ntilde" unicode="&#xd1;" horiz-adv-x="1503" 
d="M155 0v225v242v482v248v229h246l208.5 -299l196.5 -283l257 -369h21v474v248v229h264v-229v-248v-482v-242v-225h-243l-189 271.5l-217 310.5l-260 373h-21v-488v-242v-225h-263zM927 1547c-40.667 0 -76.334 7.99805 -107.001 23.998s-57.834 34.667 -81.501 56
s-45.667 40 -66 56s-40.833 24 -61.5 24c-33.333 0 -57.166 -12 -71.499 -36s-23.166 -54 -26.499 -90h-138c0 100 19.167 176.667 57.5 230s89.833 80 154.5 80c40 0 75 -8.16699 105 -24.5s56.5 -35.166 79.5 -56.499s44.833 -40 65.5 -56s41.667 -24 63 -24
c32.667 0 55.667 12 69 36s21.333 54 24 90h138c0 -99.333 -18.5 -175.666 -55.5 -228.999s-86.5 -80 -148.5 -80z" />
    <glyph glyph-name="Ograve" unicode="&#xd2;" horiz-adv-x="1630" 
d="M822 -25c-126 0 -235.496 19.6631 -328.496 58.9961s-169.667 93.333 -230 162s-105.333 147.334 -135 236.001s-44.5 182.334 -44.5 281.001c0 138 27.667 263.167 83 375.5s137.166 201.333 245.499 267s242.166 98.5 401.499 98.5c121.333 0 227.666 -19 318.999 -57
s167.666 -91 228.999 -159s107.333 -146.667 138 -236s46 -185.333 46 -288c0 -141.333 -28 -267.666 -84 -378.999s-138 -199.166 -246 -263.499s-239.333 -96.5 -394 -96.5zM817.004 207.996c74.667 0 139.333 13.5 194 40.5s100.167 64.333 136.5 112
s63.333 101.834 81 162.501s26.5 124.334 26.5 191.001c0 71.333 -9.66699 137.666 -29 198.999s-47.5 115.166 -84.5 161.499s-82.667 82.333 -137 108s-116.833 38.5 -187.5 38.5c-72.667 0 -136.667 -13.333 -192 -40s-101.5 -63.667 -138.5 -111
s-64.833 -101.5 -83.5 -162.5s-28 -125.5 -28 -193.5s9 -132.333 27 -193s45.333 -114.667 82 -162s82.667 -84.333 138 -111s120.333 -40 195 -40zM801.003 1559l-108 122l-110 123.5l-113 127.5l267 5l128 -187.5l129 -187.5z" />
    <glyph glyph-name="Oacute" unicode="&#xd3;" horiz-adv-x="1630" 
d="M822 -25c-126 0 -235.496 19.6631 -328.496 58.9961s-169.667 93.333 -230 162s-105.333 147.334 -135 236.001s-44.5 182.334 -44.5 281.001c0 138 27.667 263.167 83 375.5s137.166 201.333 245.499 267s242.166 98.5 401.499 98.5c121.333 0 227.666 -19 318.999 -57
s167.666 -91 228.999 -159s107.333 -146.667 138 -236s46 -185.333 46 -288c0 -141.333 -28 -267.666 -84 -378.999s-138 -199.166 -246 -263.499s-239.333 -96.5 -394 -96.5zM817.004 207.996c74.667 0 139.333 13.5 194 40.5s100.167 64.333 136.5 112
s63.333 101.834 81 162.501s26.5 124.334 26.5 191.001c0 71.333 -9.66699 137.666 -29 198.999s-47.5 115.166 -84.5 161.499s-82.667 82.333 -137 108s-116.833 38.5 -187.5 38.5c-72.667 0 -136.667 -13.333 -192 -40s-101.5 -63.667 -138.5 -111
s-64.833 -101.5 -83.5 -162.5s-28 -125.5 -28 -193.5s9 -132.333 27 -193s45.333 -114.667 82 -162s82.667 -84.333 138 -111s120.333 -40 195 -40zM636.003 1559l129 187l127 186l268 5l-112.5 -128l-110.5 -125l-108 -122z" />
    <glyph glyph-name="Ocircumflex" unicode="&#xd4;" horiz-adv-x="1630" 
d="M822 -25c-126 0 -235.496 19.6631 -328.496 58.9961s-169.667 93.333 -230 162s-105.333 147.334 -135 236.001s-44.5 182.334 -44.5 281.001c0 138 27.667 263.167 83 375.5s137.166 201.333 245.499 267s242.166 98.5 401.499 98.5c121.333 0 227.666 -19 318.999 -57
s167.666 -91 228.999 -159s107.333 -146.667 138 -236s46 -185.333 46 -288c0 -141.333 -28 -267.666 -84 -378.999s-138 -199.166 -246 -263.499s-239.333 -96.5 -394 -96.5zM817.004 207.996c74.667 0 139.333 13.5 194 40.5s100.167 64.333 136.5 112
s63.333 101.834 81 162.501s26.5 124.334 26.5 191.001c0 71.333 -9.66699 137.666 -29 198.999s-47.5 115.166 -84.5 161.499s-82.667 82.333 -137 108s-116.833 38.5 -187.5 38.5c-72.667 0 -136.667 -13.333 -192 -40s-101.5 -63.667 -138.5 -111
s-64.833 -101.5 -83.5 -162.5s-28 -125.5 -28 -193.5s9 -132.333 27 -193s45.333 -114.667 82 -162s82.667 -84.333 138 -111s120.333 -40 195 -40zM1011 1557l-114.5 137.5l-116.5 139.5h66l-114.5 -137.5l-113.5 -135.5h-193l128 185l128 188h265l128 -188.5l128 -185.5z
" />
    <glyph glyph-name="Otilde" unicode="&#xd5;" horiz-adv-x="1630" 
d="M822 -25c-126 0 -235.496 19.6631 -328.496 58.9961s-169.667 93.333 -230 162s-105.333 147.334 -135 236.001s-44.5 182.334 -44.5 281.001c0 138 27.667 263.167 83 375.5s137.166 201.333 245.499 267s242.166 98.5 401.499 98.5c121.333 0 227.666 -19 318.999 -57
s167.666 -91 228.999 -159s107.333 -146.667 138 -236s46 -185.333 46 -288c0 -141.333 -28 -267.666 -84 -378.999s-138 -199.166 -246 -263.499s-239.333 -96.5 -394 -96.5zM817.004 207.996c74.667 0 139.333 13.5 194 40.5s100.167 64.333 136.5 112
s63.333 101.834 81 162.501s26.5 124.334 26.5 191.001c0 71.333 -9.66699 137.666 -29 198.999s-47.5 115.166 -84.5 161.499s-82.667 82.333 -137 108s-116.833 38.5 -187.5 38.5c-72.667 0 -136.667 -13.333 -192 -40s-101.5 -63.667 -138.5 -111
s-64.833 -101.5 -83.5 -162.5s-28 -125.5 -28 -193.5s9 -132.333 27 -193s45.333 -114.667 82 -162s82.667 -84.333 138 -111s120.333 -40 195 -40zM989.003 1547c-40.667 0 -76.334 7.99805 -107.001 23.998s-57.834 34.667 -81.501 56s-45.667 40 -66 56
s-40.833 24 -61.5 24c-33.333 0 -57.166 -12 -71.499 -36s-23.166 -54 -26.499 -90h-138c0 100 19.167 176.667 57.5 230s89.833 80 154.5 80c40 0 75 -8.16699 105 -24.5s56.5 -35.166 79.5 -56.499s44.833 -40 65.5 -56s41.667 -24 63 -24c32.667 0 55.667 12 69 36
s21.333 54 24 90h138c0 -99.333 -18.5 -175.666 -55.5 -228.999s-86.5 -80 -148.5 -80z" />
    <glyph glyph-name="Odieresis" unicode="&#xd6;" horiz-adv-x="1630" 
d="M822 -25c-126 0 -235.496 19.6631 -328.496 58.9961s-169.667 93.333 -230 162s-105.333 147.334 -135 236.001s-44.5 182.334 -44.5 281.001c0 138 27.667 263.167 83 375.5s137.166 201.333 245.499 267s242.166 98.5 401.499 98.5c121.333 0 227.666 -19 318.999 -57
s167.666 -91 228.999 -159s107.333 -146.667 138 -236s46 -185.333 46 -288c0 -141.333 -28 -267.666 -84 -378.999s-138 -199.166 -246 -263.499s-239.333 -96.5 -394 -96.5zM817.004 207.996c74.667 0 139.333 13.5 194 40.5s100.167 64.333 136.5 112
s63.333 101.834 81 162.501s26.5 124.334 26.5 191.001c0 71.333 -9.66699 137.666 -29 198.999s-47.5 115.166 -84.5 161.499s-82.667 82.333 -137 108s-116.833 38.5 -187.5 38.5c-72.667 0 -136.667 -13.333 -192 -40s-101.5 -63.667 -138.5 -111
s-64.833 -101.5 -83.5 -162.5s-28 -125.5 -28 -193.5s9 -132.333 27 -193s45.333 -114.667 82 -162s82.667 -84.333 138 -111s120.333 -40 195 -40zM1036 1585c-43.333 0 -77.5 12.167 -102.5 36.5s-37.5 60.833 -37.5 109.5c0 44 12.667 78.833 38 104.5s60 38.5 104 38.5
s78.5 -13.333 103.5 -40s37.5 -61 37.5 -103c0 -48.667 -12.5 -85.167 -37.5 -109.5s-60.167 -36.5 -105.5 -36.5zM592.003 1585c-43.333 0 -77.667 12.167 -103 36.5s-38 60.833 -38 109.5c0 44 12.833 78.833 38.5 104.5s60.5 38.5 104.5 38.5s78.5 -13.333 103.5 -40
s37.5 -61 37.5 -103c0 -48.667 -12.667 -85.167 -38 -109.5s-60.333 -36.5 -105 -36.5z" />
    <glyph glyph-name="multiply" unicode="&#xd7;" horiz-adv-x="1152" 
d="M890 132l-137 138.5l-125 123.5l-263 263l-123.5 124.5l-136.5 136.5l158 158l137 -136.5l124 -124.5l263 -263l124.5 -124l136.5 -137zM263 132l-158 159l92 91.5l87.5 88l81.5 81.5l263 263l125 125l136 136l158 -158l-136 -136.5l-125 -124.5l-263 -263l-123.5 -124z
" />
    <glyph glyph-name="Oslash" unicode="&#xd8;" horiz-adv-x="1630" 
d="M822 -25c-126 0 -235.496 19.6631 -328.496 58.9961s-169.667 93.333 -230 162s-105.333 147.334 -135 236.001s-44.5 182.334 -44.5 281.001c0 138 27.667 263.167 83 375.5s137.166 201.333 245.499 267s242.166 98.5 401.499 98.5c121.333 0 227.666 -19 318.999 -57
s167.666 -91 228.999 -159s107.333 -146.667 138 -236s46 -185.333 46 -288c0 -141.333 -28 -267.666 -84 -378.999s-138 -199.166 -246 -263.499s-239.333 -96.5 -394 -96.5zM817.004 207.996c74.667 0 139.333 13.5 194 40.5s100.167 64.333 136.5 112
s63.333 101.834 81 162.501s26.5 124.334 26.5 191.001c0 71.333 -9.66699 137.666 -29 198.999s-47.5 115.166 -84.5 161.499s-82.667 82.333 -137 108s-116.833 38.5 -187.5 38.5c-72.667 0 -136.667 -13.333 -192 -40s-101.5 -63.667 -138.5 -111
s-64.833 -101.5 -83.5 -162.5s-28 -125.5 -28 -193.5s9 -132.333 27 -193s45.333 -114.667 82 -162s82.667 -84.333 138 -111s120.333 -40 195 -40zM279.003 -144.004l-129 108l196.5 258l199.5 261l393 514l205 267.5l195 255.5l135 -101l-196 -256.5l-203 -266.5
l-398 -520l-203.5 -266z" />
    <glyph glyph-name="Ugrave" unicode="&#xd9;" horiz-adv-x="1458" 
d="M731 -25c-141.333 0 -255.333 23.166 -342 69.499s-149.834 112 -189.501 197s-59.5 185.167 -59.5 300.5v105v144v158v248v229h280v-229v-248v-389c0 -74 10.333 -137.333 31 -190s53.834 -92.834 99.501 -120.501s105.5 -41.5 179.5 -41.5
c75.333 0 135.5 13.833 180.5 41.5s77.333 67.834 97 120.501s29.5 116.334 29.5 191.001v388v248v229h280v-229v-248v-158.5v-145.5v-104c0 -114.667 -20.667 -214.5 -62 -299.5s-105 -150.667 -191 -197s-197 -69.5 -333 -69.5zM717 1559l-108 122l-110 123.5l-113 127.5
l267 5l128 -187.5l129 -187.5z" />
    <glyph glyph-name="Uacute" unicode="&#xda;" horiz-adv-x="1458" 
d="M731 -25c-141.333 0 -255.333 23.166 -342 69.499s-149.834 112 -189.501 197s-59.5 185.167 -59.5 300.5v105v144v158v248v229h280v-229v-248v-389c0 -74 10.333 -137.333 31 -190s53.834 -92.834 99.501 -120.501s105.5 -41.5 179.5 -41.5
c75.333 0 135.5 13.833 180.5 41.5s77.333 67.834 97 120.501s29.5 116.334 29.5 191.001v388v248v229h280v-229v-248v-158.5v-145.5v-104c0 -114.667 -20.667 -214.5 -62 -299.5s-105 -150.667 -191 -197s-197 -69.5 -333 -69.5zM552 1559l129 187l127 186l268 5
l-112.5 -128l-110.5 -125l-108 -122z" />
    <glyph glyph-name="Ucircumflex" unicode="&#xdb;" horiz-adv-x="1458" 
d="M731 -25c-141.333 0 -255.333 23.166 -342 69.499s-149.834 112 -189.501 197s-59.5 185.167 -59.5 300.5v105v144v158v248v229h280v-229v-248v-389c0 -74 10.333 -137.333 31 -190s53.834 -92.834 99.501 -120.501s105.5 -41.5 179.5 -41.5
c75.333 0 135.5 13.833 180.5 41.5s77.333 67.834 97 120.501s29.5 116.334 29.5 191.001v388v248v229h280v-229v-248v-158.5v-145.5v-104c0 -114.667 -20.667 -214.5 -62 -299.5s-105 -150.667 -191 -197s-197 -69.5 -333 -69.5zM927 1557l-114.5 137.5l-116.5 139.5h66
l-114.5 -137.5l-113.5 -135.5h-193l128 185l128 188h265l128 -188.5l128 -185.5z" />
    <glyph glyph-name="Udieresis" unicode="&#xdc;" horiz-adv-x="1458" 
d="M731 -25c-141.333 0 -255.333 23.166 -342 69.499s-149.834 112 -189.501 197s-59.5 185.167 -59.5 300.5v105v144v158v248v229h280v-229v-248v-389c0 -74 10.333 -137.333 31 -190s53.834 -92.834 99.501 -120.501s105.5 -41.5 179.5 -41.5
c75.333 0 135.5 13.833 180.5 41.5s77.333 67.834 97 120.501s29.5 116.334 29.5 191.001v388v248v229h280v-229v-248v-158.5v-145.5v-104c0 -114.667 -20.667 -214.5 -62 -299.5s-105 -150.667 -191 -197s-197 -69.5 -333 -69.5zM952 1585
c-43.333 0 -77.5 12.167 -102.5 36.5s-37.5 60.833 -37.5 109.5c0 44 12.667 78.833 38 104.5s60 38.5 104 38.5s78.5 -13.333 103.5 -40s37.5 -61 37.5 -103c0 -48.667 -12.5 -85.167 -37.5 -109.5s-60.167 -36.5 -105.5 -36.5zM508 1585
c-43.333 0 -77.667 12.167 -103 36.5s-38 60.833 -38 109.5c0 44 12.833 78.833 38.5 104.5s60.5 38.5 104.5 38.5s78.5 -13.333 103.5 -40s37.5 -61 37.5 -103c0 -48.667 -12.667 -85.167 -38 -109.5s-60.333 -36.5 -105 -36.5z" />
    <glyph glyph-name="Yacute" unicode="&#xdd;" horiz-adv-x="1343" 
d="M540 521l-299 549l-92.5 169.5l-102.5 186.5h318l73.5 -150l57.5 -118.5l60 -123.5l107 -220h25l105 213l63.5 129l60 121.5l74.5 148.5h309l-97.5 -180l-95.5 -175l-298 -550h-268zM534 0v225v242v289h281v-289v-242v-225h-281zM495 1559l129 187l127 186l268 5
l-112.5 -128l-110.5 -125l-108 -122z" />
    <glyph glyph-name="Thorn" unicode="&#xde;" horiz-adv-x="1283" 
d="M155 0v225v242v483v247v229h276v-229v-247v-483v-242v-225h-276zM701 291l-104 -0.000976562h-109h-92v222h244c66.667 0 121.334 8.33301 164.001 25s74.167 42.834 94.5 78.501s30.5 82.167 30.5 139.5c0 46 -7.33301 83.167 -22 111.5s-34 50 -58 65
s-50.333 25.167 -79 30.5s-57 8 -85 8h-289v224h137h171c113.333 0 207.666 -14.333 282.999 -43s132 -74.834 170 -138.501s57 -148.5 57 -254.5c0 -91.333 -16.667 -172.166 -50 -242.499s-87.333 -125.5 -162 -165.5s-175 -60 -301 -60z" />
    <glyph glyph-name="germandbls" unicode="&#xdf;" horiz-adv-x="1221" 
d="M715 -10c-20 0 -40.8311 0.99707 -62.498 2.99707s-41.167 4.66699 -58.5 8v183c7.33301 -1.33301 16.333 -2.5 27 -3.5s22 -1.5 34 -1.5c75.333 0 131.666 23 168.999 69s56 103 56 171c0 54.667 -11.5 100.834 -34.5 138.501s-54.333 66 -94 85
s-85.167 28.5 -136.5 28.5v190c38 0 73 9 105 27s57.5 43.333 76.5 76s28.5 71 28.5 115c0 59.333 -16.833 107.833 -50.5 145.5s-80.5 56.5 -140.5 56.5c-62 0 -110.333 -19.667 -145 -59s-52 -100.333 -52 -183v-605v-225v-209h-254v209v225v100v247.5v248.5
c0 150 40.5 264.667 121.5 344s193.5 119 337.5 119c86 0 160.667 -14.333 224 -43s112.333 -69.667 147 -123s52 -117 52 -191c0 -56 -9.16699 -104.5 -27.5 -145.5s-42 -75.167 -71 -102.5s-60.167 -48.666 -93.5 -63.999v-21c32.667 -12.667 65 -29.334 97 -50.001
s60.667 -46.667 86 -78s45.666 -68.666 60.999 -111.999s23 -93.666 23 -150.999c0 -126 -37.833 -227.833 -113.5 -305.5s-179.5 -116.5 -311.5 -116.5zM41.002 803.997v192h215v-192h-215z" />
    <glyph glyph-name="agrave" unicode="&#xe0;" horiz-adv-x="1041" 
d="M376 -23c-56 0 -105.999 11.6738 -149.999 35.0068s-78.833 57.166 -104.5 101.499s-38.5 97.833 -38.5 160.5c0 55.333 9.66699 102.166 29 140.499s44.833 69.666 76.5 93.999s66.667 43.166 105 56.499s77.166 23 116.499 29l285 42
c2 46.667 -5.83301 82.667 -23.5 108s-42.834 42.833 -75.501 52.5s-70.334 14.5 -113.001 14.5c-22.667 0 -47.167 -1.83301 -73.5 -5.5s-54 -9.16699 -83 -16.5s-59.167 -16.5 -90.5 -27.5s-63.333 -24.167 -96 -39.5l-12 221c24.667 9.33301 52.5 18.666 83.5 27.999
s64.833 17.833 101.5 25.5s74.834 13.667 114.501 18s80.5 6.5 122.5 6.5c81.333 0 150.833 -11.833 208.5 -35.5s101.834 -61.334 132.501 -113.001s46 -118.834 46 -201.501v-119v-130v-110v-148.5v-163.5h-225l-15 130h-21c-18.667 -24.667 -42 -48.5 -70 -71.5
s-61.167 -42.333 -99.5 -58s-81.833 -23.5 -130.5 -23.5zM468.001 176.007c28 0 55.668 6.66699 83.001 20s52.833 32 76.5 56s43.834 52.667 60.501 86v157c-8.66699 -6 -20.167 -11.5 -34.5 -16.5s-35.5 -10.5 -63.5 -16.5s-67.333 -13.667 -118 -23
c-28.667 -5.33301 -52.834 -14.333 -72.501 -27s-34.834 -29 -45.501 -49s-16 -43 -16 -69c0 -43.333 13.167 -73.833 39.5 -91.5s56.5 -26.5 90.5 -26.5zM517.002 1139.01l-108 134.5l-110.5 136.5l-112.5 139l267 6l128 -206l129 -207z" />
    <glyph glyph-name="aacute" unicode="&#xe1;" horiz-adv-x="1041" 
d="M376 -23c-56 0 -105.999 11.6738 -149.999 35.0068s-78.833 57.166 -104.5 101.499s-38.5 97.833 -38.5 160.5c0 55.333 9.66699 102.166 29 140.499s44.833 69.666 76.5 93.999s66.667 43.166 105 56.499s77.166 23 116.499 29l285 42
c2 46.667 -5.83301 82.667 -23.5 108s-42.834 42.833 -75.501 52.5s-70.334 14.5 -113.001 14.5c-22.667 0 -47.167 -1.83301 -73.5 -5.5s-54 -9.16699 -83 -16.5s-59.167 -16.5 -90.5 -27.5s-63.333 -24.167 -96 -39.5l-12 221c24.667 9.33301 52.5 18.666 83.5 27.999
s64.833 17.833 101.5 25.5s74.834 13.667 114.501 18s80.5 6.5 122.5 6.5c81.333 0 150.833 -11.833 208.5 -35.5s101.834 -61.334 132.501 -113.001s46 -118.834 46 -201.501v-119v-130v-110v-148.5v-163.5h-225l-15 130h-21c-18.667 -24.667 -42 -48.5 -70 -71.5
s-61.167 -42.333 -99.5 -58s-81.833 -23.5 -130.5 -23.5zM468.001 176.007c28 0 55.668 6.66699 83.001 20s52.833 32 76.5 56s43.834 52.667 60.501 86v157c-8.66699 -6 -20.167 -11.5 -34.5 -16.5s-35.5 -10.5 -63.5 -16.5s-67.333 -13.667 -118 -23
c-28.667 -5.33301 -52.834 -14.333 -72.501 -27s-34.834 -29 -45.501 -49s-16 -43 -16 -69c0 -43.333 13.167 -73.833 39.5 -91.5s56.5 -26.5 90.5 -26.5zM352.002 1139.01l129 205.5l127 204.5l268 6l-113 -140.5l-110 -137.5l-108 -135z" />
    <glyph glyph-name="acircumflex" unicode="&#xe2;" horiz-adv-x="1041" 
d="M376 -23c-56 0 -105.999 11.6738 -149.999 35.0068s-78.833 57.166 -104.5 101.499s-38.5 97.833 -38.5 160.5c0 55.333 9.66699 102.166 29 140.499s44.833 69.666 76.5 93.999s66.667 43.166 105 56.499s77.166 23 116.499 29l285 42
c2 46.667 -5.83301 82.667 -23.5 108s-42.834 42.833 -75.501 52.5s-70.334 14.5 -113.001 14.5c-22.667 0 -47.167 -1.83301 -73.5 -5.5s-54 -9.16699 -83 -16.5s-59.167 -16.5 -90.5 -27.5s-63.333 -24.167 -96 -39.5l-12 221c24.667 9.33301 52.5 18.666 83.5 27.999
s64.833 17.833 101.5 25.5s74.834 13.667 114.501 18s80.5 6.5 122.5 6.5c81.333 0 150.833 -11.833 208.5 -35.5s101.834 -61.334 132.501 -113.001s46 -118.834 46 -201.501v-119v-130v-110v-148.5v-163.5h-225l-15 130h-21c-18.667 -24.667 -42 -48.5 -70 -71.5
s-61.167 -42.333 -99.5 -58s-81.833 -23.5 -130.5 -23.5zM468.001 176.007c28 0 55.668 6.66699 83.001 20s52.833 32 76.5 56s43.834 52.667 60.501 86v157c-8.66699 -6 -20.167 -11.5 -34.5 -16.5s-35.5 -10.5 -63.5 -16.5s-67.333 -13.667 -118 -23
c-28.667 -5.33301 -52.834 -14.333 -72.501 -27s-34.834 -29 -45.501 -49s-16 -43 -16 -69c0 -43.333 13.167 -73.833 39.5 -91.5s56.5 -26.5 90.5 -26.5zM727.002 1137.01l-113 149.5l-115 150.5h61l-113 -149l-113 -147h-193l128 204l128 206h265l128 -206l128 -205z" />
    <glyph glyph-name="atilde" unicode="&#xe3;" horiz-adv-x="1041" 
d="M376 -23c-56 0 -105.999 11.6738 -149.999 35.0068s-78.833 57.166 -104.5 101.499s-38.5 97.833 -38.5 160.5c0 55.333 9.66699 102.166 29 140.499s44.833 69.666 76.5 93.999s66.667 43.166 105 56.499s77.166 23 116.499 29l285 42
c2 46.667 -5.83301 82.667 -23.5 108s-42.834 42.833 -75.501 52.5s-70.334 14.5 -113.001 14.5c-22.667 0 -47.167 -1.83301 -73.5 -5.5s-54 -9.16699 -83 -16.5s-59.167 -16.5 -90.5 -27.5s-63.333 -24.167 -96 -39.5l-12 221c24.667 9.33301 52.5 18.666 83.5 27.999
s64.833 17.833 101.5 25.5s74.834 13.667 114.501 18s80.5 6.5 122.5 6.5c81.333 0 150.833 -11.833 208.5 -35.5s101.834 -61.334 132.501 -113.001s46 -118.834 46 -201.501v-119v-130v-110v-148.5v-163.5h-225l-15 130h-21c-18.667 -24.667 -42 -48.5 -70 -71.5
s-61.167 -42.333 -99.5 -58s-81.833 -23.5 -130.5 -23.5zM468.001 176.007c28 0 55.668 6.66699 83.001 20s52.833 32 76.5 56s43.834 52.667 60.501 86v157c-8.66699 -6 -20.167 -11.5 -34.5 -16.5s-35.5 -10.5 -63.5 -16.5s-67.333 -13.667 -118 -23
c-28.667 -5.33301 -52.834 -14.333 -72.501 -27s-34.834 -29 -45.501 -49s-16 -43 -16 -69c0 -43.333 13.167 -73.833 39.5 -91.5s56.5 -26.5 90.5 -26.5zM705.002 1126.01c-40.667 0 -76.334 8.16797 -107.001 24.501s-57.834 35.166 -81.501 56.499s-45.667 40 -66 56
s-40.833 24 -61.5 24c-33.333 0 -57.166 -12 -71.499 -36s-23.166 -54 -26.499 -90h-138c0 100 19.167 176.5 57.5 229.5s89.833 79.5 154.5 79.5c40 0 75 -8 105 -24s56.5 -34.667 79.5 -56s44.833 -40 65.5 -56s41.667 -24 63 -24c32.667 0 55.667 12 69 36
s21.333 54 24 90h138c0 -99.333 -18.5 -175.833 -55.5 -229.5s-86.5 -80.5 -148.5 -80.5z" />
    <glyph glyph-name="adieresis" unicode="&#xe4;" horiz-adv-x="1041" 
d="M376 -23c-56 0 -105.999 11.6738 -149.999 35.0068s-78.833 57.166 -104.5 101.499s-38.5 97.833 -38.5 160.5c0 55.333 9.66699 102.166 29 140.499s44.833 69.666 76.5 93.999s66.667 43.166 105 56.499s77.166 23 116.499 29l285 42
c2 46.667 -5.83301 82.667 -23.5 108s-42.834 42.833 -75.501 52.5s-70.334 14.5 -113.001 14.5c-22.667 0 -47.167 -1.83301 -73.5 -5.5s-54 -9.16699 -83 -16.5s-59.167 -16.5 -90.5 -27.5s-63.333 -24.167 -96 -39.5l-12 221c24.667 9.33301 52.5 18.666 83.5 27.999
s64.833 17.833 101.5 25.5s74.834 13.667 114.501 18s80.5 6.5 122.5 6.5c81.333 0 150.833 -11.833 208.5 -35.5s101.834 -61.334 132.501 -113.001s46 -118.834 46 -201.501v-119v-130v-110v-148.5v-163.5h-225l-15 130h-21c-18.667 -24.667 -42 -48.5 -70 -71.5
s-61.167 -42.333 -99.5 -58s-81.833 -23.5 -130.5 -23.5zM468.001 176.007c28 0 55.668 6.66699 83.001 20s52.833 32 76.5 56s43.834 52.667 60.501 86v157c-8.66699 -6 -20.167 -11.5 -34.5 -16.5s-35.5 -10.5 -63.5 -16.5s-67.333 -13.667 -118 -23
c-28.667 -5.33301 -52.834 -14.333 -72.501 -27s-34.834 -29 -45.501 -49s-16 -43 -16 -69c0 -43.333 13.167 -73.833 39.5 -91.5s56.5 -26.5 90.5 -26.5zM752.002 1165.01c-43.333 0 -77.5 12.167 -102.5 36.5s-37.5 60.833 -37.5 109.5c0 44 12.667 78.833 38 104.5
s60 38.5 104 38.5s78.5 -13.333 103.5 -40s37.5 -61 37.5 -103c0 -48.667 -12.5 -85.167 -37.5 -109.5s-60.167 -36.5 -105.5 -36.5zM308.002 1165.01c-43.333 0 -77.667 12.167 -103 36.5s-38 60.833 -38 109.5c0 44 12.833 78.833 38.5 104.5s60.5 38.5 104.5 38.5
s78.5 -13.333 103.5 -40s37.5 -61 37.5 -103c0 -48.667 -12.667 -85.167 -38 -109.5s-60.333 -36.5 -105 -36.5z" />
    <glyph glyph-name="aring" unicode="&#xe5;" horiz-adv-x="1041" 
d="M376 -23c-56 0 -105.999 11.6738 -149.999 35.0068s-78.833 57.166 -104.5 101.499s-38.5 97.833 -38.5 160.5c0 55.333 9.66699 102.166 29 140.499s44.833 69.666 76.5 93.999s66.667 43.166 105 56.499s77.166 23 116.499 29l285 42
c2 46.667 -5.83301 82.667 -23.5 108s-42.834 42.833 -75.501 52.5s-70.334 14.5 -113.001 14.5c-22.667 0 -47.167 -1.83301 -73.5 -5.5s-54 -9.16699 -83 -16.5s-59.167 -16.5 -90.5 -27.5s-63.333 -24.167 -96 -39.5l-12 221c24.667 9.33301 52.5 18.666 83.5 27.999
s64.833 17.833 101.5 25.5s74.834 13.667 114.501 18s80.5 6.5 122.5 6.5c81.333 0 150.833 -11.833 208.5 -35.5s101.834 -61.334 132.501 -113.001s46 -118.834 46 -201.501v-119v-130v-110v-148.5v-163.5h-225l-15 130h-21c-18.667 -24.667 -42 -48.5 -70 -71.5
s-61.167 -42.333 -99.5 -58s-81.833 -23.5 -130.5 -23.5zM468.001 176.007c28 0 55.668 6.66699 83.001 20s52.833 32 76.5 56s43.834 52.667 60.501 86v157c-8.66699 -6 -20.167 -11.5 -34.5 -16.5s-35.5 -10.5 -63.5 -16.5s-67.333 -13.667 -118 -23
c-28.667 -5.33301 -52.834 -14.333 -72.501 -27s-34.834 -29 -45.501 -49s-16 -43 -16 -69c0 -43.333 13.167 -73.833 39.5 -91.5s56.5 -26.5 90.5 -26.5zM529.002 1110.01c-50.667 0 -94.832 8.66797 -132.499 26.001s-67.334 43 -89.001 77s-32.5 76 -32.5 126
c0 68.667 23.5 123.5 70.5 164.5s108.833 61.5 185.5 61.5c50.667 0 95 -9.66699 133 -29s67.667 -46 89 -80s32 -73 32 -117c0 -50.667 -10.833 -92.834 -32.5 -126.501s-51.5 -59.167 -89.5 -76.5s-82.667 -26 -134 -26zM529.004 1223.01
c36.667 0 66.167 9.83105 88.5 29.498s33.5 48.167 33.5 85.5c0 32.667 -11.167 59.834 -33.5 81.501s-51.166 32.5 -86.499 32.5c-36 0 -65.333 -10.667 -88 -32s-34 -48.666 -34 -81.999c0 -37.333 11.167 -65.833 33.5 -85.5s51.166 -29.5 86.499 -29.5z" />
    <glyph glyph-name="ae" unicode="&#xe6;" horiz-adv-x="1617" 
d="M1199 -25c-116.667 0 -212.502 22.666 -287.502 67.999s-130.5 107.666 -166.5 186.999s-54 170 -54 272c0 101.333 16.833 191.166 50.5 269.499s83.5 139.5 149.5 183.5s147.333 66 244 66c87.333 0 162.333 -16.167 225 -48.5s111 -80.666 145 -144.999
s51 -145.166 51 -242.499c0 -26 -0.5 -49.333 -1.5 -70s-3.16699 -41 -6.5 -61l-221 89c1.33301 9.33301 2.33301 18.833 3 28.5s1 18.834 1 27.501c0 73.333 -18.833 130.833 -56.5 172.5s-84.5 62.5 -140.5 62.5c-44 0 -82.833 -12.5 -116.5 -37.5s-60 -59.833 -79 -104.5
s-28.5 -96.334 -28.5 -155.001v-39c0 -96.667 25.833 -172.667 77.5 -228s131.834 -83 240.501 -83c28 0 59.5 2.5 94.5 7.5s70.5 12.833 106.5 23.5s69.667 24.334 101 41.001l8 -218c-25.333 -12.667 -55.166 -24 -89.499 -34s-72.5 -17.833 -114.5 -23.5
s-87 -8.5 -135 -8.5zM452.998 175.999c28 0 55.667 6.66699 83 20s52.833 32 76.5 56s44.167 52.667 61.5 86v157c-9.33301 -6 -21.166 -11.5 -35.499 -16.5s-35.5 -10.5 -63.5 -16.5s-67.333 -13.667 -118 -23c-28 -5.33301 -51.833 -14.333 -71.5 -27
s-34.834 -29 -45.501 -49s-16 -43 -16 -69c0 -43.333 13 -73.833 39 -91.5s56 -26.5 90 -26.5zM383.998 -23.001c-64 0 -119.668 11.6719 -167.001 35.0049s-83.833 57.166 -109.5 101.499s-38.5 97.833 -38.5 160.5c0 55.333 9.66699 102.166 29 140.499
s44.666 69.666 75.999 93.999s66.333 43.166 105 56.499s77.334 23 116.001 29l285 42c2 46.667 -5.83301 82.667 -23.5 108s-42.834 42.833 -75.501 52.5s-70 14.5 -112 14.5c-22.667 0 -47.167 -1.83301 -73.5 -5.5s-54.166 -9.16699 -83.499 -16.5
s-59.5 -16.5 -90.5 -27.5s-62.833 -24.167 -95.5 -39.5l-13 221c23.333 9.33301 50 18.666 80 27.999s62.333 17.833 97 25.5s71 13.667 109 18s76.667 6.5 116 6.5c115.333 0 203.5 -27.167 264.5 -81.5s91.5 -143.833 91.5 -268.5l-40 -164v-252
c-36 -65.333 -77.167 -118.5 -123.5 -159.5s-96.666 -71 -150.999 -90s-111.833 -28.5 -172.5 -28.5zM758.997 454.004v159l639 11l150 -57v-113h-789z" />
    <glyph glyph-name="ccedilla" unicode="&#xe7;" horiz-adv-x="976" 
d="M601 -21c-111.333 0 -205.829 22.5 -283.496 67.5s-136.667 106.5 -177 184.5s-60.5 166.667 -60.5 266c0 100 19 189.5 57 268.5s94.167 141.333 168.5 187s166.5 68.5 276.5 68.5c39.333 0 78.333 -3 117 -9s75.167 -14.5 109.5 -25.5s64.833 -23.833 91.5 -38.5
l-20 -222c-38 21.333 -72.833 37.666 -104.5 48.999s-60.834 19 -87.501 23s-50.667 6 -72 6c-84 0 -151.167 -27 -201.5 -81s-75.5 -127 -75.5 -219c0 -60.667 12 -114.5 36 -161.5s59.5 -84 106.5 -111s105.5 -40.5 175.5 -40.5c26 0 52 2.33301 78 7
s51.667 11.834 77 21.501s49.666 22.167 72.999 37.5l15 -222c-22.667 -10.667 -48.834 -20.167 -78.501 -28.5s-62.834 -15 -99.501 -20s-77 -7.5 -121 -7.5zM511.004 -438c-16.667 0 -33.1689 0.668945 -49.502 2.00195s-31.666 3.33301 -45.999 6s-26.5 5.66699 -36.5 9
v146c8.66699 -3.33301 21.5 -6.33301 38.5 -9s35.833 -4 56.5 -4c40 0 68.667 6.5 86 19.5s26 30.167 26 51.5c0 12.667 -4.16699 24.667 -12.5 36s-23 21.666 -44 30.999s-51.167 17 -90.5 23l74 175h136v-48l-45 -104c46 -8 82.333 -19.833 109 -35.5
s45.5 -34.334 56.5 -56.001s16.5 -45.167 16.5 -70.5c0 -32 -8.83301 -61 -26.5 -87s-46.667 -46.667 -87 -62s-94.166 -23 -161.499 -23z" />
    <glyph glyph-name="egrave" unicode="&#xe8;" horiz-adv-x="1054" 
d="M622 -25c-125.333 0 -228.002 22.666 -308.002 67.999s-139 107.666 -177 186.999s-57 170 -57 272c0 101.333 18.167 191.166 54.5 269.499s89.833 139.5 160.5 183.5s157.334 66 260.001 66c88.667 0 164.5 -16.167 227.5 -48.5s111.5 -80.666 145.5 -144.999
s51 -145.166 51 -242.499c0 -26 -0.5 -49.333 -1.5 -70s-3.16699 -41 -6.5 -61l-221 89c1.33301 9.33301 2.33301 18.833 3 28.5s1 18.834 1 27.501c0 73.333 -18.333 130.833 -55 172.5s-84 62.5 -142 62.5c-44 0 -82.667 -12.5 -116 -37.5s-59.666 -59.833 -78.999 -104.5
s-29 -96.334 -29 -155.001v-39c0 -64.667 11.333 -120.167 34 -166.5s57.667 -82 105 -107s107 -37.5 179 -37.5c28 0 59.5 2.5 94.5 7.5s70.5 12.833 106.5 23.5s69.667 24.334 101 41.001l8 -218c-25.333 -12.667 -55 -24 -89 -34s-72 -17.833 -114 -23.5
s-87.333 -8.5 -136 -8.5zM179.998 453.999v159l641 11l150 -57v-113h-791zM538.998 1139l-108 134.5l-110.5 136.5l-112.5 139l267 6l128 -206l129 -207z" />
    <glyph glyph-name="eacute" unicode="&#xe9;" horiz-adv-x="1054" 
d="M622 -25c-125.333 0 -228.002 22.666 -308.002 67.999s-139 107.666 -177 186.999s-57 170 -57 272c0 101.333 18.167 191.166 54.5 269.499s89.833 139.5 160.5 183.5s157.334 66 260.001 66c88.667 0 164.5 -16.167 227.5 -48.5s111.5 -80.666 145.5 -144.999
s51 -145.166 51 -242.499c0 -26 -0.5 -49.333 -1.5 -70s-3.16699 -41 -6.5 -61l-221 89c1.33301 9.33301 2.33301 18.833 3 28.5s1 18.834 1 27.501c0 73.333 -18.333 130.833 -55 172.5s-84 62.5 -142 62.5c-44 0 -82.667 -12.5 -116 -37.5s-59.666 -59.833 -78.999 -104.5
s-29 -96.334 -29 -155.001v-39c0 -64.667 11.333 -120.167 34 -166.5s57.667 -82 105 -107s107 -37.5 179 -37.5c28 0 59.5 2.5 94.5 7.5s70.5 12.833 106.5 23.5s69.667 24.334 101 41.001l8 -218c-25.333 -12.667 -55 -24 -89 -34s-72 -17.833 -114 -23.5
s-87.333 -8.5 -136 -8.5zM179.998 453.999v159l641 11l150 -57v-113h-791zM373.998 1139l129 205.5l127 204.5l268 6l-113 -140.5l-110 -137.5l-108 -135z" />
    <glyph glyph-name="ecircumflex" unicode="&#xea;" horiz-adv-x="1054" 
d="M622 -25c-125.333 0 -228.002 22.666 -308.002 67.999s-139 107.666 -177 186.999s-57 170 -57 272c0 101.333 18.167 191.166 54.5 269.499s89.833 139.5 160.5 183.5s157.334 66 260.001 66c88.667 0 164.5 -16.167 227.5 -48.5s111.5 -80.666 145.5 -144.999
s51 -145.166 51 -242.499c0 -26 -0.5 -49.333 -1.5 -70s-3.16699 -41 -6.5 -61l-221 89c1.33301 9.33301 2.33301 18.833 3 28.5s1 18.834 1 27.501c0 73.333 -18.333 130.833 -55 172.5s-84 62.5 -142 62.5c-44 0 -82.667 -12.5 -116 -37.5s-59.666 -59.833 -78.999 -104.5
s-29 -96.334 -29 -155.001v-39c0 -64.667 11.333 -120.167 34 -166.5s57.667 -82 105 -107s107 -37.5 179 -37.5c28 0 59.5 2.5 94.5 7.5s70.5 12.833 106.5 23.5s69.667 24.334 101 41.001l8 -218c-25.333 -12.667 -55 -24 -89 -34s-72 -17.833 -114 -23.5
s-87.333 -8.5 -136 -8.5zM179.998 453.999v159l641 11l150 -57v-113h-791zM748.998 1137l-113 149.5l-115 150.5h61l-113 -149l-113 -147h-193l128 204l128 206h265l128 -206l128 -205z" />
    <glyph glyph-name="edieresis" unicode="&#xeb;" horiz-adv-x="1054" 
d="M622 -25c-125.333 0 -228.002 22.666 -308.002 67.999s-139 107.666 -177 186.999s-57 170 -57 272c0 101.333 18.167 191.166 54.5 269.499s89.833 139.5 160.5 183.5s157.334 66 260.001 66c88.667 0 164.5 -16.167 227.5 -48.5s111.5 -80.666 145.5 -144.999
s51 -145.166 51 -242.499c0 -26 -0.5 -49.333 -1.5 -70s-3.16699 -41 -6.5 -61l-221 89c1.33301 9.33301 2.33301 18.833 3 28.5s1 18.834 1 27.501c0 73.333 -18.333 130.833 -55 172.5s-84 62.5 -142 62.5c-44 0 -82.667 -12.5 -116 -37.5s-59.666 -59.833 -78.999 -104.5
s-29 -96.334 -29 -155.001v-39c0 -64.667 11.333 -120.167 34 -166.5s57.667 -82 105 -107s107 -37.5 179 -37.5c28 0 59.5 2.5 94.5 7.5s70.5 12.833 106.5 23.5s69.667 24.334 101 41.001l8 -218c-25.333 -12.667 -55 -24 -89 -34s-72 -17.833 -114 -23.5
s-87.333 -8.5 -136 -8.5zM179.998 453.999v159l641 11l150 -57v-113h-791zM773.998 1165c-43.333 0 -77.5 12.167 -102.5 36.5s-37.5 60.833 -37.5 109.5c0 44 12.667 78.833 38 104.5s60 38.5 104 38.5s78.5 -13.333 103.5 -40s37.5 -61 37.5 -103
c0 -48.667 -12.5 -85.167 -37.5 -109.5s-60.167 -36.5 -105.5 -36.5zM329.998 1165c-43.333 0 -77.667 12.167 -103 36.5s-38 60.833 -38 109.5c0 44 12.833 78.833 38.5 104.5s60.5 38.5 104.5 38.5s78.5 -13.333 103.5 -40s37.5 -61 37.5 -103
c0 -48.667 -12.667 -85.167 -38 -109.5s-60.333 -36.5 -105 -36.5z" />
    <glyph glyph-name="igrave" unicode="&#xec;" horiz-adv-x="543" 
d="M144 0v209v225v100v173.5v147v141.5l254 8v-144v-149.5v-176.5v-100v-225v-209h-254zM257 1139l-108 134.5l-110.5 136.5l-112.5 139l267 6l128 -206l129 -207z" />
    <glyph glyph-name="iacute" unicode="&#xed;" horiz-adv-x="543" 
d="M144 0v209v225v100v173.5v147v141.5l254 8v-144v-149.5v-176.5v-100v-225v-209h-254zM92 1139l129 205.5l127 204.5l268 6l-113 -140.5l-110 -137.5l-108 -135z" />
    <glyph glyph-name="icircumflex" unicode="&#xee;" horiz-adv-x="543" 
d="M144 0v209v225v100v173.5v147v141.5l254 8v-144v-149.5v-176.5v-100v-225v-209h-254zM433 1137l-82 136.5l-83.5 138l-83.5 139.5h204l112 -205l113 -206zM-74 1141l113.5 204.5l112.5 205.5h204l-84.5 -139l-82.5 -136.5l-81 -134.5h-182z" />
    <glyph glyph-name="idieresis" unicode="&#xef;" horiz-adv-x="543" 
d="M144 0v209v225v100v173.5v147v141.5l254 8v-144v-149.5v-176.5v-100v-225v-209h-254zM459 1165c-41.333 0 -73.833 12.167 -97.5 36.5s-35.5 60.833 -35.5 109.5c0 44 12 78.833 36 104.5s57 38.5 99 38.5s74.833 -13.333 98.5 -40s35.5 -61 35.5 -103
c0 -32.667 -5.5 -59.667 -16.5 -81s-26.5 -37.5 -46.5 -48.5s-44.333 -16.5 -73 -16.5zM81 1165c-41.333 0 -74 12.167 -98 36.5s-36 60.833 -36 109.5c0 44 12.167 78.833 36.5 104.5s57.5 38.5 99.5 38.5s74.667 -13.333 98 -40s35 -61 35 -103
c0 -32.667 -5.33301 -59.667 -16 -81s-26.167 -37.5 -46.5 -48.5s-44.5 -16.5 -72.5 -16.5z" />
    <glyph glyph-name="eth" unicode="&#xf0;" horiz-adv-x="1187" 
d="M599 -25c-116.667 0 -213.325 23.6709 -289.992 71.0039s-134 109.666 -172 186.999s-57 160.666 -57 249.999c0 91.333 17.333 172.166 52 242.499s82.667 125.666 144 165.999s132.666 60.5 213.999 60.5c34 0 69.5 -3.83301 106.5 -11.5s72.833 -19.334 107.5 -35.001
s66 -36.167 94 -61.5l42 22c28 -39.333 45.167 -82.666 51.5 -129.999s-2.16699 -90.666 -25.5 -129.999c-34 41.333 -68 72 -102 92s-65.833 33.167 -95.5 39.5s-54.834 9.5 -75.501 9.5c-56.667 0 -103.834 -12.833 -141.501 -38.5s-66 -59.5 -85 -101.5
s-28.5 -86.667 -28.5 -134c0 -48.667 9.66699 -94.834 29 -138.501s48.166 -79.5 86.499 -107.5s86.166 -42 143.499 -42c84.667 0 147.5 38 188.5 114s61.5 186.667 61.5 332c0 110.667 -19.833 213.667 -59.5 309s-97.5 184 -173.5 266
c-36.667 40 -77.834 78.5 -123.501 115.5s-95.834 72.833 -150.501 107.5l207 78c50 -28.667 97.667 -60.167 143 -94.5s87.666 -71.5 126.999 -111.5c90 -90 160.833 -192.167 212.5 -306.5s77.5 -244.5 77.5 -390.5c0 -127.333 -17.833 -238 -53.5 -332
s-91 -167 -166 -219s-171.167 -78 -288.5 -78zM324.009 1044l-53 159l175.5 57.5l157.5 52.5l96 31l155 51.5l176 57.5l53 -158l-174.5 -58l-159.5 -52l-92 -31l-159 -52z" />
    <glyph glyph-name="ntilde" unicode="&#xf1;" horiz-adv-x="1153" 
d="M139 0v209.002v225v100v229v233l216 13l10 -177h23c22 32 49.167 62.5 81.5 91.5s70 52.667 113 71s92.167 27.5 147.5 27.5c102 0 178.167 -29.833 228.5 -89.5s75.5 -147.834 75.5 -264.501v-119.5v-114.5v-223.5v-210.5h-254v209v212v169
c0 65.333 -11.167 114.666 -33.5 147.999s-62.5 50 -120.5 50c-34 0 -65.167 -6.83301 -93.5 -20.5s-54 -32 -77 -55s-43.833 -48.833 -62.5 -77.5v-214v-213.5v-207.5h-254zM761 1126c-40.667 0 -76.334 8.16797 -107.001 24.501s-57.834 35.166 -81.501 56.499
s-45.667 40 -66 56s-40.833 24 -61.5 24c-33.333 0 -57.166 -12 -71.499 -36s-23.166 -54 -26.499 -90h-138c0 100 19.167 176.5 57.5 229.5s89.833 79.5 154.5 79.5c40 0 75 -8 105 -24s56.5 -34.667 79.5 -56s44.833 -40 65.5 -56s41.667 -24 63 -24
c32.667 0 55.667 12 69 36s21.333 54 24 90h138c0 -99.333 -18.5 -175.833 -55.5 -229.5s-86.5 -80.5 -148.5 -80.5z" />
    <glyph glyph-name="ograve" unicode="&#xf2;" horiz-adv-x="1195" 
d="M602 -25c-88 0 -164.668 14.1699 -230.001 42.5029s-119.666 67.166 -162.999 116.499s-75.666 105.666 -96.999 168.999s-32 129.666 -32 198.999c0 99.333 20 188.166 60 266.499s98.5 140.166 175.5 185.499s170.833 68 281.5 68
c85.333 0 160.166 -13.167 224.499 -39.5s118.333 -63.166 162 -110.499s76.5 -102.5 98.5 -165.5s33 -131.167 33 -204.5c0 -100 -20.167 -189.667 -60.5 -269s-98.833 -142.166 -175.5 -188.499s-169 -69.5 -277 -69.5zM600.999 185.003
c57.333 0 104.832 15.168 142.499 45.501s65.834 69.5 84.501 117.5s28 99.333 28 154c0 64 -10.5 119.167 -31.5 165.5s-50.833 82 -89.5 107s-83.667 37.5 -135 37.5c-56.667 0 -104.5 -13.833 -143.5 -41.5s-68.333 -64.834 -88 -111.501s-29.5 -99 -29.5 -157
c0 -54.667 9.66699 -106 29 -154s48.5 -87.167 87.5 -117.5s87.5 -45.5 145.5 -45.5zM582.998 1139l-108 134.5l-110.5 136.5l-112.5 139l267 6l128 -206l129 -207z" />
    <glyph glyph-name="oacute" unicode="&#xf3;" horiz-adv-x="1195" 
d="M602 -25c-88 0 -164.668 14.1699 -230.001 42.5029s-119.666 67.166 -162.999 116.499s-75.666 105.666 -96.999 168.999s-32 129.666 -32 198.999c0 99.333 20 188.166 60 266.499s98.5 140.166 175.5 185.499s170.833 68 281.5 68
c85.333 0 160.166 -13.167 224.499 -39.5s118.333 -63.166 162 -110.499s76.5 -102.5 98.5 -165.5s33 -131.167 33 -204.5c0 -100 -20.167 -189.667 -60.5 -269s-98.833 -142.166 -175.5 -188.499s-169 -69.5 -277 -69.5zM600.999 185.003
c57.333 0 104.832 15.168 142.499 45.501s65.834 69.5 84.501 117.5s28 99.333 28 154c0 64 -10.5 119.167 -31.5 165.5s-50.833 82 -89.5 107s-83.667 37.5 -135 37.5c-56.667 0 -104.5 -13.833 -143.5 -41.5s-68.333 -64.834 -88 -111.501s-29.5 -99 -29.5 -157
c0 -54.667 9.66699 -106 29 -154s48.5 -87.167 87.5 -117.5s87.5 -45.5 145.5 -45.5zM417.998 1139l129 205.5l127 204.5l268 6l-113 -140.5l-110 -137.5l-108 -135z" />
    <glyph glyph-name="ocircumflex" unicode="&#xf4;" horiz-adv-x="1195" 
d="M602 -25c-88 0 -164.668 14.1699 -230.001 42.5029s-119.666 67.166 -162.999 116.499s-75.666 105.666 -96.999 168.999s-32 129.666 -32 198.999c0 99.333 20 188.166 60 266.499s98.5 140.166 175.5 185.499s170.833 68 281.5 68
c85.333 0 160.166 -13.167 224.499 -39.5s118.333 -63.166 162 -110.499s76.5 -102.5 98.5 -165.5s33 -131.167 33 -204.5c0 -100 -20.167 -189.667 -60.5 -269s-98.833 -142.166 -175.5 -188.499s-169 -69.5 -277 -69.5zM600.999 185.003
c57.333 0 104.832 15.168 142.499 45.501s65.834 69.5 84.501 117.5s28 99.333 28 154c0 64 -10.5 119.167 -31.5 165.5s-50.833 82 -89.5 107s-83.667 37.5 -135 37.5c-56.667 0 -104.5 -13.833 -143.5 -41.5s-68.333 -64.834 -88 -111.501s-29.5 -99 -29.5 -157
c0 -54.667 9.66699 -106 29 -154s48.5 -87.167 87.5 -117.5s87.5 -45.5 145.5 -45.5zM792.998 1137l-113 149.5l-115 150.5h61l-113 -149l-113 -147h-193l128 204l128 206h265l128 -206l128 -205z" />
    <glyph glyph-name="otilde" unicode="&#xf5;" horiz-adv-x="1195" 
d="M602 -25c-88 0 -164.668 14.1699 -230.001 42.5029s-119.666 67.166 -162.999 116.499s-75.666 105.666 -96.999 168.999s-32 129.666 -32 198.999c0 99.333 20 188.166 60 266.499s98.5 140.166 175.5 185.499s170.833 68 281.5 68
c85.333 0 160.166 -13.167 224.499 -39.5s118.333 -63.166 162 -110.499s76.5 -102.5 98.5 -165.5s33 -131.167 33 -204.5c0 -100 -20.167 -189.667 -60.5 -269s-98.833 -142.166 -175.5 -188.499s-169 -69.5 -277 -69.5zM600.999 185.003
c57.333 0 104.832 15.168 142.499 45.501s65.834 69.5 84.501 117.5s28 99.333 28 154c0 64 -10.5 119.167 -31.5 165.5s-50.833 82 -89.5 107s-83.667 37.5 -135 37.5c-56.667 0 -104.5 -13.833 -143.5 -41.5s-68.333 -64.834 -88 -111.501s-29.5 -99 -29.5 -157
c0 -54.667 9.66699 -106 29 -154s48.5 -87.167 87.5 -117.5s87.5 -45.5 145.5 -45.5zM770.998 1126c-40.667 0 -76.334 8.16797 -107.001 24.501s-57.834 35.166 -81.501 56.499s-45.667 40 -66 56s-40.833 24 -61.5 24c-33.333 0 -57.166 -12 -71.499 -36
s-23.166 -54 -26.499 -90h-138c0 100 19.167 176.5 57.5 229.5s89.833 79.5 154.5 79.5c40 0 75 -8 105 -24s56.5 -34.667 79.5 -56s44.833 -40 65.5 -56s41.667 -24 63 -24c32.667 0 55.667 12 69 36s21.333 54 24 90h138c0 -99.333 -18.5 -175.833 -55.5 -229.5
s-86.5 -80.5 -148.5 -80.5z" />
    <glyph glyph-name="odieresis" unicode="&#xf6;" horiz-adv-x="1195" 
d="M602 -25c-88 0 -164.668 14.1699 -230.001 42.5029s-119.666 67.166 -162.999 116.499s-75.666 105.666 -96.999 168.999s-32 129.666 -32 198.999c0 99.333 20 188.166 60 266.499s98.5 140.166 175.5 185.499s170.833 68 281.5 68
c85.333 0 160.166 -13.167 224.499 -39.5s118.333 -63.166 162 -110.499s76.5 -102.5 98.5 -165.5s33 -131.167 33 -204.5c0 -100 -20.167 -189.667 -60.5 -269s-98.833 -142.166 -175.5 -188.499s-169 -69.5 -277 -69.5zM600.999 185.003
c57.333 0 104.832 15.168 142.499 45.501s65.834 69.5 84.501 117.5s28 99.333 28 154c0 64 -10.5 119.167 -31.5 165.5s-50.833 82 -89.5 107s-83.667 37.5 -135 37.5c-56.667 0 -104.5 -13.833 -143.5 -41.5s-68.333 -64.834 -88 -111.501s-29.5 -99 -29.5 -157
c0 -54.667 9.66699 -106 29 -154s48.5 -87.167 87.5 -117.5s87.5 -45.5 145.5 -45.5zM817.998 1165c-43.333 0 -77.5 12.167 -102.5 36.5s-37.5 60.833 -37.5 109.5c0 44 12.667 78.833 38 104.5s60 38.5 104 38.5s78.5 -13.333 103.5 -40s37.5 -61 37.5 -103
c0 -48.667 -12.5 -85.167 -37.5 -109.5s-60.167 -36.5 -105.5 -36.5zM373.998 1165c-43.333 0 -77.667 12.167 -103 36.5s-38 60.833 -38 109.5c0 44 12.833 78.833 38.5 104.5s60.5 38.5 104.5 38.5s78.5 -13.333 103.5 -40s37.5 -61 37.5 -103
c0 -48.667 -12.667 -85.167 -38 -109.5s-60.333 -36.5 -105 -36.5z" />
    <glyph glyph-name="divide" unicode="&#xf7;" horiz-adv-x="1150" 
d="M110 493v222h193.5h174.5h194h175.5h193.5v-222h-193.5h-175.5h-194h-174.5h-193.5zM572 73c-44.667 0 -80.332 13.667 -106.999 41s-40 62.333 -40 105c0 42 13.333 76.167 40 102.5s62.667 39.5 108 39.5c46 0 82.333 -13.167 109 -39.5s40 -60.5 40 -102.5
c0 -42.667 -13.333 -77.667 -40 -105s-63.334 -41 -110.001 -41zM573.002 845c-46 0 -82.167 13.833 -108.5 41.5s-39.5 62.5 -39.5 104.5s13.333 76.333 40 103s63 40 109 40c45.333 0 81.333 -13.333 108 -40s40 -61 40 -103s-13.333 -76.833 -40 -104.5
s-63 -41.5 -109 -41.5z" />
    <glyph glyph-name="oslash" unicode="&#xf8;" horiz-adv-x="1194" 
d="M602 -25c-88 0 -164.666 14.1709 -229.999 42.5039s-119.5 67.166 -162.5 116.499s-75.333 105.666 -97 168.999s-32.5 129.666 -32.5 198.999c0 99.333 20 188.166 60 266.499s98.5 140 175.5 185s171.167 67.5 282.5 67.5c84.667 0 159.167 -13.167 223.5 -39.5
s118.333 -63 162 -110s76.667 -102 99 -165s33.5 -131.167 33.5 -204.5c0 -99.333 -20.333 -188.833 -61 -268.5s-99.334 -142.667 -176.001 -189s-169 -69.5 -277 -69.5zM600.001 182.004c58.667 0 107.167 15.167 145.5 45.5s66.833 69.833 85.5 118.5s28 100.667 28 156
c0 64.667 -10.667 120.5 -32 167.5s-51.5 83 -90.5 108s-84.5 37.5 -136.5 37.5c-57.333 0 -105.833 -13.833 -145.5 -41.5s-69.5 -65.167 -89.5 -112.5s-30 -100.333 -30 -159c0 -55.333 10 -107.333 30 -156s49.667 -88.167 89 -118.5s88 -45.5 146 -45.5z
M209.001 -141.996l-114 92l147 192l147 192l289 378l153 200l143 187l118 -87l-146 -190l-152 -199l-293 -383l-149 -195z" />
    <glyph glyph-name="ugrave" unicode="&#xf9;" horiz-adv-x="1133" 
d="M423 -25c-102 0 -178.17 29.8311 -228.503 89.498s-75.5 147.834 -75.5 264.501v115v100v171v142v139l254 8v-211.5v-218.5v-172c0 -65.333 11.167 -114.666 33.5 -147.999s62.5 -50 120.5 -50c32.667 0 62.834 6.83301 90.501 20.5s52.834 32 75.501 55
s43.334 48.833 62.001 77.5v217v214.5v207.5h254v-211.5v-240.5v-110v-225v-209h-216l-10 165h-23c-22 -32 -49 -62.5 -81 -91.5s-69.333 -52.667 -112 -71s-90.667 -27.5 -144 -27.5zM550.997 1139l-108 134.5l-110.5 136.5l-112.5 139l267 6l128 -206l129 -207z" />
    <glyph glyph-name="uacute" unicode="&#xfa;" horiz-adv-x="1133" 
d="M423 -25c-102 0 -178.17 29.8311 -228.503 89.498s-75.5 147.834 -75.5 264.501v115v100v171v142v139l254 8v-211.5v-218.5v-172c0 -65.333 11.167 -114.666 33.5 -147.999s62.5 -50 120.5 -50c32.667 0 62.834 6.83301 90.501 20.5s52.834 32 75.501 55
s43.334 48.833 62.001 77.5v217v214.5v207.5h254v-211.5v-240.5v-110v-225v-209h-216l-10 165h-23c-22 -32 -49 -62.5 -81 -91.5s-69.333 -52.667 -112 -71s-90.667 -27.5 -144 -27.5zM385.997 1139l129 205.5l127 204.5l268 6l-113 -140.5l-110 -137.5l-108 -135z" />
    <glyph glyph-name="ucircumflex" unicode="&#xfb;" horiz-adv-x="1133" 
d="M423 -25c-102 0 -178.17 29.8311 -228.503 89.498s-75.5 147.834 -75.5 264.501v115v100v171v142v139l254 8v-211.5v-218.5v-172c0 -65.333 11.167 -114.666 33.5 -147.999s62.5 -50 120.5 -50c32.667 0 62.834 6.83301 90.501 20.5s52.834 32 75.501 55
s43.334 48.833 62.001 77.5v217v214.5v207.5h254v-211.5v-240.5v-110v-225v-209h-216l-10 165h-23c-22 -32 -49 -62.5 -81 -91.5s-69.333 -52.667 -112 -71s-90.667 -27.5 -144 -27.5zM760.997 1137l-113 149.5l-115 150.5h61l-113 -149l-113 -147h-193l128 204l128 206h265
l128 -206l128 -205z" />
    <glyph glyph-name="udieresis" unicode="&#xfc;" horiz-adv-x="1133" 
d="M423 -25c-102 0 -178.17 29.8311 -228.503 89.498s-75.5 147.834 -75.5 264.501v115v100v171v142v139l254 8v-211.5v-218.5v-172c0 -65.333 11.167 -114.666 33.5 -147.999s62.5 -50 120.5 -50c32.667 0 62.834 6.83301 90.501 20.5s52.834 32 75.501 55
s43.334 48.833 62.001 77.5v217v214.5v207.5h254v-211.5v-240.5v-110v-225v-209h-216l-10 165h-23c-22 -32 -49 -62.5 -81 -91.5s-69.333 -52.667 -112 -71s-90.667 -27.5 -144 -27.5zM785.997 1165c-43.333 0 -77.5 12.167 -102.5 36.5s-37.5 60.833 -37.5 109.5
c0 44 12.667 78.833 38 104.5s60 38.5 104 38.5s78.5 -13.333 103.5 -40s37.5 -61 37.5 -103c0 -48.667 -12.5 -85.167 -37.5 -109.5s-60.167 -36.5 -105.5 -36.5zM341.997 1165c-43.333 0 -77.667 12.167 -103 36.5s-38 60.833 -38 109.5c0 44 12.833 78.833 38.5 104.5
s60.5 38.5 104.5 38.5s78.5 -13.333 103.5 -40s37.5 -61 37.5 -103c0 -48.667 -12.667 -85.167 -38 -109.5s-60.333 -36.5 -105 -36.5z" />
    <glyph glyph-name="yacute" unicode="&#xfd;" horiz-adv-x="1077" 
d="M240 -392l82.5 205l81.5 204v-51l-73.5 207.5l-73.5 204.5l-64 180l-78.5 219.5l-78.5 218.5l274 8l64.5 -225l64.5 -226l81 -286h23l89 286l69 221.5l69 221.5h271l-60 -155l-64 -165l-84 -215l-109 -280l-125.5 -323.5l-94.5 -241.5zM359 1139l129 205.5l127 204.5
l268 6l-113 -140.5l-110 -137.5l-108 -135z" />
    <glyph glyph-name="thorn" unicode="&#xfe;" horiz-adv-x="1184" 
d="M139 -392v213.001v229v937v242v236l254 24v-242v-260v-105h23c18.667 25.333 41.667 48.666 69 69.999s58.833 38.333 94.5 51s75.5 19 119.5 19c86 0 159.167 -22.833 219.5 -68.5s106 -108 137 -187s46.5 -167.833 46.5 -266.5c0 -92.667 -14.667 -179 -44 -259
s-74.333 -144.333 -135 -193s-137 -73 -229 -73c-42 0 -80.167 5.5 -114.5 16.5s-65.5 26.833 -93.5 47.5s-53.333 45.667 -76 75h-17v-77v-213.5v-207.5zM602 194.001c55.333 0 100.833 14.499 136.5 43.499s61.834 66.5 78.501 112.5s25 95.333 25 148
c0 55.333 -8.83301 105.833 -26.5 151.5s-44.334 82.334 -80.001 110.001s-80.834 41.5 -135.501 41.5c-27.333 0 -53.666 -4.16699 -78.999 -12.5s-49 -20.333 -71 -36s-41 -34.834 -57 -57.501v-373c15.333 -26 33 -48.667 53 -68s43 -34.166 69 -44.499
s55 -15.5 87 -15.5z" />
    <glyph glyph-name="ydieresis" unicode="&#xff;" horiz-adv-x="1077" 
d="M240 -392l82.5 205l81.5 204v-51l-73.5 207.5l-73.5 204.5l-64 180l-78.5 219.5l-78.5 218.5l274 8l64.5 -225l64.5 -226l81 -286h23l89 286l69 221.5l69 221.5h271l-60 -155l-64 -165l-84 -215l-109 -280l-125.5 -323.5l-94.5 -241.5zM759 1165
c-43.333 0 -77.5 12.167 -102.5 36.5s-37.5 60.833 -37.5 109.5c0 44 12.667 78.833 38 104.5s60 38.5 104 38.5s78.5 -13.333 103.5 -40s37.5 -61 37.5 -103c0 -48.667 -12.5 -85.167 -37.5 -109.5s-60.167 -36.5 -105.5 -36.5zM315 1165
c-43.333 0 -77.667 12.167 -103 36.5s-38 60.833 -38 109.5c0 44 12.833 78.833 38.5 104.5s60.5 38.5 104.5 38.5s78.5 -13.333 103.5 -40s37.5 -61 37.5 -103c0 -48.667 -12.667 -85.167 -38 -109.5s-60.333 -36.5 -105 -36.5z" />
    <glyph glyph-name="Amacron" unicode="&#x100;" horiz-adv-x="1418" 
d="M48 0l82 242l81 241l166 489l81.5 239.5l72.5 214.5h362l73 -218l80 -236l164 -490l82 -243l80 -239h-289l-74 241l-72 234l-217 710h-22l-219 -702l-74.5 -240.5l-75.5 -242.5h-281zM365 318l28 212h666l23 -212h-717zM377 1632v189h158h174h174h158v-189h-158h-174
h-174h-158z" />
    <glyph glyph-name="amacron" unicode="&#x101;" horiz-adv-x="1041" 
d="M376 -23c-56 0 -105.999 11.6738 -149.999 35.0068s-78.833 57.166 -104.5 101.499s-38.5 97.833 -38.5 160.5c0 55.333 9.66699 102.166 29 140.499s44.833 69.666 76.5 93.999s66.667 43.166 105 56.499s77.166 23 116.499 29l285 42
c2 46.667 -5.83301 82.667 -23.5 108s-42.834 42.833 -75.501 52.5s-70.334 14.5 -113.001 14.5c-22.667 0 -47.167 -1.83301 -73.5 -5.5s-54 -9.16699 -83 -16.5s-59.167 -16.5 -90.5 -27.5s-63.333 -24.167 -96 -39.5l-12 221c24.667 9.33301 52.5 18.666 83.5 27.999
s64.833 17.833 101.5 25.5s74.834 13.667 114.501 18s80.5 6.5 122.5 6.5c81.333 0 150.833 -11.833 208.5 -35.5s101.834 -61.334 132.501 -113.001s46 -118.834 46 -201.501v-119v-130v-110v-148.5v-163.5h-225l-15 130h-21c-18.667 -24.667 -42 -48.5 -70 -71.5
s-61.167 -42.333 -99.5 -58s-81.833 -23.5 -130.5 -23.5zM468.001 176.007c28 0 55.668 6.66699 83.001 20s52.833 32 76.5 56s43.834 52.667 60.501 86v157c-8.66699 -6 -20.167 -11.5 -34.5 -16.5s-35.5 -10.5 -63.5 -16.5s-67.333 -13.667 -118 -23
c-28.667 -5.33301 -52.834 -14.333 -72.501 -27s-34.834 -29 -45.501 -49s-16 -43 -16 -69c0 -43.333 13.167 -73.833 39.5 -91.5s56.5 -26.5 90.5 -26.5zM199.002 1212.01v189h158h174h174h158v-189h-158h-174h-174h-158z" />
    <glyph glyph-name="Abreve" unicode="&#x102;" horiz-adv-x="1418" 
d="M48 0l82 242l81 241l166 489l81.5 239.5l72.5 214.5h362l73 -218l80 -236l164 -490l82 -243l80 -239h-289l-74 241l-72 234l-217 710h-22l-219 -702l-74.5 -240.5l-75.5 -242.5h-281zM365 318l28 212h666l23 -212h-717zM706 1543c-116 0 -204 32.668 -264 98.001
s-90 164.666 -90 297.999l178 8c0 -76.667 14.667 -134.167 44 -172.5s73.333 -57.5 132 -57.5c60 0 104.667 18.833 134 56.5s44 92.834 44 165.501h178c0 -89.333 -13.167 -163.333 -39.5 -222s-66 -102.334 -119 -131.001s-118.833 -43 -197.5 -43z" />
    <glyph glyph-name="abreve" unicode="&#x103;" horiz-adv-x="1041" 
d="M376 -23c-56 0 -105.999 11.6738 -149.999 35.0068s-78.833 57.166 -104.5 101.499s-38.5 97.833 -38.5 160.5c0 55.333 9.66699 102.166 29 140.499s44.833 69.666 76.5 93.999s66.667 43.166 105 56.499s77.166 23 116.499 29l285 42
c2 46.667 -5.83301 82.667 -23.5 108s-42.834 42.833 -75.501 52.5s-70.334 14.5 -113.001 14.5c-22.667 0 -47.167 -1.83301 -73.5 -5.5s-54 -9.16699 -83 -16.5s-59.167 -16.5 -90.5 -27.5s-63.333 -24.167 -96 -39.5l-12 221c24.667 9.33301 52.5 18.666 83.5 27.999
s64.833 17.833 101.5 25.5s74.834 13.667 114.501 18s80.5 6.5 122.5 6.5c81.333 0 150.833 -11.833 208.5 -35.5s101.834 -61.334 132.501 -113.001s46 -118.834 46 -201.501v-119v-130v-110v-148.5v-163.5h-225l-15 130h-21c-18.667 -24.667 -42 -48.5 -70 -71.5
s-61.167 -42.333 -99.5 -58s-81.833 -23.5 -130.5 -23.5zM468.001 176.007c28 0 55.668 6.66699 83.001 20s52.833 32 76.5 56s43.834 52.667 60.501 86v157c-8.66699 -6 -20.167 -11.5 -34.5 -16.5s-35.5 -10.5 -63.5 -16.5s-67.333 -13.667 -118 -23
c-28.667 -5.33301 -52.834 -14.333 -72.501 -27s-34.834 -29 -45.501 -49s-16 -43 -16 -69c0 -43.333 13.167 -73.833 39.5 -91.5s56.5 -26.5 90.5 -26.5zM528.002 1123.01c-116 0 -204 32.6699 -264 98.0029s-90 164.666 -90 297.999l178 8c0 -77.333 14.667 -135 44 -173
s73.333 -57 132 -57c60 0 104.667 18.667 134 56s44 92.666 44 165.999h178c0 -89.333 -13.167 -163.333 -39.5 -222s-66 -102.334 -119 -131.001s-118.833 -43 -197.5 -43z" />
    <glyph glyph-name="Aogonek" unicode="&#x104;" horiz-adv-x="1418" 
d="M48 0l82 242l81 241l166 489l81.5 239.5l72.5 214.5h362l73 -218l80 -236l164 -490l82 -243l80 -239h-289l-74 241l-72 234l-217 710h-22l-219 -702l-74.5 -240.5l-75.5 -242.5h-281zM365 318l28 212h666l23 -212h-717zM1251 -429c-58 0 -105.667 7.50098 -143 22.501
s-65 35.667 -83 62s-27 56.5 -27 90.5c0 34.667 7.83301 67 23.5 97s37.667 57.667 66 83s61.5 48.666 99.5 69.999v51l133 13l51 -60c-52 -24 -95.5 -52.667 -130.5 -86s-52.5 -68.333 -52.5 -105c0 -26 9.16699 -45.5 27.5 -58.5s43.166 -19.5 74.499 -19.5
c21.333 0 39.333 1.66699 54 5s26.334 6.33301 35.001 9v-155c-14.667 -5.33301 -33.5 -9.83301 -56.5 -13.5s-46.833 -5.5 -71.5 -5.5z" />
    <glyph glyph-name="aogonek" unicode="&#x105;" horiz-adv-x="1055" 
d="M376 -23c-56 0 -105.999 11.6738 -149.999 35.0068s-78.833 57.166 -104.5 101.499s-38.5 97.833 -38.5 160.5c0 55.333 9.66699 102.166 29 140.499s44.833 69.666 76.5 93.999s66.667 43.166 105 56.499s77.166 23 116.499 29l285 42
c2 46.667 -5.83301 82.667 -23.5 108s-42.834 42.833 -75.501 52.5s-70.334 14.5 -113.001 14.5c-22.667 0 -47.167 -1.83301 -73.5 -5.5s-54 -9.16699 -83 -16.5s-59.167 -16.5 -90.5 -27.5s-63.333 -24.167 -96 -39.5l-12 221c24.667 9.33301 52.5 18.666 83.5 27.999
s64.833 17.833 101.5 25.5s74.834 13.667 114.501 18s80.5 6.5 122.5 6.5c81.333 0 150.833 -11.833 208.5 -35.5s101.834 -61.334 132.501 -113.001s46 -118.834 46 -201.501v-119v-130v-110v-148.5v-163.5h-225l-15 130h-21c-18.667 -24.667 -42 -48.5 -70 -71.5
s-61.167 -42.333 -99.5 -58s-81.833 -23.5 -130.5 -23.5zM468.001 176.007c28 0 55.668 6.66699 83.001 20s52.833 32 76.5 56s43.834 52.667 60.501 86v157c-8.66699 -6 -20.167 -11.5 -34.5 -16.5s-35.5 -10.5 -63.5 -16.5s-67.333 -13.667 -118 -23
c-28.667 -5.33301 -52.834 -14.333 -72.501 -27s-34.834 -29 -45.501 -49s-16 -43 -16 -69c0 -43.333 13.167 -73.833 39.5 -91.5s56.5 -26.5 90.5 -26.5zM817.002 -428.993c-58 0 -105.667 7.50098 -143 22.501s-65 35.667 -83 62s-27 56.5 -27 90.5
c0 34.667 7.83301 67 23.5 97s37.667 57.667 66 83s61.5 48.666 99.5 69.999v53l122 13l62 -62c-52 -24 -95.5 -52.667 -130.5 -86s-52.5 -68.333 -52.5 -105c0 -26 9.16699 -45.5 27.5 -58.5s43.166 -19.5 74.499 -19.5c21.333 0 39.333 1.66699 54 5
s26.334 6.33301 35.001 9v-155c-14.667 -5.33301 -33.5 -9.83301 -56.5 -13.5s-46.833 -5.5 -71.5 -5.5z" />
    <glyph glyph-name="Cacute" unicode="&#x106;" horiz-adv-x="1368" 
d="M829 -25c-114.667 0 -217.999 17.8311 -309.999 53.498s-170.333 86.334 -235 152.001s-114.167 143.667 -148.5 234s-51.5 189.833 -51.5 298.5c0 143.333 29.167 270.833 87.5 382.5s141.166 199.334 248.499 263.001s235 95.5 383 95.5c46 0 91.5 -3 136.5 -9
s88 -14.333 129 -25s79 -22.5 114 -35.5s65.833 -26.833 92.5 -41.5l-22 -262c-51.333 32 -101.333 57.833 -150 77.5s-95.5 33.834 -140.5 42.501s-88.5 13 -130.5 13c-88 0 -166.5 -19.667 -235.5 -59s-123.167 -96.333 -162.5 -171s-59 -165 -59 -271
c0 -68.667 10.167 -133.5 30.5 -194.5s50.833 -114.833 91.5 -161.5s91.5 -83.167 152.5 -109.5s132.167 -39.5 213.5 -39.5c32 0 64.333 2.16699 97 6.5s65.334 11.166 98.001 20.499s65 22 97 38s63.667 35.333 95 58l17 -259c-28 -16.667 -59.333 -31.167 -94 -43.5
s-70.834 -22.5 -108.501 -30.5s-76.5 -13.833 -116.5 -17.5s-79.667 -5.5 -119 -5.5zM605.001 1559l129 187l127 186l268 5l-112.5 -128l-110.5 -125l-108 -122z" />
    <glyph glyph-name="cacute" unicode="&#x107;" horiz-adv-x="976" 
d="M601 -21c-111.333 0 -205.829 22.5 -283.496 67.5s-136.667 106.5 -177 184.5s-60.5 166.667 -60.5 266c0 100 19 189.5 57 268.5s94.167 141.333 168.5 187s166.5 68.5 276.5 68.5c39.333 0 78.333 -3 117 -9s75.167 -14.5 109.5 -25.5s64.833 -23.833 91.5 -38.5
l-20 -222c-38 21.333 -72.833 37.666 -104.5 48.999s-60.834 19 -87.501 23s-50.667 6 -72 6c-84 0 -151.167 -27 -201.5 -81s-75.5 -127 -75.5 -219c0 -60.667 12 -114.5 36 -161.5s59.5 -84 106.5 -111s105.5 -40.5 175.5 -40.5c26 0 52 2.33301 78 7
s51.667 11.834 77 21.501s49.666 22.167 72.999 37.5l15 -222c-22.667 -10.667 -48.834 -20.167 -78.501 -28.5s-62.834 -15 -99.501 -20s-77 -7.5 -121 -7.5zM376.004 1139l129 205.5l127 204.5l268 6l-113 -140.5l-110 -137.5l-108 -135z" />
    <glyph glyph-name="Ccircumflex" unicode="&#x108;" horiz-adv-x="1368" 
d="M829 -25c-114.667 0 -217.999 17.8311 -309.999 53.498s-170.333 86.334 -235 152.001s-114.167 143.667 -148.5 234s-51.5 189.833 -51.5 298.5c0 143.333 29.167 270.833 87.5 382.5s141.166 199.334 248.499 263.001s235 95.5 383 95.5c46 0 91.5 -3 136.5 -9
s88 -14.333 129 -25s79 -22.5 114 -35.5s65.833 -26.833 92.5 -41.5l-22 -262c-51.333 32 -101.333 57.833 -150 77.5s-95.5 33.834 -140.5 42.501s-88.5 13 -130.5 13c-88 0 -166.5 -19.667 -235.5 -59s-123.167 -96.333 -162.5 -171s-59 -165 -59 -271
c0 -68.667 10.167 -133.5 30.5 -194.5s50.833 -114.833 91.5 -161.5s91.5 -83.167 152.5 -109.5s132.167 -39.5 213.5 -39.5c32 0 64.333 2.16699 97 6.5s65.334 11.166 98.001 20.499s65 22 97 38s63.667 35.333 95 58l17 -259c-28 -16.667 -59.333 -31.167 -94 -43.5
s-70.834 -22.5 -108.501 -30.5s-76.5 -13.833 -116.5 -17.5s-79.667 -5.5 -119 -5.5zM980.001 1557l-114.5 137.5l-116.5 139.5h66l-114.5 -137.5l-113.5 -135.5h-193l128 185l128 188h265l128 -188.5l128 -185.5z" />
    <glyph glyph-name="ccircumflex" unicode="&#x109;" horiz-adv-x="976" 
d="M601 -21c-111.333 0 -205.829 22.5 -283.496 67.5s-136.667 106.5 -177 184.5s-60.5 166.667 -60.5 266c0 100 19 189.5 57 268.5s94.167 141.333 168.5 187s166.5 68.5 276.5 68.5c39.333 0 78.333 -3 117 -9s75.167 -14.5 109.5 -25.5s64.833 -23.833 91.5 -38.5
l-20 -222c-38 21.333 -72.833 37.666 -104.5 48.999s-60.834 19 -87.501 23s-50.667 6 -72 6c-84 0 -151.167 -27 -201.5 -81s-75.5 -127 -75.5 -219c0 -60.667 12 -114.5 36 -161.5s59.5 -84 106.5 -111s105.5 -40.5 175.5 -40.5c26 0 52 2.33301 78 7
s51.667 11.834 77 21.501s49.666 22.167 72.999 37.5l15 -222c-22.667 -10.667 -48.834 -20.167 -78.501 -28.5s-62.834 -15 -99.501 -20s-77 -7.5 -121 -7.5zM751.004 1137l-113 149.5l-115 150.5h61l-113 -149l-113 -147h-193l128 204l128 206h265l128 -206l128 -205z" />
    <glyph glyph-name="Cdotaccent" unicode="&#x10a;" horiz-adv-x="1368" 
d="M829 -25c-114.667 0 -217.999 17.8311 -309.999 53.498s-170.333 86.334 -235 152.001s-114.167 143.667 -148.5 234s-51.5 189.833 -51.5 298.5c0 143.333 29.167 270.833 87.5 382.5s141.166 199.334 248.499 263.001s235 95.5 383 95.5c46 0 91.5 -3 136.5 -9
s88 -14.333 129 -25s79 -22.5 114 -35.5s65.833 -26.833 92.5 -41.5l-22 -262c-51.333 32 -101.333 57.833 -150 77.5s-95.5 33.834 -140.5 42.501s-88.5 13 -130.5 13c-88 0 -166.5 -19.667 -235.5 -59s-123.167 -96.333 -162.5 -171s-59 -165 -59 -271
c0 -68.667 10.167 -133.5 30.5 -194.5s50.833 -114.833 91.5 -161.5s91.5 -83.167 152.5 -109.5s132.167 -39.5 213.5 -39.5c32 0 64.333 2.16699 97 6.5s65.334 11.166 98.001 20.499s65 22 97 38s63.667 35.333 95 58l17 -259c-28 -16.667 -59.333 -31.167 -94 -43.5
s-70.834 -22.5 -108.501 -30.5s-76.5 -13.833 -116.5 -17.5s-79.667 -5.5 -119 -5.5zM781.001 1585c-48.667 0 -87.667 12.167 -117 36.5s-44 63.166 -44 116.499c0 48.667 14.667 85.834 44 111.501s69 38.5 119 38.5s89.5 -13.333 118.5 -40s43.5 -63.334 43.5 -110.001
c0 -53.333 -14.5 -92.166 -43.5 -116.499s-69.167 -36.5 -120.5 -36.5z" />
    <glyph glyph-name="cdotaccent" unicode="&#x10b;" horiz-adv-x="976" 
d="M601 -21c-111.333 0 -205.829 22.5 -283.496 67.5s-136.667 106.5 -177 184.5s-60.5 166.667 -60.5 266c0 100 19 189.5 57 268.5s94.167 141.333 168.5 187s166.5 68.5 276.5 68.5c39.333 0 78.333 -3 117 -9s75.167 -14.5 109.5 -25.5s64.833 -23.833 91.5 -38.5
l-20 -222c-38 21.333 -72.833 37.666 -104.5 48.999s-60.834 19 -87.501 23s-50.667 6 -72 6c-84 0 -151.167 -27 -201.5 -81s-75.5 -127 -75.5 -219c0 -60.667 12 -114.5 36 -161.5s59.5 -84 106.5 -111s105.5 -40.5 175.5 -40.5c26 0 52 2.33301 78 7
s51.667 11.834 77 21.501s49.666 22.167 72.999 37.5l15 -222c-22.667 -10.667 -48.834 -20.167 -78.501 -28.5s-62.834 -15 -99.501 -20s-77 -7.5 -121 -7.5zM552.004 1175c-48.667 0 -87.667 12.167 -117 36.5s-44 63.166 -44 116.499c0 48.667 14.667 85.834 44 111.501
s69 38.5 119 38.5s89.5 -13.333 118.5 -40s43.5 -63.334 43.5 -110.001c0 -53.333 -14.5 -92.166 -43.5 -116.499s-69.167 -36.5 -120.5 -36.5z" />
    <glyph glyph-name="Ccaron" unicode="&#x10c;" horiz-adv-x="1368" 
d="M829 -25c-114.667 0 -217.999 17.8311 -309.999 53.498s-170.333 86.334 -235 152.001s-114.167 143.667 -148.5 234s-51.5 189.833 -51.5 298.5c0 143.333 29.167 270.833 87.5 382.5s141.166 199.334 248.499 263.001s235 95.5 383 95.5c46 0 91.5 -3 136.5 -9
s88 -14.333 129 -25s79 -22.5 114 -35.5s65.833 -26.833 92.5 -41.5l-22 -262c-51.333 32 -101.333 57.833 -150 77.5s-95.5 33.834 -140.5 42.501s-88.5 13 -130.5 13c-88 0 -166.5 -19.667 -235.5 -59s-123.167 -96.333 -162.5 -171s-59 -165 -59 -271
c0 -68.667 10.167 -133.5 30.5 -194.5s50.833 -114.833 91.5 -161.5s91.5 -83.167 152.5 -109.5s132.167 -39.5 213.5 -39.5c32 0 64.333 2.16699 97 6.5s65.334 11.166 98.001 20.499s65 22 97 38s63.667 35.333 95 58l17 -259c-28 -16.667 -59.333 -31.167 -94 -43.5
s-70.834 -22.5 -108.501 -30.5s-76.5 -13.833 -116.5 -17.5s-79.667 -5.5 -119 -5.5zM651.001 1558l-128 188l-128 186l191 3l115 -137.5l116 -139.5h-66l115 138l113 135h193l-127.5 -185.5l-128.5 -187.5h-265z" />
    <glyph glyph-name="ccaron" unicode="&#x10d;" horiz-adv-x="976" 
d="M601 -21c-111.333 0 -205.829 22.5 -283.496 67.5s-136.667 106.5 -177 184.5s-60.5 166.667 -60.5 266c0 100 19 189.5 57 268.5s94.167 141.333 168.5 187s166.5 68.5 276.5 68.5c39.333 0 78.333 -3 117 -9s75.167 -14.5 109.5 -25.5s64.833 -23.833 91.5 -38.5
l-20 -222c-38 21.333 -72.833 37.666 -104.5 48.999s-60.834 19 -87.501 23s-50.667 6 -72 6c-84 0 -151.167 -27 -201.5 -81s-75.5 -127 -75.5 -219c0 -60.667 12 -114.5 36 -161.5s59.5 -84 106.5 -111s105.5 -40.5 175.5 -40.5c26 0 52 2.33301 78 7
s51.667 11.834 77 21.501s49.666 22.167 72.999 37.5l15 -222c-22.667 -10.667 -48.834 -20.167 -78.501 -28.5s-62.834 -15 -99.501 -20s-77 -7.5 -121 -7.5zM422.004 1131l-128 206.5l-128 204.5l191 3l113.5 -149.5l114.5 -150.5h-61l114 148.5l112 147.5h193
l-128 -203.5l-128 -206.5h-265z" />
    <glyph glyph-name="Dcaron" unicode="&#x10e;" horiz-adv-x="1469" 
d="M155 0l0.00195312 225v242v482v248v229h175.5h182h187.5c109.333 0 206.5 -15.667 291.5 -47s156.667 -77.5 215 -138.5s102.666 -135.167 132.999 -222.5s45.5 -187.333 45.5 -300c0 -100.667 -13.333 -194.5 -40 -281.5s-69.334 -163.167 -128.001 -228.5
s-136 -116.333 -232 -153s-213 -55 -351 -55h-173h-154.5h-151.5zM436.002 226l198.002 0.000976562c113.333 0 203.666 21.5 270.999 64.5s115.666 102 144.999 177s44 159.833 44 254.5c0 72 -8.66699 137.333 -26 196s-43.833 109.167 -79.5 151.5
s-81.5 74.666 -137.5 96.999s-122.333 33.5 -199 33.5h-216v-147v-167v-354v-162v-144zM572.004 1558l-128 188l-128 186l191 3l115 -137.5l116 -139.5h-66l115 138l113 135h193l-127.5 -185.5l-128.5 -187.5h-265z" />
    <glyph glyph-name="dcaron" unicode="&#x10f;" horiz-adv-x="1206" 
d="M490 -25c-92 0 -168.332 24.333 -228.999 73s-105.667 113 -135 193s-44 166.333 -44 259c0 98.667 15.667 187.5 47 266.5s77.666 141.333 138.999 187s136.333 68.5 225 68.5c42 0 80.333 -5.5 115 -16.5s65.5 -26.333 92.5 -46s49.833 -42.5 68.5 -68.5h22v96v241.5
v236.5l254 24v-242.5v-259.5v-553v-225v-209h-217l-15 133h-19c-25.333 -34.667 -53 -63.667 -83 -87s-63.333 -41 -100 -53s-77 -18 -121 -18zM582.001 194c32 0 61.0039 5.16797 87.0039 15.501s49 25.166 69 44.499s37.667 42 53 68v373
c-16 22.667 -34.833 41.834 -56.5 57.501s-45.334 27.667 -71.001 36s-52.167 12.5 -79.5 12.5c-54.667 0 -99.834 -13.833 -135.501 -41.5s-62.334 -64.334 -80.001 -110.001s-26.5 -96.167 -26.5 -151.5c0 -52.667 8.5 -102 25.5 -148s43.167 -83.5 78.5 -112.5
s80.666 -43.5 135.999 -43.5zM1181 1090c12 32 22.0029 65.332 30.0029 99.999s13.833 68.5 17.5 101.5s5.5 63.167 5.5 90.5v89.5v88.5l111 10c29.333 -2 53.166 -13.167 71.499 -33.5s27.5 -48.166 27.5 -83.499c0 -34 -4.33301 -68 -13 -102
s-20.334 -66.833 -35.001 -98.5s-30.834 -61 -48.501 -88s-35.167 -50.833 -52.5 -71.5z" />
    <glyph glyph-name="Dcroat" unicode="&#x110;" horiz-adv-x="1469" 
d="M-26 606v193h180h163h94h164h179v-193h-179h-164h-94h-163h-180zM155 0l0.00195312 225v242v482v248v229h175.5h182h187.5c109.333 0 206.5 -15.667 291.5 -47s156.667 -77.5 215 -138.5s102.666 -135.167 132.999 -222.5s45.5 -187.333 45.5 -300
c0 -100.667 -13.333 -194.5 -40 -281.5s-69.334 -163.167 -128.001 -228.5s-136 -116.333 -232 -153s-213 -55 -351 -55h-173h-154.5h-151.5zM436.002 226l198.002 0.000976562c113.333 0 203.666 21.5 270.999 64.5s115.666 102 144.999 177s44 159.833 44 254.5
c0 72 -8.66699 137.333 -26 196s-43.833 109.167 -79.5 151.5s-81.5 74.666 -137.5 96.999s-122.333 33.5 -199 33.5h-216v-147v-167v-354v-162v-144z" />
    <glyph glyph-name="dcroat" unicode="&#x111;" horiz-adv-x="1165" 
d="M470 1161v171h171h154h90h154.5h170.5v-171h-170.5h-154.5h-90h-154h-171zM490 -25c-92 0 -168.332 24.333 -228.999 73s-105.667 113 -135 193s-44 166.333 -44 259c0 98.667 15.667 187.5 47 266.5s77.666 141.333 138.999 187s136.333 68.5 225 68.5
c42 0 80.333 -5.5 115 -16.5s65.5 -26.333 92.5 -46s49.833 -42.5 68.5 -68.5h22v96v241.5v236.5l254 24v-242.5v-259.5v-553v-225v-209h-217l-15 133h-19c-25.333 -34.667 -53 -63.667 -83 -87s-63.333 -41 -100 -53s-77 -18 -121 -18zM582.001 194
c32 0 61.0039 5.16797 87.0039 15.501s49 25.166 69 44.499s37.667 42 53 68v373c-16 22.667 -34.833 41.834 -56.5 57.501s-45.334 27.667 -71.001 36s-52.167 12.5 -79.5 12.5c-54.667 0 -99.834 -13.833 -135.501 -41.5s-62.334 -64.334 -80.001 -110.001
s-26.5 -96.167 -26.5 -151.5c0 -52.667 8.5 -102 25.5 -148s43.167 -83.5 78.5 -112.5s80.666 -43.5 135.999 -43.5z" />
    <glyph glyph-name="Emacron" unicode="&#x112;" horiz-adv-x="1191" 
d="M155 0v225v242v483v247v229h926v-233h-202.5h-255.5h-344l150 190v-229.5v-247.5v-395v-242v-226l-132 190h347h233h211v-233h-933zM366 610v221h266h230h185v-221h-190h-226h-265zM291 1632v189h158h174h174h158v-189h-158h-174h-174h-158z" />
    <glyph glyph-name="emacron" unicode="&#x113;" horiz-adv-x="1054" 
d="M622 -25c-125.333 0 -228.002 22.666 -308.002 67.999s-139 107.666 -177 186.999s-57 170 -57 272c0 101.333 18.167 191.166 54.5 269.499s89.833 139.5 160.5 183.5s157.334 66 260.001 66c88.667 0 164.5 -16.167 227.5 -48.5s111.5 -80.666 145.5 -144.999
s51 -145.166 51 -242.499c0 -26 -0.5 -49.333 -1.5 -70s-3.16699 -41 -6.5 -61l-221 89c1.33301 9.33301 2.33301 18.833 3 28.5s1 18.834 1 27.501c0 73.333 -18.333 130.833 -55 172.5s-84 62.5 -142 62.5c-44 0 -82.667 -12.5 -116 -37.5s-59.666 -59.833 -78.999 -104.5
s-29 -96.334 -29 -155.001v-39c0 -64.667 11.333 -120.167 34 -166.5s57.667 -82 105 -107s107 -37.5 179 -37.5c28 0 59.5 2.5 94.5 7.5s70.5 12.833 106.5 23.5s69.667 24.334 101 41.001l8 -218c-25.333 -12.667 -55 -24 -89 -34s-72 -17.833 -114 -23.5
s-87.333 -8.5 -136 -8.5zM179.998 453.999v159l641 11l150 -57v-113h-791zM220.998 1212v189h158h174h174h158v-189h-158h-174h-174h-158z" />
    <glyph glyph-name="Ebreve" unicode="&#x114;" horiz-adv-x="1191" 
d="M155 0v225v242v483v247v229h926v-233h-202.5h-255.5h-344l150 190v-229.5v-247.5v-395v-242v-226l-132 190h347h233h211v-233h-933zM366 610v221h266h230h185v-221h-190h-226h-265zM620 1543c-116 0 -204 32.668 -264 98.001s-90 164.666 -90 297.999l178 8
c0 -76.667 14.667 -134.167 44 -172.5s73.333 -57.5 132 -57.5c60 0 104.667 18.833 134 56.5s44 92.834 44 165.501h178c0 -89.333 -13.167 -163.333 -39.5 -222s-66 -102.334 -119 -131.001s-118.833 -43 -197.5 -43z" />
    <glyph glyph-name="ebreve" unicode="&#x115;" horiz-adv-x="1054" 
d="M622 -25c-125.333 0 -228.002 22.666 -308.002 67.999s-139 107.666 -177 186.999s-57 170 -57 272c0 101.333 18.167 191.166 54.5 269.499s89.833 139.5 160.5 183.5s157.334 66 260.001 66c88.667 0 164.5 -16.167 227.5 -48.5s111.5 -80.666 145.5 -144.999
s51 -145.166 51 -242.499c0 -26 -0.5 -49.333 -1.5 -70s-3.16699 -41 -6.5 -61l-221 89c1.33301 9.33301 2.33301 18.833 3 28.5s1 18.834 1 27.501c0 73.333 -18.333 130.833 -55 172.5s-84 62.5 -142 62.5c-44 0 -82.667 -12.5 -116 -37.5s-59.666 -59.833 -78.999 -104.5
s-29 -96.334 -29 -155.001v-39c0 -64.667 11.333 -120.167 34 -166.5s57.667 -82 105 -107s107 -37.5 179 -37.5c28 0 59.5 2.5 94.5 7.5s70.5 12.833 106.5 23.5s69.667 24.334 101 41.001l8 -218c-25.333 -12.667 -55 -24 -89 -34s-72 -17.833 -114 -23.5
s-87.333 -8.5 -136 -8.5zM179.998 453.999v159l641 11l150 -57v-113h-791zM549.998 1123c-116 0 -204 32.6699 -264 98.0029s-90 164.666 -90 297.999l178 8c0 -77.333 14.667 -135 44 -173s73.333 -57 132 -57c60 0 104.667 18.667 134 56s44 92.666 44 165.999h178
c0 -89.333 -13.167 -163.333 -39.5 -222s-66 -102.334 -119 -131.001s-118.833 -43 -197.5 -43z" />
    <glyph glyph-name="Edotaccent" unicode="&#x116;" horiz-adv-x="1191" 
d="M155 0v225v242v483v247v229h926v-233h-202.5h-255.5h-344l150 190v-229.5v-247.5v-395v-242v-226l-132 190h347h233h211v-233h-933zM366 610v221h266h230h185v-221h-190h-226h-265zM620 1585c-48.667 0 -87.667 12.167 -117 36.5s-44 63.166 -44 116.499
c0 48.667 14.667 85.834 44 111.501s69 38.5 119 38.5s89.5 -13.333 118.5 -40s43.5 -63.334 43.5 -110.001c0 -53.333 -14.5 -92.166 -43.5 -116.499s-69.167 -36.5 -120.5 -36.5z" />
    <glyph glyph-name="edotaccent" unicode="&#x117;" horiz-adv-x="1054" 
d="M622 -25c-125.333 0 -228.002 22.666 -308.002 67.999s-139 107.666 -177 186.999s-57 170 -57 272c0 101.333 18.167 191.166 54.5 269.499s89.833 139.5 160.5 183.5s157.334 66 260.001 66c88.667 0 164.5 -16.167 227.5 -48.5s111.5 -80.666 145.5 -144.999
s51 -145.166 51 -242.499c0 -26 -0.5 -49.333 -1.5 -70s-3.16699 -41 -6.5 -61l-221 89c1.33301 9.33301 2.33301 18.833 3 28.5s1 18.834 1 27.501c0 73.333 -18.333 130.833 -55 172.5s-84 62.5 -142 62.5c-44 0 -82.667 -12.5 -116 -37.5s-59.666 -59.833 -78.999 -104.5
s-29 -96.334 -29 -155.001v-39c0 -64.667 11.333 -120.167 34 -166.5s57.667 -82 105 -107s107 -37.5 179 -37.5c28 0 59.5 2.5 94.5 7.5s70.5 12.833 106.5 23.5s69.667 24.334 101 41.001l8 -218c-25.333 -12.667 -55 -24 -89 -34s-72 -17.833 -114 -23.5
s-87.333 -8.5 -136 -8.5zM179.998 453.999v159l641 11l150 -57v-113h-791zM549.998 1175c-48.667 0 -87.667 12.167 -117 36.5s-44 63.166 -44 116.499c0 48.667 14.667 85.834 44 111.501s69 38.5 119 38.5s89.5 -13.333 118.5 -40s43.5 -63.334 43.5 -110.001
c0 -53.333 -14.5 -92.166 -43.5 -116.499s-69.167 -36.5 -120.5 -36.5z" />
    <glyph glyph-name="Eogonek" unicode="&#x118;" horiz-adv-x="1191" 
d="M155 0v225v242v483v247v229h926v-233h-202.5h-255.5h-344l150 190v-229.5v-247.5v-395v-242v-226l-132 190h347h233h211v-233h-933zM366 610v221h266h230h185v-221h-190h-226h-265zM966 -429c-58 0 -105.667 7.50098 -143 22.501s-65 35.667 -83 62s-27 56.5 -27 90.5
c0 34.667 7.83301 67 23.5 97s37.667 57.667 66 83s61.5 48.666 99.5 69.999v51l133 13l51 -60c-52 -24 -95.5 -52.667 -130.5 -86s-52.5 -68.333 -52.5 -105c0 -26 9.16699 -45.5 27.5 -58.5s43.166 -19.5 74.499 -19.5c21.333 0 39.333 1.66699 54 5
s26.334 6.33301 35.001 9v-155c-14.667 -5.33301 -33.5 -9.83301 -56.5 -13.5s-46.833 -5.5 -71.5 -5.5z" />
    <glyph glyph-name="eogonek" unicode="&#x119;" horiz-adv-x="1054" 
d="M622 -25c-125.333 0 -228.002 22.666 -308.002 67.999s-139 107.666 -177 186.999s-57 170 -57 272c0 101.333 18.167 191.166 54.5 269.499s89.833 139.5 160.5 183.5s157.334 66 260.001 66c88.667 0 164.5 -16.167 227.5 -48.5s111.5 -80.666 145.5 -144.999
s51 -145.166 51 -242.499c0 -26 -0.5 -49.333 -1.5 -70s-3.16699 -41 -6.5 -61l-221 89c1.33301 9.33301 2.33301 18.833 3 28.5s1 18.834 1 27.501c0 73.333 -18.333 130.833 -55 172.5s-84 62.5 -142 62.5c-44 0 -82.667 -12.5 -116 -37.5s-59.666 -59.833 -78.999 -104.5
s-29 -96.334 -29 -155.001v-39c0 -64.667 11.333 -120.167 34 -166.5s57.667 -82 105 -107s107 -37.5 179 -37.5c28 0 59.5 2.5 94.5 7.5s70.5 12.833 106.5 23.5s69.667 24.334 101 41.001l8 -218c-25.333 -12.667 -55 -24 -89 -34s-72 -17.833 -114 -23.5
s-87.333 -8.5 -136 -8.5zM179.998 453.999v159l641 11l150 -57v-113h-791zM689.998 -429.001c-58 0 -105.667 7.50098 -143 22.501s-65 35.667 -83 62s-27 56.5 -27 90.5c0 34.667 7.83301 67 23.5 97s37.667 57.667 66 83s61.5 48.666 99.5 69.999v51l133 13l51 -60
c-52 -24 -95.5 -52.667 -130.5 -86s-52.5 -68.333 -52.5 -105c0 -26 9.16699 -45.5 27.5 -58.5s43.166 -19.5 74.499 -19.5c21.333 0 39.333 1.66699 54 5s26.334 6.33301 35.001 9v-155c-14.667 -5.33301 -33.5 -9.83301 -56.5 -13.5s-46.833 -5.5 -71.5 -5.5z" />
    <glyph glyph-name="Ecaron" unicode="&#x11a;" horiz-adv-x="1191" 
d="M155 0v225v242v483v247v229h926v-233h-202.5h-255.5h-344l150 190v-229.5v-247.5v-395v-242v-226l-132 190h347h233h211v-233h-933zM366 610v221h266h230h185v-221h-190h-226h-265zM490 1558l-128 188l-128 186l191 3l115 -137.5l116 -139.5h-66l115 138l113 135h193
l-127.5 -185.5l-128.5 -187.5h-265z" />
    <glyph glyph-name="ecaron" unicode="&#x11b;" horiz-adv-x="1054" 
d="M622 -25c-125.333 0 -228.002 22.666 -308.002 67.999s-139 107.666 -177 186.999s-57 170 -57 272c0 101.333 18.167 191.166 54.5 269.499s89.833 139.5 160.5 183.5s157.334 66 260.001 66c88.667 0 164.5 -16.167 227.5 -48.5s111.5 -80.666 145.5 -144.999
s51 -145.166 51 -242.499c0 -26 -0.5 -49.333 -1.5 -70s-3.16699 -41 -6.5 -61l-221 89c1.33301 9.33301 2.33301 18.833 3 28.5s1 18.834 1 27.501c0 73.333 -18.333 130.833 -55 172.5s-84 62.5 -142 62.5c-44 0 -82.667 -12.5 -116 -37.5s-59.666 -59.833 -78.999 -104.5
s-29 -96.334 -29 -155.001v-39c0 -64.667 11.333 -120.167 34 -166.5s57.667 -82 105 -107s107 -37.5 179 -37.5c28 0 59.5 2.5 94.5 7.5s70.5 12.833 106.5 23.5s69.667 24.334 101 41.001l8 -218c-25.333 -12.667 -55 -24 -89 -34s-72 -17.833 -114 -23.5
s-87.333 -8.5 -136 -8.5zM179.998 453.999v159l641 11l150 -57v-113h-791zM419.998 1131l-128 206.5l-128 204.5l191 3l113.5 -149.5l114.5 -150.5h-61l114 148.5l112 147.5h193l-128 -203.5l-128 -206.5h-265z" />
    <glyph glyph-name="Gcircumflex" unicode="&#x11c;" horiz-adv-x="1461" 
d="M850 -24c-123.333 0 -232.5 18.334 -327.5 55.001s-175 88 -240 154s-114.333 144 -148 234s-50.5 188.333 -50.5 295c0 144.667 29.667 272.667 89 384s144 198.5 254 261.5s241.333 94.5 394 94.5c50 0 98.667 -3.16699 146 -9.5s92.166 -15 134.499 -26
s81.666 -23 117.999 -36s67.833 -26.5 94.5 -40.5l-22 -261c-55.333 31.333 -109.166 56.833 -161.499 76.5s-102.666 34 -150.999 43s-94.166 13.5 -137.499 13.5c-67.333 0 -129.5 -10.833 -186.5 -32.5s-106.667 -54 -149 -97s-75.166 -95.667 -98.499 -158
s-35 -133.5 -35 -213.5c0 -70.667 10 -136.834 30 -198.501s50.333 -115.834 91 -162.501s92.667 -83.167 156 -109.5s137.666 -39.5 222.999 -39.5c40 0 78.667 1.83301 116 5.5s73.666 9.83398 108.999 18.501s70 19.5 104 32.5s68 28.833 102 47.5l33 -252
c-22.667 -10 -51.5 -19.667 -86.5 -29s-74.167 -17.833 -117.5 -25.5s-89 -13.667 -137 -18s-96.667 -6.5 -146 -6.5zM1074 50.001v191.5v165.5v171.5v151.5h263v-151.5v-171.5v-164.5v-187.5zM990 1557l-114.5 137.5l-116.5 139.5h66l-114.5 -137.5l-113.5 -135.5h-193
l128 185l128 188h265l128 -188.5l128 -185.5z" />
    <glyph glyph-name="gcircumflex" unicode="&#x11d;" horiz-adv-x="1094" 
d="M482 -408c-74.667 0 -137.331 6.33691 -187.998 19.0039s-90.834 30.167 -120.501 52.5s-50.834 47.333 -63.501 75s-19 55.834 -19 84.501c0 44.667 10.667 81.5 32 110.5s46.166 51.667 74.499 68s52.5 27.833 72.5 34.5v18c-10.667 3.33301 -24 10.666 -40 21.999
s-30.333 27.166 -43 47.499s-19 46.166 -19 77.499c0 22 4 43 12 63s20.833 38.5 38.5 55.5s40.5 31.833 68.5 44.5v18c-18.667 8 -40 19.833 -64 35.5s-47.167 35.834 -69.5 60.501s-40.833 54.667 -55.5 90s-22 76.666 -22 123.999c0 63.333 15.667 119.666 47 168.999
s77.666 88.333 138.999 117s137 43 227 43c35.333 0 66.333 -1.83301 93 -5.5l83 -11c28.667 -3.66699 64.334 -5.5 107.001 -5.5h285v-176h-183h-179l68 112c48 -28 83.167 -63.667 105.5 -107s33.5 -93.333 33.5 -150c0 -66.667 -14.167 -122.667 -42.5 -168
s-66.833 -81.833 -115.5 -109.5s-104 -48.167 -166 -61.5c-60 -13.333 -104.333 -25.333 -133 -36s-43 -26 -43 -46c0 -14.667 6 -25.834 18 -33.501s31.167 -13 57.5 -16s60.5 -4.5 102.5 -4.5h41c87.333 0 160.833 -7.5 220.5 -22.5s105 -40.333 136 -76
s46.5 -84.834 46.5 -147.501c0 -65.333 -16 -121.166 -48 -167.499s-74.833 -84 -128.5 -113s-112.167 -50.333 -175.5 -64s-126.666 -20.5 -189.999 -20.5zM512.003 -218.996c61.333 0 112.17 7.83496 152.503 23.502s70.666 33.834 90.999 54.501s30.5 38.667 30.5 54
c0 18 -6.33301 33.667 -19 47s-35.834 23.5 -69.501 30.5s-82.5 10.5 -146.5 10.5h-33c-30.667 -1.33301 -61.5 -7 -92.5 -17s-56.833 -23.667 -77.5 -41s-31 -37 -31 -59c0 -12.667 3.66699 -25.334 11 -38.001s18.666 -23.834 33.999 -33.501s35.5 -17.334 60.5 -23.001
s54.833 -8.5 89.5 -8.5zM482.007 503.006c18.667 2.66699 38.999 7.16699 60.999 13.5s42.833 15.5 62.5 27.5s35.667 27.333 48 46s18.5 41 18.5 67c0 36.667 -9.33301 66.667 -28 90s-42.167 40.666 -70.5 51.999s-57.166 17 -86.499 17c-30 0 -58.333 -5.66699 -85 -17
s-48.667 -28 -66 -50s-26 -48.667 -26 -80s8.16699 -58.333 24.5 -81s37.5 -41.167 63.5 -55.5s54 -24.166 84 -29.499zM725.006 1137.01l-113 149.5l-115 150.5h61l-113 -149l-113 -147h-193l128 204l128 206h265l128 -206l128 -205z" />
    <glyph glyph-name="Gbreve" unicode="&#x11e;" horiz-adv-x="1461" 
d="M850 -24c-123.333 0 -232.5 18.334 -327.5 55.001s-175 88 -240 154s-114.333 144 -148 234s-50.5 188.333 -50.5 295c0 144.667 29.667 272.667 89 384s144 198.5 254 261.5s241.333 94.5 394 94.5c50 0 98.667 -3.16699 146 -9.5s92.166 -15 134.499 -26
s81.666 -23 117.999 -36s67.833 -26.5 94.5 -40.5l-22 -261c-55.333 31.333 -109.166 56.833 -161.499 76.5s-102.666 34 -150.999 43s-94.166 13.5 -137.499 13.5c-67.333 0 -129.5 -10.833 -186.5 -32.5s-106.667 -54 -149 -97s-75.166 -95.667 -98.499 -158
s-35 -133.5 -35 -213.5c0 -70.667 10 -136.834 30 -198.501s50.333 -115.834 91 -162.501s92.667 -83.167 156 -109.5s137.666 -39.5 222.999 -39.5c40 0 78.667 1.83301 116 5.5s73.666 9.83398 108.999 18.501s70 19.5 104 32.5s68 28.833 102 47.5l33 -252
c-22.667 -10 -51.5 -19.667 -86.5 -29s-74.167 -17.833 -117.5 -25.5s-89 -13.667 -137 -18s-96.667 -6.5 -146 -6.5zM1074 50.001v191.5v165.5v171.5v151.5h263v-151.5v-171.5v-164.5v-187.5zM791 1543c-116 0 -204 32.668 -264 98.001s-90 164.666 -90 297.999l178 8
c0 -76.667 14.667 -134.167 44 -172.5s73.333 -57.5 132 -57.5c60 0 104.667 18.833 134 56.5s44 92.834 44 165.501h178c0 -89.333 -13.167 -163.333 -39.5 -222s-66 -102.334 -119 -131.001s-118.833 -43 -197.5 -43z" />
    <glyph glyph-name="gbreve" unicode="&#x11f;" horiz-adv-x="1094" 
d="M482 -408c-74.667 0 -137.331 6.33691 -187.998 19.0039s-90.834 30.167 -120.501 52.5s-50.834 47.333 -63.501 75s-19 55.834 -19 84.501c0 44.667 10.667 81.5 32 110.5s46.166 51.667 74.499 68s52.5 27.833 72.5 34.5v18c-10.667 3.33301 -24 10.666 -40 21.999
s-30.333 27.166 -43 47.499s-19 46.166 -19 77.499c0 22 4 43 12 63s20.833 38.5 38.5 55.5s40.5 31.833 68.5 44.5v18c-18.667 8 -40 19.833 -64 35.5s-47.167 35.834 -69.5 60.501s-40.833 54.667 -55.5 90s-22 76.666 -22 123.999c0 63.333 15.667 119.666 47 168.999
s77.666 88.333 138.999 117s137 43 227 43c35.333 0 66.333 -1.83301 93 -5.5l83 -11c28.667 -3.66699 64.334 -5.5 107.001 -5.5h285v-176h-183h-179l68 112c48 -28 83.167 -63.667 105.5 -107s33.5 -93.333 33.5 -150c0 -66.667 -14.167 -122.667 -42.5 -168
s-66.833 -81.833 -115.5 -109.5s-104 -48.167 -166 -61.5c-60 -13.333 -104.333 -25.333 -133 -36s-43 -26 -43 -46c0 -14.667 6 -25.834 18 -33.501s31.167 -13 57.5 -16s60.5 -4.5 102.5 -4.5h41c87.333 0 160.833 -7.5 220.5 -22.5s105 -40.333 136 -76
s46.5 -84.834 46.5 -147.501c0 -65.333 -16 -121.166 -48 -167.499s-74.833 -84 -128.5 -113s-112.167 -50.333 -175.5 -64s-126.666 -20.5 -189.999 -20.5zM512.003 -218.996c61.333 0 112.17 7.83496 152.503 23.502s70.666 33.834 90.999 54.501s30.5 38.667 30.5 54
c0 18 -6.33301 33.667 -19 47s-35.834 23.5 -69.501 30.5s-82.5 10.5 -146.5 10.5h-33c-30.667 -1.33301 -61.5 -7 -92.5 -17s-56.833 -23.667 -77.5 -41s-31 -37 -31 -59c0 -12.667 3.66699 -25.334 11 -38.001s18.666 -23.834 33.999 -33.501s35.5 -17.334 60.5 -23.001
s54.833 -8.5 89.5 -8.5zM482.007 503.006c18.667 2.66699 38.999 7.16699 60.999 13.5s42.833 15.5 62.5 27.5s35.667 27.333 48 46s18.5 41 18.5 67c0 36.667 -9.33301 66.667 -28 90s-42.167 40.666 -70.5 51.999s-57.166 17 -86.499 17c-30 0 -58.333 -5.66699 -85 -17
s-48.667 -28 -66 -50s-26 -48.667 -26 -80s8.16699 -58.333 24.5 -81s37.5 -41.167 63.5 -55.5s54 -24.166 84 -29.499zM526.006 1123.01c-116 0 -204 32.6699 -264 98.0029s-90 164.666 -90 297.999l178 8c0 -77.333 14.667 -135 44 -173s73.333 -57 132 -57
c60 0 104.667 18.667 134 56s44 92.666 44 165.999h178c0 -89.333 -13.167 -163.333 -39.5 -222s-66 -102.334 -119 -131.001s-118.833 -43 -197.5 -43z" />
    <glyph glyph-name="Gdotaccent" unicode="&#x120;" horiz-adv-x="1461" 
d="M850 -24c-123.333 0 -232.5 18.334 -327.5 55.001s-175 88 -240 154s-114.333 144 -148 234s-50.5 188.333 -50.5 295c0 144.667 29.667 272.667 89 384s144 198.5 254 261.5s241.333 94.5 394 94.5c50 0 98.667 -3.16699 146 -9.5s92.166 -15 134.499 -26
s81.666 -23 117.999 -36s67.833 -26.5 94.5 -40.5l-22 -261c-55.333 31.333 -109.166 56.833 -161.499 76.5s-102.666 34 -150.999 43s-94.166 13.5 -137.499 13.5c-67.333 0 -129.5 -10.833 -186.5 -32.5s-106.667 -54 -149 -97s-75.166 -95.667 -98.499 -158
s-35 -133.5 -35 -213.5c0 -70.667 10 -136.834 30 -198.501s50.333 -115.834 91 -162.501s92.667 -83.167 156 -109.5s137.666 -39.5 222.999 -39.5c40 0 78.667 1.83301 116 5.5s73.666 9.83398 108.999 18.501s70 19.5 104 32.5s68 28.833 102 47.5l33 -252
c-22.667 -10 -51.5 -19.667 -86.5 -29s-74.167 -17.833 -117.5 -25.5s-89 -13.667 -137 -18s-96.667 -6.5 -146 -6.5zM1074 50.001v191.5v165.5v171.5v151.5h263v-151.5v-171.5v-164.5v-187.5zM791 1585c-48.667 0 -87.667 12.167 -117 36.5s-44 63.166 -44 116.499
c0 48.667 14.667 85.834 44 111.501s69 38.5 119 38.5s89.5 -13.333 118.5 -40s43.5 -63.334 43.5 -110.001c0 -53.333 -14.5 -92.166 -43.5 -116.499s-69.167 -36.5 -120.5 -36.5z" />
    <glyph glyph-name="gdotaccent" unicode="&#x121;" horiz-adv-x="1094" 
d="M482 -408c-74.667 0 -137.331 6.33691 -187.998 19.0039s-90.834 30.167 -120.501 52.5s-50.834 47.333 -63.501 75s-19 55.834 -19 84.501c0 44.667 10.667 81.5 32 110.5s46.166 51.667 74.499 68s52.5 27.833 72.5 34.5v18c-10.667 3.33301 -24 10.666 -40 21.999
s-30.333 27.166 -43 47.499s-19 46.166 -19 77.499c0 22 4 43 12 63s20.833 38.5 38.5 55.5s40.5 31.833 68.5 44.5v18c-18.667 8 -40 19.833 -64 35.5s-47.167 35.834 -69.5 60.501s-40.833 54.667 -55.5 90s-22 76.666 -22 123.999c0 63.333 15.667 119.666 47 168.999
s77.666 88.333 138.999 117s137 43 227 43c35.333 0 66.333 -1.83301 93 -5.5l83 -11c28.667 -3.66699 64.334 -5.5 107.001 -5.5h285v-176h-183h-179l68 112c48 -28 83.167 -63.667 105.5 -107s33.5 -93.333 33.5 -150c0 -66.667 -14.167 -122.667 -42.5 -168
s-66.833 -81.833 -115.5 -109.5s-104 -48.167 -166 -61.5c-60 -13.333 -104.333 -25.333 -133 -36s-43 -26 -43 -46c0 -14.667 6 -25.834 18 -33.501s31.167 -13 57.5 -16s60.5 -4.5 102.5 -4.5h41c87.333 0 160.833 -7.5 220.5 -22.5s105 -40.333 136 -76
s46.5 -84.834 46.5 -147.501c0 -65.333 -16 -121.166 -48 -167.499s-74.833 -84 -128.5 -113s-112.167 -50.333 -175.5 -64s-126.666 -20.5 -189.999 -20.5zM512.003 -218.996c61.333 0 112.17 7.83496 152.503 23.502s70.666 33.834 90.999 54.501s30.5 38.667 30.5 54
c0 18 -6.33301 33.667 -19 47s-35.834 23.5 -69.501 30.5s-82.5 10.5 -146.5 10.5h-33c-30.667 -1.33301 -61.5 -7 -92.5 -17s-56.833 -23.667 -77.5 -41s-31 -37 -31 -59c0 -12.667 3.66699 -25.334 11 -38.001s18.666 -23.834 33.999 -33.501s35.5 -17.334 60.5 -23.001
s54.833 -8.5 89.5 -8.5zM482.007 503.006c18.667 2.66699 38.999 7.16699 60.999 13.5s42.833 15.5 62.5 27.5s35.667 27.333 48 46s18.5 41 18.5 67c0 36.667 -9.33301 66.667 -28 90s-42.167 40.666 -70.5 51.999s-57.166 17 -86.499 17c-30 0 -58.333 -5.66699 -85 -17
s-48.667 -28 -66 -50s-26 -48.667 -26 -80s8.16699 -58.333 24.5 -81s37.5 -41.167 63.5 -55.5s54 -24.166 84 -29.499zM526.006 1175.01c-48.667 0 -87.667 12.167 -117 36.5s-44 63.166 -44 116.499c0 48.667 14.667 85.834 44 111.501s69 38.5 119 38.5
s89.5 -13.333 118.5 -40s43.5 -63.334 43.5 -110.001c0 -53.333 -14.5 -92.166 -43.5 -116.499s-69.167 -36.5 -120.5 -36.5z" />
    <glyph glyph-name="uni0122" unicode="&#x122;" horiz-adv-x="1461" 
d="M850 -24c-123.333 0 -232.5 18.334 -327.5 55.001s-175 88 -240 154s-114.333 144 -148 234s-50.5 188.333 -50.5 295c0 144.667 29.667 272.667 89 384s144 198.5 254 261.5s241.333 94.5 394 94.5c50 0 98.667 -3.16699 146 -9.5s92.166 -15 134.499 -26
s81.666 -23 117.999 -36s67.833 -26.5 94.5 -40.5l-22 -261c-55.333 31.333 -109.166 56.833 -161.499 76.5s-102.666 34 -150.999 43s-94.166 13.5 -137.499 13.5c-67.333 0 -129.5 -10.833 -186.5 -32.5s-106.667 -54 -149 -97s-75.166 -95.667 -98.499 -158
s-35 -133.5 -35 -213.5c0 -70.667 10 -136.834 30 -198.501s50.333 -115.834 91 -162.501s92.667 -83.167 156 -109.5s137.666 -39.5 222.999 -39.5c40 0 78.667 1.83301 116 5.5s73.666 9.83398 108.999 18.501s70 19.5 104 32.5s68 28.833 102 47.5l33 -252
c-22.667 -10 -51.5 -19.667 -86.5 -29s-74.167 -17.833 -117.5 -25.5s-89 -13.667 -137 -18s-96.667 -6.5 -146 -6.5zM1074 50.001v191.5v165.5v171.5v151.5h263v-151.5v-171.5v-164.5v-187.5zM630 -574.999c24.667 39.333 40.167 78.6689 46.5 118.002
s9.5 84.666 9.5 135.999v80.5v80.5l117 10c46 -2.66699 80.667 -15.334 104 -38.001s35 -52 35 -88c0 -39.333 -8.16699 -77.5 -24.5 -114.5s-39.5 -71 -69.5 -102s-66 -57.5 -108 -79.5z" />
    <glyph glyph-name="uni0123" unicode="&#x123;" horiz-adv-x="1094" 
d="M482 -408c-74.667 0 -137.331 6.33691 -187.998 19.0039s-90.834 30.167 -120.501 52.5s-50.834 47.333 -63.501 75s-19 55.834 -19 84.501c0 44.667 10.667 81.5 32 110.5s46.166 51.667 74.499 68s52.5 27.833 72.5 34.5v18c-10.667 3.33301 -24 10.666 -40 21.999
s-30.333 27.166 -43 47.499s-19 46.166 -19 77.499c0 22 4 43 12 63s20.833 38.5 38.5 55.5s40.5 31.833 68.5 44.5v18c-18.667 8 -40 19.833 -64 35.5s-47.167 35.834 -69.5 60.501s-40.833 54.667 -55.5 90s-22 76.666 -22 123.999c0 63.333 15.667 119.666 47 168.999
s77.666 88.333 138.999 117s137 43 227 43c35.333 0 66.333 -1.83301 93 -5.5l83 -11c28.667 -3.66699 64.334 -5.5 107.001 -5.5h285v-176h-183h-179l68 112c48 -28 83.167 -63.667 105.5 -107s33.5 -93.333 33.5 -150c0 -66.667 -14.167 -122.667 -42.5 -168
s-66.833 -81.833 -115.5 -109.5s-104 -48.167 -166 -61.5c-60 -13.333 -104.333 -25.333 -133 -36s-43 -26 -43 -46c0 -14.667 6 -25.834 18 -33.501s31.167 -13 57.5 -16s60.5 -4.5 102.5 -4.5h41c87.333 0 160.833 -7.5 220.5 -22.5s105 -40.333 136 -76
s46.5 -84.834 46.5 -147.501c0 -65.333 -16 -121.166 -48 -167.499s-74.833 -84 -128.5 -113s-112.167 -50.333 -175.5 -64s-126.666 -20.5 -189.999 -20.5zM512.003 -218.996c61.333 0 112.17 7.83496 152.503 23.502s70.666 33.834 90.999 54.501s30.5 38.667 30.5 54
c0 18 -6.33301 33.667 -19 47s-35.834 23.5 -69.501 30.5s-82.5 10.5 -146.5 10.5h-33c-30.667 -1.33301 -61.5 -7 -92.5 -17s-56.833 -23.667 -77.5 -41s-31 -37 -31 -59c0 -12.667 3.66699 -25.334 11 -38.001s18.666 -23.834 33.999 -33.501s35.5 -17.334 60.5 -23.001
s54.833 -8.5 89.5 -8.5zM482.007 503.006c18.667 2.66699 38.999 7.16699 60.999 13.5s42.833 15.5 62.5 27.5s35.667 27.333 48 46s18.5 41 18.5 67c0 36.667 -9.33301 66.667 -28 90s-42.167 40.666 -70.5 51.999s-57.166 17 -86.499 17c-30 0 -58.333 -5.66699 -85 -17
s-48.667 -28 -66 -50s-26 -48.667 -26 -80s8.16699 -58.333 24.5 -81s37.5 -41.167 63.5 -55.5s54 -24.166 84 -29.499zM514.006 1175.01c-45.333 2.66699 -79.833 15.3311 -103.5 37.998s-35.5 51.667 -35.5 87c0 40 8.16699 78.5 24.5 115.5s39.5 71 69.5 102
s66 57.5 108 79.5l110 3c-24.667 -39.333 -40.167 -78.666 -46.5 -117.999s-9.5 -84.666 -9.5 -135.999v-80.5v-80.5z" />
    <glyph glyph-name="Hcircumflex" unicode="&#x124;" horiz-adv-x="1500" 
d="M1064 0v225v242v482v248v229h281v-229v-248v-482v-242v-225h-281zM155 0v225v242v482v248v229h281v-229v-248v-482v-242v-225h-281zM354 602v235h798v-235h-798zM947 1557l-114.5 137.5l-116.5 139.5h66l-114.5 -137.5l-113.5 -135.5h-193l128 185l128 188h265
l128 -188.5l128 -185.5z" />
    <glyph glyph-name="hcircumflex" unicode="&#x125;" horiz-adv-x="1153" 
d="M139 0l-0.00195312 209.001v225v553v242v236l254 24v-242v-260v-139h23c20 28.667 44.833 56.334 74.5 83.001s64.334 48.5 104.001 65.5s84.834 25.5 135.501 25.5c102 0 178.167 -29.833 228.5 -89.5s75.5 -147.834 75.5 -264.501v-119.5v-114.5v-223.5v-210.5h-254
v209v212v169c0 65.333 -11.167 114.666 -33.5 147.999s-62.5 50 -120.5 50c-34 0 -65.167 -6.83301 -93.5 -20.5s-54 -32 -77 -55s-43.833 -48.833 -62.5 -77.5v-214v-213.5v-207.5h-254zM740.998 1597l-113 149.5l-115 150.5h61l-113 -149l-113 -147h-193l128 204l128 206
h265l128 -206l128 -205z" />
    <glyph glyph-name="Hbar" unicode="&#x126;" horiz-adv-x="1500" 
d="M1064 0v225v242v482v248v229h281v-153.5v-153.5v-170v-482v-242v-225h-281zM155 0v225v242v482v170v153.5v153.5h281v-229v-248v-482v-242v-225h-281zM354 577v224h798v-224h-798zM5 1025v182h206.5h187.5h704h187.5h206.5v-182h-206.5h-187.5h-704h-187.5h-206.5z" />
    <glyph glyph-name="hbar" unicode="&#x127;" horiz-adv-x="1153" 
d="M-26 1161v171h171.5h153.5h90h155h170v-171h-170h-155h-90h-153.5h-171.5zM139 0l-0.00195312 209.001v225v553v242v236l254 24v-242v-260v-139h23c20 28.667 44.833 56.334 74.5 83.001s64.334 48.5 104.001 65.5s84.834 25.5 135.501 25.5
c102 0 178.167 -29.833 228.5 -89.5s75.5 -147.834 75.5 -264.501v-119.5v-114.5v-223.5v-210.5h-254v209v212v169c0 65.333 -11.167 114.666 -33.5 147.999s-62.5 50 -120.5 50c-34 0 -65.167 -6.83301 -93.5 -20.5s-54 -32 -77 -55s-43.833 -48.833 -62.5 -77.5v-214
v-213.5v-207.5h-254z" />
    <glyph glyph-name="Itilde" unicode="&#x128;" horiz-adv-x="606" 
d="M160 0v225v242v482v248v229h286v-229v-248v-482v-242v-225h-286zM472 1547c-40.667 0 -76.334 7.99805 -107.001 23.998s-57.834 34.667 -81.501 56s-45.667 40 -66 56s-40.833 24 -61.5 24c-33.333 0 -57.166 -12 -71.499 -36s-23.166 -54 -26.499 -90h-138
c0 100 19.167 176.667 57.5 230s89.833 80 154.5 80c40 0 75 -8.16699 105 -24.5s56.5 -35.166 79.5 -56.499s44.833 -40 65.5 -56s41.667 -24 63 -24c32.667 0 55.667 12 69 36s21.333 54 24 90h138c0 -99.333 -18.5 -175.666 -55.5 -228.999s-86.5 -80 -148.5 -80z" />
    <glyph glyph-name="itilde" unicode="&#x129;" horiz-adv-x="543" 
d="M144 0v209v225v100v173.5v147v141.5l254 8v-144v-149.5v-176.5v-100v-225v-209h-254zM428 1126c-36.667 0 -68.832 8.16895 -96.499 24.502s-52.167 35.166 -73.5 56.499s-40.833 40 -58.5 56s-35.167 24 -52.5 24c-27.333 0 -47.5 -12 -60.5 -36s-21.167 -54 -24.5 -90
h-133c0 99.333 17.667 175.666 53 228.999s82.333 80 141 80c36 0 67.5 -8 94.5 -24s50.833 -34.667 71.5 -56s40.167 -40 58.5 -56s36.5 -24 54.5 -24c27.333 0 46.5 12 57.5 36s17.833 54 20.5 90h134c0 -99.333 -16.833 -175.833 -50.5 -229.5
s-78.834 -80.5 -135.501 -80.5z" />
    <glyph glyph-name="Imacron" unicode="&#x12a;" horiz-adv-x="606" 
d="M160 0v225v242v482v248v229h286v-229v-248v-482v-242v-225h-286zM-34 1632v189h158h174h174h158v-189h-158h-174h-174h-158z" />
    <glyph glyph-name="imacron" unicode="&#x12b;" horiz-adv-x="543" 
d="M144 0v209v225v100v173.5v147v141.5l254 8v-144v-149.5v-176.5v-100v-225v-209h-254zM-6 1212v189h132h145h145.5h131.5v-189h-131.5h-145.5h-145.5h-131.5z" />
    <glyph glyph-name="Ibreve" unicode="&#x12c;" horiz-adv-x="606" 
d="M160 0v225v242v482v248v229h286v-229v-248v-482v-242v-225h-286zM295 1543c-116 0 -204 32.668 -264 98.001s-90 164.666 -90 297.999l178 8c0 -76.667 14.667 -134.167 44 -172.5s73.333 -57.5 132 -57.5c60 0 104.667 18.833 134 56.5s44 92.834 44 165.501h178
c0 -89.333 -13.167 -163.333 -39.5 -222s-66 -102.334 -119 -131.001s-118.833 -43 -197.5 -43z" />
    <glyph glyph-name="ibreve" unicode="&#x12d;" horiz-adv-x="543" 
d="M144 0v209v225v100v173.5v147v141.5l254 8v-144v-149.5v-176.5v-100v-225v-209h-254zM269 1123c-106.667 0 -187.167 32.834 -241.5 98.501s-81.5 164.834 -81.5 297.501l176 8c0 -77.333 12 -135 36 -173s61 -57 111 -57c50.667 0 88.167 18.667 112.5 56
s36.5 92.666 36.5 165.999h175c0 -88.667 -12 -162.334 -36 -221.001s-60 -102.5 -108 -131.5s-108 -43.5 -180 -43.5z" />
    <glyph glyph-name="Iogonek" unicode="&#x12e;" horiz-adv-x="606" 
d="M160 0v225v242v482v248v229h286v-229v-248v-482v-242v-225h-286zM325 -429c-58 0 -105.667 7.50098 -143 22.501s-65 35.667 -83 62s-27 56.5 -27 90.5c0 34.667 7.83301 67 23.5 97s37.667 57.667 66 83s61.5 48.666 99.5 69.999v51l133 13l51 -60
c-52 -24 -95.5 -52.667 -130.5 -86s-52.5 -68.333 -52.5 -105c0 -26 9.16699 -45.5 27.5 -58.5s43.166 -19.5 74.499 -19.5c21.333 0 39.333 1.66699 54 5s26.334 6.33301 35.001 9v-155c-14.667 -5.33301 -33.5 -9.83301 -56.5 -13.5s-46.833 -5.5 -71.5 -5.5z" />
    <glyph glyph-name="iogonek" unicode="&#x12f;" horiz-adv-x="543" 
d="M144 0v209v225v100v173.5v147v141.5l254 8v-144v-149.5v-176.5v-100v-225v-209h-254zM268 1175c-48.667 0 -87.667 12.167 -117 36.5s-44 63.166 -44 116.499c0 48.667 14.667 85.834 44 111.501s69 38.5 119 38.5s89.5 -13.333 118.5 -40s43.5 -63.334 43.5 -110.001
c0 -53.333 -14.5 -92.166 -43.5 -116.499s-69.167 -36.5 -120.5 -36.5zM277 -429c-58 0 -105.667 7.50098 -143 22.501s-65 35.667 -83 62s-27 56.5 -27 90.5c0 34.667 7.83301 67 23.5 97s37.667 57.667 66 83s61.5 48.666 99.5 69.999v51l133 13l51 -60
c-52 -24 -95.5 -52.667 -130.5 -86s-52.5 -68.333 -52.5 -105c0 -26 9.16699 -45.5 27.5 -58.5s43.166 -19.5 74.499 -19.5c21.333 0 39.333 1.66699 54 5s26.334 6.33301 35.001 9v-155c-14.667 -5.33301 -33.5 -9.83301 -56.5 -13.5s-46.833 -5.5 -71.5 -5.5z" />
    <glyph glyph-name="Idotaccent" unicode="&#x130;" horiz-adv-x="606" 
d="M160 0v225v242v482v248v229h286v-229v-248v-482v-242v-225h-286zM296 1585c-48.667 0 -87.667 12.167 -117 36.5s-44 63.166 -44 116.499c0 48.667 14.667 85.834 44 111.501s69 38.5 119 38.5s89.5 -13.333 118.5 -40s43.5 -63.334 43.5 -110.001
c0 -53.333 -14.5 -92.166 -43.5 -116.499s-69.167 -36.5 -120.5 -36.5z" />
    <glyph glyph-name="dotlessi" unicode="&#x131;" horiz-adv-x="543" 
d="M144 0v209v225v100v173.5v147v141.5l254 8v-144v-149.5v-176.5v-100v-225v-209h-254z" />
    <glyph glyph-name="Jcircumflex" unicode="&#x134;" horiz-adv-x="620" 
d="M14 -312c36 45.333 66.165 91.501 90.498 138.501s42.833 96.833 55.5 149.5s19 110.667 19 174v456v343v248v229h280v-229v-248v-312v-259.5v-246.5c0 -54.667 -4.5 -104.334 -13.5 -149.001s-21.667 -84.834 -38 -120.501s-35.166 -67.667 -56.499 -96
s-44.666 -54.166 -69.999 -77.499h-267zM510.998 1557l-114.5 137.5l-116.5 139.5h66l-114.5 -137.5l-113.5 -135.5h-193l128 185l128 188h265l128 -188.5l128 -185.5z" />
    <glyph glyph-name="jcircumflex" unicode="&#x135;" horiz-adv-x="540" 
d="M-8 -392c36 42.667 65.167 87.3311 87.5 133.998s38.666 96.834 48.999 150.501s15.5 112.834 15.5 177.501v364v100v173.5v147v141.5l254 8v-144v-149.5v-176.5v-189v-157v-147c0 -49.333 -3.33301 -95 -10 -137s-16.5 -80.667 -29.5 -116s-29.167 -67.333 -48.5 -96
s-41.666 -54 -66.999 -76zM435 1137l-82 136.5l-83.5 138l-83.5 139.5h204l112 -205l113 -206zM-72 1141l113.5 204.5l112.5 205.5h204l-84.5 -139l-82.5 -136.5l-81 -134.5h-182z" />
    <glyph glyph-name="uni0136" unicode="&#x136;" horiz-adv-x="1379" 
d="M993 0l-142.5 184l-130.5 168l-216 277h-94v222h91l191 228l133.5 161l153.5 186h326l-191.5 -222l-188.5 -219l-238 -277l-5 123l265 -339l131.5 -168l137.5 -175l117 -149h-340zM155 0v225v242v482v248v229h280v-229v-248v-482v-242v-225h-280zM539 -575
c24.667 39.333 40.167 78.6689 46.5 118.002s9.5 84.666 9.5 135.999v80.5v80.5l117 10c46 -2.66699 80.667 -15.334 104 -38.001s35 -52 35 -88c0 -39.333 -8.16699 -77.5 -24.5 -114.5s-39.5 -71 -69.5 -102s-66 -57.5 -108 -79.5z" />
    <glyph glyph-name="uni0137" unicode="&#x137;" horiz-adv-x="1127" 
d="M784 0l-103.5 127.5l-105.5 125.5l-132 160h-73v172h80l114 145l105.5 133l104.5 133h299l-152 -178l-151 -177l-150 -175l-11 115l181 -221l155.5 -180.5l154.5 -179.5h-316zM139 0v209v225v553v242v236l254 24v-242v-260v-601v-195.5v-190.5h-254zM408 -575
c24.667 39.333 40.167 78.6689 46.5 118.002s9.5 84.666 9.5 135.999v80.5v80.5l117 10c46 -2.66699 80.667 -15.334 104 -38.001s35 -52 35 -88c0 -39.333 -8.16699 -77.5 -24.5 -114.5s-39.5 -71 -69.5 -102s-66 -57.5 -108 -79.5z" />
    <glyph glyph-name="kgreenlandic" unicode="&#x138;" horiz-adv-x="1127" 
d="M139 0v209v225v110v171v142v139l254 8v-211.5v-218.5v-188v-195.5v-190.5h-254zM784 0l-103.5 127.5l-105.5 125.5l-132 160h-73v172h80l114 145l105.5 133l104.5 133h299l-152 -178l-151 -177l-150 -175l-11 115l181 -221l155.5 -180.5l154.5 -179.5h-316z" />
    <glyph glyph-name="Lacute" unicode="&#x139;" horiz-adv-x="1155" 
d="M155 0v225v242v482v248v229h281v-229v-248v-438v-241.5v-225.5l-99 201h273h188.5h151.5h143v-245h-938zM261 1559l129 187l127 186l268 5l-112.5 -128l-110.5 -125l-108 -122z" />
    <glyph glyph-name="lacute" unicode="&#x13a;" horiz-adv-x="533" 
d="M139 0v209v225v553v242.5v235.5l254 24v-242.5v-259.5v-553v-225v-209h-254zM87 1599l129 205.5l127 204.5l268 6l-113 -140.5l-110 -137.5l-108 -135z" />
    <glyph glyph-name="uni013B" unicode="&#x13b;" horiz-adv-x="1155" 
d="M155 0v225v242v482v248v229h281v-229v-248v-438v-241.5v-225.5l-99 201h273h188.5h151.5h143v-245h-938zM453 -575c24.667 39.333 40.167 78.6689 46.5 118.002s9.5 84.666 9.5 135.999v80.5v80.5l117 10c46 -2.66699 80.667 -15.334 104 -38.001s35 -52 35 -88
c0 -39.333 -8.16699 -77.5 -24.5 -114.5s-39.5 -71 -69.5 -102s-66 -57.5 -108 -79.5z" />
    <glyph glyph-name="uni013C" unicode="&#x13c;" horiz-adv-x="533" 
d="M139 0v209v225v553v242.5v235.5l254 24v-242.5v-259.5v-553v-225v-209h-254zM102 -575c24.667 39.333 40.167 78.6689 46.5 118.002s9.5 84.666 9.5 135.999v80.5v80.5l117 10c46 -2.66699 80.667 -15.334 104 -38.001s35 -52 35 -88
c0 -39.333 -8.16699 -77.5 -24.5 -114.5s-39.5 -71 -69.5 -102s-66 -57.5 -108 -79.5z" />
    <glyph glyph-name="Lcaron" unicode="&#x13d;" horiz-adv-x="1155" 
d="M155 0v225v242v482v248v229h281v-229v-248v-438v-241.5v-225.5l-99 201h273h188.5h151.5h143v-245h-938zM654 1090c12 32 22.0029 65.332 30.0029 99.999s13.833 68.5 17.5 101.5s5.5 63.167 5.5 90.5v89.5v88.5l111 10c29.333 -2 53.166 -13.167 71.499 -33.5
s27.5 -48.166 27.5 -83.499c0 -34 -4.33301 -68 -13 -102s-20.334 -66.833 -35.001 -98.5s-30.834 -61 -48.501 -88s-35.167 -50.833 -52.5 -71.5z" />
    <glyph glyph-name="lcaron" unicode="&#x13e;" horiz-adv-x="573" 
d="M139 0v209v225v553v242.5v235.5l254 24v-242.5v-259.5v-553v-225v-209h-254zM530 1090c12 32 22.0029 65.332 30.0029 99.999s13.833 68.5 17.5 101.5s5.5 63.167 5.5 90.5v89.5v88.5l111 10c29.333 -2 53.166 -13.167 71.499 -33.5s27.5 -48.166 27.5 -83.499
c0 -34 -4.33301 -68 -13 -102s-20.334 -66.833 -35.001 -98.5s-30.834 -61 -48.501 -88s-35.167 -50.833 -52.5 -71.5z" />
    <glyph glyph-name="Ldot" unicode="&#x13f;" horiz-adv-x="1155" 
d="M155 0v225v242v482v248v229h281v-229v-248v-438v-241.5v-225.5l-99 201h273h188.5h151.5h143v-245h-938zM877 575c-49.333 0 -88.667 12.167 -118 36.5s-44 63.166 -44 116.499c0 48.667 14.667 86 44 112s69.333 39 120 39c50 0 89.5 -13.5 118.5 -40.5
s43.5 -63.833 43.5 -110.5c0 -53.333 -14.667 -92.166 -44 -116.499s-69.333 -36.5 -120 -36.5z" />
    <glyph glyph-name="ldot" unicode="&#x140;" horiz-adv-x="888" 
d="M139 0v209v225v553v242.5v235.5l254 24v-242.5v-259.5v-553v-225v-209h-254zM709 576c-49.333 0 -88.667 12.167 -118 36.5s-44 63.166 -44 116.499c0 48.667 14.667 86 44 112s69.333 39 120 39c50 0 89.5 -13.5 118.5 -40.5s43.5 -63.833 43.5 -110.5
c0 -53.333 -14.667 -92.166 -44 -116.499s-69.333 -36.5 -120 -36.5z" />
    <glyph glyph-name="Lslash" unicode="&#x141;" horiz-adv-x="1186" 
d="M186 0v225v242v482v248v229h280v-229v-248v-438v-241.5v-225.5l-99 201h273h189h152h143v-245h-938zM27 518l-55 185l195.5 57.5l176.5 52.5l101 30l178.5 52.5l194.5 57.5l53 -185l-192.5 -56.5l-178.5 -53.5l-101 -30l-177 -52z" />
    <glyph glyph-name="lslash" unicode="&#x142;" horiz-adv-x="674" 
d="M24 522l-48 163l153.5 45.5l142.5 41.5l78 23l142 42l155 46l49 -162l-156.5 -46.5l-142.5 -41.5l-78 -23l-141 -41.5zM210 0v209v225v553v242.5v235.5l254 24v-242.5v-259.5v-553v-225v-209h-254z" />
    <glyph glyph-name="Nacute" unicode="&#x143;" horiz-adv-x="1503" 
d="M155 0v225v242v482v248v229h246l208.5 -299l196.5 -283l257 -369h21v474v248v229h264v-229v-248v-482v-242v-225h-243l-189 271.5l-217 310.5l-260 373h-21v-488v-242v-225h-263zM574 1559l129 187l127 186l268 5l-112.5 -128l-110.5 -125l-108 -122z" />
    <glyph glyph-name="nacute" unicode="&#x144;" horiz-adv-x="1153" 
d="M139 0v209.002v225v100v229v233l216 13l10 -177h23c22 32 49.167 62.5 81.5 91.5s70 52.667 113 71s92.167 27.5 147.5 27.5c102 0 178.167 -29.833 228.5 -89.5s75.5 -147.834 75.5 -264.501v-119.5v-114.5v-223.5v-210.5h-254v209v212v169
c0 65.333 -11.167 114.666 -33.5 147.999s-62.5 50 -120.5 50c-34 0 -65.167 -6.83301 -93.5 -20.5s-54 -32 -77 -55s-43.833 -48.833 -62.5 -77.5v-214v-213.5v-207.5h-254zM408 1139l129 205.5l127 204.5l268 6l-113 -140.5l-110 -137.5l-108 -135z" />
    <glyph glyph-name="uni0145" unicode="&#x145;" horiz-adv-x="1503" 
d="M155 0v225v242v482v248v229h246l208.5 -299l196.5 -283l257 -369h21v474v248v229h264v-229v-248v-482v-242v-225h-243l-189 271.5l-217 310.5l-260 373h-21v-488v-242v-225h-263zM589 -575c24.667 39.333 40.167 78.6689 46.5 118.002s9.5 84.666 9.5 135.999v80.5v80.5
l117 10c46 -2.66699 80.667 -15.334 104 -38.001s35 -52 35 -88c0 -39.333 -8.16699 -77.5 -24.5 -114.5s-39.5 -71 -69.5 -102s-66 -57.5 -108 -79.5z" />
    <glyph glyph-name="uni0146" unicode="&#x146;" horiz-adv-x="1153" 
d="M139 0v209.002v225v100v229v233l216 13l10 -177h23c22 32 49.167 62.5 81.5 91.5s70 52.667 113 71s92.167 27.5 147.5 27.5c102 0 178.167 -29.833 228.5 -89.5s75.5 -147.834 75.5 -264.501v-119.5v-114.5v-223.5v-210.5h-254v209v212v169
c0 65.333 -11.167 114.666 -33.5 147.999s-62.5 50 -120.5 50c-34 0 -65.167 -6.83301 -93.5 -20.5s-54 -32 -77 -55s-43.833 -48.833 -62.5 -77.5v-214v-213.5v-207.5h-254zM423 -574.998c24.667 39.333 40.167 78.6689 46.5 118.002s9.5 84.666 9.5 135.999v80.5v80.5
l117 10c46 -2.66699 80.667 -15.334 104 -38.001s35 -52 35 -88c0 -39.333 -8.16699 -77.5 -24.5 -114.5s-39.5 -71 -69.5 -102s-66 -57.5 -108 -79.5z" />
    <glyph glyph-name="Ncaron" unicode="&#x147;" horiz-adv-x="1503" 
d="M155 0v225v242v482v248v229h246l208.5 -299l196.5 -283l257 -369h21v474v248v229h264v-229v-248v-482v-242v-225h-243l-189 271.5l-217 310.5l-260 373h-21v-488v-242v-225h-263zM620 1558l-128 188l-128 186l191 3l115 -137.5l116 -139.5h-66l115 138l113 135h193
l-127.5 -185.5l-128.5 -187.5h-265z" />
    <glyph glyph-name="ncaron" unicode="&#x148;" horiz-adv-x="1153" 
d="M139 0v209.002v225v100v229v233l216 13l10 -177h23c22 32 49.167 62.5 81.5 91.5s70 52.667 113 71s92.167 27.5 147.5 27.5c102 0 178.167 -29.833 228.5 -89.5s75.5 -147.834 75.5 -264.501v-119.5v-114.5v-223.5v-210.5h-254v209v212v169
c0 65.333 -11.167 114.666 -33.5 147.999s-62.5 50 -120.5 50c-34 0 -65.167 -6.83301 -93.5 -20.5s-54 -32 -77 -55s-43.833 -48.833 -62.5 -77.5v-214v-213.5v-207.5h-254zM454 1131l-128 206.5l-128 204.5l191 3l113.5 -149.5l114.5 -150.5h-61l114 148.5l112 147.5h193
l-128 -203.5l-128 -206.5h-265z" />
    <glyph glyph-name="Eng" unicode="&#x14a;" horiz-adv-x="1503" 
d="M902 -384c36 45.333 66.3311 91.5 90.998 138.5s43.167 96.833 55.5 149.5s18.5 110.667 18.5 174v64l95 -142h-57l-189.5 272l-216.5 310l-260 373h-21v-488v-242v-225h-263v225v242v482v248v229h246l208.5 -299l196.5 -283l257 -369h21v474v248v229h264v-229v-248v-383
v-257.5v-244.5c0 -55.333 -4.66699 -105.5 -14 -150.5s-22.166 -85.667 -38.499 -122s-35.166 -68.833 -56.499 -97.5s-44.333 -54.667 -69 -78h-268z" />
    <glyph glyph-name="eng" unicode="&#x14b;" horiz-adv-x="1153" 
d="M627 -392c36 42.667 65.332 87.333 87.999 134s39.167 96.834 49.5 150.501s15.5 112.834 15.5 177.501v351v169c0 65.333 -11.167 114.666 -33.5 147.999s-62.5 50 -120.5 50c-34 0 -65.167 -6.83301 -93.5 -20.5s-54 -32 -77 -55s-43.833 -48.833 -62.5 -77.5v-214
v-213.5v-207.5h-254v209v225v100v229v233l216 13l10 -177h23c22 32 49.167 62.5 81.5 91.5s70 52.667 113 71s92.167 27.5 147.5 27.5c102 0 178.167 -29.833 228.5 -89.5s75.5 -147.834 75.5 -264.501v-69v-65v-189v-157v-147c0 -49.333 -3.33301 -95 -10 -137
s-16.667 -80.667 -30 -116s-29.666 -67.333 -48.999 -96s-41.333 -54 -66 -76z" />
    <glyph glyph-name="Omacron" unicode="&#x14c;" horiz-adv-x="1630" 
d="M822 -25c-126 0 -235.496 19.6631 -328.496 58.9961s-169.667 93.333 -230 162s-105.333 147.334 -135 236.001s-44.5 182.334 -44.5 281.001c0 138 27.667 263.167 83 375.5s137.166 201.333 245.499 267s242.166 98.5 401.499 98.5c121.333 0 227.666 -19 318.999 -57
s167.666 -91 228.999 -159s107.333 -146.667 138 -236s46 -185.333 46 -288c0 -141.333 -28 -267.666 -84 -378.999s-138 -199.166 -246 -263.499s-239.333 -96.5 -394 -96.5zM817.004 207.996c74.667 0 139.333 13.5 194 40.5s100.167 64.333 136.5 112
s63.333 101.834 81 162.501s26.5 124.334 26.5 191.001c0 71.333 -9.66699 137.666 -29 198.999s-47.5 115.166 -84.5 161.499s-82.667 82.333 -137 108s-116.833 38.5 -187.5 38.5c-72.667 0 -136.667 -13.333 -192 -40s-101.5 -63.667 -138.5 -111
s-64.833 -101.5 -83.5 -162.5s-28 -125.5 -28 -193.5s9 -132.333 27 -193s45.333 -114.667 82 -162s82.667 -84.333 138 -111s120.333 -40 195 -40zM483.003 1632v189h158h174h174h158v-189h-158h-174h-174h-158z" />
    <glyph glyph-name="omacron" unicode="&#x14d;" horiz-adv-x="1195" 
d="M602 -25c-88 0 -164.668 14.1699 -230.001 42.5029s-119.666 67.166 -162.999 116.499s-75.666 105.666 -96.999 168.999s-32 129.666 -32 198.999c0 99.333 20 188.166 60 266.499s98.5 140.166 175.5 185.499s170.833 68 281.5 68
c85.333 0 160.166 -13.167 224.499 -39.5s118.333 -63.166 162 -110.499s76.5 -102.5 98.5 -165.5s33 -131.167 33 -204.5c0 -100 -20.167 -189.667 -60.5 -269s-98.833 -142.166 -175.5 -188.499s-169 -69.5 -277 -69.5zM600.999 185.003
c57.333 0 104.832 15.168 142.499 45.501s65.834 69.5 84.501 117.5s28 99.333 28 154c0 64 -10.5 119.167 -31.5 165.5s-50.833 82 -89.5 107s-83.667 37.5 -135 37.5c-56.667 0 -104.5 -13.833 -143.5 -41.5s-68.333 -64.834 -88 -111.501s-29.5 -99 -29.5 -157
c0 -54.667 9.66699 -106 29 -154s48.5 -87.167 87.5 -117.5s87.5 -45.5 145.5 -45.5zM264.998 1212v189h158h174h174h158v-189h-158h-174h-174h-158z" />
    <glyph glyph-name="Obreve" unicode="&#x14e;" horiz-adv-x="1630" 
d="M822 -25c-126 0 -235.496 19.6631 -328.496 58.9961s-169.667 93.333 -230 162s-105.333 147.334 -135 236.001s-44.5 182.334 -44.5 281.001c0 138 27.667 263.167 83 375.5s137.166 201.333 245.499 267s242.166 98.5 401.499 98.5c121.333 0 227.666 -19 318.999 -57
s167.666 -91 228.999 -159s107.333 -146.667 138 -236s46 -185.333 46 -288c0 -141.333 -28 -267.666 -84 -378.999s-138 -199.166 -246 -263.499s-239.333 -96.5 -394 -96.5zM817.004 207.996c74.667 0 139.333 13.5 194 40.5s100.167 64.333 136.5 112
s63.333 101.834 81 162.501s26.5 124.334 26.5 191.001c0 71.333 -9.66699 137.666 -29 198.999s-47.5 115.166 -84.5 161.499s-82.667 82.333 -137 108s-116.833 38.5 -187.5 38.5c-72.667 0 -136.667 -13.333 -192 -40s-101.5 -63.667 -138.5 -111
s-64.833 -101.5 -83.5 -162.5s-28 -125.5 -28 -193.5s9 -132.333 27 -193s45.333 -114.667 82 -162s82.667 -84.333 138 -111s120.333 -40 195 -40zM812.003 1543c-116 0 -204 32.668 -264 98.001s-90 164.666 -90 297.999l178 8c0 -76.667 14.667 -134.167 44 -172.5
s73.333 -57.5 132 -57.5c60 0 104.667 18.833 134 56.5s44 92.834 44 165.501h178c0 -89.333 -13.167 -163.333 -39.5 -222s-66 -102.334 -119 -131.001s-118.833 -43 -197.5 -43z" />
    <glyph glyph-name="obreve" unicode="&#x14f;" horiz-adv-x="1195" 
d="M602 -25c-88 0 -164.668 14.1699 -230.001 42.5029s-119.666 67.166 -162.999 116.499s-75.666 105.666 -96.999 168.999s-32 129.666 -32 198.999c0 99.333 20 188.166 60 266.499s98.5 140.166 175.5 185.499s170.833 68 281.5 68
c85.333 0 160.166 -13.167 224.499 -39.5s118.333 -63.166 162 -110.499s76.5 -102.5 98.5 -165.5s33 -131.167 33 -204.5c0 -100 -20.167 -189.667 -60.5 -269s-98.833 -142.166 -175.5 -188.499s-169 -69.5 -277 -69.5zM600.999 185.003
c57.333 0 104.832 15.168 142.499 45.501s65.834 69.5 84.501 117.5s28 99.333 28 154c0 64 -10.5 119.167 -31.5 165.5s-50.833 82 -89.5 107s-83.667 37.5 -135 37.5c-56.667 0 -104.5 -13.833 -143.5 -41.5s-68.333 -64.834 -88 -111.501s-29.5 -99 -29.5 -157
c0 -54.667 9.66699 -106 29 -154s48.5 -87.167 87.5 -117.5s87.5 -45.5 145.5 -45.5zM593.998 1123c-116 0 -204 32.6699 -264 98.0029s-90 164.666 -90 297.999l178 8c0 -77.333 14.667 -135 44 -173s73.333 -57 132 -57c60 0 104.667 18.667 134 56s44 92.666 44 165.999
h178c0 -89.333 -13.167 -163.333 -39.5 -222s-66 -102.334 -119 -131.001s-118.833 -43 -197.5 -43z" />
    <glyph glyph-name="Ohungarumlaut" unicode="&#x150;" horiz-adv-x="1630" 
d="M822 -25c-126 0 -235.496 19.6631 -328.496 58.9961s-169.667 93.333 -230 162s-105.333 147.334 -135 236.001s-44.5 182.334 -44.5 281.001c0 138 27.667 263.167 83 375.5s137.166 201.333 245.499 267s242.166 98.5 401.499 98.5c121.333 0 227.666 -19 318.999 -57
s167.666 -91 228.999 -159s107.333 -146.667 138 -236s46 -185.333 46 -288c0 -141.333 -28 -267.666 -84 -378.999s-138 -199.166 -246 -263.499s-239.333 -96.5 -394 -96.5zM817.004 207.996c74.667 0 139.333 13.5 194 40.5s100.167 64.333 136.5 112
s63.333 101.834 81 162.501s26.5 124.334 26.5 191.001c0 71.333 -9.66699 137.666 -29 198.999s-47.5 115.166 -84.5 161.499s-82.667 82.333 -137 108s-116.833 38.5 -187.5 38.5c-72.667 0 -136.667 -13.333 -192 -40s-101.5 -63.667 -138.5 -111
s-64.833 -101.5 -83.5 -162.5s-28 -125.5 -28 -193.5s9 -132.333 27 -193s45.333 -114.667 82 -162s82.667 -84.333 138 -111s120.333 -40 195 -40zM879.003 1559l124.5 186.5l124.5 186.5l255 5l-109 -128l-107 -125l-105 -122zM484.003 1559l102 186.5l102 186.5l242 5
l-92 -128l-91 -125l-90 -122z" />
    <glyph glyph-name="ohungarumlaut" unicode="&#x151;" horiz-adv-x="1195" 
d="M602 -25c-88 0 -164.668 14.1699 -230.001 42.5029s-119.666 67.166 -162.999 116.499s-75.666 105.666 -96.999 168.999s-32 129.666 -32 198.999c0 99.333 20 188.166 60 266.499s98.5 140.166 175.5 185.499s170.833 68 281.5 68
c85.333 0 160.166 -13.167 224.499 -39.5s118.333 -63.166 162 -110.499s76.5 -102.5 98.5 -165.5s33 -131.167 33 -204.5c0 -100 -20.167 -189.667 -60.5 -269s-98.833 -142.166 -175.5 -188.499s-169 -69.5 -277 -69.5zM600.999 185.003
c57.333 0 104.832 15.168 142.499 45.501s65.834 69.5 84.501 117.5s28 99.333 28 154c0 64 -10.5 119.167 -31.5 165.5s-50.833 82 -89.5 107s-83.667 37.5 -135 37.5c-56.667 0 -104.5 -13.833 -143.5 -41.5s-68.333 -64.834 -88 -111.501s-29.5 -99 -29.5 -157
c0 -54.667 9.66699 -106 29 -154s48.5 -87.167 87.5 -117.5s87.5 -45.5 145.5 -45.5zM660.998 1139l125.5 205.5l123.5 204.5l255 6l-109 -141l-107 -138l-105 -134zM265.998 1139l102.5 205.5l101.5 204.5l242 6l-92 -141l-91 -138l-90 -134z" />
    <glyph glyph-name="OE" unicode="&#x152;" horiz-adv-x="2150" 
d="M829 -25c-116.667 0 -221.002 17.998 -313.002 53.998s-170.167 86.667 -234.5 152s-113.333 143.166 -147 233.499s-50.5 189.833 -50.5 298.5c0 143.333 28.667 270.833 86 382.5s139.833 199.334 247.5 263.001s236.167 95.5 385.5 95.5
c62 0 122.333 -5.33301 181 -16s112.834 -24.667 162.501 -42s92.167 -35.666 127.5 -54.999l-23 -262c-78 48.667 -151.833 83.334 -221.5 104.001s-135.5 31 -197.5 31c-87.333 0 -165.333 -19.667 -234 -59s-123 -96.333 -163 -171s-60 -164.667 -60 -270
c0 -68.667 10.167 -133.5 30.5 -194.5s51 -115 92 -162s91.833 -83.833 152.5 -110.5s131.334 -40 212.001 -40c65.333 0 130.5 9.16699 195.5 27.5s128.5 50.833 190.5 97.5l19 -262c-38.667 -22 -82 -40 -130 -54s-98.333 -24.333 -151 -31s-105 -10 -157 -10z
M1114 -0.00195312v225v242v483v247v229h927v-233h-203.5h-255.5h-343l149 190v-229.5v-247.5v-395v-242v-226l-132 190h347h233h211v-233h-933zM1325 609.998v221h266h230h185v-221h-189.5h-225.5h-266z" />
    <glyph glyph-name="oe" unicode="&#x153;" horiz-adv-x="1829" 
d="M587 -25c-87.333 0 -163.499 14.1709 -228.499 42.5039s-118.833 67.166 -161.5 116.499s-74.667 105.666 -96 168.999s-32 129.666 -32 198.999c0 99.333 19.833 188.166 59.5 266.499s97.667 140 174 185s169.5 67.5 279.5 67.5c82.667 0 155.167 -13.167 217.5 -39.5
s114.666 -63 156.999 -110s74 -102 95 -165s31.5 -131.167 31.5 -204.5c0 -99.333 -19.5 -188.833 -58.5 -268.5s-95.5 -142.667 -169.5 -189s-163.333 -69.5 -268 -69.5zM591.001 185.004c57.333 0 104.998 15.001 142.998 45.001s66.333 69.167 85 117.5
s28 99.833 28 154.5c0 64 -10.667 119.167 -32 165.5s-51.166 82 -89.499 107s-83.166 37.5 -134.499 37.5c-56.667 0 -104.5 -13.833 -143.5 -41.5s-68.5 -64.834 -88.5 -111.501s-30 -99 -30 -157c0 -54.667 9.66699 -106.167 29 -154.5s48.5 -87.5 87.5 -117.5
s87.5 -45 145.5 -45zM1407 -24.9951c-125.333 0 -228.002 22.666 -308.002 67.999s-139.167 107.666 -177.5 186.999s-57.5 170 -57.5 272c0 101.333 18.167 191.166 54.5 269.499s90 139.5 161 183.5s157.833 66 260.5 66c88 0 163.667 -16.167 227 -48.5
s112 -80.666 146 -144.999s51 -145.166 51 -242.499c0 -26 -0.5 -49.333 -1.5 -70s-3.16699 -41 -6.5 -61l-221 89c1.33301 9.33301 2.33301 18.833 3 28.5s1 18.834 1 27.501c0 73.333 -18.333 130.833 -55 172.5s-84 62.5 -142 62.5c-44 0 -82.833 -12.5 -116.5 -37.5
s-60 -59.833 -79 -104.5s-28.5 -96.334 -28.5 -155.001v-39c0 -64.667 11.5 -120.167 34.5 -166.5s57.833 -82 104.5 -107s106.334 -37.5 179.001 -37.5c28 0 59.5 2.5 94.5 7.5s70.5 12.833 106.5 23.5s69.667 24.334 101 41.001l8 -218
c-25.333 -12.667 -55.166 -24 -89.499 -34s-72.5 -17.833 -114.5 -23.5s-87 -8.5 -135 -8.5zM964.997 454.004v159l641 11l150 -57v-113h-791z" />
    <glyph glyph-name="Racute" unicode="&#x154;" horiz-adv-x="1369" 
d="M155 0l0.000976562 225v242v483v247v229h146h180.5h198.5c113.333 0 209 -12.833 287 -38.5s136.833 -67.834 176.5 -126.501s59.5 -138 59.5 -238c0 -80.667 -15.833 -154 -47.5 -220s-83 -118.5 -154 -157.5s-165.167 -58.833 -282.5 -59.5l103 112l205 -285
l101.5 -141l105 -146l90.5 -126h-320l-113.5 165.5l-106.5 154.5l-242 353l168 -140h-331v217h250c62.667 0 115.167 7.5 157.5 22.5s74.166 40 95.499 75s32 82.5 32 142.5c0 46.667 -7.16699 84 -21.5 112s-33.5 49.333 -57.5 64s-50.167 24.334 -78.5 29.001
s-56.833 7 -85.5 7h-439l197 181v-234.5v-242.5v-439v-242v-225h-274zM467.001 1559l129 187l127 186l268 5l-112.5 -128l-110.5 -125l-108 -122z" />
    <glyph glyph-name="racute" unicode="&#x155;" horiz-adv-x="816" 
d="M139 0l0.000976562 209.002v225v100v229v233l216 13l10 -190h22c26.667 56.667 56.334 99.5 89.001 128.5s66.167 48.667 100.5 59s66.5 15.5 96.5 15.5c16 0 33.5 -1.33301 52.5 -4s36.833 -7.33398 53.5 -14.001l-23 -249c-24 3.33301 -45.833 5.83301 -65.5 7.5
s-41.5 2.5 -65.5 2.5c-18.667 0 -38.667 -2.33301 -60 -7s-42.333 -13.834 -63 -27.501s-40.334 -33.5 -59.001 -59.5s-35.334 -60 -50.001 -102v-148v-213.5v-207.5h-254zM290.001 1139l129 205.5l127 204.5l268 6l-113 -140.5l-110 -137.5l-108 -135z" />
    <glyph glyph-name="uni0156" unicode="&#x156;" horiz-adv-x="1369" 
d="M155 0l0.000976562 225v242v483v247v229h146h180.5h198.5c113.333 0 209 -12.833 287 -38.5s136.833 -67.834 176.5 -126.501s59.5 -138 59.5 -238c0 -80.667 -15.833 -154 -47.5 -220s-83 -118.5 -154 -157.5s-165.167 -58.833 -282.5 -59.5l103 112l205 -285
l101.5 -141l105 -146l90.5 -126h-320l-113.5 165.5l-106.5 154.5l-242 353l168 -140h-331v217h250c62.667 0 115.167 7.5 157.5 22.5s74.166 40 95.499 75s32 82.5 32 142.5c0 46.667 -7.16699 84 -21.5 112s-33.5 49.333 -57.5 64s-50.167 24.334 -78.5 29.001
s-56.833 7 -85.5 7h-439l197 181v-234.5v-242.5v-439v-242v-225h-274zM522.001 -575c24.667 39.333 40.167 78.6689 46.5 118.002s9.5 84.666 9.5 135.999v80.5v80.5l117 10c46 -2.66699 80.667 -15.334 104 -38.001s35 -52 35 -88c0 -39.333 -8.16699 -77.5 -24.5 -114.5
s-39.5 -71 -69.5 -102s-66 -57.5 -108 -79.5z" />
    <glyph glyph-name="uni0157" unicode="&#x157;" horiz-adv-x="816" 
d="M139 0l0.000976562 209.002v225v100v229v233l216 13l10 -190h22c26.667 56.667 56.334 99.5 89.001 128.5s66.167 48.667 100.5 59s66.5 15.5 96.5 15.5c16 0 33.5 -1.33301 52.5 -4s36.833 -7.33398 53.5 -14.001l-23 -249c-24 3.33301 -45.833 5.83301 -65.5 7.5
s-41.5 2.5 -65.5 2.5c-18.667 0 -38.667 -2.33301 -60 -7s-42.333 -13.834 -63 -27.501s-40.334 -33.5 -59.001 -59.5s-35.334 -60 -50.001 -102v-148v-213.5v-207.5h-254zM102.001 -574.998c24.667 39.333 40.167 78.6689 46.5 118.002s9.5 84.666 9.5 135.999v80.5v80.5
l117 10c46 -2.66699 80.667 -15.334 104 -38.001s35 -52 35 -88c0 -39.333 -8.16699 -77.5 -24.5 -114.5s-39.5 -71 -69.5 -102s-66 -57.5 -108 -79.5z" />
    </font>
</defs>
</svg>
