<svg width="244" height="102" viewBox="0 0 244 102" fill="none" xmlns="http://www.w3.org/2000/svg">
<g clip-path="url(#clip0_425_23)">
<path d="M53.3774 101.908V85.0977H56.1724C56.6149 85.0823 57.0467 85.2325 57.3807 85.5178C57.7147 85.8031 57.926 86.2022 57.9717 86.6346L59.4531 97.0878L60.9204 86.6518C60.9662 86.2194 61.1774 85.8202 61.5114 85.5349C61.8455 85.2496 62.2773 85.0995 62.7197 85.1148H65.5147V101.925H62.7197L63.0377 88.9777L60.8785 101.925H57.9962L55.837 88.9777L56.155 101.925L53.3774 101.908ZM66.6991 87.9348C66.6735 87.5457 66.7326 87.1556 66.8726 86.7906C67.0125 86.4257 67.2301 86.0942 67.5108 85.8183C67.7914 85.5423 68.1288 85.3283 68.5003 85.1905C68.8718 85.0526 69.2689 84.9941 69.6653 85.0188H72.1109C72.5073 84.9941 72.9045 85.0526 73.276 85.1905C73.6475 85.3283 73.9848 85.5423 74.2655 85.8183C74.5461 86.0942 74.7637 86.4257 74.9037 86.7906C75.0436 87.1556 75.1027 87.5457 75.0771 87.9348V99.0844C75.1027 99.4736 75.0436 99.8637 74.9037 100.229C74.7637 100.594 74.5461 100.925 74.2655 101.201C73.9848 101.477 73.6475 101.691 73.276 101.829C72.9045 101.967 72.5073 102.025 72.1109 102.001H69.6653C69.2689 102.025 68.8718 101.967 68.5003 101.829C68.1288 101.691 67.7914 101.477 67.5108 101.201C67.2301 100.925 67.0125 100.594 66.8726 100.229C66.7326 99.8637 66.6735 99.4736 66.6991 99.0844V87.9348ZM70.137 99.3623H71.6218C71.7208 99.3637 71.8191 99.3456 71.9109 99.309C72.0027 99.2724 72.0861 99.2182 72.1561 99.1494C72.2261 99.0806 72.2814 98.9987 72.3187 98.9086C72.3559 98.8185 72.3744 98.722 72.373 98.6247V88.4906C72.3816 88.3776 72.3669 88.264 72.3296 88.1567C72.2924 88.0494 72.2335 87.9506 72.1563 87.8662C72.0869 87.7967 72.0036 87.7419 71.9116 87.7053C71.8196 87.6687 71.721 87.6511 71.6218 87.6535H70.1335C70.0343 87.6511 69.9356 87.6687 69.8437 87.7053C69.7517 87.7419 69.6684 87.7967 69.5989 87.8662C69.5212 87.9503 69.4616 88.049 69.4238 88.1563C69.3859 88.2636 69.3706 88.3773 69.3788 88.4906V98.6247C69.3779 98.7222 69.3968 98.8188 69.4344 98.9089C69.472 98.999 69.5277 99.0808 69.598 99.1496C69.6683 99.2183 69.7519 99.2725 69.8438 99.3091C69.9358 99.3456 70.0343 99.3637 70.1335 99.3623H70.137ZM76.3209 99.3795V87.6604C76.2972 87.3234 76.3472 86.9853 76.4676 86.6689C76.588 86.3525 76.776 86.065 77.0189 85.8258C77.2618 85.5867 77.5541 85.4013 77.876 85.2822C78.1979 85.1631 78.5421 85.1131 78.8853 85.1354H81.855C82.1985 85.1126 82.5431 85.1622 82.8654 85.2811C83.1877 85.4 83.4804 85.5852 83.7237 85.8245C83.967 86.0637 84.1553 86.3513 84.2759 86.668C84.3965 86.9847 84.4466 87.3231 84.4229 87.6604V90.868L81.7537 89.9898V88.5112C81.7562 88.4138 81.7382 88.3169 81.701 88.2266C81.6637 88.1363 81.6079 88.0545 81.5371 87.9863C81.4668 87.9168 81.3829 87.8621 81.2904 87.8255C81.1979 87.789 81.0987 87.7713 80.999 87.7736H79.7622C79.6628 87.7718 79.5639 87.7895 79.4715 87.8259C79.3792 87.8622 79.2952 87.9163 79.2245 87.9851C79.1538 88.0539 79.0979 88.1359 79.06 88.2262C79.0222 88.3166 79.0031 88.4135 79.0041 88.5112V98.5355C79.0031 98.6332 79.0222 98.7301 79.06 98.8205C79.0979 98.9109 79.1538 98.9929 79.2245 99.0616C79.2952 99.1304 79.3792 99.1845 79.4715 99.2209C79.5639 99.2572 79.6628 99.275 79.7622 99.2731H80.9816C81.0829 99.2774 81.1841 99.2612 81.2788 99.2254C81.3735 99.1897 81.4598 99.1352 81.5322 99.0654C81.6046 98.9956 81.6616 98.912 81.6997 98.8197C81.7378 98.7273 81.7562 98.6283 81.7537 98.5287V97.0466L84.4474 97.9215V99.3795C84.4711 99.7168 84.421 100.055 84.3004 100.372C84.1798 100.689 83.9915 100.976 83.7482 101.215C83.5049 101.455 83.2122 101.64 82.8899 101.759C82.5675 101.878 82.223 101.927 81.8795 101.904H78.9098C78.5681 101.921 78.2266 101.869 77.9064 101.751C77.5861 101.633 77.2938 101.451 77.0476 101.218C76.8105 100.974 76.6264 100.685 76.5063 100.369C76.3862 100.053 76.3326 99.7165 76.3488 99.3795H76.3209ZM88.3673 85.1114V91.8183L90.8444 86.6724C91.0657 86.1938 91.4316 85.7937 91.8925 85.5265C92.3445 85.2442 92.8696 85.0953 93.4053 85.0977H94.967L91.3056 92.055L94.7644 101.891H91.7947L89.5168 95.4377L88.3673 97.6367V101.891H85.6841V85.0805L88.3673 85.1114ZM95.264 87.9348C95.2384 87.5457 95.2975 87.1556 95.4375 86.7906C95.5774 86.4257 95.795 86.0942 96.0757 85.8183C96.3563 85.5423 96.6937 85.3283 97.0652 85.1905C97.4367 85.0526 97.8338 84.9941 98.2302 85.0188H100.676C101.072 84.9941 101.469 85.0526 101.841 85.1905C102.212 85.3283 102.55 85.5423 102.83 85.8183C103.111 86.0942 103.329 86.4257 103.469 86.7906C103.609 87.1556 103.668 87.5457 103.642 87.9348V99.0844C103.668 99.4736 103.609 99.8637 103.469 100.229C103.329 100.594 103.111 100.925 102.83 101.201C102.55 101.477 102.212 101.691 101.841 101.829C101.469 101.967 101.072 102.025 100.676 102.001H98.2302C97.8338 102.025 97.4367 101.967 97.0652 101.829C96.6937 101.691 96.3563 101.477 96.0757 101.201C95.795 100.925 95.5774 100.594 95.4375 100.229C95.2975 99.8637 95.2384 99.4736 95.264 99.0844V87.9348ZM98.7019 99.3623H100.19C100.289 99.3637 100.388 99.3456 100.48 99.3091C100.572 99.2725 100.655 99.2183 100.726 99.1496C100.796 99.0808 100.852 98.999 100.889 98.9089C100.927 98.8188 100.946 98.7222 100.945 98.6247V88.4906C100.953 88.3773 100.938 88.2636 100.9 88.1563C100.862 88.049 100.802 87.9503 100.725 87.8662C100.655 87.7967 100.572 87.7419 100.48 87.7053C100.388 87.6687 100.289 87.6511 100.19 87.6535H98.7019C98.6027 87.6511 98.504 87.6687 98.4121 87.7053C98.3201 87.7419 98.2368 87.7967 98.1673 87.8662C98.0902 87.9506 98.0313 88.0494 97.994 88.1567C97.9568 88.264 97.9421 88.3776 97.9507 88.4906V98.6247C97.9493 98.722 97.9678 98.8185 98.005 98.9086C98.0423 98.9987 98.0975 99.0806 98.1676 99.1494C98.2376 99.2182 98.321 99.2724 98.4127 99.309C98.5045 99.3456 98.6028 99.3637 98.7019 99.3623ZM105.047 85.1354H110.581C110.923 85.1186 111.265 85.1708 111.586 85.2888C111.907 85.4068 112.2 85.5881 112.446 85.8216C112.683 86.0658 112.867 86.3547 112.987 86.6707C113.107 86.9868 113.161 87.3234 113.145 87.6604V91.8458C113.146 92.0578 113.095 92.267 112.998 92.4564C112.899 92.6558 112.766 92.8369 112.603 92.9916C112.44 93.1452 112.252 93.2725 112.048 93.369C111.862 93.4623 111.656 93.5128 111.447 93.5165C111.656 93.5189 111.861 93.5682 112.048 93.6606C112.252 93.7583 112.44 93.8868 112.603 94.0414C112.765 94.1949 112.899 94.3748 112.998 94.5731C113.095 94.7628 113.145 94.9719 113.145 95.1838V99.3795C113.169 99.7165 113.12 100.055 113 100.371C112.879 100.688 112.691 100.975 112.448 101.214C112.205 101.453 111.913 101.638 111.59 101.757C111.268 101.875 110.924 101.924 110.581 101.901H105.047V85.1354ZM107.73 94.8373V99.2697H109.704C109.804 99.2725 109.904 99.255 109.997 99.2185C110.09 99.1819 110.175 99.1269 110.245 99.057C110.316 98.9888 110.372 98.907 110.409 98.8167C110.446 98.7264 110.464 98.6295 110.462 98.5321V95.5783C110.466 95.4807 110.449 95.3834 110.411 95.2929C110.374 95.2024 110.317 95.1207 110.245 95.0534C110.175 94.9831 110.09 94.9276 109.997 94.8904C109.904 94.8532 109.804 94.8352 109.704 94.8373H107.73ZM109.704 92.2026C109.804 92.2047 109.904 92.1866 109.997 92.1495C110.09 92.1123 110.175 92.0568 110.245 91.9864C110.317 91.9195 110.373 91.8384 110.411 91.7485C110.448 91.6586 110.465 91.562 110.462 91.465V88.5112C110.464 88.4138 110.446 88.3169 110.409 88.2266C110.372 88.1363 110.316 88.0545 110.245 87.9863C110.175 87.9164 110.09 87.8614 109.997 87.8248C109.904 87.7882 109.804 87.7708 109.704 87.7736H107.73V92.206L109.704 92.2026ZM114.308 99.3795V87.6604C114.285 87.3231 114.335 86.9847 114.455 86.668C114.576 86.3513 114.764 86.0637 115.008 85.8245C115.251 85.5852 115.544 85.4 115.866 85.2811C116.188 85.1622 116.533 85.1126 116.876 85.1354H119.836C120.179 85.1131 120.523 85.1631 120.845 85.2822C121.167 85.4013 121.459 85.5867 121.702 85.8258C121.945 86.065 122.133 86.3525 122.253 86.6689C122.374 86.9853 122.424 87.3234 122.4 87.6604V90.868L119.717 89.9898V88.5112C119.718 88.4135 119.699 88.3166 119.661 88.2262C119.623 88.1359 119.567 88.0539 119.496 87.9851C119.426 87.9163 119.342 87.8622 119.249 87.8259C119.157 87.7895 119.058 87.7718 118.959 87.7736H117.739C117.64 87.7713 117.54 87.789 117.448 87.8255C117.355 87.8621 117.272 87.9168 117.201 87.9863C117.13 88.0545 117.075 88.1363 117.037 88.2266C117 88.3169 116.982 88.4138 116.985 88.5112V98.5355C116.982 98.6329 117 98.7298 117.037 98.8201C117.075 98.9104 117.13 98.9922 117.201 99.0604C117.272 99.1299 117.355 99.1846 117.448 99.2212C117.54 99.2578 117.64 99.2754 117.739 99.2731H118.959C119.058 99.275 119.158 99.2571 119.25 99.2206C119.343 99.184 119.427 99.1296 119.498 99.0604C119.568 98.9913 119.624 98.9089 119.662 98.8181C119.7 98.7274 119.718 98.6301 119.717 98.5321V97.0501L122.41 97.9249V99.3829C122.432 99.7194 122.379 100.057 122.257 100.372C122.135 100.687 121.946 100.973 121.702 101.21C121.458 101.447 121.166 101.631 120.844 101.748C120.522 101.866 120.178 101.914 119.836 101.891H116.866C116.522 101.914 116.178 101.864 115.855 101.745C115.533 101.626 115.24 101.441 114.997 101.202C114.754 100.962 114.566 100.675 114.445 100.358C114.324 100.041 114.274 99.7031 114.298 99.3658L114.308 99.3795ZM126.358 85.1114V91.8183L128.832 86.6724C129.055 86.1942 129.421 85.7936 129.88 85.5231C130.334 85.2446 130.858 85.0971 131.393 85.0977H132.958L129.293 92.055L132.762 101.891H129.793L127.522 95.4514L126.376 97.647V101.891H123.679V85.0805L126.358 85.1114ZM133.552 101.922V85.1114H136.256L136.155 94.7721L138.702 86.5866C138.835 86.1545 139.108 85.7772 139.481 85.5128C139.851 85.245 140.3 85.1039 140.76 85.1114H141.968V101.922H139.275L139.376 92.2609L136.822 100.446C136.688 100.881 136.412 101.259 136.036 101.524C135.667 101.79 135.219 101.929 134.761 101.922H133.552ZM145.944 85.1114L145.847 94.7721L148.397 86.5866C148.529 86.1531 148.804 85.7751 149.18 85.5128C149.549 85.245 149.999 85.1039 150.458 85.1114H151.664V101.922H148.973L149.071 92.2609L146.517 100.446C146.383 100.878 146.11 101.255 145.739 101.521C145.368 101.787 144.919 101.927 144.46 101.922H143.244V85.1114H145.944ZM149.924 81.6808L149.466 82.5796C149.324 82.8369 149.117 83.0542 148.865 83.2108C148.615 83.371 148.322 83.4557 148.023 83.4544H145.41V81.6808H149.924ZM156.31 99.2697H157.516V87.6364C157.492 87.2992 157.543 86.9611 157.664 86.6447C157.785 86.3282 157.973 86.0408 158.216 85.8017C158.459 85.5626 158.752 85.3773 159.074 85.2582C159.396 85.1392 159.74 85.0891 160.084 85.1114H165.604V101.922H155.419L156.31 99.2697ZM162.91 99.2697V87.7461H160.957C160.858 87.7462 160.76 87.7663 160.669 87.8053C160.578 87.8443 160.497 87.9012 160.429 87.9726C160.357 88.0374 160.3 88.1164 160.261 88.2045C160.221 88.2925 160.202 88.3877 160.202 88.4837V99.2697H162.91ZM166.788 87.9314C166.763 87.5425 166.822 87.1528 166.963 86.7883C167.103 86.4237 167.32 86.0927 167.601 85.8171C167.882 85.5416 168.219 85.3279 168.59 85.1902C168.961 85.0526 169.358 84.9941 169.754 85.0188H172.2C172.596 84.9941 172.993 85.0526 173.364 85.1902C173.735 85.3279 174.072 85.5416 174.353 85.8171C174.634 86.0927 174.851 86.4237 174.991 86.7883C175.132 87.1528 175.191 87.5425 175.166 87.9314V99.0844C175.191 99.4733 175.132 99.863 174.991 100.228C174.851 100.592 174.634 100.923 174.353 101.199C174.072 101.474 173.735 101.688 173.364 101.826C172.993 101.963 172.596 102.022 172.2 101.997H169.754C169.358 102.022 168.961 101.963 168.59 101.826C168.219 101.688 167.882 101.474 167.601 101.199C167.32 100.923 167.103 100.592 166.963 100.228C166.822 99.863 166.763 99.4733 166.788 99.0844V87.9314ZM170.226 99.3623H171.714C171.813 99.3637 171.912 99.3456 172.003 99.309C172.095 99.2724 172.179 99.2182 172.249 99.1494C172.319 99.0806 172.374 98.9987 172.411 98.9086C172.448 98.8185 172.467 98.722 172.465 98.6247V88.4872C172.474 88.3747 172.459 88.2617 172.422 88.155C172.384 88.0483 172.326 87.9501 172.249 87.8662C172.179 87.7967 172.096 87.7419 172.004 87.7053C171.912 87.6687 171.813 87.6511 171.714 87.6535H170.226C170.127 87.6511 170.028 87.6687 169.936 87.7053C169.844 87.7419 169.761 87.7967 169.691 87.8662C169.615 87.9501 169.556 88.0483 169.518 88.155C169.481 88.2617 169.466 88.3747 169.475 88.4872V98.6247C169.473 98.722 169.492 98.8185 169.529 98.9086C169.566 98.9987 169.622 99.0806 169.692 99.1494C169.762 99.2182 169.845 99.2724 169.937 99.309C170.029 99.3456 170.127 99.3637 170.226 99.3623ZM176.567 101.891V85.0805H179.362C179.803 85.0677 180.234 85.2155 180.571 85.4956C180.904 85.7823 181.116 86.1814 181.165 86.614L182.646 97.0878L184.121 86.6449C184.169 86.2123 184.381 85.8132 184.714 85.5265C185.051 85.2464 185.482 85.0985 185.923 85.1114H188.718V101.922H185.923L186.238 88.9777L184.072 101.891H181.2L179.044 88.9469L179.359 101.891H176.567ZM195.744 85.0805V91.784L198.218 86.6552C198.441 86.1771 198.807 85.7764 199.266 85.5059C199.719 85.2274 200.244 85.08 200.779 85.0805H202.344L198.679 92.0379L202.138 101.891H199.168L196.89 95.4377L195.744 97.6333V101.891H193.058V85.0805H195.744ZM204.936 87.1732C205.022 86.58 205.321 86.0362 205.778 85.6397C206.243 85.2478 206.84 85.0398 207.452 85.0565H209.391L212.071 101.891H209.276L208.818 98.6728H205.831L205.391 101.891H202.596L204.929 87.2144L204.936 87.1732ZM206.222 96.0586H208.462L207.35 88.3019L206.222 96.0586ZM212.895 101.891V85.0805H215.69C216.132 85.0651 216.563 85.2148 216.897 85.4993C217.231 85.7839 217.443 86.1823 217.489 86.614L218.971 97.0878L220.438 86.6483C220.485 86.2166 220.696 85.8182 221.03 85.5337C221.364 85.2491 221.795 85.0994 222.237 85.1148H225.032V101.925H222.237L222.555 88.9812L220.396 101.891H217.528L215.369 88.9469L215.687 101.891H212.895ZM226.318 85.0805H229.001V92.1717H231.733V85.1114H234.431V101.922H231.747V94.8545H229.015V101.891H226.332L226.318 85.0805ZM235.304 101.891L237.456 94.6452C236.988 94.4889 236.585 94.1834 236.314 93.7772C236.026 93.3321 235.881 92.8121 235.898 92.2849V87.6604C235.882 87.3235 235.936 86.9869 236.056 86.671C236.176 86.355 236.36 86.0661 236.597 85.8216C236.844 85.5888 237.137 85.4079 237.458 85.29C237.778 85.172 238.12 85.1194 238.462 85.1354H244V101.891H241.313V94.8236H240.321L238.487 100.958C238.417 101.232 238.253 101.475 238.022 101.644C237.791 101.809 237.511 101.895 237.226 101.891H235.304ZM238.581 88.7479V91.2214C238.575 91.351 238.595 91.4805 238.641 91.602C238.688 91.7235 238.759 91.8345 238.85 91.9281C238.948 92.0176 239.063 92.0868 239.188 92.1316C239.314 92.1764 239.447 92.1959 239.58 92.1888H241.327V87.7702H239.58C239.447 87.7631 239.314 87.7826 239.188 87.8274C239.063 87.8722 238.948 87.9414 238.85 88.0309C238.759 88.1245 238.688 88.2355 238.641 88.357C238.595 88.4785 238.575 88.608 238.581 88.7376V88.7479Z" fill="white"/>
<path d="M45.6843 24.2583L66.1507 48.6056L34.7838 101.956H0L45.6843 24.2583Z" fill="url(#paint0_linear_425_23)"/>
<path d="M84.7451 24.2583H45.6851L91.8969 79.231L107.972 51.8888L84.7451 24.2583Z" fill="url(#paint1_linear_425_23)"/>
<path d="M138.479 0L158.949 24.3473L126.687 79.2136L91.8965 79.2308L138.479 0Z" fill="url(#paint2_linear_425_23)"/>
<path d="M177.539 0H138.479L205.084 79.2273H243.997L177.539 0Z" fill="url(#paint3_linear_425_23)"/>
</g>
<defs>
<linearGradient id="paint0_linear_425_23" x1="33.1215" y1="71.9103" x2="32.9366" y2="131.427" gradientUnits="userSpaceOnUse">
<stop stop-color="#4F0D0D"/>
<stop offset="0.26" stop-color="#631414"/>
<stop offset="1" stop-color="#871E1E"/>
</linearGradient>
<linearGradient id="paint1_linear_425_23" x1="110284" y1="-209960" x2="117890" y2="-124208" gradientUnits="userSpaceOnUse">
<stop stop-color="#4F0D0D"/>
<stop offset="0.26" stop-color="#631414"/>
<stop offset="1" stop-color="#871E1E"/>
</linearGradient>
<linearGradient id="paint2_linear_425_23" x1="263789" y1="-240134" x2="263035" y2="-440368" gradientUnits="userSpaceOnUse">
<stop stop-color="#4F0D0D"/>
<stop offset="0.26" stop-color="#631414"/>
<stop offset="1" stop-color="#871E1E"/>
</linearGradient>
<linearGradient id="paint3_linear_425_23" x1="701197" y1="-280417" x2="712673" y2="-101630" gradientUnits="userSpaceOnUse">
<stop stop-color="#4F0D0D"/>
<stop offset="0.26" stop-color="#631414"/>
<stop offset="1" stop-color="#871E1E"/>
</linearGradient>
<clipPath id="clip0_425_23">
<rect width="244" height="102" fill="white"/>
</clipPath>
</defs>
</svg>
