<svg width="143" height="60" viewBox="0 0 143 60" fill="none" xmlns="http://www.w3.org/2000/svg">
<g clip-path="url(#clip0_422_16)">
<path d="M31.2827 59.9457V50.0573H32.9208C33.1801 50.0483 33.4332 50.1366 33.6289 50.3044C33.8246 50.4722 33.9484 50.7071 33.9753 50.9614L34.8434 57.1103L35.7034 50.9715C35.7302 50.7172 35.854 50.4823 36.0498 50.3145C36.2455 50.1467 36.4986 50.0584 36.7579 50.0674H38.396V59.9558H36.7579L36.9442 52.3397L35.6788 59.9558H33.9896L32.7242 52.3397L32.9105 59.9558L31.2827 59.9457ZM39.0901 51.7262C39.0751 51.4973 39.1097 51.2679 39.1918 51.0532C39.2738 50.8385 39.4013 50.6435 39.5658 50.4812C39.7303 50.3189 39.928 50.193 40.1457 50.1119C40.3634 50.0308 40.5962 49.9964 40.8285 50.0109H42.2618C42.4941 49.9964 42.7268 50.0308 42.9446 50.1119C43.1623 50.193 43.36 50.3189 43.5245 50.4812C43.689 50.6435 43.8165 50.8385 43.8985 51.0532C43.9805 51.2679 44.0152 51.4973 44.0002 51.7262V58.2848C44.0152 58.5138 43.9805 58.7432 43.8985 58.9579C43.8165 59.1726 43.689 59.3676 43.5245 59.5299C43.36 59.6922 43.1623 59.8181 42.9446 59.8992C42.7268 59.9803 42.4941 60.0147 42.2618 60.0002H40.8285C40.5962 60.0147 40.3634 59.9803 40.1457 59.8992C39.928 59.8181 39.7303 59.6922 39.5658 59.5299C39.4013 59.3676 39.2738 59.1726 39.1918 58.9579C39.1097 58.7432 39.0751 58.5138 39.0901 58.2848V51.7262ZM41.1049 58.4483H41.9751C42.0331 58.4491 42.0908 58.4384 42.1445 58.4169C42.1983 58.3954 42.2472 58.3635 42.2882 58.323C42.3293 58.2826 42.3617 58.2344 42.3835 58.1814C42.4053 58.1284 42.4162 58.0716 42.4153 58.0144V52.0532C42.4204 51.9867 42.4118 51.9198 42.3899 51.8567C42.3681 51.7936 42.3336 51.7355 42.2884 51.6859C42.2477 51.6449 42.1988 51.6127 42.1449 51.5912C42.0911 51.5697 42.0332 51.5593 41.9751 51.5608H41.1028C41.0447 51.5593 40.9869 51.5697 40.933 51.5912C40.8791 51.6127 40.8303 51.6449 40.7896 51.6859C40.744 51.7353 40.7091 51.7934 40.6869 51.8565C40.6647 51.9196 40.6558 51.9865 40.6606 52.0532V58.0144C40.66 58.0717 40.6711 58.1285 40.6932 58.1816C40.7152 58.2346 40.7478 58.2827 40.789 58.3231C40.8302 58.3636 40.8792 58.3955 40.9331 58.4169C40.987 58.4384 41.0447 58.4491 41.1028 58.4483H41.1049ZM44.7291 58.4584V51.5648C44.7152 51.3666 44.7445 51.1677 44.8151 50.9816C44.8856 50.7954 44.9958 50.6263 45.1382 50.4856C45.2805 50.345 45.4518 50.2359 45.6405 50.1659C45.8291 50.0958 46.0308 50.0664 46.232 50.0795H47.9724C48.1738 50.0661 48.3757 50.0953 48.5646 50.1652C48.7535 50.2351 48.925 50.3441 49.0676 50.4848C49.2102 50.6256 49.3206 50.7948 49.3913 50.9811C49.4619 51.1673 49.4913 51.3664 49.4774 51.5648V53.4516L47.913 52.935V52.0653C47.9145 52.008 47.904 51.951 47.8822 51.8979C47.8603 51.8448 47.8276 51.7966 47.7861 51.7565C47.7449 51.7156 47.6957 51.6834 47.6415 51.6619C47.5873 51.6404 47.5292 51.63 47.4708 51.6314H46.7459C46.6876 51.6303 46.6297 51.6408 46.5756 51.6621C46.5214 51.6835 46.4722 51.7153 46.4308 51.7558C46.3893 51.7963 46.3566 51.8445 46.3344 51.8976C46.3122 51.9508 46.3011 52.0078 46.3016 52.0653V57.9619C46.3011 58.0194 46.3122 58.0764 46.3344 58.1296C46.3566 58.1827 46.3893 58.231 46.4308 58.2714C46.4722 58.3119 46.5214 58.3437 46.5756 58.3651C46.6297 58.3864 46.6876 58.3969 46.7459 58.3958H47.4605C47.5199 58.3983 47.5792 58.3888 47.6348 58.3678C47.6903 58.3467 47.7408 58.3147 47.7832 58.2737C47.8257 58.2326 47.8591 58.1834 47.8814 58.1291C47.9037 58.0748 47.9145 58.0165 47.913 57.9579V57.0861L49.4917 57.6007V58.4584C49.5056 58.6568 49.4763 58.8558 49.4056 59.0421C49.3349 59.2284 49.2246 59.3976 49.082 59.5383C48.9394 59.6791 48.7678 59.788 48.5789 59.858C48.39 59.9279 48.1881 59.9571 47.9868 59.9437H46.2463C46.0461 59.9534 45.846 59.9226 45.6583 59.8532C45.4706 59.7838 45.2993 59.6772 45.155 59.54C45.016 59.3964 44.9081 59.2265 44.8377 59.0406C44.7673 58.8547 44.736 58.6566 44.7455 58.4584H44.7291ZM51.7891 50.0654V54.0106L53.2408 50.9836C53.3705 50.7021 53.585 50.4668 53.8551 50.3096C54.12 50.1435 54.4277 50.0559 54.7417 50.0573H55.6569L53.5111 54.1499L55.5382 59.9356H53.7978L52.4627 56.1397L51.7891 57.4332V59.9356H50.2166V50.0472L51.7891 50.0654ZM55.831 51.7262C55.816 51.4973 55.8506 51.2679 55.9327 51.0532C56.0147 50.8385 56.1422 50.6435 56.3067 50.4812C56.4712 50.3189 56.6689 50.193 56.8866 50.1119C57.1043 50.0308 57.3371 49.9964 57.5694 50.0109H59.0027C59.235 49.9964 59.4677 50.0308 59.6855 50.1119C59.9032 50.193 60.1009 50.3189 60.2654 50.4812C60.4299 50.6435 60.5574 50.8385 60.6394 51.0532C60.7214 51.2679 60.7561 51.4973 60.7411 51.7262V58.2848C60.7561 58.5138 60.7214 58.7432 60.6394 58.9579C60.5574 59.1726 60.4299 59.3676 60.2654 59.5299C60.1009 59.6922 59.9032 59.8181 59.6855 59.8992C59.4677 59.9803 59.235 60.0147 59.0027 60.0002H57.5694C57.3371 60.0147 57.1043 59.9803 56.8866 59.8992C56.6689 59.8181 56.4712 59.6922 56.3067 59.5299C56.1422 59.3676 56.0147 59.1726 55.9327 58.9579C55.8506 58.7432 55.816 58.5138 55.831 58.2848V51.7262ZM57.8458 58.4483H58.7181C58.7762 58.4491 58.8339 58.4384 58.8878 58.4169C58.9417 58.3955 58.9907 58.3636 59.0319 58.3231C59.0731 58.2827 59.1057 58.2346 59.1278 58.1816C59.1498 58.1285 59.1609 58.0717 59.1603 58.0144V52.0532C59.1651 51.9865 59.1562 51.9196 59.134 51.8565C59.1118 51.7934 59.0769 51.7353 59.0313 51.6859C58.9906 51.6449 58.9418 51.6127 58.8879 51.5912C58.834 51.5697 58.7762 51.5593 58.7181 51.5608H57.8458C57.7877 51.5593 57.7298 51.5697 57.676 51.5912C57.6221 51.6127 57.5732 51.6449 57.5325 51.6859C57.4873 51.7355 57.4528 51.7936 57.431 51.8567C57.4091 51.9198 57.4005 51.9867 57.4056 52.0532V58.0144C57.4047 58.0716 57.4156 58.1284 57.4374 58.1814C57.4592 58.2344 57.4916 58.2826 57.5327 58.323C57.5737 58.3635 57.6226 58.3954 57.6764 58.4169C57.7301 58.4384 57.7878 58.4491 57.8458 58.4483ZM61.5642 50.0795H64.8075C65.0081 50.0696 65.2086 50.1003 65.3966 50.1698C65.5847 50.2392 65.7563 50.3458 65.9009 50.4831C66.0398 50.6268 66.1476 50.7967 66.218 50.9826C66.2884 51.1686 66.3198 51.3666 66.3104 51.5648V54.0268C66.3108 54.1515 66.2813 54.2746 66.2244 54.386C66.1663 54.5033 66.088 54.6098 65.9931 54.7008C65.897 54.7912 65.7871 54.8661 65.6675 54.9228C65.5583 54.9777 65.4379 55.0074 65.3153 55.0096C65.4377 55.011 65.5582 55.04 65.6675 55.0943C65.7872 55.1518 65.8971 55.2274 65.9931 55.3183C66.088 55.4086 66.1662 55.5145 66.2244 55.6311C66.2809 55.7427 66.3103 55.8657 66.3104 55.9903V58.4584C66.3247 58.6566 66.2956 58.8555 66.2252 59.0417C66.1547 59.2279 66.0445 59.397 65.902 59.5377C65.7596 59.6783 65.5881 59.7871 65.3993 59.8568C65.2105 59.9265 65.0087 59.9554 64.8075 59.9416H61.5642V50.0795ZM63.1367 55.7865V58.3938H64.2936C64.3524 58.3954 64.4108 58.3852 64.4654 58.3637C64.52 58.3421 64.5695 58.3098 64.611 58.2687C64.6525 58.2286 64.6852 58.1804 64.707 58.1273C64.7289 58.0742 64.7394 58.0172 64.7379 57.9599V56.2224C64.7403 56.165 64.7302 56.1078 64.7083 56.0545C64.6864 56.0013 64.6532 55.9532 64.611 55.9136C64.5696 55.8722 64.5202 55.8396 64.4656 55.8177C64.411 55.7959 64.3525 55.7853 64.2936 55.7865H63.1367ZM64.2936 54.2367C64.3525 54.2379 64.411 54.2273 64.4656 54.2054C64.5202 54.1836 64.5696 54.1509 64.611 54.1095C64.6529 54.0702 64.6859 54.0225 64.7078 53.9696C64.7297 53.9167 64.74 53.8599 64.7379 53.8028V52.0653C64.7394 52.008 64.7289 51.951 64.707 51.8979C64.6852 51.8448 64.6525 51.7966 64.611 51.7565C64.5695 51.7154 64.52 51.683 64.4654 51.6615C64.4108 51.64 64.3524 51.6297 64.2936 51.6314H63.1367V54.2387L64.2936 54.2367ZM66.9923 58.4584V51.5648C66.9784 51.3664 67.0077 51.1673 67.0784 50.9811C67.1491 50.7948 67.2594 50.6256 67.402 50.4848C67.5446 50.3441 67.7162 50.2351 67.9051 50.1652C68.094 50.0953 68.2959 50.0661 68.4972 50.0795H70.2315C70.4327 50.0664 70.6344 50.0958 70.823 50.1659C71.0117 50.2359 71.183 50.345 71.3253 50.4856C71.4677 50.6263 71.5779 50.7954 71.6484 50.9816C71.719 51.1677 71.7483 51.3666 71.7344 51.5648V53.4516L70.1619 52.935V52.0653C70.1625 52.0078 70.1513 51.9508 70.1291 51.8976C70.107 51.8445 70.0742 51.7963 70.0328 51.7558C69.9913 51.7153 69.9421 51.6835 69.888 51.6621C69.8338 51.6408 69.7759 51.6303 69.7176 51.6314H69.003C68.9446 51.63 68.8865 51.6404 68.8322 51.6619C68.778 51.6834 68.7288 51.7156 68.6877 51.7565C68.6461 51.7966 68.6134 51.8448 68.5916 51.8979C68.5698 51.951 68.5592 52.008 68.5607 52.0653V57.9619C68.5592 58.0192 68.5698 58.0762 68.5916 58.1293C68.6134 58.1825 68.6461 58.2306 68.6877 58.2707C68.7288 58.3116 68.778 58.3438 68.8322 58.3653C68.8865 58.3868 68.9446 58.3972 69.003 58.3958H69.7176C69.7761 58.3969 69.8342 58.3864 69.8884 58.3649C69.9427 58.3434 69.992 58.3114 70.0335 58.2707C70.075 58.23 70.1077 58.1816 70.1297 58.1282C70.1518 58.0748 70.1627 58.0176 70.1619 57.9599V57.0881L71.7406 57.6027V58.4604C71.753 58.6584 71.7224 58.8566 71.6508 59.042C71.5792 59.2274 71.4683 59.3955 71.3254 59.5352C71.1825 59.6748 71.011 59.7828 70.8224 59.8519C70.6337 59.9209 70.4323 59.9495 70.2315 59.9356H68.4911C68.2898 59.949 68.0878 59.9198 67.8989 59.8499C67.71 59.78 67.5385 59.671 67.3959 59.5303C67.2533 59.3895 67.1429 59.2203 67.0723 59.034C67.0016 58.8478 66.9722 58.6487 66.9861 58.4503L66.9923 58.4584ZM74.0543 50.0654V54.0106L75.504 50.9836C75.6349 50.7023 75.849 50.4667 76.1183 50.3076C76.3841 50.1437 76.6914 50.057 77.0049 50.0573H77.9222L75.7743 54.1499L77.8075 59.9356H76.0671L74.7362 56.1477L74.0646 57.4393V59.9356H72.4838V50.0472L74.0543 50.0654ZM78.2703 59.9537V50.0654H79.8551L79.7957 55.7482L81.2884 50.9331C81.3662 50.679 81.5266 50.457 81.745 50.3015C81.9618 50.144 82.2251 50.061 82.4944 50.0654H83.2029V59.9537H81.6242L81.6836 54.271L80.1868 59.086C80.1083 59.3415 79.9463 59.5643 79.7261 59.7196C79.5096 59.876 79.2471 59.9583 78.9787 59.9537H78.2703ZM85.533 50.0654L85.4757 55.7482L86.9704 50.9331C87.0476 50.6781 87.209 50.4558 87.429 50.3015C87.6458 50.144 87.9091 50.061 88.1784 50.0654H88.8849V59.9537H87.3082L87.3656 54.271L85.8688 59.086C85.79 59.3397 85.6299 59.5614 85.4124 59.7178C85.195 59.8743 84.932 59.9571 84.6628 59.9537H83.9502V50.0654H85.533ZM87.8652 48.0474L87.5969 48.5761C87.5136 48.7275 87.3924 48.8553 87.2448 48.9474C87.098 49.0416 86.9264 49.0914 86.7513 49.0907H85.2197V48.0474H87.8652ZM91.6081 58.3938H92.3145V51.5507C92.301 51.3523 92.3306 51.1534 92.4014 50.9673C92.4722 50.7812 92.5825 50.6121 92.725 50.4715C92.8676 50.3308 93.039 50.2218 93.2277 50.1518C93.4165 50.0817 93.6182 50.0523 93.8195 50.0654H97.0546V59.9537H91.086L91.6081 58.3938ZM95.476 58.3938V51.6152H94.3314C94.2733 51.6153 94.2159 51.6271 94.1627 51.65C94.1095 51.673 94.0617 51.7065 94.0222 51.7484C93.9799 51.7866 93.9462 51.833 93.9233 51.8848C93.9003 51.9366 93.8887 51.9926 93.8891 52.0491V58.3938H95.476ZM97.7488 51.7242C97.7341 51.4955 97.7689 51.2662 97.8511 51.0518C97.9333 50.8374 98.0608 50.6426 98.2253 50.4805C98.3897 50.3184 98.5873 50.1927 98.8049 50.1118C99.0225 50.0308 99.2551 49.9964 99.4872 50.0109H100.92C101.153 49.9964 101.385 50.0308 101.603 50.1118C101.82 50.1927 102.018 50.3184 102.182 50.4805C102.347 50.6426 102.474 50.8374 102.557 51.0518C102.639 51.2662 102.674 51.4955 102.659 51.7242V58.2848C102.674 58.5136 102.639 58.7428 102.557 58.9573C102.474 59.1717 102.347 59.3664 102.182 59.5285C102.018 59.6906 101.82 59.8163 101.603 59.8973C101.385 59.9782 101.153 60.0126 100.92 59.9981H99.4872C99.2551 60.0126 99.0225 59.9782 98.8049 59.8973C98.5873 59.8163 98.3897 59.6906 98.2253 59.5285C98.0608 59.3664 97.9333 59.1717 97.8511 58.9573C97.7689 58.7428 97.7341 58.5136 97.7488 58.2848V51.7242ZM99.7636 58.4483H100.636C100.694 58.4491 100.751 58.4384 100.805 58.4169C100.859 58.3954 100.908 58.3635 100.949 58.323C100.99 58.2826 101.022 58.2344 101.044 58.1814C101.066 58.1284 101.077 58.0716 101.076 58.0144V52.0511C101.081 51.985 101.072 51.9185 101.05 51.8557C101.029 51.793 100.994 51.7352 100.949 51.6859C100.908 51.6449 100.86 51.6127 100.806 51.5912C100.752 51.5697 100.694 51.5593 100.636 51.5608H99.7636C99.7054 51.5593 99.6476 51.5697 99.5937 51.5912C99.5398 51.6127 99.491 51.6449 99.4503 51.6859C99.4053 51.7352 99.3708 51.793 99.349 51.8557C99.3272 51.9185 99.3184 51.985 99.3233 52.0511V58.0144C99.3225 58.0716 99.3333 58.1284 99.3552 58.1814C99.377 58.2344 99.4094 58.2826 99.4504 58.323C99.4915 58.3635 99.5404 58.3954 99.5941 58.4169C99.6479 58.4384 99.7055 58.4491 99.7636 58.4483ZM103.48 59.9356V50.0472H105.118C105.377 50.0397 105.629 50.1266 105.826 50.2914C106.022 50.4601 106.146 50.6948 106.174 50.9493L107.043 57.1103L107.907 50.9675C107.935 50.713 108.059 50.4782 108.255 50.3096C108.452 50.1448 108.705 50.0578 108.963 50.0654H110.601V59.9537H108.963L109.148 52.3397L107.878 59.9356H106.195L104.932 52.3215L105.116 59.9356H103.48ZM114.719 50.0472V53.9905L116.169 50.9735C116.3 50.6922 116.514 50.4566 116.783 50.2975C117.049 50.1336 117.356 50.0469 117.67 50.0472H118.587L116.439 54.1398L118.466 59.9356H116.726L115.391 56.1397L114.719 57.4312V59.9356H113.144V50.0472H114.719ZM120.106 51.2782C120.157 50.9293 120.331 50.6094 120.6 50.3762C120.872 50.1456 121.222 50.0233 121.58 50.0331H122.717L124.287 59.9356H122.649L122.381 58.0427H120.63L120.372 59.9356H118.734L120.102 51.3024L120.106 51.2782ZM120.86 56.5049H122.172L121.521 51.9422L120.86 56.5049ZM124.771 59.9356V50.0472H126.409C126.668 50.0381 126.92 50.1262 127.116 50.2936C127.312 50.461 127.436 50.6953 127.463 50.9493L128.331 57.1103L129.191 50.9695C129.219 50.7155 129.343 50.4812 129.538 50.3138C129.734 50.1464 129.987 50.0583 130.246 50.0674H131.884V59.9558H130.246L130.432 52.3417L129.167 59.9356H127.486L126.22 52.3215L126.407 59.9356H124.771ZM132.637 50.0472H134.21V54.2185H135.811V50.0654H137.392V59.9537H135.819V55.7966H134.218V59.9356H132.645L132.637 50.0472ZM137.904 59.9356L139.165 55.6735C138.89 55.5816 138.655 55.4019 138.495 55.1629C138.326 54.9011 138.242 54.5952 138.252 54.2851V51.5648C138.243 51.3666 138.274 51.1686 138.344 50.9828C138.415 50.7969 138.523 50.627 138.661 50.4831C138.806 50.3462 138.978 50.2398 139.166 50.1704C139.354 50.101 139.554 50.0701 139.755 50.0795H143V59.9356H141.425V55.7784H140.844L139.769 59.3867C139.728 59.5482 139.632 59.6909 139.497 59.7903C139.361 59.8872 139.197 59.9382 139.03 59.9356H137.904ZM139.824 52.2045V53.6595C139.82 53.7357 139.832 53.8119 139.86 53.8834C139.887 53.9549 139.928 54.0201 139.982 54.0752C140.039 54.1278 140.106 54.1685 140.18 54.1949C140.254 54.2213 140.332 54.2327 140.41 54.2286H141.434V51.6294H140.41C140.332 51.6252 140.254 51.6367 140.18 51.6631C140.106 51.6894 140.039 51.7301 139.982 51.7827C139.928 51.8378 139.887 51.9031 139.86 51.9746C139.832 52.0461 139.82 52.1222 139.824 52.1985V52.2045Z" fill="black"/>
<path d="M26.774 14.2695L38.7686 28.5915L20.3856 59.9738H0L26.774 14.2695Z" fill="url(#paint0_linear_422_16)"/>
<path d="M49.6662 14.2695H26.7744L53.8576 46.6064L63.2784 30.5227L49.6662 14.2695Z" fill="url(#paint1_linear_422_16)"/>
<path d="M81.1576 0L93.1543 14.3219L74.2471 46.5962L53.8574 46.6063L81.1576 0Z" fill="url(#paint2_linear_422_16)"/>
<path d="M104.05 0H81.1577L120.193 46.6043H142.998L104.05 0Z" fill="url(#paint3_linear_422_16)"/>
</g>
<defs>
<linearGradient id="paint0_linear_422_16" x1="19.4114" y1="42.3001" x2="19.3022" y2="77.3098" gradientUnits="userSpaceOnUse">
<stop stop-color="#4F0D0D"/>
<stop offset="0.26" stop-color="#631414"/>
<stop offset="1" stop-color="#871E1E"/>
</linearGradient>
<linearGradient id="paint1_linear_422_16" x1="64633.7" y1="-123506" x2="69123.8" y2="-73066.2" gradientUnits="userSpaceOnUse">
<stop stop-color="#4F0D0D"/>
<stop offset="0.26" stop-color="#631414"/>
<stop offset="1" stop-color="#871E1E"/>
</linearGradient>
<linearGradient id="paint2_linear_422_16" x1="154598" y1="-141255" x2="154153" y2="-259040" gradientUnits="userSpaceOnUse">
<stop stop-color="#4F0D0D"/>
<stop offset="0.26" stop-color="#631414"/>
<stop offset="1" stop-color="#871E1E"/>
</linearGradient>
<linearGradient id="paint3_linear_422_16" x1="410947" y1="-164951" x2="417723" y2="-59785.7" gradientUnits="userSpaceOnUse">
<stop stop-color="#4F0D0D"/>
<stop offset="0.26" stop-color="#631414"/>
<stop offset="1" stop-color="#871E1E"/>
</linearGradient>
<clipPath id="clip0_422_16">
<rect width="143" height="60" fill="white"/>
</clipPath>
</defs>
</svg>
