<svg width="8" height="8" viewBox="0 0 8 8" fill="none" xmlns="http://www.w3.org/2000/svg">
<g clip-path="url(#clip0_349_6855)">
<path d="M4.27406 6.5229L7.27406 2.18957C7.30866 2.13956 7.32892 2.08104 7.33265 2.02034C7.33638 1.95964 7.32343 1.89908 7.29521 1.84521C7.26699 1.79134 7.22457 1.74622 7.17255 1.71473C7.12052 1.68324 7.06087 1.66659 7.00006 1.66657L1.00006 1.66657C0.939217 1.66653 0.879525 1.68314 0.827452 1.7146C0.775379 1.74607 0.73291 1.79118 0.704648 1.84506C0.676387 1.89894 0.663411 1.95953 0.667126 2.02026C0.670841 2.08098 0.691106 2.13954 0.725725 2.18957L3.72573 6.5229C3.75654 6.56705 3.79755 6.6031 3.84528 6.628C3.89302 6.65289 3.94606 6.66589 3.99989 6.66589C4.05373 6.66589 4.10677 6.65289 4.1545 6.628C4.20223 6.6031 4.24325 6.56705 4.27406 6.5229Z" fill="#111111"/>
</g>
<defs>
<clipPath id="clip0_349_6855">
<rect width="8" height="8" fill="white" transform="translate(0 8) rotate(-90)"/>
</clipPath>
</defs>
</svg>
