<svg width="18" height="13" viewBox="0 0 18 13" fill="none" xmlns="http://www.w3.org/2000/svg">
<path d="M16.2165 0.00561923C16.1438 -0.00187308 16.0705 -0.00187308 15.9978 0.00561923H1.06153C0.965802 0.00709426 0.870708 0.0214481 0.778809 0.0482942L8.48698 7.72446L16.2165 0.00561923Z" fill="white"/>
<path d="M17.006 0.74707L9.23914 8.48192C9.03925 8.68062 8.76885 8.79216 8.48699 8.79216C8.20514 8.79216 7.93474 8.68062 7.73485 8.48192L0.0373407 0.805749C0.013677 0.892721 0.00113019 0.982341 0 1.07247V11.7412C0 12.0242 0.112403 12.2955 0.312481 12.4956C0.512559 12.6957 0.783922 12.8081 1.06688 12.8081H16.0031C16.2861 12.8081 16.5574 12.6957 16.7575 12.4956C16.9576 12.2955 17.07 12.0242 17.07 11.7412V1.07247C17.0658 0.961328 17.0442 0.851536 17.006 0.74707ZM1.79769 11.7412H1.05621V10.9784L4.9343 7.13232L5.68645 7.88447L1.79769 11.7412ZM15.9925 11.7412H15.2457L11.3569 7.88447L12.109 7.13232L15.9871 10.9784L15.9925 11.7412Z" fill="white"/>
</svg>
