<svg width="17" height="19" viewBox="0 0 17 19" fill="none" xmlns="http://www.w3.org/2000/svg">
<path d="M10.5838 9.5V17.7083C10.6255 18.0208 10.5213 18.3542 10.2818 18.5729C10.1854 18.6695 10.0709 18.7461 9.9449 18.7984C9.81889 18.8506 9.6838 18.8775 9.54738 18.8775C9.41095 18.8775 9.27587 18.8506 9.14985 18.7984C9.02384 18.7461 8.90937 18.6695 8.813 18.5729L6.71925 16.4792C6.60564 16.3681 6.51926 16.2323 6.46686 16.0823C6.41445 15.9323 6.39745 15.7722 6.41717 15.6146V9.5H6.38592L0.385919 1.8125C0.216761 1.59534 0.140434 1.32006 0.173615 1.0468C0.206797 0.773544 0.346789 0.524527 0.563003 0.354167C0.76092 0.208333 0.97967 0.125 1.20884 0.125H15.7922C16.0213 0.125 16.2401 0.208333 16.438 0.354167C16.6542 0.524527 16.7942 0.773544 16.8274 1.0468C16.8606 1.32006 16.7842 1.59534 16.6151 1.8125L10.6151 9.5H10.5838Z" fill="#111111"/>
</svg>
