<svg width="13" height="14" viewBox="0 0 13 14" fill="none" xmlns="http://www.w3.org/2000/svg">
<path d="M7.50083 7V12.91C7.53083 13.135 7.45583 13.375 7.28333 13.5325C7.21395 13.602 7.13153 13.6572 7.0408 13.6948C6.95007 13.7325 6.85281 13.7518 6.75458 13.7518C6.65635 13.7518 6.55909 13.7325 6.46836 13.6948C6.37763 13.6572 6.29522 13.602 6.22583 13.5325L4.71833 12.025C4.63653 11.945 4.57434 11.8472 4.5366 11.7392C4.49887 11.6313 4.48663 11.516 4.50083 11.4025V7H4.47833L0.158331 1.465C0.0365369 1.30865 -0.0184189 1.11044 0.00547166 0.913697C0.0293623 0.716951 0.130157 0.53766 0.285831 0.415C0.428331 0.31 0.585831 0.25 0.750831 0.25H11.2508C11.4158 0.25 11.5733 0.31 11.7158 0.415C11.8715 0.53766 11.9723 0.716951 11.9962 0.913697C12.0201 1.11044 11.9651 1.30865 11.8433 1.465L7.52333 7H7.50083Z" fill="#111111"/>
</svg>
