<svg width="13" height="13" viewBox="0 0 13 13" fill="none" xmlns="http://www.w3.org/2000/svg">
<path d="M6.49825 4.33241C5.30472 4.33241 4.3307 5.30644 4.3307 6.5C4.3307 7.69356 5.30472 8.66759 6.49825 8.66759C7.69179 8.66759 8.6658 7.69356 8.6658 6.5C8.6658 5.30644 7.69179 4.33241 6.49825 4.33241ZM12.9993 6.5C12.9993 5.60239 13.0074 4.71292 12.957 3.81694C12.9066 2.77623 12.6692 1.85261 11.9082 1.0916C11.1456 0.328955 10.2236 0.0931713 9.18289 0.0427622C8.2853 -0.00764684 7.39584 0.000483674 6.49988 0.000483674C5.60229 0.000483674 4.71283 -0.00764684 3.81687 0.0427622C2.77618 0.0931713 1.85258 0.330582 1.09158 1.0916C0.328949 1.85424 0.0931695 2.77623 0.0427614 3.81694C-0.0076467 4.71454 0.000483665 5.60402 0.000483665 6.5C0.000483665 7.39598 -0.0076467 8.28708 0.0427614 9.18306C0.0931695 10.2238 0.330576 11.1474 1.09158 11.9084C1.8542 12.671 2.77618 12.9068 3.81687 12.9572C4.71446 13.0076 5.60391 12.9995 6.49988 12.9995C7.39747 12.9995 8.28693 13.0076 9.18289 12.9572C10.2236 12.9068 11.1472 12.6694 11.9082 11.9084C12.6708 11.1458 12.9066 10.2238 12.957 9.18306C13.009 8.28708 12.9993 7.39761 12.9993 6.5ZM6.49825 9.83513C4.65267 9.83513 3.16319 8.34562 3.16319 6.5C3.16319 4.65438 4.65267 3.16487 6.49825 3.16487C8.34384 3.16487 9.83332 4.65438 9.83332 6.5C9.83332 8.34562 8.34384 9.83513 6.49825 9.83513ZM9.96991 3.80718C9.539 3.80718 9.19102 3.4592 9.19102 3.02828C9.19102 2.59736 9.539 2.24938 9.96991 2.24938C10.4008 2.24938 10.7488 2.59736 10.7488 3.02828C10.7489 3.1306 10.7289 3.23195 10.6898 3.3265C10.6507 3.42106 10.5933 3.50698 10.521 3.57933C10.4486 3.65169 10.3627 3.70905 10.2681 3.74815C10.1736 3.78725 10.0722 3.80731 9.96991 3.80718Z" fill="white"/>
</svg>
