<svg width="12" height="12" viewBox="0 0 12 12" fill="none" xmlns="http://www.w3.org/2000/svg">
<path d="M6.00005 4.43805C5.1399 4.43805 4.43795 5.14 4.43795 6.00016C4.43795 6.86032 5.1399 7.56227 6.00005 7.56227C6.86021 7.56227 7.56216 6.86032 7.56216 6.00016C7.56216 5.14 6.86021 4.43805 6.00005 4.43805ZM10.6852 6.00016C10.6852 5.35328 10.6911 4.71227 10.6547 4.06657C10.6184 3.31657 10.4473 2.65094 9.89888 2.1025C9.34927 1.55289 8.68482 1.38297 7.93482 1.34664C7.28794 1.31032 6.64693 1.31617 6.00123 1.31617C5.35435 1.31617 4.71334 1.31032 4.06763 1.34664C3.31763 1.38297 2.65201 1.55407 2.10357 2.1025C1.55396 2.65211 1.38404 3.31657 1.34771 4.06657C1.31138 4.71344 1.31724 5.35446 1.31724 6.00016C1.31724 6.64586 1.31138 7.28805 1.34771 7.93375C1.38404 8.68375 1.55513 9.34938 2.10357 9.89782C2.65318 10.4474 3.31763 10.6173 4.06763 10.6537C4.71451 10.69 5.35552 10.6841 6.00123 10.6841C6.6481 10.6841 7.28912 10.69 7.93482 10.6537C8.68482 10.6173 9.35044 10.4463 9.89888 9.89782C10.4485 9.34821 10.6184 8.68375 10.6547 7.93375C10.6922 7.28805 10.6852 6.64703 10.6852 6.00016ZM6.00005 8.40367C4.66998 8.40367 3.59654 7.33024 3.59654 6.00016C3.59654 4.67008 4.66998 3.59664 6.00005 3.59664C7.33013 3.59664 8.40357 4.67008 8.40357 6.00016C8.40357 7.33024 7.33013 8.40367 6.00005 8.40367ZM8.50201 4.05953C8.19146 4.05953 7.94068 3.80875 7.94068 3.49821C7.94068 3.18766 8.19146 2.93688 8.50201 2.93688C8.81255 2.93688 9.06334 3.18766 9.06334 3.49821C9.06343 3.57195 9.04897 3.64498 9.02079 3.71313C8.99262 3.78127 8.95127 3.84319 8.89913 3.89533C8.84699 3.94747 8.78507 3.98882 8.71693 4.01699C8.64878 4.04517 8.57575 4.05963 8.50201 4.05953Z" fill="#E53100"/>
</svg>
