<svg width="24" height="24" viewBox="0 0 24 24" fill="none" xmlns="http://www.w3.org/2000/svg">
<path d="M11.0001 21.9912C5.94719 21.4872 2.0001 17.2062 2.0001 12C2.0001 6.79319 5.94719 2.5116 11.0001 2.00761V0C4.842 0.511798 0 5.6835 0 12C0 18.3156 4.842 23.4894 11.0001 24V21.9912Z" fill="white"/>
<path d="M12.9999 0V2.00761C18.0549 2.5116 21.9999 6.7929 21.9999 12C21.9999 17.2062 18.0549 21.4872 12.9999 21.9912V24C19.1592 23.4894 24 18.3156 24 12C24 5.6835 19.1592 0.511798 12.9999 0Z" fill="white"/>
<path d="M12 6C9.0273 6 6.5664 8.16301 6.09001 11.0001H4.06921C4.5624 7.0548 7.9218 3.9999 12 3.9999C16.0803 3.9999 19.4385 7.0548 19.9305 11.0001H17.91C17.4336 8.16301 14.9727 6 12 6Z" fill="white"/>
<path d="M17.91 12.9999C17.4336 15.8358 14.9727 18 12 18C9.0273 18 6.5664 15.8358 6.09 12.9999H4.0695C4.5624 16.9452 7.9218 20.0001 12 20.0001C16.0803 20.0001 19.4385 16.9452 19.9308 12.9999H17.91Z" fill="white"/>
<path fill-rule="evenodd" clip-rule="evenodd" d="M8.0001 12C8.0001 9.79109 9.79109 8.0001 12 8.0001C14.2098 8.0001 15.9999 9.79109 15.9999 12C15.9999 14.2089 14.2098 15.9999 12 15.9999C9.79109 15.9999 8.0001 14.2089 8.0001 12ZM9.9999 12C9.9999 13.1046 10.8954 14.0001 12 14.0001C13.1055 14.0001 14.0001 13.1046 14.0001 12C14.0001 10.8954 13.1055 9.9999 12 9.9999C10.8954 9.9999 9.9999 10.8954 9.9999 12Z" fill="white"/>
</svg>
