<svg width="24" height="24" viewBox="0 0 24 24" fill="none" xmlns="http://www.w3.org/2000/svg">
<path d="M5.0001 0C2.2383 0 0 2.2383 0 5.0001C0 7.7619 2.2383 10.0002 5.0001 10.0002C7.7607 10.0002 10.0002 7.7607 10.0002 5.0001C9.9999 2.2392 7.7604 0 5.0001 0ZM5.0001 8.0001C3.3426 8.0001 2.0001 6.6573 2.0001 5.0001C2.0001 3.3426 3.3426 2.0001 5.0001 2.0001C6.6573 2.0001 8.0001 3.3426 8.0001 5.0001C8.0001 6.6573 6.6573 8.0001 5.0001 8.0001Z" fill="white"/>
<path d="M15.8678 4.55479L4.55453 15.8681L5.9688 17.2824L17.2821 5.96906L15.8678 4.55479Z" fill="white"/>
<path d="M20.1105 5.96774L5.96865 20.1096L7.38314 21.5241L21.525 7.38222L20.1105 5.96774Z" fill="white"/>
<path d="M8.0001 24H24V8.0001L8.0001 24ZM22.0002 22.0002H12.828L22.0002 12.8295V22.0002Z" fill="white"/>
</svg>
