<svg width="24" height="23" viewBox="0 0 24 23" fill="none" xmlns="http://www.w3.org/2000/svg">
<path d="M12 0H0V11.5C0 17.8509 5.373 23 12 23H24V11.5C24 5.14912 18.627 0 12 0ZM21.9999 21.0832H12C6.4863 21.0832 2.0001 16.784 2.0001 11.5V1.91676H12C17.5137 1.91676 21.9999 6.21632 21.9999 11.5V21.0832Z" fill="white"/>
<path d="M12 3.83324C7.5819 3.83324 3.9999 7.26599 3.9999 11.5C3.9999 15.734 7.5819 19.1668 12 19.1668C16.4181 19.1668 20.0001 15.734 20.0001 11.5C20.0001 7.26599 16.4181 3.83324 12 3.83324ZM12 17.25C8.6856 17.25 6 14.6754 6 11.5C6 8.32456 8.6856 5.75 12 5.75C15.3135 5.75 18 8.32456 18 11.5C18 14.6754 15.3135 17.25 12 17.25Z" fill="white"/>
<path d="M12 7.66676C9.7911 7.66676 8.0001 9.38313 8.0001 11.5C8.0001 13.6169 9.7911 15.3332 12 15.3332C14.2089 15.3332 15.9999 13.6169 15.9999 11.5C15.9999 9.38313 14.2089 7.66676 12 7.66676ZM12 13.4168C10.8954 13.4168 9.9999 12.5586 9.9999 11.5C9.9999 10.4414 10.8954 9.58323 12 9.58323C13.1046 9.58323 14.0001 10.4414 14.0001 11.5C14.0001 12.5586 13.1046 13.4168 12 13.4168Z" fill="white"/>
</svg>
