<svg width="17" height="17" viewBox="0 0 17 17" fill="none" xmlns="http://www.w3.org/2000/svg">
<path d="M12.75 6.90625H11.6875C11.6871 6.48369 11.519 6.07856 11.2202 5.77976C10.9214 5.48097 10.5163 5.31292 10.0938 5.3125V4.25C10.798 4.25084 11.4731 4.53097 11.9711 5.02893C12.469 5.52689 12.7492 6.20203 12.75 6.90625Z" fill="#111111"/>
<path d="M14.875 6.90625H13.8125C13.8114 5.92032 13.4192 4.9751 12.7221 4.27794C12.0249 3.58078 11.0797 3.18862 10.0938 3.1875V2.125C11.3614 2.12641 12.5767 2.6306 13.4731 3.52695C14.3694 4.4233 14.8736 5.63862 14.875 6.90625Z" fill="#111111"/>
<path d="M10.8019 11.4123L11.9919 10.2223C12.1512 10.063 12.3537 9.95391 12.5744 9.90858C12.7951 9.86325 13.0242 9.88367 13.2334 9.96732L14.6827 10.5474C14.8963 10.6329 15.0794 10.7804 15.2083 10.9709C15.3373 11.1615 15.4062 11.3862 15.4062 11.6163V14.2518C15.4066 14.4085 15.375 14.5636 15.3134 14.7076C15.2517 14.8516 15.1613 14.9815 15.0478 15.0894C14.9342 15.1972 14.7998 15.2808 14.6528 15.3349C14.5058 15.389 14.3493 15.4126 14.1929 15.4041C4.03429 14.7719 1.9826 6.16782 1.6017 2.873C1.58325 2.71193 1.59911 2.54877 1.64824 2.39426C1.69737 2.23976 1.77866 2.0974 1.88675 1.97656C1.99484 1.85572 2.1273 1.75914 2.27539 1.69316C2.42349 1.62718 2.58388 1.5933 2.74601 1.59375H5.33479C5.56486 1.59375 5.78965 1.66267 5.98017 1.79164C6.17069 1.92062 6.3182 2.10371 6.40367 2.31732L6.98326 3.76657C7.0669 3.97576 7.08733 4.2049 7.042 4.42558C6.99667 4.64627 6.88759 4.84881 6.72826 5.0081L5.53826 6.1981C5.53826 6.1981 6.19807 10.837 10.8019 11.4123Z" fill="#111111"/>
</svg>
