<svg width="21" height="21" viewBox="0 0 21 21" fill="none" xmlns="http://www.w3.org/2000/svg">
<path d="M8.75014 2.1875C9.97337 2.18745 11.1723 2.52929 12.2115 3.17443C13.2508 3.81958 14.0891 4.74235 14.6318 5.83862C15.1744 6.93488 15.3999 8.161 15.2827 9.37861C15.1656 10.5962 14.7104 11.7568 13.9686 12.7295L18.1188 16.8814C18.2757 17.0388 18.3668 17.2501 18.3736 17.4723C18.3804 17.6945 18.3023 17.911 18.1553 18.0777C18.0083 18.2445 17.8033 18.349 17.582 18.3701C17.3607 18.3912 17.1396 18.3272 16.9638 18.1913L16.8815 18.1186L12.7296 13.9685C11.901 14.6003 10.9338 15.0258 9.90815 15.2096C8.88246 15.3934 7.82774 15.3303 6.83127 15.0256C5.83479 14.7208 4.92521 14.1832 4.17779 13.4571C3.43037 12.731 2.86659 11.8374 2.53312 10.8502C2.19964 9.86293 2.10605 8.81048 2.26009 7.7799C2.41413 6.74931 2.81137 5.77022 3.41894 4.92365C4.02651 4.07707 4.82694 3.38735 5.75401 2.91155C6.68107 2.43575 7.70811 2.18755 8.75014 2.1875ZM8.75014 3.9375C7.47379 3.9375 6.24971 4.44453 5.34719 5.34705C4.44467 6.24957 3.93764 7.47365 3.93764 8.75C3.93764 10.0264 4.44467 11.2504 5.34719 12.153C6.24971 13.0555 7.47379 13.5625 8.75014 13.5625C10.0265 13.5625 11.2506 13.0555 12.1531 12.153C13.0556 11.2504 13.5626 10.0264 13.5626 8.75C13.5626 7.47365 13.0556 6.24957 12.1531 5.34705C11.2506 4.44453 10.0265 3.9375 8.75014 3.9375Z" fill="#111111"/>
</svg>
