<svg width="15" height="16" viewBox="0 0 15 16" fill="none" xmlns="http://www.w3.org/2000/svg">
<path d="M13.4869 4.91C13.5744 4.61938 13.4869 4.40625 13.0731 4.40625H11.7025C11.3538 4.40625 11.1944 4.59063 11.1069 4.79313C11.1069 4.79313 10.41 6.4925 9.4225 7.59438C9.10375 7.915 8.95813 8.01625 8.78438 8.01625C8.6975 8.01625 8.57125 7.915 8.57125 7.62438V4.91C8.57125 4.56125 8.47063 4.40625 8.18 4.40625H6.02625C5.80875 4.40625 5.6775 4.5675 5.6775 4.72125C5.6775 5.05125 6.17125 5.1275 6.22188 6.0575V8.075C6.22188 8.51688 6.1425 8.5975 5.9675 8.5975C5.50313 8.5975 4.37312 6.89188 3.7025 4.93938C3.57187 4.56 3.44 4.40688 3.09 4.40688H1.72C1.32813 4.40688 1.25 4.59125 1.25 4.79375C1.25 5.1575 1.71438 6.9575 3.41313 9.33813C4.54562 10.9638 6.14 11.845 7.5925 11.845C8.46312 11.845 8.57063 11.6494 8.57063 11.3119V10.0831C8.57063 9.69188 8.65375 9.61313 8.92937 9.61313C9.13188 9.61313 9.48062 9.71563 10.2937 10.4988C11.2225 11.4275 11.3763 11.8444 11.8981 11.8444H13.2681C13.6594 11.8444 13.855 11.6488 13.7425 11.2625C13.6194 10.8781 13.1756 10.3188 12.5869 9.65688C12.2669 9.27938 11.7887 8.87313 11.6431 8.67C11.44 8.40813 11.4987 8.2925 11.6431 8.06C11.6438 8.06063 13.3131 5.70938 13.4869 4.91Z" fill="white"/>
</svg>
