<svg width="12" height="13" viewBox="0 0 12 13" fill="none" xmlns="http://www.w3.org/2000/svg">
<path d="M10.7895 3.92758C10.8595 3.69508 10.7895 3.52458 10.4585 3.52458H9.362C9.083 3.52458 8.9555 3.67208 8.8855 3.83408C8.8855 3.83408 8.328 5.19358 7.538 6.07508C7.283 6.33158 7.1665 6.41258 7.0275 6.41258C6.958 6.41258 6.857 6.33158 6.857 6.09908V3.92758C6.857 3.64858 6.7765 3.52458 6.544 3.52458H4.821C4.647 3.52458 4.542 3.65358 4.542 3.77658C4.542 4.04058 4.937 4.10158 4.9775 4.84558V6.45958C4.9775 6.81308 4.914 6.87758 4.774 6.87758C4.4025 6.87758 3.4985 5.51308 2.962 3.95108C2.8575 3.64758 2.752 3.52508 2.472 3.52508H1.376C1.0625 3.52508 1 3.67258 1 3.83458C1 4.12558 1.3715 5.56558 2.7305 7.47008C3.6365 8.77058 4.912 9.47558 6.074 9.47558C6.7705 9.47558 6.8565 9.31908 6.8565 9.04908V8.06608C6.8565 7.75308 6.923 7.69008 7.1435 7.69008C7.3055 7.69008 7.5845 7.77208 8.235 8.39858C8.978 9.14158 9.101 9.47508 9.5185 9.47508H10.6145C10.9275 9.47508 11.084 9.31858 10.994 9.00958C10.8955 8.70208 10.5405 8.25458 10.0695 7.72508C9.8135 7.42308 9.431 7.09808 9.3145 6.93558C9.152 6.72608 9.199 6.63358 9.3145 6.44758C9.315 6.44808 10.6505 4.56708 10.7895 3.92758Z" fill="#E53100"/>
</svg>
